G04 This is an RS-274x file exported by *
G04 gerbv version 2.8.0-rc.1~d7f42a *
G04 More information is available about gerbv at *
G04 https://gerbv.github.io/ *
G04 --End of header info--*
%MOIN*%
%FSLAX36Y36*%
%IPPOS*%
G04 --Define apertures--*
%ADD10C,0.0150*%
%ADD11C,0.0080*%
%ADD12C,0.0060*%
%ADD13C,0.0100*%
%ADD14C,0.0394*%
%ADD15R,0.0394X0.0374*%
%ADD16R,0.0374X0.0394*%
%ADD17R,0.0630X0.2087*%
%ADD18R,0.0650X0.0650*%
%ADD19C,0.0650*%
%ADD20C,0.0200*%
%ADD21C,0.0300*%
%ADD22R,0.0610X0.0610*%
%ADD23C,0.0610*%
%ADD24C,0.0827*%
%AMMACRO25*
21,1,0.082680,0.041340,0.000000,0.000000,180.000000*
21,1,0.041340,0.082680,0.000000,0.000000,180.000000*
1,1,0.041340,-0.020670,0.020670*
1,1,0.041340,0.020670,0.020670*
1,1,0.041340,0.020670,-0.020670*
1,1,0.041340,-0.020670,-0.020670*
%
%ADD25MACRO25*%
%AMMACRO26*
21,1,0.082680,0.041340,0.000000,0.000000,270.000000*
21,1,0.041340,0.082680,0.000000,0.000000,270.000000*
1,1,0.041340,-0.020670,-0.020670*
1,1,0.041340,-0.020670,0.020670*
1,1,0.041340,0.020670,0.020670*
1,1,0.041340,0.020670,-0.020670*
%
%ADD26MACRO26*%
%ADD27R,0.0591X0.0591*%
%ADD28C,0.0591*%
%ADD29R,0.0650X0.0650*%
%AMMACRO30*
21,1,0.061020,0.057360,0.000000,0.000000,0.000000*
21,1,0.057360,0.061020,0.000000,0.000000,0.000000*
1,1,0.003660,0.028680,-0.028680*
1,1,0.003660,-0.028680,-0.028680*
1,1,0.003660,-0.028680,0.028680*
1,1,0.003660,0.028680,0.028680*
%
%ADD30MACRO30*%
%ADD31C,0.3150*%
%ADD32C,0.0800*%
%ADD33C,0.0240*%
%ADD34C,0.0197*%
%AMMACRO35*
21,1,0.015750,0.021650,0.000000,0.000000,0.000000*
21,1,0.011810,0.025590,0.000000,0.000000,0.000000*
1,1,0.003940,0.005910,-0.010830*
1,1,0.003940,-0.005910,-0.010830*
1,1,0.003940,-0.005910,0.010830*
1,1,0.003940,0.005910,0.010830*
%
%ADD35MACRO35*%
%ADD36R,0.0236X0.0197*%
%AMMACRO37*
21,1,0.033860,0.012250,0.000000,0.000000,90.000000*
21,1,0.026030,0.020080,0.000000,0.000000,90.000000*
1,1,0.007830,0.006120,0.013010*
1,1,0.007830,0.006120,-0.013010*
1,1,0.007830,-0.006120,-0.013010*
1,1,0.007830,-0.006120,0.013010*
%
%ADD37MACRO37*%
%AMMACRO38*
21,1,0.170870,0.204060,0.000000,0.000000,90.000000*
21,1,0.162320,0.212600,0.000000,0.000000,90.000000*
1,1,0.008540,0.102030,0.081160*
1,1,0.008540,0.102030,-0.081160*
1,1,0.008540,-0.102030,-0.081160*
1,1,0.008540,-0.102030,0.081160*
%
%ADD38MACRO38*%
%ADD39O,0.0236X0.0571*%
%AMMACRO40*
21,1,0.023620,0.035350,0.000000,0.000000,90.000000*
21,1,0.019610,0.039370,0.000000,0.000000,90.000000*
1,1,0.004020,0.017680,0.009800*
1,1,0.004020,0.017680,-0.009800*
1,1,0.004020,-0.017680,-0.009800*
1,1,0.004020,-0.017680,0.009800*
%
%ADD40MACRO40*%
%AMMACRO41*
21,1,0.039370,0.059060,0.000000,0.000000,180.000000*
21,1,0.035430,0.062990,0.000000,0.000000,180.000000*
1,1,0.003940,-0.017720,0.029530*
1,1,0.003940,0.017720,0.029530*
1,1,0.003940,0.017720,-0.029530*
1,1,0.003940,-0.017720,-0.029530*
%
%ADD41MACRO41*%
%AMMACRO42*
21,1,0.011810,0.013820,0.000000,0.000000,90.000000*
21,1,0.007910,0.017720,0.000000,0.000000,90.000000*
1,1,0.003900,0.006910,0.003960*
1,1,0.003900,0.006910,-0.003960*
1,1,0.003900,-0.006910,-0.003960*
1,1,0.003900,-0.006910,0.003960*
%
%ADD42MACRO42*%
%AMMACRO43*
21,1,0.023620,0.035350,0.000000,0.000000,180.000000*
21,1,0.019610,0.039370,0.000000,0.000000,180.000000*
1,1,0.004020,-0.009800,0.017680*
1,1,0.004020,0.009800,0.017680*
1,1,0.004020,0.009800,-0.017680*
1,1,0.004020,-0.009800,-0.017680*
%
%ADD43MACRO43*%
%ADD44O,0.0177X0.0532*%
%AMMACRO45*
21,1,0.011810,0.022480,0.000000,0.000000,0.000000*
21,1,0.007910,0.026380,0.000000,0.000000,0.000000*
1,1,0.003900,0.003960,-0.011240*
1,1,0.003900,-0.003960,-0.011240*
1,1,0.003900,-0.003960,0.011240*
1,1,0.003900,0.003960,0.011240*
%
%ADD45MACRO45*%
%ADD46O,0.0472X0.0158*%
%ADD47O,0.0177X0.0551*%
%ADD48R,0.0500X0.0630*%
%ADD49R,0.0630X0.0500*%
%ADD50R,0.0512X0.0728*%
%ADD51R,0.1221X0.1575*%
%AMMACRO52*
21,1,0.176770,0.176390,0.000000,0.000000,0.000000*
21,1,0.173240,0.179920,0.000000,0.000000,0.000000*
1,1,0.003540,0.086620,-0.088190*
1,1,0.003540,-0.086620,-0.088190*
1,1,0.003540,-0.086620,0.088190*
1,1,0.003540,0.086620,0.088190*
%
%ADD52MACRO52*%
%AMMACRO53*
21,1,0.035830,0.012250,0.000000,0.000000,0.000000*
21,1,0.028000,0.020080,0.000000,0.000000,0.000000*
1,1,0.007830,0.014000,-0.006120*
1,1,0.007830,-0.014000,-0.006120*
1,1,0.007830,-0.014000,0.006120*
1,1,0.007830,0.014000,0.006120*
%
%ADD53MACRO53*%
%AMMACRO54*
21,1,0.033860,0.012250,0.000000,0.000000,0.000000*
21,1,0.026030,0.020080,0.000000,0.000000,0.000000*
1,1,0.007830,0.013010,-0.006120*
1,1,0.007830,-0.013010,-0.006120*
1,1,0.007830,-0.013010,0.006120*
1,1,0.007830,0.013010,0.006120*
%
%ADD54MACRO54*%
%AMMACRO55*
21,1,0.170870,0.204060,0.000000,0.000000,0.000000*
21,1,0.162320,0.212600,0.000000,0.000000,0.000000*
1,1,0.008540,0.081160,-0.102030*
1,1,0.008540,-0.081160,-0.102030*
1,1,0.008540,-0.081160,0.102030*
1,1,0.008540,0.081160,0.102030*
%
%ADD55MACRO55*%
%AMMACRO56*
21,1,0.023620,0.027560,0.000000,0.000000,180.000000*
21,1,0.011810,0.039370,0.000000,0.000000,180.000000*
1,1,0.011810,-0.005910,0.013780*
1,1,0.011810,0.005910,0.013780*
1,1,0.011810,0.005910,-0.013780*
1,1,0.011810,-0.005910,-0.013780*
%
%ADD56MACRO56*%
%ADD57R,0.0787X0.0787*%
%ADD58R,0.0787X0.0787*%
%ADD59R,0.0500X0.0300*%
%ADD60R,0.1000X0.1050*%
%ADD61R,0.0360X0.0480*%
%ADD62R,0.0850X0.1080*%
%ADD63R,0.0433X0.0630*%
%ADD64O,0.0158X0.0472*%
%ADD65R,0.2087X0.0630*%
%ADD66R,0.1339X0.0512*%
%ADD67R,0.0480X0.0360*%
%ADD68C,0.0500*%
%ADD69C,0.0600*%
G04 --Start main section--*
G36*
G01X3212190Y7024000D02*
G01X3222190Y7014000D01*
G01X3222190Y6728000D01*
G01X3210190Y6716000D01*
G01X3063190Y6716000D01*
G01X3046190Y6699000D01*
G01X3046190Y6555730D01*
G01X3043240Y6553760D01*
G01X3039490Y6548150D01*
G01X3038170Y6541530D01*
G01X3038170Y6482470D01*
G01X3039490Y6475850D01*
G01X3043240Y6470240D01*
G01X3046190Y6468270D01*
G01X3046190Y6414000D01*
G01X3036190Y6404000D01*
G01X2815190Y6404000D01*
G01X2803190Y6416000D01*
G01X2803190Y6560000D01*
G01X2803190Y7010000D01*
G01X2817190Y7024000D01*
G01X3212190Y7024000D01*
G37*
G36*
G01X3212190Y7024000D02*
G37*
G36*
G01X3727190Y7004000D02*
G01X3727190Y6739000D01*
G01X3704190Y6716000D01*
G01X3431190Y6716000D01*
G01X3284190Y6716000D01*
G01X3272190Y6728000D01*
G01X3272190Y7009000D01*
G01X3282190Y7019000D01*
G01X3712190Y7019000D01*
G01X3727190Y7004000D01*
G37*
G36*
G01X3727190Y7004000D02*
G37*
G36*
G01X2659190Y7007000D02*
G01X2659190Y6818000D01*
G01X2659190Y6713000D01*
G01X2648190Y6702000D01*
G01X2244190Y6702000D01*
G01X2232190Y6690000D01*
G01X2187190Y6645000D01*
G01X2171190Y6645000D01*
G01X1749190Y6645000D01*
G01X1730190Y6664000D01*
G01X1730190Y7002000D01*
G01X1752190Y7024000D01*
G01X2642190Y7024000D01*
G01X2659190Y7007000D01*
G37*
G36*
G01X2659190Y7007000D02*
G37*
G36*
G01X3211190Y6565000D02*
G01X3218190Y6558000D01*
G01X3218190Y6555070D01*
G01X3213030Y6547350D01*
G01X3211090Y6537590D01*
G01X3211090Y6512000D01*
G01X3211090Y6486410D01*
G01X3211090Y6444000D01*
G01X3073190Y6444000D01*
G01X3066580Y6450610D01*
G01X3066580Y6468270D01*
G01X3066190Y6470240D01*
G01X3066190Y6472250D01*
G01X3065420Y6474100D01*
G01X3065030Y6476070D01*
G01X3063910Y6477740D01*
G01X3063140Y6479600D01*
G01X3061720Y6481020D01*
G01X3060610Y6482690D01*
G01X3060290Y6482900D01*
G01X3060290Y6486410D01*
G01X3060290Y6512000D01*
G01X3060290Y6537590D01*
G01X3060290Y6541100D01*
G01X3060610Y6541310D01*
G01X3061720Y6542980D01*
G01X3063140Y6544400D01*
G01X3063910Y6546260D01*
G01X3065030Y6547930D01*
G01X3065420Y6549900D01*
G01X3066190Y6551750D01*
G01X3066190Y6553760D01*
G01X3066580Y6555730D01*
G01X3066580Y6561390D01*
G01X3070190Y6565000D01*
G01X3211190Y6565000D01*
G37*
G36*
G01X3211190Y6565000D02*
G37*
G36*
G01X3766410Y6568780D02*
G01X3766410Y6439820D01*
G01X3759190Y6432610D01*
G01X3651580Y6432610D01*
G01X3640190Y6444000D01*
G01X3640190Y6564000D01*
G01X3647190Y6571000D01*
G01X3764190Y6571000D01*
G01X3766410Y6568780D01*
G37*
G36*
G01X3766410Y6568780D02*
G37*
G36*
G01X4069380Y6840890D02*
G01X4077700Y6816370D01*
G01X4089150Y6793160D01*
G01X4103530Y6771630D01*
G01X4120600Y6752170D01*
G01X4122190Y6750770D01*
G01X4122190Y6454000D01*
G01X4096190Y6428000D01*
G01X3931190Y6428000D01*
G01X3826190Y6428000D01*
G01X3817190Y6437000D01*
G01X3817190Y6633000D01*
G01X3817190Y6847000D01*
G01X3836190Y6866000D01*
G01X4064380Y6866000D01*
G01X4069380Y6840890D01*
G37*
G36*
G01X4069380Y6840890D02*
G37*
G36*
G01X3325190Y6520000D02*
G01X3325190Y6414000D01*
G01X3323680Y6412490D01*
G01X3229700Y6412490D01*
G01X3226190Y6416000D01*
G01X3226190Y6430610D01*
G01X3229920Y6436200D01*
G01X3231480Y6444000D01*
G01X3231480Y6475230D01*
G01X3231890Y6475850D01*
G01X3233210Y6482470D01*
G01X3233210Y6540840D01*
G01X3235140Y6543740D01*
G01X3235910Y6545600D01*
G01X3237030Y6547270D01*
G01X3237420Y6549240D01*
G01X3238190Y6551100D01*
G01X3238190Y6553100D01*
G01X3238580Y6555070D01*
G01X3238580Y6558000D01*
G01X3237960Y6561130D01*
G01X3241130Y6565000D01*
G01X3280190Y6565000D01*
G01X3325190Y6520000D01*
G37*
G36*
G01X3325190Y6520000D02*
G37*
G36*
G01X1937190Y6594000D02*
G01X1942190Y6589000D01*
G01X1942190Y6494000D01*
G01X1952190Y6484000D01*
G01X1952190Y6399000D01*
G01X1947190Y6394000D01*
G01X1832190Y6394000D01*
G01X1822190Y6404000D01*
G01X1822190Y6584000D01*
G01X1832190Y6594000D01*
G01X1937190Y6594000D01*
G37*
G36*
G01X1937190Y6594000D02*
G37*
G36*
G01X1801800Y6484390D02*
G01X1801800Y6404000D01*
G01X1802190Y6402030D01*
G01X1802190Y6354000D01*
G01X1842190Y6314000D01*
G01X1862190Y6294000D01*
G01X1862190Y6259000D01*
G01X1862190Y6234000D01*
G01X1847190Y6219000D01*
G01X1697190Y6219000D01*
G01X1687190Y6229000D01*
G01X1687190Y6484000D01*
G01X1692190Y6489000D01*
G01X1797190Y6489000D01*
G01X1801800Y6484390D01*
G37*
G36*
G01X1801800Y6484390D02*
G37*
G36*
G01X2757190Y6565000D02*
G01X2757190Y6276000D01*
G01X2814190Y6219000D01*
G01X2814190Y6001000D01*
G01X2799190Y5986000D01*
G01X2369190Y5986000D01*
G01X2354190Y6001000D01*
G01X2354190Y6533000D01*
G01X2395190Y6574000D01*
G01X2748190Y6574000D01*
G01X2757190Y6565000D01*
G37*
G36*
G01X2757190Y6565000D02*
G37*
G36*
G01X2505190Y5725000D02*
G01X2505190Y5656000D01*
G01X2505190Y5617000D01*
G01X2499190Y5611000D01*
G01X2280190Y5611000D01*
G01X2275190Y5616000D01*
G01X2271190Y5620000D01*
G01X2271190Y5669000D01*
G01X2271190Y5711000D01*
G01X2271190Y5722000D01*
G01X2280190Y5731000D01*
G01X2499190Y5731000D01*
G01X2505190Y5725000D01*
G37*
G36*
G01X2505190Y5725000D02*
G37*
G36*
G01X3424300Y5717140D02*
G01X3429300Y5712140D01*
G01X3433300Y5708140D01*
G01X3433300Y5659140D01*
G01X3433300Y5617140D01*
G01X3433300Y5606140D01*
G01X3424300Y5597140D01*
G01X3205300Y5597140D01*
G01X3199300Y5603140D01*
G01X3199300Y5672140D01*
G01X3199300Y5711140D01*
G01X3205300Y5717140D01*
G01X3424300Y5717140D01*
G37*
G36*
G01X3424300Y5717140D02*
G37*
G36*
G01X4287120Y5682070D02*
G01X4302190Y5667000D01*
G01X4302190Y5247000D01*
G01X4275260Y5220070D01*
G01X3226260Y5220070D01*
G01X3194190Y5188000D01*
G01X3194190Y5025000D01*
G01X3203190Y5016000D01*
G01X3255190Y5016000D01*
G01X3260800Y5010390D01*
G01X3260800Y4893610D01*
G01X3258260Y4891070D01*
G01X3190770Y4891070D01*
G01X3188770Y4889070D01*
G01X3013770Y4889070D01*
G01X3012770Y4890070D01*
G01X3012770Y5425070D01*
G01X3044770Y5457070D01*
G01X3399770Y5457070D01*
G01X3550770Y5608070D01*
G01X3624770Y5682070D01*
G01X4243770Y5682070D01*
G01X4287120Y5682070D01*
G37*
G36*
G01X4287120Y5682070D02*
G37*
G36*
G01X2084190Y5608000D02*
G01X2235190Y5457000D01*
G01X2590190Y5457000D01*
G01X2622190Y5425000D01*
G01X2622190Y4890000D01*
G01X2621190Y4889000D01*
G01X2446190Y4889000D01*
G01X2444190Y4891000D01*
G01X2444190Y4938000D01*
G01X2439190Y4943000D01*
G01X2373190Y4943000D01*
G01X2370190Y4946000D01*
G01X2370190Y5055000D01*
G01X2370190Y5174000D01*
G01X2324190Y5220000D01*
G01X1332190Y5220000D01*
G01X1308190Y5244000D01*
G01X1308190Y5653000D01*
G01X1307190Y5654000D01*
G01X1335190Y5682000D01*
G01X2010190Y5682000D01*
G01X2084190Y5608000D01*
G37*
G36*
G01X2084190Y5608000D02*
G37*
G36*
G01X1917190Y4558000D02*
G01X1928190Y4547000D01*
G01X1928190Y4327000D01*
G01X1922190Y4321000D01*
G01X1813190Y4321000D01*
G01X1808190Y4321000D01*
G01X1802190Y4327000D01*
G01X1802190Y4329000D01*
G01X1802190Y4550000D01*
G01X1810190Y4558000D01*
G01X1854190Y4558000D01*
G01X1917190Y4558000D01*
G37*
G36*
G01X1917190Y4558000D02*
G37*
G36*
G01X1753190Y4544000D02*
G01X1754190Y4543000D01*
G01X1754190Y4452000D01*
G01X1754190Y4252000D01*
G01X1752190Y4250000D01*
G01X1553190Y4250000D01*
G01X1525190Y4222000D01*
G01X1326190Y4222000D01*
G01X1308190Y4240000D01*
G01X1308190Y4540000D01*
G01X1326190Y4558000D01*
G01X1739190Y4558000D01*
G01X1753190Y4544000D01*
G37*
G36*
G01X1753190Y4544000D02*
G37*
G36*
G01X2267190Y6549000D02*
G01X2267190Y5979000D01*
G01X2332190Y5914000D01*
G01X2842190Y5914000D01*
G01X2872190Y5944000D01*
G01X2872190Y6220000D01*
G01X2884190Y6232000D01*
G01X3248190Y6232000D01*
G01X3273190Y6207000D01*
G01X3273190Y5855000D01*
G01X3177190Y5759000D01*
G01X3177190Y5534000D01*
G01X3137190Y5494000D01*
G01X3022190Y5494000D01*
G01X2982190Y5454000D01*
G01X2982190Y5152000D01*
G01X2907190Y5077000D01*
G01X2907190Y5029000D01*
G01X2922190Y5014000D01*
G01X2923190Y5015000D01*
G01X2964450Y5015000D01*
G01X2964450Y5006740D01*
G01X2964450Y4856800D01*
G01X2966190Y4848020D01*
G01X2967190Y4846530D01*
G01X2967190Y4689000D01*
G01X2994190Y4662000D01*
G01X3139190Y4662000D01*
G01X3149190Y4652000D01*
G01X3149190Y4132000D01*
G01X3123190Y4106000D01*
G01X2417190Y4106000D01*
G01X2403190Y4120000D01*
G01X2403190Y4650000D01*
G01X2422190Y4669000D01*
G01X2682190Y4669000D01*
G01X2707190Y4694000D01*
G01X2707190Y4856000D01*
G01X2718190Y4867000D01*
G01X2718190Y4938000D01*
G01X2712190Y4944000D01*
G01X2669190Y4944000D01*
G01X2664190Y4949000D01*
G01X2664190Y5577000D01*
G01X2647190Y5594000D01*
G01X2542190Y5594000D01*
G01X2527190Y5609000D01*
G01X2527190Y5734000D01*
G01X2507190Y5754000D01*
G01X2117190Y5754000D01*
G01X1997190Y5874000D01*
G01X1997190Y6519000D01*
G01X1967190Y6549000D01*
G01X1967190Y6589000D01*
G01X1972190Y6594000D01*
G01X2222190Y6594000D01*
G01X2267190Y6549000D01*
G37*
G36*
G01X2267190Y6549000D02*
G37*
G36*
G01X4023190Y5066000D02*
G01X4023190Y4968280D01*
G01X4011210Y4968280D01*
G01X4011210Y4840810D01*
G01X4010890Y4840810D01*
G01X4010890Y4567190D01*
G01X4023190Y4567190D01*
G01X4023190Y4177000D01*
G01X3949190Y4103000D01*
G01X3387190Y4103000D01*
G01X3303190Y4103000D01*
G01X3286190Y4120000D01*
G01X3286190Y4309000D01*
G01X3286190Y4313000D01*
G01X3286190Y4652000D01*
G01X3299190Y4665000D01*
G01X3299190Y4767500D01*
G01X3301190Y4767500D01*
G01X3301190Y4832030D01*
G01X3301580Y4834000D01*
G01X3301580Y5043000D01*
G01X3300030Y5050800D01*
G01X3299190Y5052060D01*
G01X3299190Y5066000D01*
G01X3299190Y5086000D01*
G01X3302190Y5089000D01*
G01X4000190Y5089000D01*
G01X4023190Y5066000D01*
G37*
G36*
G01X4023190Y5066000D02*
G37*
G36*
G01X2328190Y5114000D02*
G01X2328190Y4931000D01*
G01X2328190Y4909000D01*
G01X2325190Y4906000D01*
G01X2265190Y4846000D01*
G01X2265190Y4242000D01*
G01X2265190Y4241000D01*
G01X2265190Y4127000D01*
G01X1997190Y3859000D01*
G01X1756190Y3859000D01*
G01X1740190Y3875000D01*
G01X1740190Y4096000D01*
G01X1746190Y4102000D01*
G01X1869190Y4102000D01*
G01X1995340Y4228160D01*
G01X1997060Y4229620D01*
G01X2005960Y4237230D01*
G01X2005960Y4237230D01*
G01X2005960Y4237230D01*
G01X2011960Y4243230D01*
G01X2018620Y4251020D01*
G01X2021030Y4253840D01*
G01X2048190Y4281000D01*
G01X2048190Y4642000D01*
G01X1973190Y4717000D01*
G01X1342190Y4717000D01*
G01X1308190Y4751000D01*
G01X1308190Y5100000D01*
G01X1314190Y5106000D01*
G01X1340190Y5132000D01*
G01X2310190Y5132000D01*
G01X2328190Y5114000D01*
G37*
G36*
G01X2328190Y5114000D02*
G37*
G36*
G01X1696190Y4052000D02*
G01X1696190Y3935000D01*
G01X1696190Y3794000D01*
G01X1690190Y3788000D01*
G01X1673190Y3771000D01*
G01X1334190Y3771000D01*
G01X1308190Y3797000D01*
G01X1308190Y4039000D01*
G01X1313190Y4044000D01*
G01X1330190Y4061000D01*
G01X1687190Y4061000D01*
G01X1696190Y4052000D01*
G37*
G36*
G01X1696190Y4052000D02*
G37*
G36*
G01X1695140Y3322000D02*
G01X1702140Y3315000D01*
G01X1702140Y3157550D01*
G01X1647700Y3103110D01*
G01X1646590Y3102000D01*
G01X1645640Y3102000D01*
G01X1645640Y3101050D01*
G01X1619140Y3074550D01*
G01X1601760Y3074550D01*
G01X1601760Y3103110D01*
G01X1600020Y3111890D01*
G01X1598320Y3114430D01*
G01X1598320Y3315180D01*
G01X1605140Y3322000D01*
G01X1695140Y3322000D01*
G37*
G36*
G01X1695140Y3322000D02*
G37*
G36*
G01X1773140Y3005000D02*
G01X1773140Y2946000D01*
G01X1768140Y2941000D01*
G01X1647140Y2941000D01*
G01X1632140Y2956000D01*
G01X1612140Y2976000D01*
G01X1544140Y2976000D01*
G01X1535140Y2967000D01*
G01X1535140Y2941330D01*
G01X1532040Y2936690D01*
G01X1530290Y2927910D01*
G01X1530290Y2904590D01*
G01X1523700Y2898000D01*
G01X1462140Y2898000D01*
G01X1454140Y2890000D01*
G01X1451140Y2887000D01*
G01X1451140Y2822000D01*
G01X1451140Y2772000D01*
G01X1458140Y2765000D01*
G01X1461140Y2762000D01*
G01X1505140Y2762000D01*
G01X1511140Y2756000D01*
G01X1511140Y2585000D01*
G01X1511140Y2508000D01*
G01X1506140Y2503000D01*
G01X1412740Y2503000D01*
G01X1405140Y2510600D01*
G01X1405140Y2685000D01*
G01X1405140Y3000000D01*
G01X1415140Y3010000D01*
G01X1418140Y3013000D01*
G01X1765140Y3013000D01*
G01X1773140Y3005000D01*
G37*
G36*
G01X1773140Y3005000D02*
G37*
G36*
G01X2668190Y2779000D02*
G01X2668190Y2698000D01*
G01X2663190Y2693000D01*
G01X2615190Y2693000D01*
G01X2607190Y2701000D01*
G01X2607190Y2722000D01*
G01X2602190Y2727000D01*
G01X2148190Y2727000D01*
G01X2122190Y2701000D01*
G01X2122190Y2634000D01*
G01X2100190Y2612000D01*
G01X2100190Y2452000D01*
G01X2091190Y2443000D01*
G01X2041190Y2443000D01*
G01X2032190Y2452000D01*
G01X2032190Y2609000D01*
G01X2010190Y2631000D01*
G01X2010190Y2737000D01*
G01X2035190Y2762000D01*
G01X2060190Y2787000D01*
G01X2660190Y2787000D01*
G01X2668190Y2779000D01*
G37*
G36*
G01X2668190Y2779000D02*
G37*
G36*
G01X1381140Y3003000D02*
G01X1381140Y2679770D01*
G01X1376600Y2675900D01*
G01X1374140Y2676390D01*
G01X1297140Y2676390D01*
G01X1290140Y2675000D01*
G01X1271190Y2675000D01*
G01X1262190Y2684000D01*
G01X1262190Y2999000D01*
G01X1272190Y3009000D01*
G01X1375140Y3009000D01*
G01X1381140Y3003000D01*
G37*
G36*
G01X1381140Y3003000D02*
G37*
G36*
G01X1372620Y2655900D02*
G01X1373810Y2655900D01*
G01X1374410Y2655730D01*
G01X1380140Y2650000D01*
G01X1380140Y2479000D01*
G01X1392140Y2467000D01*
G01X1524140Y2467000D01*
G01X1567140Y2510000D01*
G01X1607140Y2550000D01*
G01X1818140Y2550000D01*
G01X1836140Y2532000D01*
G01X1836140Y2402000D01*
G01X1831140Y2397000D01*
G01X1770140Y2397000D01*
G01X1764630Y2402510D01*
G01X1763570Y2404090D01*
G01X1763210Y2405940D01*
G01X1763210Y2407060D01*
G01X1763140Y2407390D01*
G01X1763140Y2460000D01*
G01X1753140Y2470000D01*
G01X1672140Y2470000D01*
G01X1636140Y2434000D01*
G01X1571140Y2369000D01*
G01X1329140Y2369000D01*
G01X1298140Y2400000D01*
G01X1262190Y2435950D01*
G01X1262190Y2651780D01*
G01X1267190Y2655400D01*
G01X1271190Y2654610D01*
G01X1290140Y2654610D01*
G01X1292110Y2655000D01*
G01X1294120Y2655000D01*
G01X1299150Y2656000D01*
G01X1372130Y2656000D01*
G01X1372620Y2655900D01*
G37*
G36*
G01X1372620Y2655900D02*
G37*
G36*
G01X1762140Y2875000D02*
G01X1773140Y2864000D01*
G01X1773140Y2641000D01*
G01X1761140Y2629000D01*
G01X1584140Y2629000D01*
G01X1576140Y2637000D01*
G01X1576140Y2768000D01*
G01X1600140Y2792000D01*
G01X1600140Y2846020D01*
G01X1601760Y2854180D01*
G01X1601760Y2877620D01*
G01X1610140Y2886000D01*
G01X1751140Y2886000D01*
G01X1762140Y2875000D01*
G37*
G36*
G01X1762140Y2875000D02*
G37*
G36*
G01X2805190Y2737000D02*
G01X2805190Y2723750D01*
G01X2803630Y2721410D01*
G01X2802070Y2713610D01*
G01X2802070Y2610880D01*
G01X2793190Y2602000D01*
G01X2702190Y2602000D01*
G01X2693190Y2611000D01*
G01X2693190Y2766000D01*
G01X2697190Y2770000D01*
G01X2772190Y2770000D01*
G01X2805190Y2737000D01*
G37*
G36*
G01X2805190Y2737000D02*
G37*
G36*
G01X2007640Y2523500D02*
G01X2007640Y2315500D01*
G01X2002140Y2310000D01*
G01X1807140Y2310000D01*
G01X1802140Y2315000D01*
G01X1802140Y2332010D01*
G01X1802260Y2332610D01*
G01X1802260Y2367970D01*
G01X1802140Y2368580D01*
G01X1802140Y2371000D01*
G01X1806140Y2375000D01*
G01X1886140Y2375000D01*
G01X1896140Y2385000D01*
G01X1914140Y2403000D01*
G01X1914140Y2517000D01*
G01X1925140Y2528000D01*
G01X2003140Y2528000D01*
G01X2007640Y2523500D01*
G37*
G36*
G01X2007640Y2523500D02*
G37*
G36*
G01X1742750Y2439390D02*
G01X1742750Y2421000D01*
G01X1742750Y2407390D01*
G01X1742810Y2407060D01*
G01X1742810Y2407060D01*
G01X1742810Y2403930D01*
G01X1744370Y2396130D01*
G01X1748790Y2389520D01*
G01X1749630Y2388670D01*
G01X1749630Y2375100D01*
G01X1749290Y2374600D01*
G01X1747970Y2367970D01*
G01X1747970Y2332610D01*
G01X1749290Y2325980D01*
G01X1751140Y2323210D01*
G01X1751140Y2280000D01*
G01X1758140Y2273000D01*
G01X1833190Y2273000D01*
G01X1847190Y2287000D01*
G01X1907140Y2287000D01*
G01X1934140Y2260000D01*
G01X2041140Y2260000D01*
G01X2051140Y2250000D01*
G01X2051140Y2151000D01*
G01X2038140Y2138000D01*
G01X1683140Y2138000D01*
G01X1657140Y2164000D01*
G01X1657140Y2426160D01*
G01X1674980Y2444000D01*
G01X1738140Y2444000D01*
G01X1742750Y2439390D01*
G37*
G36*
G01X1742750Y2439390D02*
G37*
G36*
G01X2198190Y2503000D02*
G01X2198190Y2375000D01*
G01X2198190Y2355050D01*
G01X2195350Y2350800D01*
G01X2193800Y2343000D01*
G01X2193800Y2048610D01*
G01X2191190Y2046000D01*
G01X2189190Y2044000D01*
G01X2135190Y2044000D01*
G01X2127190Y2052000D01*
G01X2127190Y2078000D01*
G01X2127190Y2505000D01*
G01X2133190Y2511000D01*
G01X2190190Y2511000D01*
G01X2198190Y2503000D01*
G37*
G36*
G01X2198190Y2503000D02*
G37*
G54D10*
G01X2324070Y2256000D02*
G01X2355190Y2256000D01*
G01X2322780Y2254710D02*
G01X2324070Y2256000D01*
G01X2125870Y2565000D02*
G01X2167190Y2565000D01*
G01X4180190Y4735500D02*
G01X4180190Y4763000D01*
G01X4148680Y4704000D02*
G01X4180190Y4735500D01*
G01X3650190Y5849230D02*
G01X3688190Y5849230D01*
G01X3688190Y5849230D02*
G01X3701190Y5862230D01*
G01X3701190Y5862230D02*
G01X3701190Y5918230D01*
G01X3693420Y5926000D02*
G01X3701190Y5918230D01*
G01X3650190Y5926000D02*
G01X3693420Y5926000D01*
G01X3650190Y6219770D02*
G01X3693420Y6219770D01*
G01X3693420Y6219770D02*
G01X3701190Y6212000D01*
G01X3701190Y6156000D02*
G01X3701190Y6212000D01*
G01X3688190Y6143000D02*
G01X3701190Y6156000D01*
G01X3650190Y6143000D02*
G01X3688190Y6143000D01*
G01X1898190Y3614000D02*
G01X1898190Y3679000D01*
G01X1898190Y3614000D02*
G01X1937190Y3575000D01*
G01X1372190Y3159000D02*
G01X1512190Y3159000D01*
G01X1353140Y3139950D02*
G01X1372190Y3159000D01*
G01X1353140Y3052500D02*
G01X1353140Y3139950D01*
G01X1527640Y3103110D02*
G01X1527640Y3143550D01*
G01X1512190Y3159000D02*
G01X1527640Y3143550D01*
G01X3027190Y2367000D02*
G01X3054650Y2339540D01*
G01X3054650Y2278500D02*
G01X3054650Y2339540D01*
G01X3027190Y2367000D02*
G01X3027190Y2414390D01*
G01X3231910Y2378740D02*
G01X3245920Y2364730D01*
G01X1553230Y3175590D02*
G01X1555650Y3178000D01*
G01X1553230Y3103110D02*
G01X1553230Y3175590D01*
G01X1753190Y3112000D02*
G01X1753190Y3305000D01*
G01X1684190Y3374000D02*
G01X1753190Y3305000D01*
G01X1470950Y3374000D02*
G01X1684190Y3374000D01*
G01X1753190Y3112000D02*
G01X2033190Y2832000D01*
G01X1949370Y3454590D02*
G01X1949370Y3492820D01*
G01X1937190Y3505000D02*
G01X1949370Y3492820D01*
G01X1937190Y3575000D02*
G01X1974960Y3612770D01*
G01X1937190Y3505000D02*
G01X1937190Y3575000D01*
G01X1923780Y3491590D02*
G01X1937190Y3505000D01*
G01X1974960Y3612770D02*
G01X1974960Y3679000D01*
G01X3001600Y2414390D02*
G01X3003030Y2415830D01*
G01X2033190Y2832000D02*
G01X2676190Y2832000D01*
G01X2887190Y2763000D02*
G01X2899240Y2750950D01*
G01X2899240Y2713610D02*
G01X2899240Y2750950D01*
G01X2815190Y2763000D02*
G01X2887190Y2763000D01*
G01X2775190Y2803000D02*
G01X2815190Y2763000D01*
G01X2775190Y2803000D02*
G01X2775190Y2836500D01*
G01X2774690Y2837000D02*
G01X2775190Y2836500D01*
G01X2733190Y2837000D02*
G01X2774690Y2837000D01*
G01X2681190Y2837000D02*
G01X2733190Y2837000D01*
G01X2676190Y2832000D02*
G01X2681190Y2837000D01*
G01X1431190Y3413760D02*
G01X1470950Y3374000D01*
G01X2873650Y2655460D02*
G01X2873650Y2713610D01*
G01X3231910Y2378740D02*
G01X3231910Y2414390D01*
G01X3012240Y2304990D02*
G01X3012420Y2232770D01*
G01X3001600Y2348000D02*
G01X3001600Y2414390D01*
G01X3001600Y2348000D02*
G01X3012240Y2337350D01*
G01X3012240Y2304990D02*
G01X3012240Y2337350D01*
G01X3000650Y2221000D02*
G01X3012420Y2232770D01*
G01X3023190Y2222000D02*
G01X3048150Y2222000D01*
G01X3012420Y2232770D02*
G01X3023190Y2222000D01*
G01X3048150Y2222000D02*
G01X3054650Y2215500D01*
G01X2960650Y2221000D02*
G01X3000650Y2221000D01*
G01X3883690Y6069500D02*
G01X3926180Y6069500D01*
G01X3874600Y5926000D02*
G01X3948080Y5926000D01*
G01X3948080Y5926000D02*
G01X3955190Y5933110D01*
G01X3874600Y5874820D02*
G01X3950490Y5874820D01*
G01X3950490Y5874820D02*
G01X3955190Y5870120D01*
G01X3839370Y5900410D02*
G01X3874600Y5900410D01*
G01X3833190Y5894230D02*
G01X3839370Y5900410D01*
G01X3833190Y5879230D02*
G01X3833190Y5894230D01*
G01X3833190Y5879230D02*
G01X3837600Y5874820D01*
G01X3837600Y5874820D02*
G01X3874600Y5874820D01*
G01X3650190Y5926000D02*
G01X3650190Y5957230D01*
G01X3874600Y6219770D02*
G01X3948080Y6219770D01*
G01X3948080Y6219770D02*
G01X3955190Y6226880D01*
G01X3874600Y6168590D02*
G01X3950490Y6168590D01*
G01X3950490Y6168590D02*
G01X3955190Y6163890D01*
G01X3839370Y6194180D02*
G01X3874600Y6194180D01*
G01X3833190Y6188000D02*
G01X3839370Y6194180D01*
G01X3833190Y6173000D02*
G01X3833190Y6188000D01*
G01X3833190Y6173000D02*
G01X3837600Y6168590D01*
G01X3837600Y6168590D02*
G01X3874600Y6168590D01*
G01X3650190Y6219770D02*
G01X3650190Y6251000D01*
G01X1923780Y3454590D02*
G01X1923780Y3491590D01*
G01X1919080Y3374000D02*
G01X1923780Y3378700D01*
G01X1923780Y3378700D02*
G01X1923780Y3454590D01*
G01X1974960Y3381110D02*
G01X1982070Y3374000D01*
G01X1974960Y3381110D02*
G01X1974960Y3454590D01*
G01X2652730Y4873850D02*
G01X2682810Y4903930D01*
G01X2652730Y4814020D02*
G01X2652730Y4873850D01*
G01X1690190Y4112000D02*
G01X1690190Y4171910D01*
G01X1689100Y4173000D02*
G01X1690190Y4171910D01*
G01X1353140Y3052500D02*
G01X1447140Y3052500D01*
G01X1353140Y3052500D02*
G01X1353140Y3052500D01*
G01X1578820Y3056320D02*
G01X1578820Y3103110D01*
G01X1578820Y3056320D02*
G01X1591140Y3044000D01*
G01X1591140Y3044000D02*
G01X1674140Y3044000D01*
G01X1674140Y3044000D02*
G01X1692140Y3062000D01*
G01X1604410Y2855220D02*
G01X1604410Y2927910D01*
G01X1604410Y2855220D02*
G01X1623640Y2836000D01*
G01X1578820Y2854180D02*
G01X1578820Y2927910D01*
G01X1560650Y2836000D02*
G01X1578820Y2854180D01*
G01X1493140Y2835000D02*
G01X1553230Y2895090D01*
G01X1553230Y2895090D02*
G01X1553230Y2927910D01*
G01X2952150Y5054000D02*
G01X2976190Y5054000D01*
G01X2976190Y5054000D02*
G01X2987390Y5042800D01*
G01X2987390Y4856800D02*
G01X2987390Y5042800D01*
G01X2987390Y4856800D02*
G01X3030190Y4814000D01*
G01X2388730Y4814020D02*
G01X2388770Y4814050D01*
G01X2388770Y4814050D02*
G01X2388770Y4904020D01*
G01X1803270Y4173000D02*
G01X1822150Y4191870D01*
G01X1822150Y4191870D02*
G01X1822150Y4282360D01*
G01X3910930Y6353350D02*
G01X4129870Y6353350D01*
G01X3910280Y6354000D02*
G01X3910930Y6353350D01*
G01X3789350Y6360760D02*
G01X3796100Y6354000D01*
G01X3789350Y6360760D02*
G01X3789350Y6596840D01*
G01X3778190Y6608000D02*
G01X3789350Y6596840D01*
G01X3749190Y6608000D02*
G01X3778190Y6608000D01*
G01X2299190Y4724470D02*
G01X2388730Y4814020D01*
G01X2468730Y4765540D02*
G01X2468730Y4814020D01*
G01X2554720Y4716000D02*
G01X2652730Y4814020D01*
G01X2449190Y4746000D02*
G01X2468730Y4765540D01*
G01X2381190Y4746000D02*
G01X2449190Y4746000D01*
G01X2400190Y4716000D02*
G01X2554720Y4716000D01*
G01X2330190Y3988000D02*
G01X2330190Y4695000D01*
G01X2330190Y4695000D02*
G01X2381190Y4746000D01*
G01X2363190Y4679000D02*
G01X2400190Y4716000D01*
G01X2299190Y3610310D02*
G01X2299190Y4724470D01*
G01X2379710Y3739640D02*
G01X2436710Y3682640D01*
G01X2436710Y3682640D02*
G01X2491710Y3682640D01*
G01X2516710Y3591930D02*
G01X2516710Y3657640D01*
G01X2491710Y3682640D02*
G01X2516710Y3657640D01*
G01X2566710Y3591930D02*
G01X2566710Y3676640D01*
G01X2566710Y3676640D02*
G01X2576710Y3686640D01*
G01X2576710Y3856930D02*
G01X2606430Y3886640D01*
G01X2666710Y3591930D02*
G01X2666710Y3676640D01*
G01X2656710Y3686640D02*
G01X2666710Y3676640D01*
G01X2656710Y3686640D02*
G01X2769450Y3686640D01*
G01X2300160Y3609340D02*
G01X2303160Y3606340D01*
G01X2407020Y3606340D02*
G01X2423710Y3589640D01*
G01X2303160Y3606340D02*
G01X2407020Y3606340D01*
G01X2300160Y3517340D02*
G01X2307860Y3509640D01*
G01X2307860Y3509640D02*
G01X2423710Y3509640D01*
G01X2423710Y3509640D02*
G01X2588470Y3509640D01*
G01X2588470Y3509640D02*
G01X2616710Y3537880D01*
G01X2616710Y3537880D02*
G01X2616710Y3591930D01*
G01X2422710Y3831640D02*
G01X2491710Y3762640D01*
G01X2379710Y3831640D02*
G01X2422710Y3831640D01*
G01X2656710Y3778640D02*
G01X2688190Y3810120D01*
G01X2299190Y3610310D02*
G01X2300160Y3609340D01*
G01X2404190Y3988000D02*
G01X2662190Y3988000D01*
G01X2662190Y3988000D02*
G01X2688190Y3962000D01*
G01X2688190Y3810120D02*
G01X2688190Y3962000D01*
G01X2363190Y3831640D02*
G01X2363190Y4679000D01*
G01X2363190Y3831640D02*
G01X2379710Y3831640D01*
G01X3030190Y4814000D02*
G01X3178910Y4665280D01*
G01X3178910Y3827130D02*
G01X3178910Y4665280D01*
G01X3242910Y3990280D02*
G01X3242910Y4795720D01*
G01X3242910Y4795720D02*
G01X3261190Y4814000D01*
G01X3463460Y3778310D02*
G01X3491190Y3806040D01*
G01X3471190Y3954000D02*
G01X3491190Y3934000D01*
G01X3491190Y3806040D02*
G01X3491190Y3934000D01*
G01X3231190Y3954000D02*
G01X3471190Y3954000D01*
G01X3103190Y3943550D02*
G01X3149910Y3990280D01*
G01X3103190Y3623000D02*
G01X3103190Y3943550D01*
G01X3103190Y3623000D02*
G01X3117190Y3609000D01*
G01X3325460Y3591590D02*
G01X3325460Y3651580D01*
G01X3293730Y3683310D02*
G01X3325460Y3651580D01*
G01X3279040Y3698000D02*
G01X3293730Y3683310D01*
G01X3216040Y3698000D02*
G01X3279040Y3698000D01*
G01X3179730Y3734310D02*
G01X3216040Y3698000D01*
G01X3229910Y3827130D02*
G01X3293730Y3763310D01*
G01X3375460Y3591590D02*
G01X3375460Y3678310D01*
G01X3375460Y3678310D02*
G01X3383460Y3686310D01*
G01X3383460Y3686310D02*
G01X3383460Y3778310D01*
G01X3475460Y3591590D02*
G01X3475460Y3674310D01*
G01X3463460Y3686310D02*
G01X3475460Y3674310D01*
G01X3463460Y3686310D02*
G01X3576200Y3686310D01*
G01X3576200Y3686310D02*
G01X3576460Y3686050D01*
G01X3235460Y3509310D02*
G01X3403500Y3509310D01*
G01X3403500Y3509310D02*
G01X3425460Y3531270D01*
G01X3425460Y3531270D02*
G01X3425460Y3591590D01*
G01X3124880Y3509310D02*
G01X3235460Y3509310D01*
G01X3117190Y3517000D02*
G01X3124880Y3509310D01*
G01X3218760Y3606000D02*
G01X3235460Y3589310D01*
G01X3120190Y3606000D02*
G01X3218760Y3606000D01*
G01X3117190Y3609000D02*
G01X3120190Y3606000D01*
G01X1581190Y3645400D02*
G01X1598590Y3645400D01*
G01X1598590Y3645400D02*
G01X1646190Y3693000D01*
G01X3383460Y3778310D02*
G01X3383460Y3856770D01*
G01X3383460Y3856770D02*
G01X3412990Y3886310D01*
G01X3181190Y4814000D02*
G01X3209910Y4785280D01*
G01X3209910Y3975280D02*
G01X3231190Y3954000D01*
G01X3209910Y3975280D02*
G01X3209910Y4785280D01*
G01X3178910Y3827130D02*
G01X3229910Y3827130D01*
G01X2576710Y3686640D02*
G01X2576710Y3856930D01*
G01X2976010Y2364360D02*
G01X2976010Y2414390D01*
G01X2958650Y2347000D02*
G01X2976010Y2364360D01*
G01X3206320Y2414390D02*
G01X3206320Y2469000D01*
G01X3003030Y2415830D02*
G01X3003030Y2468160D01*
G01X3002190Y2469000D02*
G01X3003030Y2468160D01*
G01X2958650Y2299000D02*
G01X2958650Y2347000D01*
G54D11*
G01X3412190Y6030540D02*
G01X3564510Y5878230D01*
G01X3430190Y6038000D02*
G01X3571960Y5896230D01*
G01X3646780Y5878230D02*
G01X3650190Y5874820D01*
G01X3564510Y5878230D02*
G01X3646780Y5878230D01*
G01X2763190Y6486000D02*
G01X2772190Y6477000D01*
G01X2772190Y6361540D02*
G01X2772190Y6477000D01*
G01X2692570Y6486000D02*
G01X2763190Y6486000D01*
G01X2798730Y6335000D02*
G01X3380190Y6335000D01*
G01X3380190Y6335000D02*
G01X3412190Y6303000D01*
G01X2772190Y6361540D02*
G01X2798730Y6335000D01*
G01X3412190Y6030540D02*
G01X3412190Y6303000D01*
G01X3646010Y5896230D02*
G01X3650190Y5900410D01*
G01X3571960Y5896230D02*
G01X3646010Y5896230D01*
G01X3387650Y6353000D02*
G01X3430190Y6310460D01*
G01X3430190Y6038000D02*
G01X3430190Y6310460D01*
G01X2806190Y6353000D02*
G01X3387650Y6353000D01*
G01X2799190Y6486000D02*
G01X2865800Y6486000D01*
G01X2790190Y6369000D02*
G01X2790190Y6477000D01*
G01X2790190Y6369000D02*
G01X2806190Y6353000D01*
G01X2790190Y6477000D02*
G01X2799190Y6486000D01*
G01X1726190Y3800000D02*
G01X1756190Y3770000D01*
G01X1756190Y3770000D02*
G01X1914190Y3770000D01*
G01X1914190Y3770000D02*
G01X1945190Y3739000D01*
G01X3238190Y6664370D02*
G01X3516190Y6386370D01*
G01X3516190Y6210370D02*
G01X3516190Y6386370D01*
G01X3229190Y6808000D02*
G01X3238190Y6799000D01*
G01X3554560Y6172000D02*
G01X3646780Y6172000D01*
G01X3646780Y6172000D02*
G01X3650190Y6168590D01*
G01X3516190Y6210370D02*
G01X3554560Y6172000D01*
G01X3164580Y6808000D02*
G01X3229190Y6808000D01*
G01X3238190Y6664370D02*
G01X3238190Y6799000D01*
G01X3160570Y6812000D02*
G01X3164580Y6808000D01*
G01X3559190Y6190000D02*
G01X3646010Y6190000D01*
G01X3534190Y6215000D02*
G01X3559190Y6190000D01*
G01X3534190Y6215000D02*
G01X3534190Y6391000D01*
G01X3329800Y6808000D02*
G01X3333800Y6812000D01*
G01X3256190Y6799000D02*
G01X3265190Y6808000D01*
G01X3265190Y6808000D02*
G01X3329800Y6808000D01*
G01X3256190Y6669000D02*
G01X3534190Y6391000D01*
G01X3256190Y6669000D02*
G01X3256190Y6799000D01*
G01X3646010Y6190000D02*
G01X3650190Y6194180D01*
G01X3101190Y2643000D02*
G01X3104190Y2643000D01*
G01X2456190Y2564000D02*
G01X2458190Y2566000D01*
G01X1945190Y3683180D02*
G01X1945190Y3739000D01*
G01X1927190Y3682410D02*
G01X1927190Y3734000D01*
G01X1710190Y3793370D02*
G01X1710190Y3965000D01*
G01X1907190Y3754000D02*
G01X1927190Y3734000D01*
G01X1749560Y3754000D02*
G01X1907190Y3754000D01*
G01X1710190Y3793370D02*
G01X1749560Y3754000D01*
G01X1726190Y3800000D02*
G01X1726190Y3965000D01*
G01X1699190Y3976000D02*
G01X1710190Y3965000D01*
G01X1726190Y3965000D02*
G01X1737190Y3976000D01*
G01X1945190Y3683180D02*
G01X1949370Y3679000D01*
G01X1923780Y3679000D02*
G01X1927190Y3682410D01*
G01X1737190Y3976000D02*
G01X1804800Y3976000D01*
G01X1631570Y3976000D02*
G01X1699190Y3976000D01*
G01X4160820Y4933370D02*
G01X4160820Y4955600D01*
G01X4160820Y4933370D02*
G01X4180500Y4913680D01*
G01X4180500Y4897330D02*
G01X4180500Y4913680D01*
G54D13*
G01X2518190Y2297000D02*
G01X2571190Y2350000D01*
G01X2318190Y2297000D02*
G01X2518190Y2297000D01*
G01X2297190Y2276000D02*
G01X2318190Y2297000D01*
G01X2297190Y2174000D02*
G01X2297190Y2276000D01*
G01X2456190Y2444000D02*
G01X2564690Y2444000D01*
G01X2456190Y2555000D02*
G01X2506190Y2505000D01*
G01X2506190Y2505000D02*
G01X2564690Y2505000D01*
G01X2456190Y2655000D02*
G01X2543190Y2568000D01*
G01X2543190Y2568000D02*
G01X2564690Y2568000D01*
G01X2297190Y2121000D02*
G01X2297190Y2174000D01*
G01X2263190Y2087000D02*
G01X2297190Y2121000D01*
G01X2424690Y2194000D02*
G01X2436690Y2182000D01*
G01X2364190Y2194000D02*
G01X2424690Y2194000D01*
G01X2348370Y2178180D02*
G01X2364190Y2194000D01*
G01X2348370Y2174000D02*
G01X2348370Y2178180D01*
G01X2348370Y2101820D02*
G01X2348370Y2174000D01*
G01X2348370Y2101820D02*
G01X2363190Y2087000D01*
G01X2436690Y2182000D02*
G01X2436690Y2182000D01*
G01X2436690Y2182000D02*
G01X2436690Y2245000D01*
G01X2436690Y2245000D02*
G01X2468390Y2276700D01*
G01X2468390Y2276700D02*
G01X2523340Y2276700D01*
G01X2523340Y2276700D02*
G01X2572640Y2326000D01*
G01X2572640Y2326000D02*
G01X2631820Y2326000D01*
G01X2242190Y2371000D02*
G01X2242190Y2659000D01*
G01X2214190Y2343000D02*
G01X2242190Y2371000D01*
G01X2214190Y2043000D02*
G01X2214190Y2343000D01*
G01X4149010Y4794180D02*
G01X4180190Y4763000D01*
G01X4085690Y3684500D02*
G01X4085690Y4704000D01*
G01X3465190Y3064000D02*
G01X4085690Y3684500D01*
G01X4082190Y4707500D02*
G01X4085690Y4704000D01*
G01X4082190Y4707500D02*
G01X4082190Y4767500D01*
G01X4082190Y4830500D02*
G01X4082190Y4869000D01*
G01X4082190Y4869000D02*
G01X4092190Y4879000D01*
G01X4092190Y4879000D02*
G01X4147190Y4879000D01*
G01X4147190Y4879000D02*
G01X4160820Y4892630D01*
G01X4160820Y4892630D02*
G01X4160820Y4897330D01*
G01X2212190Y2689000D02*
G01X2242190Y2659000D01*
G01X1786190Y3135000D02*
G01X2042190Y2879000D01*
G01X2042190Y2879000D02*
G01X2212190Y2879000D01*
G01X2608190Y2995000D02*
G01X2771190Y2995000D01*
G01X2547190Y2934000D02*
G01X2608190Y2995000D01*
G01X2127190Y2934000D02*
G01X2547190Y2934000D01*
G01X1844190Y3217000D02*
G01X2127190Y2934000D01*
G01X1844190Y3217000D02*
G01X1844190Y3383000D01*
G01X3486190Y2596000D02*
G01X3486190Y2651000D01*
G01X3486190Y2651000D02*
G01X3486490Y2651300D01*
G01X3451190Y2561000D02*
G01X3486190Y2596000D01*
G01X3393690Y2561000D02*
G01X3451190Y2561000D01*
G01X2848050Y2602410D02*
G01X2848050Y2713610D01*
G01X2689650Y2444000D02*
G01X2848050Y2602410D01*
G01X2627690Y2444000D02*
G01X2689650Y2444000D01*
G01X4325800Y3792610D02*
G01X4325800Y5740390D01*
G01X3561190Y3028000D02*
G01X4325800Y3792610D01*
G01X3561190Y2985000D02*
G01X3561190Y3028000D01*
G01X4350190Y3770000D02*
G01X4350190Y5779000D01*
G01X3601190Y3021000D02*
G01X4350190Y3770000D01*
G01X4373190Y3723000D02*
G01X4373190Y5812000D01*
G01X3598190Y2948000D02*
G01X4373190Y3723000D01*
G01X3806190Y2026000D02*
G01X4400190Y2620000D01*
G01X2906190Y2026000D02*
G01X3806190Y2026000D01*
G01X2882650Y2049540D02*
G01X2906190Y2026000D01*
G01X2769190Y2029000D02*
G01X2820650Y2080460D01*
G01X2228190Y2029000D02*
G01X2769190Y2029000D01*
G01X2214190Y2043000D02*
G01X2228190Y2029000D01*
G01X1689460Y3447730D02*
G01X1786190Y3351000D01*
G01X1786190Y3135000D02*
G01X1786190Y3351000D01*
G01X1689460Y3447730D02*
G01X1689460Y3570600D01*
G01X2820650Y2080460D02*
G01X2820650Y2215500D01*
G01X2644140Y2070040D02*
G01X2644140Y2119000D01*
G01X2627690Y2505000D02*
G01X2725190Y2505000D01*
G01X2725190Y2505000D02*
G01X2822460Y2602280D01*
G01X2631820Y2326000D02*
G01X2766820Y2461000D01*
G01X2766820Y2461000D02*
G01X2835190Y2461000D01*
G01X2628190Y2350000D02*
G01X2759190Y2481000D01*
G01X2571190Y2350000D02*
G01X2628190Y2350000D01*
G01X2759190Y2481000D02*
G01X2844190Y2481000D01*
G01X2835190Y2461000D02*
G01X2848050Y2448130D01*
G01X2848050Y2414390D02*
G01X2848050Y2448130D01*
G01X4238140Y5996050D02*
G01X4238140Y6278540D01*
G01X4238140Y5996050D02*
G01X4400190Y5834000D01*
G01X4400190Y2620000D02*
G01X4400190Y5834000D01*
G01X2882650Y2049540D02*
G01X2882650Y2215500D01*
G01X3407190Y2765500D02*
G01X3407190Y3068000D01*
G01X3373950Y3101240D02*
G01X3407190Y3068000D01*
G01X3373950Y3101240D02*
G01X3373950Y3297240D01*
G01X3433190Y3291540D02*
G01X3438960Y3297310D01*
G01X2806890Y2983700D02*
G01X2843190Y3020000D01*
G01X2843190Y3020000D02*
G01X3232190Y3020000D01*
G01X2902920Y2899990D02*
G01X2902920Y2952270D01*
G01X2806890Y2870310D02*
G01X2806890Y2983700D01*
G01X2806890Y2870310D02*
G01X2840190Y2837010D01*
G01X3225920Y2899990D02*
G01X3226190Y2900260D01*
G01X3226190Y2900260D02*
G01X3226190Y2948000D01*
G01X3095990Y2899990D02*
G01X3095990Y2950800D01*
G01X3095990Y2950800D02*
G01X3130190Y2985000D01*
G01X3130190Y2985000D02*
G01X3260190Y2985000D01*
G01X3393690Y2752000D02*
G01X3407190Y2765500D01*
G01X3237190Y3114000D02*
G01X3290190Y3061000D01*
G01X2636190Y3114000D02*
G01X3237190Y3114000D01*
G01X2557200Y3192990D02*
G01X2636190Y3114000D01*
G01X2679190Y3150000D02*
G01X3269190Y3150000D01*
G01X2623210Y3205980D02*
G01X2679190Y3150000D01*
G01X2623210Y3205980D02*
G01X2623210Y3297640D01*
G01X3290190Y2899990D02*
G01X3290190Y3061000D01*
G01X3352190Y2899990D02*
G01X3352190Y3067000D01*
G01X3269190Y3150000D02*
G01X3352190Y3067000D01*
G01X4149010Y4794180D02*
G01X4149010Y4831460D01*
G01X4093190Y6092000D02*
G01X4373190Y5812000D01*
G01X3947190Y6092000D02*
G01X4093190Y6092000D01*
G01X4122680Y6006500D02*
G01X4350190Y5779000D01*
G01X3883690Y6006500D02*
G01X4122680Y6006500D01*
G01X4268190Y5798000D02*
G01X4325800Y5740390D01*
G01X3943190Y5798000D02*
G01X4268190Y5798000D01*
G01X2557200Y3192990D02*
G01X2557200Y3297640D01*
G01X3393690Y2688000D02*
G01X3443190Y2688000D01*
G01X3471190Y2430000D02*
G01X3519190Y2478000D01*
G01X3393690Y2430000D02*
G01X3471190Y2430000D01*
G01X3394690Y2498000D02*
G01X3444190Y2498000D01*
G01X3393690Y2624000D02*
G01X3443190Y2624000D01*
G01X2662430Y2837000D02*
G01X2676190Y2837000D01*
G01X1844190Y3383000D02*
G01X1898190Y3437000D01*
G01X1898190Y3437000D02*
G01X1898190Y3454590D01*
G01X2662190Y2836760D02*
G01X2662430Y2837000D01*
G01X2924830Y2713610D02*
G01X2924830Y2775360D01*
G01X2905190Y2795000D02*
G01X2924830Y2775360D01*
G01X2840190Y2795000D02*
G01X2905190Y2795000D01*
G01X2840190Y2795000D02*
G01X2840190Y2837010D01*
G01X2902920Y2837000D02*
G01X2902920Y2837000D01*
G01X2902920Y2837000D02*
G01X2964920Y2837000D01*
G01X2950420Y2713610D02*
G01X2950420Y2782230D01*
G01X2950420Y2782230D02*
G01X2963190Y2795000D01*
G01X2963190Y2795000D02*
G01X2964920Y2796730D01*
G01X2964920Y2796730D02*
G01X2964920Y2837000D01*
G01X3095990Y2837000D02*
G01X3095990Y2837000D01*
G01X3028920Y2837000D02*
G01X3095990Y2837000D01*
G01X3080190Y2786000D02*
G01X3160190Y2786000D01*
G01X3052780Y2758590D02*
G01X3080190Y2786000D01*
G01X3052780Y2713610D02*
G01X3052780Y2758590D01*
G01X3180730Y2713610D02*
G01X3180730Y2762540D01*
G01X3160190Y2786000D02*
G01X3160190Y2832270D01*
G01X3157690Y2834770D02*
G01X3160190Y2832270D01*
G01X3157690Y2834770D02*
G01X3159920Y2837000D01*
G01X2976010Y2743820D02*
G01X3028190Y2796000D01*
G01X3028190Y2796000D02*
G01X3028920Y2796730D01*
G01X3028920Y2796730D02*
G01X3028920Y2837000D01*
G01X2976010Y2713610D02*
G01X2976010Y2743820D01*
G01X3206320Y2713610D02*
G01X3206320Y2757130D01*
G01X3269190Y2762000D02*
G01X3320690Y2762000D01*
G01X3257500Y2750310D02*
G01X3269190Y2762000D01*
G01X3257500Y2713610D02*
G01X3257500Y2750310D01*
G01X3320690Y2762000D02*
G01X3330690Y2752000D01*
G01X3159920Y2837000D02*
G01X3225920Y2837000D01*
G01X3304690Y2662000D02*
G01X3330690Y2688000D01*
G01X3245190Y2662000D02*
G01X3304690Y2662000D01*
G01X3231910Y2675280D02*
G01X3245190Y2662000D01*
G01X3231910Y2675280D02*
G01X3231910Y2713610D01*
G01X3129550Y2668360D02*
G01X3129550Y2713610D01*
G01X3104190Y2643000D02*
G01X3129550Y2668360D01*
G01X2627690Y2568000D02*
G01X2742190Y2568000D01*
G01X2822460Y2602280D02*
G01X2822460Y2713610D01*
G01X2605240Y2242940D02*
G01X2605240Y2276240D01*
G01X2605240Y2242940D02*
G01X2620190Y2228000D01*
G01X2620190Y2228000D02*
G01X2746150Y2228000D01*
G01X2746150Y2228000D02*
G01X2758650Y2215500D01*
G01X2642650Y2120500D02*
G01X2642650Y2181760D01*
G01X2642650Y2120500D02*
G01X2644140Y2119000D01*
G01X2844190Y2481000D02*
G01X2873650Y2451540D01*
G01X2873650Y2414390D02*
G01X2873650Y2451540D01*
G01X2820650Y2278500D02*
G01X2899240Y2357090D01*
G01X2899240Y2357090D02*
G01X2899240Y2414390D01*
G01X2882650Y2278500D02*
G01X2882650Y2311460D01*
G01X2882650Y2311460D02*
G01X2924830Y2353640D01*
G01X2924830Y2353640D02*
G01X2924830Y2414390D01*
G01X3184190Y2612000D02*
G01X3318690Y2612000D01*
G01X3155140Y2641050D02*
G01X3184190Y2612000D01*
G01X3155140Y2641050D02*
G01X3155140Y2713610D01*
G01X3318690Y2612000D02*
G01X3330690Y2624000D01*
G01X3027190Y2661630D02*
G01X3027190Y2713610D01*
G01X3266190Y2457000D02*
G01X3303690Y2457000D01*
G01X3257500Y2448310D02*
G01X3266190Y2457000D01*
G01X3257500Y2414390D02*
G01X3257500Y2448310D01*
G01X3303690Y2457000D02*
G01X3330690Y2430000D01*
G01X3155140Y2360060D02*
G01X3155140Y2414390D01*
G01X3155140Y2360060D02*
G01X3236700Y2278500D01*
G01X3236700Y2278500D02*
G01X3240650Y2278500D01*
G01X3256140Y2325000D02*
G01X3302650Y2278500D01*
G01X3129550Y2327590D02*
G01X3178650Y2278500D01*
G01X3129550Y2327590D02*
G01X3129550Y2414390D01*
G01X3103960Y2291180D02*
G01X3103960Y2414390D01*
G01X3103960Y2291180D02*
G01X3116650Y2278500D01*
G01X3302650Y2139540D02*
G01X3361190Y2081000D01*
G01X3302650Y2139540D02*
G01X3302650Y2215500D01*
G01X3255190Y2087000D02*
G01X3261190Y2081000D01*
G01X3255190Y2087000D02*
G01X3255190Y2200960D01*
G01X3240650Y2215500D02*
G01X3255190Y2200960D01*
G01X3161190Y2081000D02*
G01X3166190Y2086000D01*
G01X3166190Y2086000D02*
G01X3166190Y2203050D01*
G01X3166190Y2203050D02*
G01X3178650Y2215500D01*
G01X3061190Y2081000D02*
G01X3116650Y2136460D01*
G01X3116650Y2136460D02*
G01X3116650Y2215500D01*
G01X2758650Y2278500D02*
G01X2822460Y2342310D01*
G01X2822460Y2342310D02*
G01X2822460Y2414390D01*
G01X4200190Y4843280D02*
G01X4212000Y4831460D01*
G01X4200190Y4843280D02*
G01X4200190Y4897330D01*
G01X4180500Y4862960D02*
G01X4180500Y4897330D01*
G01X4149010Y4831460D02*
G01X4180500Y4862960D01*
G01X3873190Y6017000D02*
G01X3883690Y6006500D01*
G01X3822690Y6017000D02*
G01X3873190Y6017000D01*
G01X3802690Y6037000D02*
G01X3822690Y6017000D01*
G01X3239110Y5054090D02*
G01X3270100Y5054090D01*
G01X3270100Y5054090D02*
G01X3281190Y5043000D01*
G01X3281190Y4834000D02*
G01X3281190Y5043000D01*
G01X3261190Y4814000D02*
G01X3281190Y4834000D01*
G01X2769450Y3686640D02*
G01X2769710Y3686380D01*
G01X3375460Y3298740D02*
G01X3375460Y3377020D01*
G01X3373950Y3297240D02*
G01X3375460Y3298740D01*
G01X3425460Y3310810D02*
G01X3425460Y3377020D01*
G01X3425460Y3310810D02*
G01X3438960Y3297310D01*
G01X2616710Y3304150D02*
G01X2616710Y3377360D01*
G01X2616710Y3304150D02*
G01X2623210Y3297640D01*
G01X2566710Y3307150D02*
G01X2566710Y3377360D01*
G01X2557200Y3297640D02*
G01X2566710Y3307150D01*
G01X3874600Y6143000D02*
G01X3896190Y6143000D01*
G01X3896190Y6143000D02*
G01X3947190Y6092000D01*
G01X3874600Y5849230D02*
G01X3891960Y5849230D01*
G01X3891960Y5849230D02*
G01X3943190Y5798000D01*
G01X3180730Y2762540D02*
G01X3219190Y2801000D01*
G01X3219190Y2801000D02*
G01X3254190Y2801000D01*
G01X3254190Y2801000D02*
G01X3290190Y2837000D01*
G01X3206320Y2757130D02*
G01X3231190Y2782000D01*
G01X3231190Y2782000D02*
G01X3297190Y2782000D01*
G01X3297190Y2782000D02*
G01X3352190Y2837000D01*
G01X3001600Y2647590D02*
G01X3001600Y2713610D01*
G01X3001600Y2647590D02*
G01X3083190Y2566000D01*
G01X3083190Y2566000D02*
G01X3263690Y2566000D01*
G01X3263690Y2566000D02*
G01X3331690Y2498000D01*
G01X3027190Y2661630D02*
G01X3102820Y2586000D01*
G01X3102820Y2586000D02*
G01X3305690Y2586000D01*
G01X3305690Y2586000D02*
G01X3330690Y2561000D01*
G01X3180730Y2366460D02*
G01X3180730Y2414390D01*
G01X3180730Y2366460D02*
G01X3222190Y2325000D01*
G01X3222190Y2325000D02*
G01X3256140Y2325000D01*
G01X4200190Y4955600D02*
G01X4200190Y4984000D01*
G01X4190190Y4994000D02*
G01X4200190Y4984000D01*
G01X4166190Y4994000D02*
G01X4190190Y4994000D01*
G01X4160820Y4988630D02*
G01X4166190Y4994000D01*
G01X4160820Y4955600D02*
G01X4160820Y4988630D01*
G01X4200190Y4897330D02*
G01X4200190Y4919000D01*
G01X4180500Y4938680D02*
G01X4180500Y4955600D01*
G01X4180500Y4938680D02*
G01X4200190Y4919000D01*
G01X3433190Y2763000D02*
G01X3433190Y3291540D01*
G01X3433190Y2763000D02*
G01X3519190Y2677000D01*
G01X3519190Y2478000D02*
G01X3519190Y2677000D01*
G01X3465190Y2786000D02*
G01X3465190Y3064000D01*
G54D14*
G01X1536190Y6670000D03*
G01X4232190Y6664000D03*
G01X4297190Y2359000D03*
G54D15*
G01X4085690Y4704000D03*
G01X4148680Y4704000D03*
G01X1430150Y2835000D03*
G01X1493140Y2835000D03*
G01X1618690Y3178000D03*
G01X1555690Y3178000D03*
G01X2581150Y2119000D03*
G01X2644140Y2119000D03*
G01X3330690Y2430000D03*
G01X3393690Y2430000D03*
G01X3330690Y2752000D03*
G01X3393690Y2752000D03*
G01X3792690Y2173000D03*
G01X3729690Y2173000D03*
G01X3373950Y3297240D03*
G01X3310960Y3297240D03*
G01X2557200Y3297640D03*
G01X2494210Y3297640D03*
G01X3438960Y3297310D03*
G01X3501950Y3297310D03*
G01X2623210Y3297640D03*
G01X2686200Y3297640D03*
G01X3218740Y5664000D03*
G01X3155750Y5664000D03*
G01X2484750Y5664000D03*
G01X2547740Y5664000D03*
G01X1786610Y2421160D03*
G01X1723620Y2421160D03*
G01X1623640Y2836000D03*
G01X1560650Y2836000D03*
G01X4212000Y4831460D03*
G01X4149010Y4831460D03*
G01X3598690Y2173000D03*
G01X3661680Y2173000D03*
G01X1982070Y3374000D03*
G01X1919080Y3374000D03*
G01X2499690Y2182000D03*
G01X2436690Y2182000D03*
G01X3393690Y2688000D03*
G01X3330690Y2688000D03*
G01X3331690Y2498000D03*
G01X3394690Y2498000D03*
G01X3330690Y2561000D03*
G01X3393690Y2561000D03*
G01X3330690Y2624000D03*
G01X3393690Y2624000D03*
G01X2564690Y2568000D03*
G01X2627690Y2568000D03*
G01X2564690Y2505000D03*
G01X2627690Y2505000D03*
G01X2564690Y2444000D03*
G01X2627690Y2444000D03*
G01X2436690Y2245000D03*
G01X2499690Y2245000D03*
G01X1780690Y6449000D03*
G01X1843690Y6449000D03*
G54D16*
G01X4082190Y4830500D03*
G01X4082190Y4767500D03*
G01X1285000Y2697500D03*
G01X1285000Y2634500D03*
G01X1353140Y3052500D03*
G01X1353140Y2989500D03*
G01X1352140Y2697500D03*
G01X1352140Y2634500D03*
G01X2758650Y2215500D03*
G01X2758650Y2278500D03*
G01X2820650Y2215500D03*
G01X2820650Y2278500D03*
G01X2882650Y2215500D03*
G01X2882650Y2278500D03*
G01X3883690Y6069500D03*
G01X3883690Y6006500D03*
G01X3290190Y2899990D03*
G01X3290190Y2837000D03*
G01X3352190Y2837000D03*
G01X3352190Y2899990D03*
G01X4314010Y6367440D03*
G01X4314010Y6304450D03*
G01X1751320Y3645500D03*
G01X1751320Y3582500D03*
G01X1880120Y2332650D03*
G01X1880120Y2269660D03*
G01X3955190Y6226880D03*
G01X3955190Y6163890D03*
G01X3159920Y2837000D03*
G01X3159920Y2899990D03*
G01X2964920Y2837000D03*
G01X2964920Y2899990D03*
G01X3028920Y2837000D03*
G01X3028920Y2899990D03*
G01X2840190Y2837010D03*
G01X2840190Y2900000D03*
G01X2775190Y2836500D03*
G01X2775190Y2899500D03*
G01X3955190Y5933110D03*
G01X3955190Y5870120D03*
G01X3054650Y2278500D03*
G01X3054650Y2215500D03*
G01X2902920Y2837000D03*
G01X2902920Y2899990D03*
G01X3095990Y2837000D03*
G01X3095990Y2899990D03*
G01X3302650Y2215500D03*
G01X3302650Y2278500D03*
G01X3240650Y2215500D03*
G01X3240650Y2278500D03*
G01X3178650Y2215500D03*
G01X3178650Y2278500D03*
G01X3116650Y2215500D03*
G01X3116650Y2278500D03*
G01X3225920Y2899990D03*
G01X3225920Y2837000D03*
G01X1447140Y3052500D03*
G01X1447140Y2989500D03*
G54D17*
G01X2436550Y4546000D03*
G01X2231830Y4546000D03*
G01X2435910Y4307000D03*
G01X2231190Y4307000D03*
G01X3114460Y4307000D03*
G01X3319190Y4307000D03*
G01X3114460Y4546000D03*
G01X3319190Y4546000D03*
G54D18*
G01X2463190Y2087000D03*
G01X2961190Y2081000D03*
G54D19*
G01X2363190Y2087000D03*
G01X2263190Y2087000D03*
G01X2163190Y2087000D03*
G01X2456190Y2455000D03*
G01X2456190Y2555000D03*
G01X2456190Y2655000D03*
G01X3261190Y2081000D03*
G01X3161190Y2081000D03*
G01X3061190Y2081000D03*
G01X3361190Y2081000D03*
G01X3461190Y2081000D03*
G01X3561190Y2081000D03*
G01X3661190Y2081000D03*
G54D20*
G01X2499690Y2245000D02*
G01X2550190Y2245000D01*
G01X2307190Y2375000D02*
G01X2307190Y2759000D01*
G01X3797680Y2545010D02*
G01X3797680Y2694000D01*
G01X2616190Y3066000D02*
G01X3186190Y3066000D01*
G01X2519190Y2969000D02*
G01X2616190Y3066000D01*
G01X2142190Y2969000D02*
G01X2302190Y2969000D01*
G01X1905580Y3205610D02*
G01X2142190Y2969000D01*
G01X2302190Y2969000D02*
G01X2519190Y2969000D01*
G01X1905580Y3205610D02*
G01X1905580Y3293990D01*
G01X3245920Y2364730D02*
G01X3255660Y2355000D01*
G01X3255660Y2355000D02*
G01X3335190Y2355000D01*
G01X4090690Y2505000D02*
G01X4118690Y2533000D01*
G01X3837690Y2505000D02*
G01X4090690Y2505000D01*
G01X3797690Y2545000D02*
G01X3837690Y2505000D01*
G01X3516190Y3044000D02*
G01X3538190Y3066000D01*
G01X3516190Y2975500D02*
G01X3516190Y3044000D01*
G01X3516190Y2975500D02*
G01X3797680Y2694000D01*
G01X2757430Y3377360D02*
G01X2764710Y3384640D01*
G01X2712190Y3377360D02*
G01X2757430Y3377360D01*
G01X3566170Y3377020D02*
G01X3576460Y3387310D01*
G01X3529190Y3377020D02*
G01X3566170Y3377020D01*
G01X1594190Y2092920D02*
G01X1594190Y2251000D01*
G01X1594190Y2092920D02*
G01X1689110Y1998000D01*
G01X2581190Y2659000D02*
G01X2581190Y2676000D01*
G01X3542190Y6037000D02*
G01X3722690Y6037000D01*
G01X3486190Y6093000D02*
G01X3542190Y6037000D01*
G01X3486190Y6093000D02*
G01X3486190Y6317000D01*
G01X3416190Y6387000D02*
G01X3486190Y6317000D01*
G01X3048190Y6387000D02*
G01X3416190Y6387000D01*
G01X3010190Y6425000D02*
G01X3048190Y6387000D01*
G01X3540190Y3068000D02*
G01X4212000Y3739810D01*
G01X3797680Y2545010D02*
G01X3797690Y2545000D01*
G01X2582190Y1997000D02*
G01X3842190Y1997000D01*
G01X2581190Y1998000D02*
G01X2582190Y1997000D01*
G01X1689110Y1998000D02*
G01X2581190Y1998000D01*
G01X3842190Y1997000D02*
G01X3931190Y2086000D01*
G01X3792690Y2173000D02*
G01X3844190Y2173000D01*
G01X3661680Y2173000D02*
G01X3729690Y2173000D01*
G01X1540190Y2305000D02*
G01X1540190Y2412000D01*
G01X1540190Y2305000D02*
G01X1594190Y2251000D01*
G01X2960650Y2162460D02*
G01X2960650Y2221000D01*
G01X1819190Y3166000D02*
G01X1819190Y3616000D01*
G01X1789690Y3645500D02*
G01X1819190Y3616000D01*
G01X1751320Y3645500D02*
G01X1789690Y3645500D01*
G01X1750190Y3505000D02*
G01X1750190Y3581370D01*
G01X1750190Y3581370D02*
G01X1751320Y3582500D01*
G01X2680050Y2276240D02*
G01X2680050Y2319860D01*
G01X3310960Y3297240D02*
G01X3310960Y3331770D01*
G01X3310960Y3331770D02*
G01X3325460Y3346270D01*
G01X3325460Y3346270D02*
G01X3325460Y3377020D01*
G01X4314450Y6367000D02*
G01X4360190Y6367000D01*
G01X4314010Y6367440D02*
G01X4314450Y6367000D01*
G01X4116190Y6176000D02*
G01X4116190Y6210000D01*
G01X4090580Y6150390D02*
G01X4116190Y6176000D01*
G01X4035190Y6150390D02*
G01X4090580Y6150390D01*
G01X4115190Y5875000D02*
G01X4115190Y5948000D01*
G01X4096800Y5856610D02*
G01X4115190Y5875000D01*
G01X4035190Y5856610D02*
G01X4096800Y5856610D01*
G01X1468590Y3573400D02*
G01X1482190Y3587000D01*
G01X1468590Y3508240D02*
G01X1468590Y3573400D01*
G01X1393790Y3508240D02*
G01X1394190Y3508650D01*
G01X1394190Y3508650D02*
G01X1394190Y3587000D01*
G01X1394190Y3587000D02*
G01X1394190Y3587000D01*
G01X1284190Y3587000D02*
G01X1394190Y3587000D01*
G01X3034800Y6454610D02*
G01X3034800Y6486410D01*
G01X3034800Y6486410D02*
G01X3034800Y6512000D01*
G01X3034800Y6537590D02*
G01X3034800Y6570610D01*
G01X3034800Y6512000D02*
G01X3034800Y6537590D01*
G01X3159920Y2899990D02*
G01X3159920Y2949500D01*
G01X3028920Y2899990D02*
G01X3028920Y2949500D01*
G01X2964920Y2899990D02*
G01X2964920Y2949500D01*
G01X2840190Y2900000D02*
G01X2840190Y2949500D01*
G01X2775190Y2899500D02*
G01X2775190Y2949000D01*
G01X2624190Y2912000D02*
G01X2676190Y2912000D01*
G01X2463190Y2087000D02*
G01X2499690Y2123500D01*
G01X2499690Y2123500D02*
G01X2499690Y2182000D01*
G01X3415190Y2297000D02*
G01X3415190Y2355000D01*
G01X3415190Y2355000D02*
G01X3415190Y2355000D01*
G01X3415190Y2355000D02*
G01X3466190Y2355000D01*
G01X3550190Y2173000D02*
G01X3598690Y2173000D01*
G01X3661190Y2172500D02*
G01X3661680Y2173000D01*
G01X3661190Y2081000D02*
G01X3661190Y2172500D01*
G01X2581150Y2070040D02*
G01X2581150Y2119000D01*
G01X3955190Y5933110D02*
G01X4031690Y5933110D01*
G01X4031690Y5933110D02*
G01X4035190Y5936610D01*
G01X3954190Y5869110D02*
G01X3955190Y5870120D01*
G01X3954190Y5830230D02*
G01X3954190Y5869110D01*
G01X3955190Y6226880D02*
G01X4031690Y6226880D01*
G01X4031690Y6226880D02*
G01X4035190Y6230390D01*
G01X3954190Y6162890D02*
G01X3955190Y6163890D01*
G01X3954190Y6124000D02*
G01X3954190Y6162890D01*
G01X1879190Y3375000D02*
G01X1918070Y3375000D01*
G01X1918070Y3375000D02*
G01X1919080Y3374000D01*
G01X1982070Y3297500D02*
G01X1985570Y3293990D01*
G01X1982070Y3297500D02*
G01X1982070Y3374000D01*
G01X1689460Y3645400D02*
G01X1751230Y3645400D01*
G01X1589890Y3570600D02*
G01X1627290Y3608000D01*
G01X1627290Y3608000D02*
G01X1689460Y3608000D01*
G01X1726010Y3607810D02*
G01X1751320Y3582500D01*
G01X1689460Y3607810D02*
G01X1726010Y3607810D01*
G01X1447140Y2941000D02*
G01X1447140Y2989500D01*
G01X1435140Y2788000D02*
G01X1435140Y2830010D01*
G01X1430150Y2835000D02*
G01X1435140Y2830010D01*
G01X1484070Y2541000D02*
G01X1484070Y2594070D01*
G01X1450130Y2628490D02*
G01X1450130Y2706000D01*
G01X1692140Y2982000D02*
G01X1749140Y2982000D01*
G01X1965610Y2228000D02*
G01X2022140Y2228000D01*
G01X1965140Y2227530D02*
G01X1965610Y2228000D01*
G01X1965140Y2181210D02*
G01X1965140Y2227530D01*
G01X1880120Y2223340D02*
G01X1880120Y2269660D01*
G01X1677300Y2421160D02*
G01X1723620Y2421160D01*
G01X1723620Y2421160D02*
G01X1737720Y2407060D01*
G01X1737720Y2350290D02*
G01X1737720Y2407060D01*
G01X1775120Y2409660D02*
G01X1786610Y2421160D01*
G01X1775120Y2350290D02*
G01X1775120Y2409660D01*
G01X3181190Y4814000D02*
G01X3181190Y4899570D01*
G01X4238140Y6353350D02*
G01X4299910Y6353350D01*
G01X4299910Y6353350D02*
G01X4314010Y6367440D01*
G01X4302510Y6315950D02*
G01X4314010Y6304450D01*
G01X4238140Y6315950D02*
G01X4302510Y6315950D01*
G01X4203140Y6315950D02*
G01X4238140Y6315950D01*
G01X4165730Y6278540D02*
G01X4203140Y6315950D01*
G01X4129870Y6278540D02*
G01X4165730Y6278540D01*
G01X4314010Y6253820D02*
G01X4314010Y6304450D01*
G01X3236570Y6424610D02*
G01X3236570Y6486410D01*
G01X3236570Y6486410D02*
G01X3236570Y6512000D01*
G01X3236570Y6512000D02*
G01X3236570Y6537590D01*
G01X2666710Y3377360D02*
G01X2757430Y3377360D01*
G01X2494210Y3249380D02*
G01X2494210Y3297640D01*
G01X2686200Y3249380D02*
G01X2686200Y3297640D01*
G01X2762170Y3249080D02*
G01X2762170Y3304640D01*
G01X2516710Y3347880D02*
G01X2516710Y3377360D01*
G01X2494210Y3325380D02*
G01X2516710Y3347880D01*
G01X2494210Y3297640D02*
G01X2494210Y3325380D01*
G01X3475460Y3377020D02*
G01X3566170Y3377020D01*
G01X3310960Y3248980D02*
G01X3310960Y3297240D01*
G01X3501950Y3249050D02*
G01X3501950Y3297310D01*
G01X3579460Y3248740D02*
G01X3579460Y3304310D01*
G01X4212000Y3739810D02*
G01X4212000Y4831460D01*
G01X3335190Y2355000D02*
G01X3362190Y2328000D01*
G01X3362190Y2284000D02*
G01X3362190Y2328000D01*
G01X3101760Y4979000D02*
G01X3181190Y4899570D01*
G01X2468730Y4814020D02*
G01X2468730Y4914460D01*
G01X2468730Y4914460D02*
G01X2533210Y4978930D01*
G01X2962190Y2479000D02*
G01X2962190Y2513640D01*
G01X2879830Y2596000D02*
G01X2962190Y2513640D01*
G01X2922190Y2299000D02*
G01X2958650Y2299000D01*
G01X2581190Y2659000D02*
G01X2596190Y2644000D01*
G01X2596190Y2644000D02*
G01X2641190Y2644000D01*
G54D21*
G01X3652500Y3384310D02*
G01X3702500Y3384310D01*
G01X1428190Y3269000D02*
G01X1489330Y3269000D01*
G01X1489330Y3207860D02*
G01X1489330Y3269000D01*
G01X1998190Y3166000D02*
G01X2200190Y3166000D01*
G01X2873190Y3452000D02*
G01X2873190Y3502000D01*
G01X1786610Y2421160D02*
G01X1786610Y2498430D01*
G01X1786610Y2498430D02*
G01X1918190Y2630000D01*
G01X1918190Y2630000D02*
G01X1918190Y2885000D01*
G01X1819190Y3166000D02*
G01X2009190Y2976000D01*
G01X2749190Y3453000D02*
G01X2769710Y3432480D01*
G01X2749190Y3453480D02*
G01X2769710Y3474000D01*
G01X2749190Y3453000D02*
G01X2749190Y3453480D01*
G01X2200190Y3166000D02*
G01X2487190Y3453000D01*
G01X2487190Y3453000D02*
G01X2769710Y3453000D01*
G01X3559190Y3453000D02*
G01X3576460Y3435730D01*
G01X3559190Y3453000D02*
G01X3576460Y3470270D01*
G01X3282190Y3453000D02*
G01X3576460Y3453000D01*
G01X3213830Y3384640D02*
G01X3282190Y3453000D01*
G01X2764710Y3384640D02*
G01X3213830Y3384640D01*
G01X3576460Y3387310D02*
G01X3576460Y3453000D01*
G01X3576460Y3453000D02*
G01X3576460Y3528570D01*
G01X2873190Y3502000D02*
G01X2873190Y3777360D01*
G01X3579460Y3384310D02*
G01X3652500Y3384310D01*
G01X3681190Y3438000D02*
G01X3681190Y3775590D01*
G01X3570470Y3886310D02*
G01X3681190Y3775590D01*
G01X2763910Y3886640D02*
G01X2873190Y3777360D01*
G01X1348190Y4265000D02*
G01X1461190Y4265000D01*
G01X1259190Y4176000D02*
G01X1348190Y4265000D01*
G01X1259190Y3692000D02*
G01X1259190Y4176000D01*
G01X1259190Y3692000D02*
G01X1284190Y3667000D01*
G01X1394190Y3667000D02*
G01X1482190Y3667000D01*
G01X1482190Y3809000D02*
G01X1484190Y3811000D01*
G01X1482190Y3667000D02*
G01X1482190Y3809000D01*
G01X2769710Y3389640D02*
G01X2769710Y3528900D01*
G01X3681190Y3438000D02*
G01X3731190Y3438000D01*
G54D22*
G01X3384830Y4139000D03*
G01X2141910Y4139000D03*
G54D23*
G01X3089550Y4139000D03*
G01X2437190Y4139000D03*
G01X2986830Y6180000D03*
G54D24*
G01X3633190Y6812000D03*
G01X1461190Y4015000D03*
G01X2614190Y6812000D03*
G54D25*
G01X3883190Y6812000D03*
G01X2864190Y6812000D03*
G54D26*
G01X1461190Y4265000D03*
G54D27*
G01X1964140Y2478000D03*
G54D28*
G01X2064140Y2478000D03*
G01X2164140Y2478000D03*
G54D29*
G01X2456190Y2355000D03*
G54D30*
G01X2691550Y6180000D03*
G54D31*
G01X1392190Y2134000D03*
G01X1392190Y6892110D03*
G01X4260540Y6892110D03*
G01X4260540Y2134000D03*
G54D32*
G01X1540000Y2423000D03*
G01X2065190Y2674000D03*
G01X1842000Y2083000D03*
G54D33*
G01X2355190Y2256000D03*
G01X2550190Y2245000D03*
G01X2307190Y2375000D03*
G01X2167190Y2565000D03*
G01X2212190Y2689000D03*
G01X2212190Y2879000D03*
G01X2302190Y2969000D03*
G01X3501190Y6824000D03*
G01X3501190Y6746000D03*
G01X3501190Y6785000D03*
G01X3501190Y6864000D03*
G01X3422190Y6864000D03*
G01X3461190Y6864000D03*
G01X3067190Y6866000D03*
G01X3028190Y6866000D03*
G01X2912190Y6677000D03*
G01X2873190Y6677000D03*
G01X2834190Y6677000D03*
G01X1725690Y6282500D03*
G01X1835690Y6282500D03*
G01X1780690Y6282500D03*
G01X3702500Y3384310D03*
G01X1428190Y3269000D03*
G01X1489330Y3207860D03*
G01X3797690Y2615000D03*
G01X3486490Y2651300D03*
G01X3186190Y3066000D03*
G01X2966190Y3452000D03*
G01X2966190Y3502000D03*
G01X3538190Y3066000D03*
G01X2340190Y2759000D03*
G01X2303190Y2759000D03*
G01X1998190Y3166000D03*
G01X3797680Y2694000D03*
G01X3561190Y2985000D03*
G01X3601190Y3021000D03*
G01X3598190Y2948000D03*
G01X2873190Y3452000D03*
G01X2581190Y1998000D03*
G01X3931190Y2086000D03*
G01X3844190Y2173000D03*
G01X2960650Y2162460D03*
G01X1918190Y2885000D03*
G01X2009190Y2976000D03*
G01X1819190Y3166000D03*
G01X2873190Y3502000D03*
G01X1750190Y3505000D03*
G01X2644140Y2070040D03*
G01X2680050Y2319860D03*
G01X4360190Y6367000D03*
G01X4116190Y6210000D03*
G01X4115190Y5948000D03*
G01X3652500Y3384310D03*
G01X3681190Y3438000D03*
G01X3232190Y3020000D03*
G01X2771190Y2995000D03*
G01X2902920Y2952270D03*
G01X3226190Y2948000D03*
G01X3260190Y2985000D03*
G01X2879830Y2596000D03*
G01X4180190Y4766000D03*
G01X3443190Y2688000D03*
G01X3444190Y2498000D03*
G01X3443190Y2624000D03*
G01X3797690Y2545000D03*
G01X1680140Y3224000D03*
G01X1680140Y3261000D03*
G01X1680140Y3298000D03*
G01X3144190Y6207000D03*
G01X3144190Y6168000D03*
G01X3105190Y6168000D03*
G01X3105190Y6207000D03*
G01X3066190Y6207000D03*
G01X3066190Y6168000D03*
G01X3036190Y4314000D03*
G01X3036190Y4353000D03*
G01X3036190Y4275000D03*
G01X3036190Y4236000D03*
G01X3036190Y4392000D03*
G01X3036190Y4470000D03*
G01X3036190Y4431000D03*
G01X3036190Y4509000D03*
G01X3036190Y4587000D03*
G01X3036190Y4548000D03*
G01X2514190Y4548000D03*
G01X2514190Y4587000D03*
G01X2514190Y4509000D03*
G01X2514190Y4431000D03*
G01X2514190Y4470000D03*
G01X2514190Y4392000D03*
G01X2514190Y4236000D03*
G01X2514190Y4275000D03*
G01X2514190Y4353000D03*
G01X2514190Y4314000D03*
G01X3271190Y6468000D03*
G01X3271190Y6507000D03*
G01X3422190Y6746000D03*
G01X3422190Y6785000D03*
G01X3461190Y6785000D03*
G01X3461190Y6746000D03*
G01X3461190Y6824000D03*
G01X3422190Y6824000D03*
G01X3028190Y6751000D03*
G01X3028190Y6790000D03*
G01X3067190Y6790000D03*
G01X3067190Y6751000D03*
G01X3067190Y6829000D03*
G01X3028190Y6829000D03*
G01X2834190Y6638000D03*
G01X2873190Y6638000D03*
G01X2873190Y6599000D03*
G01X2834190Y6599000D03*
G01X2912190Y6599000D03*
G01X2912190Y6638000D03*
G01X3159920Y2949500D03*
G01X3028920Y2949500D03*
G01X2964920Y2949500D03*
G01X2840190Y2949500D03*
G01X2775190Y2949000D03*
G01X2624190Y2912000D03*
G01X2733190Y2837000D03*
G01X2840190Y2795000D03*
G01X2963190Y2795000D03*
G01X3160190Y2786000D03*
G01X3028190Y2796000D03*
G01X2873650Y2655460D03*
G01X3101190Y2643000D03*
G01X2742190Y2568000D03*
G01X3415190Y2297000D03*
G01X3466190Y2355000D03*
G01X3550190Y2173000D03*
G01X2581150Y2070040D03*
G01X3926180Y6069500D03*
G01X3954190Y5830230D03*
G01X3650190Y5957230D03*
G01X3954190Y6124000D03*
G01X3650190Y6251000D03*
G01X1879190Y3375000D03*
G01X4075690Y2669000D03*
G01X4118690Y2533000D03*
G01X1690190Y4112000D03*
G01X1447140Y2941000D03*
G01X1435140Y2788000D03*
G01X1484070Y2594070D03*
G01X1450130Y2628490D03*
G01X1324140Y2934000D03*
G01X1304140Y2906000D03*
G01X1342140Y2906000D03*
G01X1749140Y2982000D03*
G01X1718140Y2657000D03*
G01X1718140Y2695000D03*
G01X1718140Y2733000D03*
G01X2022140Y2228000D03*
G01X1965140Y2181210D03*
G01X1880120Y2223340D03*
G01X1677300Y2421160D03*
G01X2581190Y2676000D03*
G01X3524190Y4366000D03*
G01X3524190Y4327000D03*
G01X3485190Y4327000D03*
G01X3485190Y4366000D03*
G01X3485190Y4288000D03*
G01X3524190Y4288000D03*
G01X3485190Y4249000D03*
G01X3524190Y4249000D03*
G01X3446190Y4249000D03*
G01X3446190Y4288000D03*
G01X3446190Y4366000D03*
G01X3446190Y4327000D03*
G01X3407190Y4249000D03*
G01X3407190Y4288000D03*
G01X3407190Y4366000D03*
G01X3407190Y4327000D03*
G01X3122700Y5206800D03*
G01X3161700Y5206800D03*
G01X3122700Y5167800D03*
G01X3161700Y5167800D03*
G01X3083700Y5167800D03*
G01X3083700Y5206800D03*
G01X3044700Y5167800D03*
G01X3044700Y5206800D03*
G01X2449190Y5209000D03*
G01X2449190Y5170000D03*
G01X2488190Y5209000D03*
G01X2488190Y5170000D03*
G01X2566190Y5170000D03*
G01X2527190Y5170000D03*
G01X2566190Y5209000D03*
G01X2527190Y5209000D03*
G01X1865190Y4532000D03*
G01X1904190Y4532000D03*
G01X1865190Y4493000D03*
G01X1904190Y4493000D03*
G01X1964190Y4083000D03*
G01X1964190Y4122000D03*
G01X1964190Y4044000D03*
G01X1964190Y4005000D03*
G01X2003190Y4083000D03*
G01X2003190Y4122000D03*
G01X2003190Y4044000D03*
G01X2003190Y4005000D03*
G01X2081190Y4005000D03*
G01X2042190Y4005000D03*
G01X2081190Y4044000D03*
G01X2042190Y4044000D03*
G01X2042190Y4122000D03*
G01X2042190Y4083000D03*
G01X2081190Y4083000D03*
G01X2081190Y4122000D03*
G01X1484190Y3860000D03*
G01X1484190Y3811000D03*
G01X1533190Y3811000D03*
G01X1533190Y3860000D03*
G01X1582190Y3811000D03*
G01X1582190Y3860000D03*
G01X1631190Y3811000D03*
G01X1631190Y3860000D03*
G01X1904190Y4415000D03*
G01X1904190Y4376000D03*
G01X1904190Y4337000D03*
G01X1904190Y4454000D03*
G01X1865190Y4337000D03*
G01X1865190Y4376000D03*
G01X1865190Y4415000D03*
G01X1865190Y4454000D03*
G01X2438190Y6219000D03*
G01X2477190Y6219000D03*
G01X2477190Y6180000D03*
G01X2438190Y6180000D03*
G01X2516190Y6180000D03*
G01X2516190Y6219000D03*
G01X2555190Y6180000D03*
G01X2555190Y6219000D03*
G01X2555190Y6141000D03*
G01X2516190Y6141000D03*
G01X2438190Y6141000D03*
G01X2477190Y6141000D03*
G01X2477190Y6446000D03*
G01X2438190Y6446000D03*
G01X2516190Y6446000D03*
G01X2555190Y6446000D03*
G01X2555190Y6524000D03*
G01X2555190Y6485000D03*
G01X2516190Y6524000D03*
G01X2516190Y6485000D03*
G01X2438190Y6485000D03*
G01X2477190Y6485000D03*
G01X2477190Y6524000D03*
G01X2438190Y6524000D03*
G01X4314010Y6253820D03*
G01X3705190Y6507000D03*
G01X3705190Y6468000D03*
G01X3705190Y6546000D03*
G01X3183190Y6168000D03*
G01X3183190Y6207000D03*
G01X3666190Y6546000D03*
G01X3666190Y6468000D03*
G01X3666190Y6507000D03*
G01X3271190Y6429000D03*
G01X3310190Y6507000D03*
G01X3310190Y6429000D03*
G01X3310190Y6468000D03*
G01X3222190Y6207000D03*
G01X3222190Y6168000D03*
G01X2494210Y3249380D03*
G01X2686200Y3249380D03*
G01X2762170Y3249080D03*
G01X2331190Y3988000D03*
G01X2404190Y3988000D03*
G01X3242910Y3990280D03*
G01X3149910Y3990280D03*
G01X3310960Y3248980D03*
G01X3501950Y3249050D03*
G01X3579460Y3248740D03*
G01X1646190Y3693000D03*
G01X3731190Y3438000D03*
G01X3465190Y2786000D03*
G01X3362190Y2284000D03*
G01X2962190Y2479000D03*
G01X2922190Y2299000D03*
G01X2775190Y2622000D03*
G01X2775190Y2659000D03*
G01X3206320Y2469000D03*
G01X3002190Y2469000D03*
G54D34*
G01X4020250Y6480640D03*
G01X3974980Y6480640D03*
G01X4020250Y6533000D03*
G01X3974980Y6533000D03*
G01X3974980Y6585360D03*
G01X4020250Y6585360D03*
G01X2056910Y6845100D03*
G01X2004550Y6845100D03*
G01X1952190Y6845100D03*
G01X2109280Y6845100D03*
G01X1899830Y6845100D03*
G01X1899830Y6754550D03*
G01X1899830Y6709280D03*
G01X1899830Y6664000D03*
G01X1899830Y6799830D03*
G01X2109280Y6754550D03*
G01X2109280Y6709280D03*
G01X2109280Y6664000D03*
G01X2109280Y6799830D03*
G01X1952190Y6799830D03*
G01X2004550Y6799830D03*
G01X2056910Y6799830D03*
G01X2056910Y6664000D03*
G01X2056910Y6709280D03*
G01X2056910Y6754550D03*
G01X2004550Y6754550D03*
G01X2004550Y6709280D03*
G01X2004550Y6664000D03*
G01X1952190Y6754550D03*
G01X1952190Y6709280D03*
G01X1952190Y6664000D03*
G01X3073190Y6490350D03*
G01X3073190Y6533650D03*
G01X3198190Y6533650D03*
G01X3198190Y6490350D03*
G01X4018690Y2630750D03*
G01X4018690Y2599250D03*
G01X3929700Y6585360D03*
G01X3884420Y6585360D03*
G01X3839150Y6585360D03*
G01X3839150Y6533000D03*
G01X3884420Y6533000D03*
G01X3929700Y6533000D03*
G01X3839150Y6480640D03*
G01X3884420Y6480640D03*
G01X3929700Y6480640D03*
G01X3325530Y5031450D03*
G01X3370800Y5031450D03*
G01X3416080Y5031450D03*
G01X3325530Y4979090D03*
G01X3370800Y4979090D03*
G01X3416080Y4979090D03*
G01X3416080Y4926720D03*
G01X3370800Y4926720D03*
G01X3325530Y4926720D03*
G01X3038570Y5031360D03*
G01X3083840Y5031360D03*
G01X3129120Y5031360D03*
G01X3038570Y4979000D03*
G01X3083840Y4979000D03*
G01X3129120Y4979000D03*
G01X3129120Y4926640D03*
G01X3083840Y4926640D03*
G01X3038570Y4926640D03*
G01X2302350Y4926650D03*
G01X2257080Y4926650D03*
G01X2211800Y4926650D03*
G01X2302350Y4979020D03*
G01X2257080Y4979020D03*
G01X2211800Y4979020D03*
G01X2211800Y5031380D03*
G01X2257080Y5031380D03*
G01X2302350Y5031380D03*
G01X2596390Y5031290D03*
G01X2551120Y5031290D03*
G01X2505840Y5031290D03*
G01X2505840Y4978930D03*
G01X2551120Y4978930D03*
G01X2596390Y4978930D03*
G01X2505840Y4926570D03*
G01X2551120Y4926570D03*
G01X2596390Y4926570D03*
G01X1732190Y4305000D03*
G01X1686910Y4305000D03*
G01X1641640Y4305000D03*
G01X1732190Y4357360D03*
G01X1686910Y4357360D03*
G01X1641640Y4357360D03*
G01X1641640Y4409720D03*
G01X1686910Y4409720D03*
G01X1732190Y4409720D03*
G54D35*
G01X2322780Y2254710D03*
G01X2297190Y2174000D03*
G01X2348370Y2174000D03*
G54D36*
G01X2125870Y2565000D03*
G01X2086500Y2565000D03*
G54D37*
G01X2079550Y6796090D03*
G01X2029550Y6796090D03*
G01X1979550Y6796090D03*
G01X1929550Y6796090D03*
G01X1929550Y6574040D03*
G01X1979550Y6574040D03*
G01X2029550Y6574040D03*
G01X2079550Y6574040D03*
G54D38*
G01X2004550Y6727580D03*
G54D39*
G01X3475460Y3377020D03*
G01X3425460Y3377020D03*
G01X3375460Y3377020D03*
G01X3325460Y3377020D03*
G01X3475460Y3591590D03*
G01X3425460Y3591590D03*
G01X3375460Y3591590D03*
G01X3325460Y3591590D03*
G01X2666710Y3377360D03*
G01X2616710Y3377360D03*
G01X2566710Y3377360D03*
G01X2516710Y3377360D03*
G01X2666710Y3591930D03*
G01X2616710Y3591930D03*
G01X2566710Y3591930D03*
G01X2516710Y3591930D03*
G54D40*
G01X4238140Y6353350D03*
G01X4238140Y6315950D03*
G01X4238140Y6278540D03*
G01X4129870Y6278540D03*
G01X4129870Y6353350D03*
G01X1689460Y3645400D03*
G01X1689460Y3608000D03*
G01X1689460Y3570600D03*
G01X1581190Y3570600D03*
G01X1581190Y3645400D03*
G54D41*
G01X3073190Y6512000D03*
G01X3198190Y6512000D03*
G54D42*
G01X3034800Y6537590D03*
G01X3034800Y6512000D03*
G01X3034800Y6486410D03*
G01X3111570Y6486410D03*
G01X3111570Y6512000D03*
G01X3111570Y6537590D03*
G01X3236570Y6486410D03*
G01X3236570Y6512000D03*
G01X3236570Y6537590D03*
G01X3159800Y6537590D03*
G01X3159800Y6512000D03*
G01X3159800Y6486410D03*
G54D43*
G01X1737720Y2350290D03*
G01X1775120Y2350290D03*
G01X1812520Y2350290D03*
G01X1812520Y2242020D03*
G01X1737720Y2242020D03*
G54D44*
G01X1527640Y3103110D03*
G01X1553230Y3103110D03*
G01X1578820Y3103110D03*
G01X1527640Y2927910D03*
G01X1553230Y2927910D03*
G01X1578820Y2927910D03*
G01X1604410Y2927910D03*
G01X1604410Y3103110D03*
G54D45*
G01X4200190Y4955600D03*
G01X4160820Y4955600D03*
G01X4160820Y4897330D03*
G01X4180500Y4897330D03*
G01X4200190Y4897330D03*
G01X4180500Y4955600D03*
G54D46*
G01X3874600Y6219770D03*
G01X3874600Y6194180D03*
G01X3874600Y6168590D03*
G01X3874600Y6143000D03*
G01X3650190Y6219770D03*
G01X3650190Y6194180D03*
G01X3650190Y6168590D03*
G01X3650190Y6143000D03*
G01X3874600Y5926000D03*
G01X3874600Y5900410D03*
G01X3874600Y5874820D03*
G01X3874600Y5849230D03*
G01X3650190Y5926000D03*
G01X3650190Y5900410D03*
G01X3650190Y5874820D03*
G01X3650190Y5849230D03*
G54D47*
G01X3257500Y2414390D03*
G01X3231910Y2414390D03*
G01X3206320Y2414390D03*
G01X3180730Y2414390D03*
G01X3155140Y2414390D03*
G01X3129550Y2414390D03*
G01X3103960Y2414390D03*
G01X3078370Y2414390D03*
G01X3052780Y2414390D03*
G01X3027190Y2414390D03*
G01X3001600Y2414390D03*
G01X2976010Y2414390D03*
G01X2950420Y2414390D03*
G01X2924830Y2414390D03*
G01X2899240Y2414390D03*
G01X2873650Y2414390D03*
G01X2848050Y2414390D03*
G01X2822460Y2414390D03*
G01X2796870Y2414390D03*
G01X3257500Y2713610D03*
G01X3231910Y2713610D03*
G01X3206320Y2713610D03*
G01X3180730Y2713610D03*
G01X3155140Y2713610D03*
G01X3129550Y2713610D03*
G01X3103960Y2713610D03*
G01X3078370Y2713610D03*
G01X3052780Y2713610D03*
G01X3027190Y2713610D03*
G01X3001600Y2713610D03*
G01X2976010Y2713610D03*
G01X2950420Y2713610D03*
G01X2924830Y2713610D03*
G01X2899240Y2713610D03*
G01X2873650Y2713610D03*
G01X2848050Y2713610D03*
G01X2822460Y2713610D03*
G01X2796870Y2713610D03*
G54D48*
G01X2950190Y4814000D03*
G01X3030190Y4814000D03*
G01X2652730Y4814020D03*
G01X2732730Y4814020D03*
G01X3463460Y3778310D03*
G01X3383460Y3778310D03*
G01X2656710Y3778640D03*
G01X2576710Y3778640D03*
G01X3261190Y4814000D03*
G01X3181190Y4814000D03*
G01X2468730Y4814020D03*
G01X2388730Y4814020D03*
G01X3802690Y6037000D03*
G01X3722690Y6037000D03*
G01X2721190Y2732000D03*
G01X2641190Y2732000D03*
G01X3463460Y3686310D03*
G01X3383460Y3686310D03*
G01X2576710Y3686640D03*
G01X2656710Y3686640D03*
G01X1905580Y3293990D03*
G01X1985570Y3293990D03*
G01X3335190Y2355000D03*
G01X3415190Y2355000D03*
G01X2721190Y2644000D03*
G01X2641190Y2644000D03*
G54D49*
G01X3293730Y3763310D03*
G01X3293730Y3683310D03*
G01X2491710Y3682640D03*
G01X2491710Y3762640D03*
G01X3235460Y3589310D03*
G01X3235460Y3509310D03*
G01X2423710Y3589640D03*
G01X2423710Y3509640D03*
G01X2676190Y2832000D03*
G01X2676190Y2912000D03*
G01X1284190Y3587000D03*
G01X1284190Y3667000D03*
G01X1482190Y3667000D03*
G01X1482190Y3587000D03*
G01X1394190Y3667000D03*
G01X1394190Y3587000D03*
G01X4035190Y6150390D03*
G01X4035190Y6230390D03*
G01X3579460Y3384310D03*
G01X3579460Y3304310D03*
G01X2764710Y3304640D03*
G01X2764710Y3384640D03*
G01X1692140Y3062000D03*
G01X1692140Y2982000D03*
G01X2960650Y2221000D03*
G01X2960650Y2301000D03*
G01X4035190Y5856610D03*
G01X4035190Y5936610D03*
G54D50*
G01X3796100Y6354000D03*
G01X3910280Y6354000D03*
G01X1803270Y4173000D03*
G01X1689100Y4173000D03*
G54D51*
G01X3333800Y6812000D03*
G01X3160570Y6812000D03*
G01X2692570Y6486000D03*
G01X2865800Y6486000D03*
G01X1804800Y3976000D03*
G01X1631570Y3976000D03*
G54D52*
G01X3101760Y4979000D03*
G01X2533210Y4978930D03*
G01X3388720Y4979090D03*
G01X2239170Y4979020D03*
G54D53*
G01X3172230Y4904000D03*
G01X3172230Y4954000D03*
G01X3172230Y5004000D03*
G01X3172230Y5054000D03*
G01X2952150Y5054000D03*
G01X2952150Y5004000D03*
G01X2952150Y4954000D03*
G01X2952150Y4904000D03*
G01X2462730Y5053930D03*
G01X2462730Y5003930D03*
G01X2462730Y4953930D03*
G01X2462730Y4903930D03*
G01X2682810Y4903930D03*
G01X2682810Y4953930D03*
G01X2682810Y5003930D03*
G01X2682810Y5053930D03*
G01X3459190Y4904090D03*
G01X3459190Y4954090D03*
G01X3459190Y5004090D03*
G01X3459190Y5054090D03*
G01X3239110Y5054090D03*
G01X3239110Y5004090D03*
G01X3239110Y4954090D03*
G01X3239110Y4904090D03*
G01X2168690Y5054020D03*
G01X2168690Y5004020D03*
G01X2168690Y4954020D03*
G01X2168690Y4904020D03*
G01X2388770Y4904020D03*
G01X2388770Y4954020D03*
G01X2388770Y5004020D03*
G01X2388770Y5054020D03*
G54D54*
G01X3971240Y6458000D03*
G01X3971240Y6508000D03*
G01X3971240Y6558000D03*
G01X3971240Y6608000D03*
G01X3749190Y6608000D03*
G01X3749190Y6558000D03*
G01X3749190Y6508000D03*
G01X3749190Y6458000D03*
G01X1600100Y4432360D03*
G01X1600100Y4382360D03*
G01X1600100Y4332360D03*
G01X1600100Y4282360D03*
G01X1822150Y4282360D03*
G01X1822150Y4332360D03*
G01X1822150Y4382360D03*
G01X1822150Y4432360D03*
G54D55*
G01X3902730Y6533000D03*
G01X1668610Y4357360D03*
G54D56*
G01X2642650Y2181760D03*
G01X2680050Y2276240D03*
G01X2605240Y2276240D03*
G01X1431190Y3413760D03*
G01X1468590Y3508240D03*
G01X1393790Y3508240D03*
G54D57*
G01X3576460Y3686050D03*
G01X3576460Y3528570D03*
G01X2769710Y3686380D03*
G01X2769710Y3528900D03*
G54D58*
G01X3412990Y3886310D03*
G01X3570470Y3886310D03*
G01X2606430Y3886640D03*
G01X2763910Y3886640D03*
G54D59*
G01X3179730Y3826310D03*
G01X3117190Y3609000D03*
G01X2300160Y3609340D03*
G01X2379710Y3831640D03*
G54D60*
G01X3179730Y3734310D03*
G01X3117190Y3517000D03*
G01X2300160Y3517340D03*
G01X2379710Y3739640D03*
G54D61*
G01X1927720Y6449000D03*
G01X2056660Y6449000D03*
G54D62*
G01X1624150Y2706000D03*
G01X1450130Y2706000D03*
G54D63*
G01X1350210Y2541000D03*
G01X1484070Y2541000D03*
G01X1623190Y3269000D03*
G01X1489330Y3269000D03*
G54D64*
G01X1974960Y3454590D03*
G01X1949370Y3454590D03*
G01X1923780Y3454590D03*
G01X1898190Y3454590D03*
G01X1974960Y3679000D03*
G01X1949370Y3679000D03*
G01X1923780Y3679000D03*
G01X1898190Y3679000D03*
G54D65*
G01X2707190Y5846640D03*
G01X2707190Y6051360D03*
G01X2466190Y5847640D03*
G01X2466190Y6052360D03*
G54D66*
G01X2362240Y5431860D03*
G01X2362240Y5664140D03*
G01X3342240Y5431720D03*
G01X3342240Y5664000D03*
G54D67*
G01X1965140Y2227530D03*
G01X1965140Y2356470D03*
G54D68*
G01X2966190Y3452000D02*
G01X2966190Y3502000D01*
G01X2966190Y3502000D02*
G01X2966190Y4149000D01*
G54D69*
G01X2763910Y3886640D02*
G01X2767190Y3889930D01*
M02*
