G04*
G04 #@! TF.GenerationSoftware,Altium Limited,Altium Designer,18.1.9 (240)*
G04*
G04 Layer_Color=8388736*
%FSAX25Y25*%
%MOIN*%
G70*
G01*
G75*
%ADD16C,0.00700*%
%ADD17C,0.00800*%
%ADD21C,0.00600*%
%ADD22C,0.01000*%
%ADD166R,0.37500X0.12500*%
%ADD167R,0.12500X0.12500*%
G54D16*
X0069200Y0138400D02*
X0169200D01*
Y0113400D02*
Y0138400D01*
X0144200Y0113400D02*
Y0138400D01*
X0119200Y0113400D02*
Y0138400D01*
X0094200Y0113400D02*
Y0138400D01*
X0081700Y0113400D02*
Y0138400D01*
X0069200Y0113400D02*
Y0138400D01*
Y0125900D02*
X0169200D01*
X0069200Y0113400D02*
X0169200D01*
G54D17*
X0348550Y0073498D02*
X0352549D01*
X0350549D01*
Y0067500D01*
X0354548Y0073498D02*
X0356547D01*
X0355548D01*
Y0067500D01*
X0354548D01*
X0356547D01*
X0359546Y0073498D02*
Y0067500D01*
X0362545D01*
X0363545Y0068500D01*
Y0072498D01*
X0362545Y0073498D01*
X0359546D01*
X0365545Y0067500D02*
Y0071499D01*
X0367544Y0073498D01*
X0369543Y0071499D01*
Y0067500D01*
Y0070499D01*
X0365545D01*
X0371543D02*
X0375541D01*
X0377541Y0072498D02*
X0378540Y0073498D01*
X0380540D01*
X0381539Y0072498D01*
Y0068500D01*
X0380540Y0067500D01*
X0378540D01*
X0377541Y0068500D01*
Y0072498D01*
X0383539Y0067500D02*
X0385538D01*
X0384538D01*
Y0073498D01*
X0383539Y0072498D01*
X0388537D02*
X0389537Y0073498D01*
X0391536D01*
X0392536Y0072498D01*
Y0068500D01*
X0391536Y0067500D01*
X0389537D01*
X0388537Y0068500D01*
Y0072498D01*
X0394535D02*
X0395535Y0073498D01*
X0397534D01*
X0398534Y0072498D01*
Y0068500D01*
X0397534Y0067500D01*
X0395535D01*
X0394535Y0068500D01*
Y0072498D01*
X0403532Y0067500D02*
Y0073498D01*
X0400533Y0070499D01*
X0404532D01*
X0410530Y0067500D02*
X0406531D01*
X0410530Y0071499D01*
Y0072498D01*
X0409530Y0073498D01*
X0407531D01*
X0406531Y0072498D01*
X0294000Y0073498D02*
X0297999D01*
X0295999D01*
Y0067500D01*
X0299998Y0073498D02*
X0301997D01*
X0300998D01*
Y0067500D01*
X0299998D01*
X0301997D01*
X0304996Y0073498D02*
Y0067500D01*
X0307996D01*
X0308995Y0068500D01*
Y0072498D01*
X0307996Y0073498D01*
X0304996D01*
X0317992Y0067500D02*
Y0073498D01*
X0319992D02*
Y0067500D01*
X0316993Y0071499D02*
X0319992D01*
X0320991D01*
X0316993Y0069499D02*
X0320991D01*
X0322991Y0071499D02*
X0323990D01*
Y0070499D01*
X0322991D01*
Y0071499D01*
Y0068500D02*
X0323990D01*
Y0067500D01*
X0322991D01*
Y0068500D01*
X0580500Y0052965D02*
X0584499D01*
X0582499D01*
Y0046966D01*
X0590497Y0052965D02*
X0586498D01*
Y0046966D01*
X0590497D01*
X0586498Y0049966D02*
X0588497D01*
X0592496Y0052965D02*
X0596495Y0046966D01*
Y0052965D02*
X0592496Y0046966D01*
X0598494D02*
Y0050965D01*
X0600493Y0052965D01*
X0602493Y0050965D01*
Y0046966D01*
Y0049966D01*
X0598494D01*
X0608491Y0051965D02*
X0607491Y0052965D01*
X0605492D01*
X0604492Y0051965D01*
Y0050965D01*
X0605492Y0049966D01*
X0607491D01*
X0608491Y0048966D01*
Y0047966D01*
X0607491Y0046966D01*
X0605492D01*
X0604492Y0047966D01*
X0616488Y0052965D02*
X0618488D01*
X0617488D01*
Y0046966D01*
X0616488D01*
X0618488D01*
X0621487D02*
Y0052965D01*
X0625486Y0046966D01*
Y0052965D01*
X0631484Y0051965D02*
X0630484Y0052965D01*
X0628484D01*
X0627485Y0051965D01*
Y0050965D01*
X0628484Y0049966D01*
X0630484D01*
X0631484Y0048966D01*
Y0047966D01*
X0630484Y0046966D01*
X0628484D01*
X0627485Y0047966D01*
X0633483Y0052965D02*
X0637482D01*
X0635482D01*
Y0046966D01*
X0639481D02*
Y0052965D01*
X0642480D01*
X0643480Y0051965D01*
Y0049966D01*
X0642480Y0048966D01*
X0639481D01*
X0641480D02*
X0643480Y0046966D01*
X0645479Y0052965D02*
Y0047966D01*
X0646479Y0046966D01*
X0648478D01*
X0649478Y0047966D01*
Y0052965D01*
X0651477Y0046966D02*
Y0052965D01*
X0653476Y0050965D01*
X0655476Y0052965D01*
Y0046966D01*
X0661474Y0052965D02*
X0657475D01*
Y0046966D01*
X0661474D01*
X0657475Y0049966D02*
X0659474D01*
X0663473Y0046966D02*
Y0052965D01*
X0667472Y0046966D01*
Y0052965D01*
X0669471D02*
X0673470D01*
X0671471D01*
Y0046966D01*
X0679468Y0051965D02*
X0678468Y0052965D01*
X0676469D01*
X0675469Y0051965D01*
Y0050965D01*
X0676469Y0049966D01*
X0678468D01*
X0679468Y0048966D01*
Y0047966D01*
X0678468Y0046966D01*
X0676469D01*
X0675469Y0047966D01*
X0454050Y0051965D02*
X0455050Y0052965D01*
X0457049D01*
X0458049Y0051965D01*
Y0050965D01*
X0457049Y0049966D01*
X0458049Y0048966D01*
Y0047966D01*
X0457049Y0046966D01*
X0455050D01*
X0454050Y0047966D01*
Y0048966D01*
X0455050Y0049966D01*
X0454050Y0050965D01*
Y0051965D01*
X0455050Y0049966D02*
X0457049D01*
X0460048Y0050965D02*
X0461048D01*
Y0049966D01*
X0460048D01*
Y0050965D01*
Y0047966D02*
X0461048D01*
Y0046966D01*
X0460048D01*
Y0047966D01*
X0468046Y0046966D02*
Y0052965D01*
X0465046Y0049966D01*
X0469045D01*
X0471044Y0051965D02*
X0472044Y0052965D01*
X0474044D01*
X0475043Y0051965D01*
Y0050965D01*
X0474044Y0049966D01*
X0475043Y0048966D01*
Y0047966D01*
X0474044Y0046966D01*
X0472044D01*
X0471044Y0047966D01*
Y0048966D01*
X0472044Y0049966D01*
X0471044Y0050965D01*
Y0051965D01*
X0472044Y0049966D02*
X0474044D01*
X0477043Y0050965D02*
X0478042D01*
Y0049966D01*
X0477043D01*
Y0050965D01*
Y0047966D02*
X0478042D01*
Y0046966D01*
X0477043D01*
Y0047966D01*
X0485040Y0046966D02*
Y0052965D01*
X0482041Y0049966D01*
X0486040D01*
X0492038Y0052965D02*
X0488039D01*
Y0049966D01*
X0490038Y0050965D01*
X0491038D01*
X0492038Y0049966D01*
Y0047966D01*
X0491038Y0046966D01*
X0489039D01*
X0488039Y0047966D01*
X0500035Y0046966D02*
Y0050965D01*
X0502035Y0052965D01*
X0504034Y0050965D01*
Y0046966D01*
Y0049966D01*
X0500035D01*
X0506033Y0046966D02*
Y0052965D01*
X0508033Y0050965D01*
X0510032Y0052965D01*
Y0046966D01*
X0046350D02*
Y0052965D01*
X0049349D01*
X0050349Y0051965D01*
Y0049966D01*
X0049349Y0048966D01*
X0046350D01*
X0052348Y0052965D02*
Y0046966D01*
X0056347D01*
X0061345Y0052965D02*
X0059346D01*
X0058346Y0051965D01*
Y0047966D01*
X0059346Y0046966D01*
X0061345D01*
X0062345Y0047966D01*
Y0051965D01*
X0061345Y0052965D01*
X0064344D02*
X0068343D01*
X0066343D01*
Y0046966D01*
X0076340D02*
Y0052965D01*
X0080339Y0046966D01*
Y0052965D01*
X0082338Y0046966D02*
Y0050965D01*
X0084338Y0052965D01*
X0086337Y0050965D01*
Y0046966D01*
Y0049966D01*
X0082338D01*
X0088336Y0046966D02*
Y0052965D01*
X0090336Y0050965D01*
X0092335Y0052965D01*
Y0046966D01*
X0098333Y0052965D02*
X0094335D01*
Y0046966D01*
X0098333D01*
X0094335Y0049966D02*
X0096334D01*
X0106331Y0048966D02*
X0110329D01*
X0106331Y0050965D02*
X0110329D01*
X0046350Y0073549D02*
Y0067551D01*
X0050349D01*
X0052348D02*
Y0071549D01*
X0054347Y0073549D01*
X0056347Y0071549D01*
Y0067551D01*
Y0070550D01*
X0052348D01*
X0058346Y0073549D02*
Y0072549D01*
X0060346Y0070550D01*
X0062345Y0072549D01*
Y0073549D01*
X0060346Y0070550D02*
Y0067551D01*
X0068343Y0073549D02*
X0064344D01*
Y0067551D01*
X0068343D01*
X0064344Y0070550D02*
X0066343D01*
X0070342Y0067551D02*
Y0073549D01*
X0073341D01*
X0074341Y0072549D01*
Y0070550D01*
X0073341Y0069550D01*
X0070342D01*
X0072342D02*
X0074341Y0067551D01*
X0082338D02*
Y0073549D01*
X0086337Y0067551D01*
Y0073549D01*
X0088336Y0067551D02*
Y0071549D01*
X0090336Y0073549D01*
X0092335Y0071549D01*
Y0067551D01*
Y0070550D01*
X0088336D01*
X0094335Y0067551D02*
Y0073549D01*
X0096334Y0071549D01*
X0098333Y0073549D01*
Y0067551D01*
X0104331Y0073549D02*
X0100332D01*
Y0067551D01*
X0104331D01*
X0100332Y0070550D02*
X0102332D01*
X0112329Y0069550D02*
X0116327D01*
X0112329Y0071549D02*
X0116327D01*
X0294000Y0093831D02*
Y0087833D01*
X0296999D01*
X0297999Y0088833D01*
Y0089833D01*
X0296999Y0090832D01*
X0294000D01*
X0296999D01*
X0297999Y0091832D01*
Y0092832D01*
X0296999Y0093831D01*
X0294000D01*
X0302997D02*
X0300998D01*
X0299998Y0092832D01*
Y0088833D01*
X0300998Y0087833D01*
X0302997D01*
X0303997Y0088833D01*
Y0092832D01*
X0302997Y0093831D01*
X0305996Y0087833D02*
Y0091832D01*
X0307996Y0093831D01*
X0309995Y0091832D01*
Y0087833D01*
Y0090832D01*
X0305996D01*
X0311994Y0087833D02*
Y0093831D01*
X0314993D01*
X0315993Y0092832D01*
Y0090832D01*
X0314993Y0089833D01*
X0311994D01*
X0313994D02*
X0315993Y0087833D01*
X0317992Y0093831D02*
Y0087833D01*
X0320991D01*
X0321991Y0088833D01*
Y0092832D01*
X0320991Y0093831D01*
X0317992D01*
X0330988Y0087833D02*
Y0093831D01*
X0332987D02*
Y0087833D01*
X0329988Y0091832D02*
X0332987D01*
X0333987D01*
X0329988Y0089833D02*
X0333987D01*
X0335986Y0091832D02*
X0336986D01*
Y0090832D01*
X0335986D01*
Y0091832D01*
Y0088833D02*
X0336986D01*
Y0087833D01*
X0335986D01*
Y0088833D01*
X0348550Y0093831D02*
X0352549D01*
X0350549D01*
Y0087833D01*
X0354548Y0093831D02*
X0356547D01*
X0355548D01*
Y0087833D01*
X0354548D01*
X0356547D01*
X0359546Y0093831D02*
Y0087833D01*
X0362545D01*
X0363545Y0088833D01*
Y0092832D01*
X0362545Y0093831D01*
X0359546D01*
X0365545Y0087833D02*
Y0091832D01*
X0367544Y0093831D01*
X0369543Y0091832D01*
Y0087833D01*
Y0090832D01*
X0365545D01*
X0371543D02*
X0375541D01*
X0377541Y0092832D02*
X0378540Y0093831D01*
X0380540D01*
X0381539Y0092832D01*
Y0088833D01*
X0380540Y0087833D01*
X0378540D01*
X0377541Y0088833D01*
Y0092832D01*
X0383539Y0087833D02*
X0385538D01*
X0384538D01*
Y0093831D01*
X0383539Y0092832D01*
X0388537D02*
X0389537Y0093831D01*
X0391536D01*
X0392536Y0092832D01*
Y0088833D01*
X0391536Y0087833D01*
X0389537D01*
X0388537Y0088833D01*
Y0092832D01*
X0394535D02*
X0395535Y0093831D01*
X0397534D01*
X0398534Y0092832D01*
Y0088833D01*
X0397534Y0087833D01*
X0395535D01*
X0394535Y0088833D01*
Y0092832D01*
X0403532Y0087833D02*
Y0093831D01*
X0400533Y0090832D01*
X0404532D01*
X0410530Y0087833D02*
X0406531D01*
X0410530Y0091832D01*
Y0092832D01*
X0409530Y0093831D01*
X0407531D01*
X0406531Y0092832D01*
X0466149Y0093831D02*
X0462150D01*
Y0087833D01*
X0466149D01*
X0462150Y0090832D02*
X0464149D01*
X0472147Y0087833D02*
X0468148D01*
X0472147Y0091832D01*
Y0092832D01*
X0471147Y0093831D01*
X0469148D01*
X0468148Y0092832D01*
X0046350Y0087833D02*
Y0091832D01*
X0048349Y0093831D01*
X0050349Y0091832D01*
Y0087833D01*
Y0090832D01*
X0046350D01*
X0052348Y0093831D02*
Y0087833D01*
X0056347D01*
X0058346Y0093831D02*
Y0087833D01*
X0062345D01*
X0070342D02*
Y0091832D01*
X0072342Y0093831D01*
X0074341Y0091832D01*
Y0087833D01*
Y0090832D01*
X0070342D01*
X0076340Y0087833D02*
Y0093831D01*
X0079339D01*
X0080339Y0092832D01*
Y0090832D01*
X0079339Y0089833D01*
X0076340D01*
X0078340D02*
X0080339Y0087833D01*
X0082338Y0093831D02*
X0086337D01*
X0084338D01*
Y0087833D01*
X0088336Y0093831D02*
Y0087833D01*
X0090336Y0089833D01*
X0092335Y0087833D01*
Y0093831D01*
X0097334D02*
X0095334D01*
X0094335Y0092832D01*
Y0088833D01*
X0095334Y0087833D01*
X0097334D01*
X0098333Y0088833D01*
Y0092832D01*
X0097334Y0093831D01*
X0100332Y0087833D02*
Y0093831D01*
X0103332D01*
X0104331Y0092832D01*
Y0090832D01*
X0103332Y0089833D01*
X0100332D01*
X0102332D02*
X0104331Y0087833D01*
X0106331Y0093831D02*
Y0087833D01*
Y0089833D01*
X0110329Y0093831D01*
X0107330Y0090832D01*
X0110329Y0087833D01*
X0118327Y0093831D02*
Y0089833D01*
X0120326Y0087833D01*
X0122325Y0089833D01*
Y0093831D01*
X0124325D02*
X0126324D01*
X0125324D01*
Y0087833D01*
X0124325D01*
X0126324D01*
X0133322Y0093831D02*
X0129323D01*
Y0087833D01*
X0133322D01*
X0129323Y0090832D02*
X0131323D01*
X0135321Y0093831D02*
Y0087833D01*
X0137321Y0089833D01*
X0139320Y0087833D01*
Y0093831D01*
X0145318D02*
X0141319D01*
Y0087833D01*
X0145318D01*
X0141319Y0090832D02*
X0143319D01*
X0147317Y0093831D02*
Y0087833D01*
X0150316D01*
X0151316Y0088833D01*
Y0092832D01*
X0150316Y0093831D01*
X0147317D01*
X0163312D02*
X0159313D01*
Y0090832D01*
X0161313D01*
X0159313D01*
Y0087833D01*
X0165312D02*
Y0093831D01*
X0168310D01*
X0169310Y0092832D01*
Y0090832D01*
X0168310Y0089833D01*
X0165312D01*
X0167311D02*
X0169310Y0087833D01*
X0174309Y0093831D02*
X0172309D01*
X0171310Y0092832D01*
Y0088833D01*
X0172309Y0087833D01*
X0174309D01*
X0175308Y0088833D01*
Y0092832D01*
X0174309Y0093831D01*
X0177308Y0087833D02*
Y0093831D01*
X0179307Y0091832D01*
X0181306Y0093831D01*
Y0087833D01*
X0189304Y0093831D02*
X0193303D01*
X0191303D01*
Y0087833D01*
X0198301Y0093831D02*
X0196301D01*
X0195302Y0092832D01*
Y0088833D01*
X0196301Y0087833D01*
X0198301D01*
X0199301Y0088833D01*
Y0092832D01*
X0198301Y0093831D01*
X0201300Y0087833D02*
Y0093831D01*
X0204299D01*
X0205299Y0092832D01*
Y0090832D01*
X0204299Y0089833D01*
X0201300D01*
X0217295Y0092832D02*
X0216295Y0093831D01*
X0214296D01*
X0213296Y0092832D01*
Y0091832D01*
X0214296Y0090832D01*
X0216295D01*
X0217295Y0089833D01*
Y0088833D01*
X0216295Y0087833D01*
X0214296D01*
X0213296Y0088833D01*
X0219294Y0093831D02*
X0221293D01*
X0220294D01*
Y0087833D01*
X0219294D01*
X0221293D01*
X0224292Y0093831D02*
Y0087833D01*
X0227291D01*
X0228291Y0088833D01*
Y0092832D01*
X0227291Y0093831D01*
X0224292D01*
X0234289D02*
X0230291D01*
Y0087833D01*
X0234289D01*
X0230291Y0090832D02*
X0232290D01*
X0298199Y0051965D02*
X0297199Y0052965D01*
X0295200D01*
X0294200Y0051965D01*
Y0047966D01*
X0295200Y0046966D01*
X0297199D01*
X0298199Y0047966D01*
Y0049966D01*
X0296199D01*
X0304197Y0052965D02*
X0300198D01*
Y0046966D01*
X0304197D01*
X0300198Y0049966D02*
X0302197D01*
X0306196Y0046966D02*
Y0052965D01*
X0310195Y0046966D01*
Y0052965D01*
X0316193D02*
X0312194D01*
Y0046966D01*
X0316193D01*
X0312194Y0049966D02*
X0314194D01*
X0318192Y0046966D02*
Y0052965D01*
X0321191D01*
X0322191Y0051965D01*
Y0049966D01*
X0321191Y0048966D01*
X0318192D01*
X0320192D02*
X0322191Y0046966D01*
X0324190D02*
Y0050965D01*
X0326190Y0052965D01*
X0328189Y0050965D01*
Y0046966D01*
Y0049966D01*
X0324190D01*
X0330188Y0052965D02*
X0334187D01*
X0332188D01*
Y0046966D01*
X0340185Y0052965D02*
X0336186D01*
Y0046966D01*
X0340185D01*
X0336186Y0049966D02*
X0338186D01*
X0342184Y0052965D02*
Y0046966D01*
X0345183D01*
X0346183Y0047966D01*
Y0051965D01*
X0345183Y0052965D01*
X0342184D01*
X0372175Y0050965D02*
X0373175D01*
Y0049966D01*
X0372175D01*
Y0050965D01*
Y0047966D02*
X0373175D01*
Y0046966D01*
X0372175D01*
Y0047966D01*
X0381150Y0046966D02*
X0383149D01*
X0382150D01*
Y0052965D01*
X0381150Y0051965D01*
X0386148Y0046966D02*
X0388148D01*
X0387148D01*
Y0052965D01*
X0386148Y0051965D01*
X0391147Y0046966D02*
X0395146Y0050965D01*
X0397145Y0046966D02*
X0399144D01*
X0398145D01*
Y0052965D01*
X0397145Y0051965D01*
X0402143D02*
X0403143Y0052965D01*
X0405142D01*
X0406142Y0051965D01*
Y0050965D01*
X0405142Y0049966D01*
X0404143D01*
X0405142D01*
X0406142Y0048966D01*
Y0047966D01*
X0405142Y0046966D01*
X0403143D01*
X0402143Y0047966D01*
X0408141Y0046966D02*
X0412140Y0050965D01*
X0418138Y0046966D02*
X0414139D01*
X0418138Y0050965D01*
Y0051965D01*
X0417138Y0052965D01*
X0415139D01*
X0414139Y0051965D01*
X0420137D02*
X0421137Y0052965D01*
X0423136D01*
X0424136Y0051965D01*
Y0047966D01*
X0423136Y0046966D01*
X0421137D01*
X0420137Y0047966D01*
Y0051965D01*
X0426135Y0046966D02*
X0428135D01*
X0427135D01*
Y0052965D01*
X0426135Y0051965D01*
X0431134D02*
X0432133Y0052965D01*
X0434133D01*
X0435133Y0051965D01*
Y0050965D01*
X0434133Y0049966D01*
X0435133Y0048966D01*
Y0047966D01*
X0434133Y0046966D01*
X0432133D01*
X0431134Y0047966D01*
Y0048966D01*
X0432133Y0049966D01*
X0431134Y0050965D01*
Y0051965D01*
X0432133Y0049966D02*
X0434133D01*
X0433000Y0087833D02*
Y0093831D01*
X0435999D01*
X0436999Y0092832D01*
Y0090832D01*
X0435999Y0089833D01*
X0433000D01*
X0434999D02*
X0436999Y0087833D01*
X0442997Y0093831D02*
X0438998D01*
Y0087833D01*
X0442997D01*
X0438998Y0090832D02*
X0440997D01*
X0444996Y0093831D02*
Y0089833D01*
X0446995Y0087833D01*
X0448995Y0089833D01*
Y0093831D01*
X0450994Y0091832D02*
X0451994D01*
Y0090832D01*
X0450994D01*
Y0091832D01*
Y0088833D02*
X0451994D01*
Y0087833D01*
X0450994D01*
Y0088833D01*
X0520799Y0092832D02*
X0519799Y0093831D01*
X0517800D01*
X0516800Y0092832D01*
Y0091832D01*
X0517800Y0090832D01*
X0519799D01*
X0520799Y0089833D01*
Y0088833D01*
X0519799Y0087833D01*
X0517800D01*
X0516800Y0088833D01*
X0522798Y0093831D02*
Y0089833D01*
X0524797Y0087833D01*
X0526797Y0089833D01*
Y0093831D01*
X0528796Y0087833D02*
Y0093831D01*
X0532795Y0087833D01*
Y0093831D01*
X0540792Y0087833D02*
Y0093831D01*
X0543791D01*
X0544791Y0092832D01*
Y0090832D01*
X0543791Y0089833D01*
X0540792D01*
X0542792D02*
X0544791Y0087833D01*
X0550789Y0093831D02*
X0546790D01*
Y0087833D01*
X0550789D01*
X0546790Y0090832D02*
X0548790D01*
X0552788Y0093831D02*
Y0089833D01*
X0554788Y0087833D01*
X0556787Y0089833D01*
Y0093831D01*
X0558786Y0091832D02*
X0559786D01*
Y0090832D01*
X0558786D01*
Y0091832D01*
Y0088833D02*
X0559786D01*
Y0087833D01*
X0558786D01*
Y0088833D01*
X0567400Y0087833D02*
Y0093831D01*
X0571399Y0087833D01*
Y0093831D01*
X0574398Y0087833D02*
X0576397D01*
X0577397Y0088833D01*
Y0090832D01*
X0576397Y0091832D01*
X0574398D01*
X0573398Y0090832D01*
Y0088833D01*
X0574398Y0087833D01*
X0580396Y0092832D02*
Y0091832D01*
X0579396D01*
X0581395D01*
X0580396D01*
Y0088833D01*
X0581395Y0087833D01*
X0590393Y0093831D02*
X0592392D01*
X0591392D01*
Y0087833D01*
X0590393D01*
X0592392D01*
X0595391D02*
Y0091832D01*
X0598390D01*
X0599390Y0090832D01*
Y0087833D01*
X0607387Y0093831D02*
Y0089833D01*
X0609386Y0087833D01*
X0611386Y0089833D01*
Y0093831D01*
X0616384Y0087833D02*
X0614385D01*
X0613385Y0088833D01*
Y0090832D01*
X0614385Y0091832D01*
X0616384D01*
X0617384Y0090832D01*
Y0089833D01*
X0613385D01*
X0619383Y0091832D02*
Y0087833D01*
Y0089833D01*
X0620383Y0090832D01*
X0621383Y0091832D01*
X0622382D01*
X0625381Y0087833D02*
X0628380D01*
X0629380Y0088833D01*
X0628380Y0089833D01*
X0626381D01*
X0625381Y0090832D01*
X0626381Y0091832D01*
X0629380D01*
X0631379Y0087833D02*
X0633379D01*
X0632379D01*
Y0091832D01*
X0631379D01*
X0637377Y0087833D02*
X0639377D01*
X0640376Y0088833D01*
Y0090832D01*
X0639377Y0091832D01*
X0637377D01*
X0636378Y0090832D01*
Y0088833D01*
X0637377Y0087833D01*
X0642376D02*
Y0091832D01*
X0645375D01*
X0646374Y0090832D01*
Y0087833D01*
X0652373Y0092832D02*
X0651373Y0093831D01*
X0649373D01*
X0648374Y0092832D01*
Y0088833D01*
X0649373Y0087833D01*
X0651373D01*
X0652373Y0088833D01*
X0655372Y0087833D02*
X0657371D01*
X0658371Y0088833D01*
Y0090832D01*
X0657371Y0091832D01*
X0655372D01*
X0654372Y0090832D01*
Y0088833D01*
X0655372Y0087833D01*
X0660370D02*
Y0091832D01*
X0663369D01*
X0664369Y0090832D01*
Y0087833D01*
X0667368Y0092832D02*
Y0091832D01*
X0666368D01*
X0668367D01*
X0667368D01*
Y0088833D01*
X0668367Y0087833D01*
X0671366Y0091832D02*
Y0087833D01*
Y0089833D01*
X0672366Y0090832D01*
X0673366Y0091832D01*
X0674365D01*
X0678364Y0087833D02*
X0680364D01*
X0681363Y0088833D01*
Y0090832D01*
X0680364Y0091832D01*
X0678364D01*
X0677364Y0090832D01*
Y0088833D01*
X0678364Y0087833D01*
X0683362D02*
X0685362D01*
X0684362D01*
Y0093831D01*
X0683362D01*
G54D21*
X0267541Y0170399D02*
X0268540Y0171399D01*
X0270540D01*
X0271539Y0170399D01*
Y0169400D01*
X0270540Y0168400D01*
X0271539Y0167400D01*
Y0166401D01*
X0270540Y0165401D01*
X0268540D01*
X0267541Y0166401D01*
Y0167400D01*
X0268540Y0168400D01*
X0267541Y0169400D01*
Y0170399D01*
X0268540Y0168400D02*
X0270540D01*
X0277537Y0165401D02*
X0273539D01*
X0277537Y0169400D01*
Y0170399D01*
X0276538Y0171399D01*
X0274538D01*
X0273539Y0170399D01*
X0279537Y0165401D02*
Y0166401D01*
X0280536D01*
Y0165401D01*
X0279537D01*
X0284535Y0170399D02*
X0285535Y0171399D01*
X0287534D01*
X0288534Y0170399D01*
Y0166401D01*
X0287534Y0165401D01*
X0285535D01*
X0284535Y0166401D01*
Y0170399D01*
X0290533D02*
X0291533Y0171399D01*
X0293532D01*
X0294532Y0170399D01*
Y0166401D01*
X0293532Y0165401D01*
X0291533D01*
X0290533Y0166401D01*
Y0170399D01*
X0081118Y0433711D02*
Y0435710D01*
Y0434710D01*
X0075120D01*
X0076120Y0433711D01*
Y0438709D02*
X0075120Y0439709D01*
Y0441708D01*
X0076120Y0442708D01*
X0077119D01*
X0078119Y0441708D01*
Y0440708D01*
Y0441708D01*
X0079119Y0442708D01*
X0080118D01*
X0081118Y0441708D01*
Y0439709D01*
X0080118Y0438709D01*
X0076120Y0444707D02*
X0075120Y0445707D01*
Y0447706D01*
X0076120Y0448706D01*
X0080118D01*
X0081118Y0447706D01*
Y0445707D01*
X0080118Y0444707D01*
X0076120D01*
X0081118Y0450705D02*
X0080118D01*
Y0451705D01*
X0081118D01*
Y0450705D01*
X0076120Y0455704D02*
X0075120Y0456703D01*
Y0458703D01*
X0076120Y0459702D01*
X0080118D01*
X0081118Y0458703D01*
Y0456703D01*
X0080118Y0455704D01*
X0076120D01*
Y0461702D02*
X0075120Y0462701D01*
Y0464701D01*
X0076120Y0465700D01*
X0080118D01*
X0081118Y0464701D01*
Y0462701D01*
X0080118Y0461702D01*
X0076120D01*
X0091109Y0103801D02*
X0093108D01*
X0092108D01*
Y0109799D01*
X0091109Y0108799D01*
X0096107D02*
X0097107Y0109799D01*
X0099106D01*
X0100106Y0108799D01*
Y0104801D01*
X0099106Y0103801D01*
X0097107D01*
X0096107Y0104801D01*
Y0108799D01*
X0102105D02*
X0103105Y0109799D01*
X0105104D01*
X0106104Y0108799D01*
Y0104801D01*
X0105104Y0103801D01*
X0103105D01*
X0102105Y0104801D01*
Y0108799D01*
X0108103D02*
X0109103Y0109799D01*
X0111102D01*
X0112102Y0108799D01*
Y0104801D01*
X0111102Y0103801D01*
X0109103D01*
X0108103Y0104801D01*
Y0108799D01*
X0114101Y0103801D02*
Y0104801D01*
X0115101D01*
Y0103801D01*
X0114101D01*
X0119099Y0108799D02*
X0120099Y0109799D01*
X0122099D01*
X0123098Y0108799D01*
Y0104801D01*
X0122099Y0103801D01*
X0120099D01*
X0119099Y0104801D01*
Y0108799D01*
X0125098D02*
X0126097Y0109799D01*
X0128097D01*
X0129096Y0108799D01*
Y0104801D01*
X0128097Y0103801D01*
X0126097D01*
X0125098Y0104801D01*
Y0108799D01*
X0131096Y0103801D02*
Y0107800D01*
X0132095D01*
X0133095Y0106800D01*
Y0103801D01*
Y0106800D01*
X0134095Y0107800D01*
X0135094Y0106800D01*
Y0103801D01*
X0137094D02*
X0139093D01*
X0138093D01*
Y0107800D01*
X0137094D01*
X0142092Y0103801D02*
X0144091D01*
X0143092D01*
Y0109799D01*
X0142092D01*
X0126900Y0049966D02*
X0128899D01*
X0127900D01*
Y0046966D01*
X0129899Y0049966D02*
X0130899D01*
X0130399D01*
Y0046966D01*
X0129899D01*
X0130899D01*
X0132398Y0049966D02*
Y0046966D01*
X0133898D01*
X0134398Y0047466D01*
Y0049466D01*
X0133898Y0049966D01*
X0132398D01*
X0135397Y0046966D02*
Y0048966D01*
X0136397Y0049966D01*
X0137397Y0048966D01*
Y0046966D01*
Y0048466D01*
X0135397D01*
X0138396D02*
X0140396D01*
X0141395Y0049466D02*
X0141895Y0049966D01*
X0142895D01*
X0143395Y0049466D01*
Y0047466D01*
X0142895Y0046966D01*
X0141895D01*
X0141395Y0047466D01*
Y0049466D01*
X0144394Y0046966D02*
X0145394D01*
X0144894D01*
Y0049966D01*
X0144394Y0049466D01*
X0146894D02*
X0147393Y0049966D01*
X0148393D01*
X0148893Y0049466D01*
Y0047466D01*
X0148393Y0046966D01*
X0147393D01*
X0146894Y0047466D01*
Y0049466D01*
X0149893D02*
X0150392Y0049966D01*
X0151392D01*
X0151892Y0049466D01*
Y0047466D01*
X0151392Y0046966D01*
X0150392D01*
X0149893Y0047466D01*
Y0049466D01*
X0154391Y0046966D02*
Y0049966D01*
X0152892Y0048466D01*
X0154891D01*
X0157890Y0046966D02*
X0155891D01*
X0157890Y0048966D01*
Y0049466D01*
X0157390Y0049966D01*
X0156391D01*
X0155891Y0049466D01*
X0160889Y0049966D02*
X0158890D01*
Y0046966D01*
X0160889D01*
X0158890Y0048466D02*
X0159889D01*
X0163888Y0046966D02*
X0161889D01*
X0163888Y0048966D01*
Y0049466D01*
X0163388Y0049966D01*
X0162389D01*
X0161889Y0049466D01*
X0164888Y0046966D02*
Y0047466D01*
X0165388D01*
Y0046966D01*
X0164888D01*
X0169386Y0049466D02*
X0168886Y0049966D01*
X0167887D01*
X0167387Y0049466D01*
Y0047466D01*
X0167887Y0046966D01*
X0168886D01*
X0169386Y0047466D01*
Y0048466D01*
X0168387D01*
X0170386Y0046966D02*
Y0049966D01*
X0171386Y0048966D01*
X0172385Y0049966D01*
Y0046966D01*
X0175384D02*
X0173385D01*
X0175384Y0048966D01*
Y0049466D01*
X0174884Y0049966D01*
X0173885D01*
X0173385Y0049466D01*
G54D22*
X0121219Y0169000D02*
X0127219Y0171000D01*
X0121219Y0169000D02*
X0127219Y0167000D01*
X0438054D02*
X0444054Y0169000D01*
X0438054Y0171000D02*
X0444054Y0169000D01*
X0121219D02*
X0265941D01*
X0296132D02*
X0444054D01*
X0121219Y0168000D02*
Y0193900D01*
X0444054Y0168000D02*
Y0193900D01*
X0075519Y0201400D02*
X0077519Y0195400D01*
X0079519Y0201400D01*
X0077519Y0707211D02*
X0079519Y0701211D01*
X0075519D02*
X0077519Y0707211D01*
Y0195400D02*
Y0432111D01*
Y0467300D02*
Y0707211D01*
X0076519Y0195400D02*
X0119719D01*
X0076519Y0707211D02*
X0119719D01*
X0069200Y0107400D02*
X0075200Y0109400D01*
X0069200Y0107400D02*
X0075200Y0105400D01*
X0163200D02*
X0169200Y0107400D01*
X0163200Y0109400D02*
X0169200Y0107400D01*
X0069200D02*
X0089509D01*
X0145691D02*
X0169200D01*
X0069200Y0106400D02*
Y0112050D01*
X0169200Y0106400D02*
Y0112050D01*
X0559400Y0039400D02*
Y0059683D01*
X0440500Y0040050D02*
X0700200D01*
Y0101050D01*
X0286500Y0040050D02*
Y0101050D01*
X0040000Y0040050D02*
Y0101050D01*
X0040050Y0040050D02*
X0197600D01*
X0040050D02*
Y0101050D01*
Y0101050D02*
X0700200D01*
X0040000Y0040050D02*
X0440500D01*
X0040000Y0060383D02*
X0700000D01*
X0040000Y0080717D02*
X0700200D01*
X0413200D02*
Y0101050D01*
X0497200Y0080717D02*
Y0101050D01*
G54D166*
X0100450Y0119650D02*
D03*
G54D167*
X0075450Y0132150D02*
D03*
M02*
