G04 This is an RS-274x file exported by *
G04 gerbv version 2.8.0-rc.1~d7f42a *
G04 More information is available about gerbv at *
G04 https://gerbv.github.io/ *
G04 --End of header info--*
%MOIN*%
%FSLAX36Y36*%
%IPPOS*%
G04 --Define apertures--*
%ADD10C,0.0080*%
%ADD11C,0.0060*%
%ADD12C,0.0100*%
%ADD13C,0.0787*%
%ADD14R,0.0433X0.0413*%
%ADD15R,0.0413X0.0433*%
%ADD16R,0.0669X0.2126*%
%ADD17R,0.0650X0.0650*%
%ADD18C,0.0650*%
%ADD19C,0.0866*%
%AMMACRO20*
21,1,0.086610,0.041340,0.000000,0.000000,180.000000*
21,1,0.041340,0.086610,0.000000,0.000000,180.000000*
1,1,0.045280,-0.020670,0.020670*
1,1,0.045280,0.020670,0.020670*
1,1,0.045280,0.020670,-0.020670*
1,1,0.045280,-0.020670,-0.020670*
%
%ADD20MACRO20*%
%AMMACRO21*
21,1,0.086610,0.041340,0.000000,0.000000,270.000000*
21,1,0.041340,0.086610,0.000000,0.000000,270.000000*
1,1,0.045280,-0.020670,-0.020670*
1,1,0.045280,-0.020670,0.020670*
1,1,0.045280,0.020670,0.020670*
1,1,0.045280,0.020670,-0.020670*
%
%ADD21MACRO21*%
%ADD22R,0.0689X0.0689*%
%ADD23C,0.0689*%
%ADD24R,0.0630X0.0630*%
%ADD25C,0.0630*%
%ADD26R,0.0689X0.0689*%
%AMMACRO27*
21,1,0.064960,0.057360,0.000000,0.000000,0.000000*
21,1,0.057360,0.064960,0.000000,0.000000,0.000000*
1,1,0.007600,0.028680,-0.028680*
1,1,0.007600,-0.028680,-0.028680*
1,1,0.007600,-0.028680,0.028680*
1,1,0.007600,0.028680,0.028680*
%
%ADD27MACRO27*%
%ADD28C,0.3189*%
%ADD29C,0.0839*%
%ADD30C,0.0279*%
%ADD31C,0.0236*%
%AMMACRO32*
21,1,0.009840,0.017910,0.000000,0.000000,90.000000*
21,1,0.005910,0.021850,0.000000,0.000000,90.000000*
1,1,0.003940,0.008960,0.002950*
1,1,0.003940,0.008960,-0.002950*
1,1,0.003940,-0.008960,-0.002950*
1,1,0.003940,-0.008960,0.002950*
%
%ADD32MACRO32*%
%AMMACRO33*
21,1,0.140940,0.153250,0.000000,0.000000,90.000000*
21,1,0.136720,0.157480,0.000000,0.000000,90.000000*
1,1,0.004230,0.076630,0.068360*
1,1,0.004230,0.076630,-0.068360*
1,1,0.004230,-0.076630,-0.068360*
1,1,0.004230,-0.076630,0.068360*
%
%ADD33MACRO33*%
%AMMACRO34*
21,1,0.137010,0.171870,0.000000,0.000000,0.000000*
21,1,0.132900,0.175980,0.000000,0.000000,0.000000*
1,1,0.004110,0.066450,-0.085940*
1,1,0.004110,-0.066450,-0.085940*
1,1,0.004110,-0.066450,0.085940*
1,1,0.004110,0.066450,0.085940*
%
%ADD34MACRO34*%
%AMMACRO35*
21,1,0.009840,0.017910,0.000000,0.000000,0.000000*
21,1,0.005910,0.021850,0.000000,0.000000,0.000000*
1,1,0.003940,0.002950,-0.008960*
1,1,0.003940,-0.002950,-0.008960*
1,1,0.003940,-0.002950,0.008960*
1,1,0.003940,0.002950,0.008960*
%
%ADD35MACRO35*%
%AMMACRO36*
21,1,0.140940,0.153250,0.000000,0.000000,0.000000*
21,1,0.136720,0.157480,0.000000,0.000000,0.000000*
1,1,0.004230,0.068360,-0.076630*
1,1,0.004230,-0.068360,-0.076630*
1,1,0.004230,-0.068360,0.076630*
1,1,0.004230,0.068360,0.076630*
%
%ADD36MACRO36*%
%ADD37R,0.0071X0.0098*%
%ADD38R,0.0089X0.0161*%
%ADD39R,0.0098X0.0071*%
%AMMACRO40*
21,1,0.019680,0.021650,0.000000,0.000000,0.000000*
21,1,0.011810,0.029530,0.000000,0.000000,0.000000*
1,1,0.007870,0.005910,-0.010830*
1,1,0.007870,-0.005910,-0.010830*
1,1,0.007870,-0.005910,0.010830*
1,1,0.007870,0.005910,0.010830*
%
%ADD40MACRO40*%
%ADD41R,0.0276X0.0236*%
%AMMACRO42*
21,1,0.029920,0.012250,0.000000,0.000000,90.000000*
21,1,0.026030,0.016140,0.000000,0.000000,90.000000*
1,1,0.003890,0.006120,0.013010*
1,1,0.003890,0.006120,-0.013010*
1,1,0.003890,-0.006120,-0.013010*
1,1,0.003890,-0.006120,0.013010*
%
%ADD42MACRO42*%
%ADD43O,0.0276X0.0610*%
%AMMACRO44*
21,1,0.027560,0.035350,0.000000,0.000000,90.000000*
21,1,0.019610,0.043310,0.000000,0.000000,90.000000*
1,1,0.007950,0.017680,0.009800*
1,1,0.007950,0.017680,-0.009800*
1,1,0.007950,-0.017680,-0.009800*
1,1,0.007950,-0.017680,0.009800*
%
%ADD44MACRO44*%
%AMMACRO45*
21,1,0.043310,0.059060,0.000000,0.000000,180.000000*
21,1,0.035430,0.066930,0.000000,0.000000,180.000000*
1,1,0.007870,-0.017720,0.029530*
1,1,0.007870,0.017720,0.029530*
1,1,0.007870,0.017720,-0.029530*
1,1,0.007870,-0.017720,-0.029530*
%
%ADD45MACRO45*%
%AMMACRO46*
21,1,0.015750,0.013820,0.000000,0.000000,90.000000*
21,1,0.007910,0.021650,0.000000,0.000000,90.000000*
1,1,0.007840,0.006910,0.003960*
1,1,0.007840,0.006910,-0.003960*
1,1,0.007840,-0.006910,-0.003960*
1,1,0.007840,-0.006910,0.003960*
%
%ADD46MACRO46*%
%AMMACRO47*
21,1,0.027560,0.035350,0.000000,0.000000,180.000000*
21,1,0.019610,0.043310,0.000000,0.000000,180.000000*
1,1,0.007950,-0.009800,0.017680*
1,1,0.007950,0.009800,0.017680*
1,1,0.007950,0.009800,-0.017680*
1,1,0.007950,-0.009800,-0.017680*
%
%ADD47MACRO47*%
%ADD48O,0.0216X0.0571*%
%AMMACRO49*
21,1,0.015750,0.022480,0.000000,0.000000,0.000000*
21,1,0.007910,0.030320,0.000000,0.000000,0.000000*
1,1,0.007840,0.003960,-0.011240*
1,1,0.007840,-0.003960,-0.011240*
1,1,0.007840,-0.003960,0.011240*
1,1,0.007840,0.003960,0.011240*
%
%ADD49MACRO49*%
%ADD50O,0.0512X0.0197*%
%ADD51O,0.0216X0.0591*%
%ADD52R,0.0539X0.0669*%
%ADD53R,0.0669X0.0539*%
%ADD54R,0.0551X0.0768*%
%ADD55R,0.1260X0.1614*%
%AMMACRO56*
21,1,0.031890,0.012250,0.000000,0.000000,0.000000*
21,1,0.028000,0.016140,0.000000,0.000000,0.000000*
1,1,0.003890,0.014000,-0.006120*
1,1,0.003890,-0.014000,-0.006120*
1,1,0.003890,-0.014000,0.006120*
1,1,0.003890,0.014000,0.006120*
%
%ADD56MACRO56*%
%AMMACRO57*
21,1,0.029920,0.012250,0.000000,0.000000,0.000000*
21,1,0.026030,0.016140,0.000000,0.000000,0.000000*
1,1,0.003890,0.013010,-0.006120*
1,1,0.003890,-0.013010,-0.006120*
1,1,0.003890,-0.013010,0.006120*
1,1,0.003890,0.013010,0.006120*
%
%ADD57MACRO57*%
%AMMACRO58*
21,1,0.027560,0.027560,0.000000,0.000000,180.000000*
21,1,0.011810,0.043310,0.000000,0.000000,180.000000*
1,1,0.015750,-0.005910,0.013780*
1,1,0.015750,0.005910,0.013780*
1,1,0.015750,0.005910,-0.013780*
1,1,0.015750,-0.005910,-0.013780*
%
%ADD58MACRO58*%
%ADD59R,0.0827X0.0827*%
%ADD60R,0.0827X0.0827*%
%ADD61R,0.0539X0.0339*%
%ADD62R,0.1039X0.1089*%
%ADD63R,0.0400X0.0520*%
%ADD64R,0.0889X0.1119*%
%ADD65R,0.0472X0.0669*%
%ADD66O,0.0197X0.0512*%
%ADD67R,0.2126X0.0669*%
%ADD68R,0.1378X0.0551*%
%ADD69R,0.0520X0.0400*%
G04 --Start main section--*
G54D13*
G01X1536190Y6670000D03*
G01X4232190Y6664000D03*
G01X4297190Y2359000D03*
G54D14*
G01X4085690Y4704000D03*
G01X4148680Y4704000D03*
G01X1430150Y2835000D03*
G01X1493140Y2835000D03*
G01X1618690Y3178000D03*
G01X1555690Y3178000D03*
G01X2581150Y2119000D03*
G01X2644140Y2119000D03*
G01X3330690Y2430000D03*
G01X3393690Y2430000D03*
G01X3330690Y2752000D03*
G01X3393690Y2752000D03*
G01X3792690Y2173000D03*
G01X3729690Y2173000D03*
G01X3373950Y3297240D03*
G01X3310960Y3297240D03*
G01X2557200Y3297640D03*
G01X2494210Y3297640D03*
G01X3438960Y3297310D03*
G01X3501950Y3297310D03*
G01X2623210Y3297640D03*
G01X2686200Y3297640D03*
G01X3218740Y5664000D03*
G01X3155750Y5664000D03*
G01X2484750Y5664000D03*
G01X2547740Y5664000D03*
G01X1786610Y2421160D03*
G01X1723620Y2421160D03*
G01X1623640Y2836000D03*
G01X1560650Y2836000D03*
G01X4212000Y4831460D03*
G01X4149010Y4831460D03*
G01X3598690Y2173000D03*
G01X3661680Y2173000D03*
G01X1982070Y3374000D03*
G01X1919080Y3374000D03*
G01X2499690Y2182000D03*
G01X2436690Y2182000D03*
G01X3393690Y2688000D03*
G01X3330690Y2688000D03*
G01X3331690Y2498000D03*
G01X3394690Y2498000D03*
G01X3330690Y2561000D03*
G01X3393690Y2561000D03*
G01X3330690Y2624000D03*
G01X3393690Y2624000D03*
G01X2564690Y2568000D03*
G01X2627690Y2568000D03*
G01X2564690Y2505000D03*
G01X2627690Y2505000D03*
G01X2564690Y2444000D03*
G01X2627690Y2444000D03*
G01X2436690Y2245000D03*
G01X2499690Y2245000D03*
G01X1780690Y6449000D03*
G01X1843690Y6449000D03*
G54D15*
G01X4082190Y4830500D03*
G01X4082190Y4767500D03*
G01X1285000Y2697500D03*
G01X1285000Y2634500D03*
G01X1353140Y3052500D03*
G01X1353140Y2989500D03*
G01X1352140Y2697500D03*
G01X1352140Y2634500D03*
G01X2758650Y2215500D03*
G01X2758650Y2278500D03*
G01X2820650Y2215500D03*
G01X2820650Y2278500D03*
G01X2882650Y2215500D03*
G01X2882650Y2278500D03*
G01X3883690Y6069500D03*
G01X3883690Y6006500D03*
G01X3290190Y2899990D03*
G01X3290190Y2837000D03*
G01X3352190Y2837000D03*
G01X3352190Y2899990D03*
G01X4314010Y6367440D03*
G01X4314010Y6304450D03*
G01X1751320Y3645500D03*
G01X1751320Y3582500D03*
G01X1880120Y2332650D03*
G01X1880120Y2269660D03*
G01X3955190Y6226880D03*
G01X3955190Y6163890D03*
G01X3159920Y2837000D03*
G01X3159920Y2899990D03*
G01X2964920Y2837000D03*
G01X2964920Y2899990D03*
G01X3028920Y2837000D03*
G01X3028920Y2899990D03*
G01X2840190Y2837010D03*
G01X2840190Y2900000D03*
G01X2775190Y2836500D03*
G01X2775190Y2899500D03*
G01X3955190Y5933110D03*
G01X3955190Y5870120D03*
G01X3054650Y2278500D03*
G01X3054650Y2215500D03*
G01X2902920Y2837000D03*
G01X2902920Y2899990D03*
G01X3095990Y2837000D03*
G01X3095990Y2899990D03*
G01X3302650Y2215500D03*
G01X3302650Y2278500D03*
G01X3240650Y2215500D03*
G01X3240650Y2278500D03*
G01X3178650Y2215500D03*
G01X3178650Y2278500D03*
G01X3116650Y2215500D03*
G01X3116650Y2278500D03*
G01X3225920Y2899990D03*
G01X3225920Y2837000D03*
G01X1447140Y3052500D03*
G01X1447140Y2989500D03*
G54D16*
G01X2436550Y4546000D03*
G01X2231830Y4546000D03*
G01X2435910Y4307000D03*
G01X2231190Y4307000D03*
G01X3114460Y4307000D03*
G01X3319190Y4307000D03*
G01X3114460Y4546000D03*
G01X3319190Y4546000D03*
G54D17*
G01X3384830Y4139000D03*
G01X2141910Y4139000D03*
G54D18*
G01X3089550Y4139000D03*
G01X2437190Y4139000D03*
G01X2986830Y6180000D03*
G54D19*
G01X3633190Y6812000D03*
G01X1461190Y4015000D03*
G01X2614190Y6812000D03*
G54D20*
G01X3883190Y6812000D03*
G01X2864190Y6812000D03*
G54D21*
G01X1461190Y4265000D03*
G54D22*
G01X2463190Y2087000D03*
G01X2961190Y2081000D03*
G54D23*
G01X2363190Y2087000D03*
G01X2263190Y2087000D03*
G01X2163190Y2087000D03*
G01X2456190Y2455000D03*
G01X2456190Y2555000D03*
G01X2456190Y2655000D03*
G01X3261190Y2081000D03*
G01X3161190Y2081000D03*
G01X3061190Y2081000D03*
G01X3361190Y2081000D03*
G01X3461190Y2081000D03*
G01X3561190Y2081000D03*
G01X3661190Y2081000D03*
G54D24*
G01X1964140Y2478000D03*
G54D25*
G01X2064140Y2478000D03*
G01X2164140Y2478000D03*
G54D26*
G01X2456190Y2355000D03*
G54D27*
G01X2691550Y6180000D03*
G54D28*
G01X1392190Y2134000D03*
G01X1392190Y6892110D03*
G01X4260540Y6892110D03*
G01X4260540Y2134000D03*
G54D29*
G01X1540000Y2423000D03*
G01X2065190Y2674000D03*
G01X1842000Y2083000D03*
G54D30*
G01X2355190Y2256000D03*
G01X2550190Y2245000D03*
G01X2307190Y2375000D03*
G01X2167190Y2565000D03*
G01X2212190Y2689000D03*
G01X2212190Y2879000D03*
G01X2302190Y2969000D03*
G01X3501190Y6824000D03*
G01X3501190Y6746000D03*
G01X3501190Y6785000D03*
G01X3501190Y6864000D03*
G01X3422190Y6864000D03*
G01X3461190Y6864000D03*
G01X3067190Y6866000D03*
G01X3028190Y6866000D03*
G01X2912190Y6677000D03*
G01X2873190Y6677000D03*
G01X2834190Y6677000D03*
G01X1725690Y6282500D03*
G01X1835690Y6282500D03*
G01X1780690Y6282500D03*
G01X3702500Y3384310D03*
G01X1428190Y3269000D03*
G01X1489330Y3207860D03*
G01X3797690Y2615000D03*
G01X3486490Y2651300D03*
G01X3186190Y3066000D03*
G01X2966190Y3452000D03*
G01X2966190Y3502000D03*
G01X3538190Y3066000D03*
G01X2340190Y2759000D03*
G01X2303190Y2759000D03*
G01X1998190Y3166000D03*
G01X3797680Y2694000D03*
G01X3561190Y2985000D03*
G01X3601190Y3021000D03*
G01X3598190Y2948000D03*
G01X2873190Y3452000D03*
G01X2581190Y1998000D03*
G01X3931190Y2086000D03*
G01X3844190Y2173000D03*
G01X2960650Y2162460D03*
G01X1918190Y2885000D03*
G01X2009190Y2976000D03*
G01X1819190Y3166000D03*
G01X2873190Y3502000D03*
G01X1750190Y3505000D03*
G01X2644140Y2070040D03*
G01X2680050Y2319860D03*
G01X4360190Y6367000D03*
G01X4116190Y6210000D03*
G01X4115190Y5948000D03*
G01X3652500Y3384310D03*
G01X3681190Y3438000D03*
G01X3232190Y3020000D03*
G01X2771190Y2995000D03*
G01X2902920Y2952270D03*
G01X3226190Y2948000D03*
G01X3260190Y2985000D03*
G01X2879830Y2596000D03*
G01X4180190Y4766000D03*
G01X3443190Y2688000D03*
G01X3444190Y2498000D03*
G01X3443190Y2624000D03*
G01X3797690Y2545000D03*
G01X1680140Y3224000D03*
G01X1680140Y3261000D03*
G01X1680140Y3298000D03*
G01X3144190Y6207000D03*
G01X3144190Y6168000D03*
G01X3105190Y6168000D03*
G01X3105190Y6207000D03*
G01X3066190Y6207000D03*
G01X3066190Y6168000D03*
G01X3036190Y4314000D03*
G01X3036190Y4353000D03*
G01X3036190Y4275000D03*
G01X3036190Y4236000D03*
G01X3036190Y4392000D03*
G01X3036190Y4470000D03*
G01X3036190Y4431000D03*
G01X3036190Y4509000D03*
G01X3036190Y4587000D03*
G01X3036190Y4548000D03*
G01X2514190Y4548000D03*
G01X2514190Y4587000D03*
G01X2514190Y4509000D03*
G01X2514190Y4431000D03*
G01X2514190Y4470000D03*
G01X2514190Y4392000D03*
G01X2514190Y4236000D03*
G01X2514190Y4275000D03*
G01X2514190Y4353000D03*
G01X2514190Y4314000D03*
G01X3271190Y6468000D03*
G01X3271190Y6507000D03*
G01X3422190Y6746000D03*
G01X3422190Y6785000D03*
G01X3461190Y6785000D03*
G01X3461190Y6746000D03*
G01X3461190Y6824000D03*
G01X3422190Y6824000D03*
G01X3028190Y6751000D03*
G01X3028190Y6790000D03*
G01X3067190Y6790000D03*
G01X3067190Y6751000D03*
G01X3067190Y6829000D03*
G01X3028190Y6829000D03*
G01X2834190Y6638000D03*
G01X2873190Y6638000D03*
G01X2873190Y6599000D03*
G01X2834190Y6599000D03*
G01X2912190Y6599000D03*
G01X2912190Y6638000D03*
G01X3159920Y2949500D03*
G01X3028920Y2949500D03*
G01X2964920Y2949500D03*
G01X2840190Y2949500D03*
G01X2775190Y2949000D03*
G01X2624190Y2912000D03*
G01X2733190Y2837000D03*
G01X2840190Y2795000D03*
G01X2963190Y2795000D03*
G01X3160190Y2786000D03*
G01X3028190Y2796000D03*
G01X2873650Y2655460D03*
G01X3101190Y2643000D03*
G01X2742190Y2568000D03*
G01X3415190Y2297000D03*
G01X3466190Y2355000D03*
G01X3550190Y2173000D03*
G01X2581150Y2070040D03*
G01X3926180Y6069500D03*
G01X3954190Y5830230D03*
G01X3650190Y5957230D03*
G01X3954190Y6124000D03*
G01X3650190Y6251000D03*
G01X1879190Y3375000D03*
G01X4075690Y2669000D03*
G01X4118690Y2533000D03*
G01X1690190Y4112000D03*
G01X1447140Y2941000D03*
G01X1435140Y2788000D03*
G01X1484070Y2594070D03*
G01X1450130Y2628490D03*
G01X1324140Y2934000D03*
G01X1304140Y2906000D03*
G01X1342140Y2906000D03*
G01X1749140Y2982000D03*
G01X1718140Y2657000D03*
G01X1718140Y2695000D03*
G01X1718140Y2733000D03*
G01X2022140Y2228000D03*
G01X1965140Y2181210D03*
G01X1880120Y2223340D03*
G01X1677300Y2421160D03*
G01X2581190Y2676000D03*
G01X3524190Y4366000D03*
G01X3524190Y4327000D03*
G01X3485190Y4327000D03*
G01X3485190Y4366000D03*
G01X3485190Y4288000D03*
G01X3524190Y4288000D03*
G01X3485190Y4249000D03*
G01X3524190Y4249000D03*
G01X3446190Y4249000D03*
G01X3446190Y4288000D03*
G01X3446190Y4366000D03*
G01X3446190Y4327000D03*
G01X3407190Y4249000D03*
G01X3407190Y4288000D03*
G01X3407190Y4366000D03*
G01X3407190Y4327000D03*
G01X3122700Y5206800D03*
G01X3161700Y5206800D03*
G01X3122700Y5167800D03*
G01X3161700Y5167800D03*
G01X3083700Y5167800D03*
G01X3083700Y5206800D03*
G01X3044700Y5167800D03*
G01X3044700Y5206800D03*
G01X2449190Y5209000D03*
G01X2449190Y5170000D03*
G01X2488190Y5209000D03*
G01X2488190Y5170000D03*
G01X2566190Y5170000D03*
G01X2527190Y5170000D03*
G01X2566190Y5209000D03*
G01X2527190Y5209000D03*
G01X1865190Y4532000D03*
G01X1904190Y4532000D03*
G01X1865190Y4493000D03*
G01X1904190Y4493000D03*
G01X1964190Y4083000D03*
G01X1964190Y4122000D03*
G01X1964190Y4044000D03*
G01X1964190Y4005000D03*
G01X2003190Y4083000D03*
G01X2003190Y4122000D03*
G01X2003190Y4044000D03*
G01X2003190Y4005000D03*
G01X2081190Y4005000D03*
G01X2042190Y4005000D03*
G01X2081190Y4044000D03*
G01X2042190Y4044000D03*
G01X2042190Y4122000D03*
G01X2042190Y4083000D03*
G01X2081190Y4083000D03*
G01X2081190Y4122000D03*
G01X1484190Y3860000D03*
G01X1484190Y3811000D03*
G01X1533190Y3811000D03*
G01X1533190Y3860000D03*
G01X1582190Y3811000D03*
G01X1582190Y3860000D03*
G01X1631190Y3811000D03*
G01X1631190Y3860000D03*
G01X1904190Y4415000D03*
G01X1904190Y4376000D03*
G01X1904190Y4337000D03*
G01X1904190Y4454000D03*
G01X1865190Y4337000D03*
G01X1865190Y4376000D03*
G01X1865190Y4415000D03*
G01X1865190Y4454000D03*
G01X2438190Y6219000D03*
G01X2477190Y6219000D03*
G01X2477190Y6180000D03*
G01X2438190Y6180000D03*
G01X2516190Y6180000D03*
G01X2516190Y6219000D03*
G01X2555190Y6180000D03*
G01X2555190Y6219000D03*
G01X2555190Y6141000D03*
G01X2516190Y6141000D03*
G01X2438190Y6141000D03*
G01X2477190Y6141000D03*
G01X2477190Y6446000D03*
G01X2438190Y6446000D03*
G01X2516190Y6446000D03*
G01X2555190Y6446000D03*
G01X2555190Y6524000D03*
G01X2555190Y6485000D03*
G01X2516190Y6524000D03*
G01X2516190Y6485000D03*
G01X2438190Y6485000D03*
G01X2477190Y6485000D03*
G01X2477190Y6524000D03*
G01X2438190Y6524000D03*
G01X4314010Y6253820D03*
G01X3705190Y6507000D03*
G01X3705190Y6468000D03*
G01X3705190Y6546000D03*
G01X3183190Y6168000D03*
G01X3183190Y6207000D03*
G01X3666190Y6546000D03*
G01X3666190Y6468000D03*
G01X3666190Y6507000D03*
G01X3271190Y6429000D03*
G01X3310190Y6507000D03*
G01X3310190Y6429000D03*
G01X3310190Y6468000D03*
G01X3222190Y6207000D03*
G01X3222190Y6168000D03*
G01X2494210Y3249380D03*
G01X2686200Y3249380D03*
G01X2762170Y3249080D03*
G01X2331190Y3988000D03*
G01X2404190Y3988000D03*
G01X3242910Y3990280D03*
G01X3149910Y3990280D03*
G01X3310960Y3248980D03*
G01X3501950Y3249050D03*
G01X3579460Y3248740D03*
G01X1646190Y3693000D03*
G01X3731190Y3438000D03*
G01X3465190Y2786000D03*
G01X3362190Y2284000D03*
G01X2962190Y2479000D03*
G01X2922190Y2299000D03*
G01X2775190Y2622000D03*
G01X2775190Y2659000D03*
G01X3206320Y2469000D03*
G01X3002190Y2469000D03*
G54D31*
G01X4020250Y6480640D03*
G01X3974980Y6480640D03*
G01X4020250Y6533000D03*
G01X3974980Y6533000D03*
G01X3974980Y6585360D03*
G01X4020250Y6585360D03*
G01X2056910Y6845100D03*
G01X2004550Y6845100D03*
G01X1952190Y6845100D03*
G01X2109280Y6845100D03*
G01X1899830Y6845100D03*
G01X1899830Y6754550D03*
G01X1899830Y6709280D03*
G01X1899830Y6664000D03*
G01X1899830Y6799830D03*
G01X2109280Y6754550D03*
G01X2109280Y6709280D03*
G01X2109280Y6664000D03*
G01X2109280Y6799830D03*
G01X1952190Y6799830D03*
G01X2004550Y6799830D03*
G01X2056910Y6799830D03*
G01X2056910Y6664000D03*
G01X2056910Y6709280D03*
G01X2056910Y6754550D03*
G01X2004550Y6754550D03*
G01X2004550Y6709280D03*
G01X2004550Y6664000D03*
G01X1952190Y6754550D03*
G01X1952190Y6709280D03*
G01X1952190Y6664000D03*
G01X3073190Y6490350D03*
G01X3073190Y6533650D03*
G01X3198190Y6533650D03*
G01X3198190Y6490350D03*
G01X4018690Y2630750D03*
G01X4018690Y2599250D03*
G01X3929700Y6585360D03*
G01X3884420Y6585360D03*
G01X3839150Y6585360D03*
G01X3839150Y6533000D03*
G01X3884420Y6533000D03*
G01X3929700Y6533000D03*
G01X3839150Y6480640D03*
G01X3884420Y6480640D03*
G01X3929700Y6480640D03*
G01X3325530Y5031450D03*
G01X3370800Y5031450D03*
G01X3416080Y5031450D03*
G01X3325530Y4979090D03*
G01X3370800Y4979090D03*
G01X3416080Y4979090D03*
G01X3416080Y4926720D03*
G01X3370800Y4926720D03*
G01X3325530Y4926720D03*
G01X3038570Y5031360D03*
G01X3083840Y5031360D03*
G01X3129120Y5031360D03*
G01X3038570Y4979000D03*
G01X3083840Y4979000D03*
G01X3129120Y4979000D03*
G01X3129120Y4926640D03*
G01X3083840Y4926640D03*
G01X3038570Y4926640D03*
G01X2302350Y4926650D03*
G01X2257080Y4926650D03*
G01X2211800Y4926650D03*
G01X2302350Y4979020D03*
G01X2257080Y4979020D03*
G01X2211800Y4979020D03*
G01X2211800Y5031380D03*
G01X2257080Y5031380D03*
G01X2302350Y5031380D03*
G01X2596390Y5031290D03*
G01X2551120Y5031290D03*
G01X2505840Y5031290D03*
G01X2505840Y4978930D03*
G01X2551120Y4978930D03*
G01X2596390Y4978930D03*
G01X2505840Y4926570D03*
G01X2551120Y4926570D03*
G01X2596390Y4926570D03*
G01X1732190Y4305000D03*
G01X1686910Y4305000D03*
G01X1641640Y4305000D03*
G01X1732190Y4357360D03*
G01X1686910Y4357360D03*
G01X1641640Y4357360D03*
G01X1641640Y4409720D03*
G01X1686910Y4409720D03*
G01X1732190Y4409720D03*
G54D32*
G01X2097960Y6652390D03*
G01X1911150Y6652390D03*
G54D33*
G01X2004550Y6714590D03*
G54D34*
G01X3083840Y4979000D03*
G01X2551120Y4978930D03*
G01X3370800Y4979090D03*
G01X2257080Y4979020D03*
G54D35*
G01X3827530Y6439600D03*
G01X3827530Y6626400D03*
G01X1743800Y4450770D03*
G01X1743800Y4263960D03*
G54D36*
G01X3889740Y6533000D03*
G01X1681600Y4357360D03*
G54D37*
G01X1923060Y6652390D03*
G01X2086050Y6652390D03*
G54D38*
G01X3155200Y5004000D03*
G01X3155200Y5054000D03*
G01X3155200Y4904000D03*
G01X3155200Y4954000D03*
G01X2479760Y4953930D03*
G01X2479760Y4903930D03*
G01X2479760Y5053930D03*
G01X2479760Y5003930D03*
G01X3442160Y5004090D03*
G01X3442160Y5054090D03*
G01X3442160Y4904090D03*
G01X3442160Y4954090D03*
G01X2185720Y4954020D03*
G01X2185720Y4904020D03*
G01X2185720Y5054020D03*
G01X2185720Y5004020D03*
G54D39*
G01X3827530Y6614500D03*
G01X3827530Y6451500D03*
G01X1743800Y4275870D03*
G01X1743800Y4438860D03*
G54D40*
G01X2322780Y2254710D03*
G01X2297190Y2174000D03*
G01X2348370Y2174000D03*
G54D41*
G01X2125870Y2565000D03*
G01X2086500Y2565000D03*
G54D42*
G01X2079550Y6796090D03*
G01X2029550Y6796090D03*
G01X1979550Y6796090D03*
G01X1929550Y6796090D03*
G01X1929550Y6574040D03*
G01X1979550Y6574040D03*
G01X2029550Y6574040D03*
G01X2079550Y6574040D03*
G54D43*
G01X3475460Y3377020D03*
G01X3425460Y3377020D03*
G01X3375460Y3377020D03*
G01X3325460Y3377020D03*
G01X3475460Y3591590D03*
G01X3425460Y3591590D03*
G01X3375460Y3591590D03*
G01X3325460Y3591590D03*
G01X2666710Y3377360D03*
G01X2616710Y3377360D03*
G01X2566710Y3377360D03*
G01X2516710Y3377360D03*
G01X2666710Y3591930D03*
G01X2616710Y3591930D03*
G01X2566710Y3591930D03*
G01X2516710Y3591930D03*
G54D44*
G01X4238140Y6353350D03*
G01X4238140Y6315950D03*
G01X4238140Y6278540D03*
G01X4129870Y6278540D03*
G01X4129870Y6353350D03*
G01X1689460Y3645400D03*
G01X1689460Y3608000D03*
G01X1689460Y3570600D03*
G01X1581190Y3570600D03*
G01X1581190Y3645400D03*
G54D45*
G01X3073190Y6512000D03*
G01X3198190Y6512000D03*
G54D46*
G01X3034800Y6537590D03*
G01X3034800Y6512000D03*
G01X3034800Y6486410D03*
G01X3111570Y6486410D03*
G01X3111570Y6512000D03*
G01X3111570Y6537590D03*
G01X3236570Y6486410D03*
G01X3236570Y6512000D03*
G01X3236570Y6537590D03*
G01X3159800Y6537590D03*
G01X3159800Y6512000D03*
G01X3159800Y6486410D03*
G54D47*
G01X1737720Y2350290D03*
G01X1775120Y2350290D03*
G01X1812520Y2350290D03*
G01X1812520Y2242020D03*
G01X1737720Y2242020D03*
G54D48*
G01X1527640Y3103110D03*
G01X1553230Y3103110D03*
G01X1578820Y3103110D03*
G01X1527640Y2927910D03*
G01X1553230Y2927910D03*
G01X1578820Y2927910D03*
G01X1604410Y2927910D03*
G01X1604410Y3103110D03*
G54D49*
G01X4200190Y4955600D03*
G01X4160820Y4955600D03*
G01X4160820Y4897330D03*
G01X4180500Y4897330D03*
G01X4200190Y4897330D03*
G01X4180500Y4955600D03*
G54D50*
G01X3874600Y6219770D03*
G01X3874600Y6194180D03*
G01X3874600Y6168590D03*
G01X3874600Y6143000D03*
G01X3650190Y6219770D03*
G01X3650190Y6194180D03*
G01X3650190Y6168590D03*
G01X3650190Y6143000D03*
G01X3874600Y5926000D03*
G01X3874600Y5900410D03*
G01X3874600Y5874820D03*
G01X3874600Y5849230D03*
G01X3650190Y5926000D03*
G01X3650190Y5900410D03*
G01X3650190Y5874820D03*
G01X3650190Y5849230D03*
G54D51*
G01X3257500Y2414390D03*
G01X3231910Y2414390D03*
G01X3206320Y2414390D03*
G01X3180730Y2414390D03*
G01X3155140Y2414390D03*
G01X3129550Y2414390D03*
G01X3103960Y2414390D03*
G01X3078370Y2414390D03*
G01X3052780Y2414390D03*
G01X3027190Y2414390D03*
G01X3001600Y2414390D03*
G01X2976010Y2414390D03*
G01X2950420Y2414390D03*
G01X2924830Y2414390D03*
G01X2899240Y2414390D03*
G01X2873650Y2414390D03*
G01X2848050Y2414390D03*
G01X2822460Y2414390D03*
G01X2796870Y2414390D03*
G01X3257500Y2713610D03*
G01X3231910Y2713610D03*
G01X3206320Y2713610D03*
G01X3180730Y2713610D03*
G01X3155140Y2713610D03*
G01X3129550Y2713610D03*
G01X3103960Y2713610D03*
G01X3078370Y2713610D03*
G01X3052780Y2713610D03*
G01X3027190Y2713610D03*
G01X3001600Y2713610D03*
G01X2976010Y2713610D03*
G01X2950420Y2713610D03*
G01X2924830Y2713610D03*
G01X2899240Y2713610D03*
G01X2873650Y2713610D03*
G01X2848050Y2713610D03*
G01X2822460Y2713610D03*
G01X2796870Y2713610D03*
G54D52*
G01X2950190Y4814000D03*
G01X3030190Y4814000D03*
G01X2652730Y4814020D03*
G01X2732730Y4814020D03*
G01X3463460Y3778310D03*
G01X3383460Y3778310D03*
G01X2656710Y3778640D03*
G01X2576710Y3778640D03*
G01X3261190Y4814000D03*
G01X3181190Y4814000D03*
G01X2468730Y4814020D03*
G01X2388730Y4814020D03*
G01X3802690Y6037000D03*
G01X3722690Y6037000D03*
G01X2721190Y2732000D03*
G01X2641190Y2732000D03*
G01X3463460Y3686310D03*
G01X3383460Y3686310D03*
G01X2576710Y3686640D03*
G01X2656710Y3686640D03*
G01X1905580Y3293990D03*
G01X1985570Y3293990D03*
G01X3335190Y2355000D03*
G01X3415190Y2355000D03*
G01X2721190Y2644000D03*
G01X2641190Y2644000D03*
G54D53*
G01X3293730Y3763310D03*
G01X3293730Y3683310D03*
G01X2491710Y3682640D03*
G01X2491710Y3762640D03*
G01X3235460Y3589310D03*
G01X3235460Y3509310D03*
G01X2423710Y3589640D03*
G01X2423710Y3509640D03*
G01X2676190Y2832000D03*
G01X2676190Y2912000D03*
G01X1284190Y3587000D03*
G01X1284190Y3667000D03*
G01X1482190Y3667000D03*
G01X1482190Y3587000D03*
G01X1394190Y3667000D03*
G01X1394190Y3587000D03*
G01X4035190Y6150390D03*
G01X4035190Y6230390D03*
G01X3579460Y3384310D03*
G01X3579460Y3304310D03*
G01X2764710Y3304640D03*
G01X2764710Y3384640D03*
G01X1692140Y3062000D03*
G01X1692140Y2982000D03*
G01X2960650Y2221000D03*
G01X2960650Y2301000D03*
G01X4035190Y5856610D03*
G01X4035190Y5936610D03*
G54D54*
G01X3796100Y6354000D03*
G01X3910280Y6354000D03*
G01X1803270Y4173000D03*
G01X1689100Y4173000D03*
G54D55*
G01X3333800Y6812000D03*
G01X3160570Y6812000D03*
G01X2692570Y6486000D03*
G01X2865800Y6486000D03*
G01X1804800Y3976000D03*
G01X1631570Y3976000D03*
G54D56*
G01X3172230Y4904000D03*
G01X3172230Y4954000D03*
G01X3172230Y5004000D03*
G01X3172230Y5054000D03*
G01X2952150Y5054000D03*
G01X2952150Y5004000D03*
G01X2952150Y4954000D03*
G01X2952150Y4904000D03*
G01X2462730Y5053930D03*
G01X2462730Y5003930D03*
G01X2462730Y4953930D03*
G01X2462730Y4903930D03*
G01X2682810Y4903930D03*
G01X2682810Y4953930D03*
G01X2682810Y5003930D03*
G01X2682810Y5053930D03*
G01X3459190Y4904090D03*
G01X3459190Y4954090D03*
G01X3459190Y5004090D03*
G01X3459190Y5054090D03*
G01X3239110Y5054090D03*
G01X3239110Y5004090D03*
G01X3239110Y4954090D03*
G01X3239110Y4904090D03*
G01X2168690Y5054020D03*
G01X2168690Y5004020D03*
G01X2168690Y4954020D03*
G01X2168690Y4904020D03*
G01X2388770Y4904020D03*
G01X2388770Y4954020D03*
G01X2388770Y5004020D03*
G01X2388770Y5054020D03*
G54D57*
G01X3971240Y6458000D03*
G01X3971240Y6508000D03*
G01X3971240Y6558000D03*
G01X3971240Y6608000D03*
G01X3749190Y6608000D03*
G01X3749190Y6558000D03*
G01X3749190Y6508000D03*
G01X3749190Y6458000D03*
G01X1600100Y4432360D03*
G01X1600100Y4382360D03*
G01X1600100Y4332360D03*
G01X1600100Y4282360D03*
G01X1822150Y4282360D03*
G01X1822150Y4332360D03*
G01X1822150Y4382360D03*
G01X1822150Y4432360D03*
G54D58*
G01X2642650Y2181760D03*
G01X2680050Y2276240D03*
G01X2605240Y2276240D03*
G01X1431190Y3413760D03*
G01X1468590Y3508240D03*
G01X1393790Y3508240D03*
G54D59*
G01X3576460Y3686050D03*
G01X3576460Y3528570D03*
G01X2769710Y3686380D03*
G01X2769710Y3528900D03*
G54D60*
G01X3412990Y3886310D03*
G01X3570470Y3886310D03*
G01X2606430Y3886640D03*
G01X2763910Y3886640D03*
G54D61*
G01X3179730Y3826310D03*
G01X3117190Y3609000D03*
G01X2300160Y3609340D03*
G01X2379710Y3831640D03*
G54D62*
G01X3179730Y3734310D03*
G01X3117190Y3517000D03*
G01X2300160Y3517340D03*
G01X2379710Y3739640D03*
G54D63*
G01X1927720Y6449000D03*
G01X2056660Y6449000D03*
G54D64*
G01X1624150Y2706000D03*
G01X1450130Y2706000D03*
G54D65*
G01X1350210Y2541000D03*
G01X1484070Y2541000D03*
G01X1623190Y3269000D03*
G01X1489330Y3269000D03*
G54D66*
G01X1974960Y3454590D03*
G01X1949370Y3454590D03*
G01X1923780Y3454590D03*
G01X1898190Y3454590D03*
G01X1974960Y3679000D03*
G01X1949370Y3679000D03*
G01X1923780Y3679000D03*
G01X1898190Y3679000D03*
G54D67*
G01X2707190Y5846640D03*
G01X2707190Y6051360D03*
G01X2466190Y5847640D03*
G01X2466190Y6052360D03*
G54D68*
G01X2362240Y5431860D03*
G01X2362240Y5664140D03*
G01X3342240Y5431720D03*
G01X3342240Y5664000D03*
G54D69*
G01X1965140Y2227530D03*
G01X1965140Y2356470D03*
M02*
