G04 This is an RS-274x file exported by *
G04 gerbv version 2.8.0-rc.1~d7f42a *
G04 More information is available about gerbv at *
G04 https://gerbv.github.io/ *
G04 --End of header info--*
%MOIN*%
%FSLAX36Y36*%
%IPPOS*%
G04 --Define apertures--*
%ADD10C,0.0050*%
%ADD11C,0.0080*%
%ADD12C,0.0060*%
%ADD13C,0.0100*%
G04 --Start main section--*
G54D10*
G01X3364160Y4139000D02*
G01X3405500Y4139000D01*
G01X3384830Y4118330D02*
G01X3384830Y4159670D01*
G01X3068880Y4139000D02*
G01X3110220Y4139000D01*
G01X3089550Y4118330D02*
G01X3089550Y4159670D01*
G01X3601690Y6812000D02*
G01X3664690Y6812000D01*
G01X3633190Y6780500D02*
G01X3633190Y6843500D01*
G01X3851690Y6812000D02*
G01X3914690Y6812000D01*
G01X3883190Y6780500D02*
G01X3883190Y6843500D01*
G01X1429690Y4015000D02*
G01X1492680Y4015000D01*
G01X1461190Y3983500D02*
G01X1461190Y4046500D01*
G01X1429690Y4265000D02*
G01X1492680Y4265000D01*
G01X1461190Y4233500D02*
G01X1461190Y4296500D01*
G01X2582690Y6812000D02*
G01X2645680Y6812000D01*
G01X2614190Y6780500D02*
G01X2614190Y6843500D01*
G01X2832690Y6812000D02*
G01X2895680Y6812000D01*
G01X2864190Y6780500D02*
G01X2864190Y6843500D01*
G01X2443500Y2087000D02*
G01X2482870Y2087000D01*
G01X2463190Y2067320D02*
G01X2463190Y2106680D01*
G01X2343500Y2087000D02*
G01X2382870Y2087000D01*
G01X2363190Y2067320D02*
G01X2363190Y2106680D01*
G01X2243500Y2087000D02*
G01X2282870Y2087000D01*
G01X2263190Y2067320D02*
G01X2263190Y2106680D01*
G01X2143500Y2087000D02*
G01X2182870Y2087000D01*
G01X2163190Y2067320D02*
G01X2163190Y2106680D01*
G01X1944460Y2478000D02*
G01X1983830Y2478000D01*
G01X1964140Y2458310D02*
G01X1964140Y2497680D01*
G01X2044460Y2478000D02*
G01X2083830Y2478000D01*
G01X2064140Y2458310D02*
G01X2064140Y2497680D01*
G01X2144460Y2478000D02*
G01X2183830Y2478000D01*
G01X2164140Y2458310D02*
G01X2164140Y2497680D01*
G01X2436500Y2355000D02*
G01X2475870Y2355000D01*
G01X2456190Y2335310D02*
G01X2456190Y2374690D01*
G01X2436500Y2455000D02*
G01X2475870Y2455000D01*
G01X2456190Y2435310D02*
G01X2456190Y2474680D01*
G01X2436500Y2555000D02*
G01X2475870Y2555000D01*
G01X2456190Y2535320D02*
G01X2456190Y2574690D01*
G01X2436500Y2655000D02*
G01X2475870Y2655000D01*
G01X2456190Y2635310D02*
G01X2456190Y2674690D01*
G01X3241500Y2081000D02*
G01X3280870Y2081000D01*
G01X3261190Y2061320D02*
G01X3261190Y2100680D01*
G01X3141500Y2081000D02*
G01X3180870Y2081000D01*
G01X3161190Y2061320D02*
G01X3161190Y2100680D01*
G01X3041500Y2081000D02*
G01X3080870Y2081000D01*
G01X3061190Y2061320D02*
G01X3061190Y2100680D01*
G01X2941500Y2081000D02*
G01X2980870Y2081000D01*
G01X2961190Y2061320D02*
G01X2961190Y2100680D01*
G01X3341500Y2081000D02*
G01X3380870Y2081000D01*
G01X3361190Y2061320D02*
G01X3361190Y2100680D01*
G01X3441500Y2081000D02*
G01X3480870Y2081000D01*
G01X3461190Y2061320D02*
G01X3461190Y2100680D01*
G01X3541500Y2081000D02*
G01X3580870Y2081000D01*
G01X3561190Y2061320D02*
G01X3561190Y2100680D01*
G01X3641500Y2081000D02*
G01X3680870Y2081000D01*
G01X3661190Y2061320D02*
G01X3661190Y2100680D01*
G01X2416520Y4139000D02*
G01X2457860Y4139000D01*
G01X2437190Y4118330D02*
G01X2437190Y4159670D01*
G01X2121240Y4139000D02*
G01X2162580Y4139000D01*
G01X2141910Y4118330D02*
G01X2141910Y4159670D01*
G01X2966160Y6180000D02*
G01X3007500Y6180000D01*
G01X2986830Y6159330D02*
G01X2986830Y6200670D01*
G01X2670880Y6180000D02*
G01X2712220Y6180000D01*
G01X2691550Y6159330D02*
G01X2691550Y6200670D01*
G01X1329200Y2134000D02*
G01X1455180Y2134000D01*
G01X1392190Y2071010D02*
G01X1392190Y2196990D01*
G01X1329200Y6892110D02*
G01X1455180Y6892110D01*
G01X1392190Y6829120D02*
G01X1392190Y6955100D01*
G01X4197540Y6892110D02*
G01X4323530Y6892110D01*
G01X4260540Y6829120D02*
G01X4260540Y6955100D01*
G01X4197540Y2134000D02*
G01X4323530Y2134000D01*
G01X4260540Y2071010D02*
G01X4260540Y2196990D01*
G01X1520000Y2423000D02*
G01X1560000Y2423000D01*
G01X1540000Y2403000D02*
G01X1540000Y2443000D01*
G01X2045190Y2674000D02*
G01X2085190Y2674000D01*
G01X2065190Y2654000D02*
G01X2065190Y2694000D01*
G01X1822000Y2083000D02*
G01X1862000Y2083000D01*
G01X1842000Y2063000D02*
G01X1842000Y2103000D01*
G01X2349190Y2256000D02*
G01X2361190Y2256000D01*
G01X2355190Y2250000D02*
G01X2355190Y2262000D01*
G01X2544190Y2245000D02*
G01X2556190Y2245000D01*
G01X2550190Y2239000D02*
G01X2550190Y2251000D01*
G01X2301190Y2375000D02*
G01X2313190Y2375000D01*
G01X2307190Y2369000D02*
G01X2307190Y2381000D01*
G01X2161190Y2565000D02*
G01X2173190Y2565000D01*
G01X2167190Y2559000D02*
G01X2167190Y2571000D01*
G01X4016310Y6480640D02*
G01X4024190Y6480640D01*
G01X4020250Y6476700D02*
G01X4020250Y6484570D01*
G01X3971040Y6480640D02*
G01X3978910Y6480640D01*
G01X3974980Y6476700D02*
G01X3974980Y6484570D01*
G01X4016310Y6533000D02*
G01X4024190Y6533000D01*
G01X4020250Y6529060D02*
G01X4020250Y6536940D01*
G01X3971040Y6533000D02*
G01X3978910Y6533000D01*
G01X3974980Y6529060D02*
G01X3974980Y6536940D01*
G01X3971040Y6585360D02*
G01X3978910Y6585360D01*
G01X3974980Y6581430D02*
G01X3974980Y6589300D01*
G01X4016310Y6585360D02*
G01X4024190Y6585360D01*
G01X4020250Y6581430D02*
G01X4020250Y6589300D01*
G01X2206190Y2689000D02*
G01X2218190Y2689000D01*
G01X2212190Y2683000D02*
G01X2212190Y2695000D01*
G01X2206190Y2879000D02*
G01X2218190Y2879000D01*
G01X2212190Y2873000D02*
G01X2212190Y2885000D01*
G01X2296190Y2969000D02*
G01X2308190Y2969000D01*
G01X2302190Y2963000D02*
G01X2302190Y2975000D01*
G01X3495190Y6824000D02*
G01X3507190Y6824000D01*
G01X3501190Y6818000D02*
G01X3501190Y6830000D01*
G01X3495190Y6746000D02*
G01X3507190Y6746000D01*
G01X3501190Y6740000D02*
G01X3501190Y6752000D01*
G01X3495190Y6785000D02*
G01X3507190Y6785000D01*
G01X3501190Y6779000D02*
G01X3501190Y6791000D01*
G01X3495190Y6864000D02*
G01X3507190Y6864000D01*
G01X3501190Y6858000D02*
G01X3501190Y6870000D01*
G01X3416190Y6864000D02*
G01X3428190Y6864000D01*
G01X3422190Y6858000D02*
G01X3422190Y6870000D01*
G01X3455190Y6864000D02*
G01X3467190Y6864000D01*
G01X3461190Y6858000D02*
G01X3461190Y6870000D01*
G01X3061190Y6866000D02*
G01X3073190Y6866000D01*
G01X3067190Y6860000D02*
G01X3067190Y6872000D01*
G01X3022190Y6866000D02*
G01X3034190Y6866000D01*
G01X3028190Y6860000D02*
G01X3028190Y6872000D01*
G01X2906190Y6677000D02*
G01X2918190Y6677000D01*
G01X2912190Y6671000D02*
G01X2912190Y6683000D01*
G01X2867190Y6677000D02*
G01X2879190Y6677000D01*
G01X2873190Y6671000D02*
G01X2873190Y6683000D01*
G01X2828190Y6677000D02*
G01X2840190Y6677000D01*
G01X2834190Y6671000D02*
G01X2834190Y6683000D01*
G01X1719690Y6282500D02*
G01X1731690Y6282500D01*
G01X1725690Y6276500D02*
G01X1725690Y6288500D01*
G01X1829690Y6282500D02*
G01X1841690Y6282500D01*
G01X1835690Y6276500D02*
G01X1835690Y6288500D01*
G01X1774690Y6282500D02*
G01X1786690Y6282500D01*
G01X1780690Y6276500D02*
G01X1780690Y6288500D01*
G01X2052980Y6845100D02*
G01X2060850Y6845100D01*
G01X2056910Y6841170D02*
G01X2056910Y6849040D01*
G01X2000610Y6845100D02*
G01X2008490Y6845100D01*
G01X2004550Y6841170D02*
G01X2004550Y6849040D01*
G01X1948250Y6845100D02*
G01X1956130Y6845100D01*
G01X1952190Y6841170D02*
G01X1952190Y6849040D01*
G01X2105340Y6845100D02*
G01X2113210Y6845100D01*
G01X2109280Y6841170D02*
G01X2109280Y6849040D01*
G01X1895890Y6845100D02*
G01X1903760Y6845100D01*
G01X1899830Y6841170D02*
G01X1899830Y6849040D01*
G01X1895890Y6754550D02*
G01X1903760Y6754550D01*
G01X1899830Y6750610D02*
G01X1899830Y6758490D01*
G01X1895890Y6709280D02*
G01X1903760Y6709280D01*
G01X1899830Y6705340D02*
G01X1899830Y6713210D01*
G01X1895890Y6664000D02*
G01X1903760Y6664000D01*
G01X1899830Y6660060D02*
G01X1899830Y6667940D01*
G01X1895890Y6799830D02*
G01X1903760Y6799830D01*
G01X1899830Y6795890D02*
G01X1899830Y6803760D01*
G01X2105340Y6754550D02*
G01X2113210Y6754550D01*
G01X2109280Y6750610D02*
G01X2109280Y6758490D01*
G01X2105340Y6709280D02*
G01X2113210Y6709280D01*
G01X2109280Y6705340D02*
G01X2109280Y6713210D01*
G01X2105340Y6664000D02*
G01X2113210Y6664000D01*
G01X2109280Y6660060D02*
G01X2109280Y6667940D01*
G01X2105340Y6799830D02*
G01X2113210Y6799830D01*
G01X2109280Y6795890D02*
G01X2109280Y6803760D01*
G01X1948250Y6799830D02*
G01X1956130Y6799830D01*
G01X1952190Y6795890D02*
G01X1952190Y6803760D01*
G01X2000610Y6799830D02*
G01X2008490Y6799830D01*
G01X2004550Y6795890D02*
G01X2004550Y6803760D01*
G01X2052980Y6799830D02*
G01X2060850Y6799830D01*
G01X2056910Y6795890D02*
G01X2056910Y6803760D01*
G01X2052980Y6664000D02*
G01X2060850Y6664000D01*
G01X2056910Y6660060D02*
G01X2056910Y6667940D01*
G01X2052980Y6709280D02*
G01X2060850Y6709280D01*
G01X2056910Y6705340D02*
G01X2056910Y6713210D01*
G01X2052980Y6754550D02*
G01X2060850Y6754550D01*
G01X2056910Y6750610D02*
G01X2056910Y6758490D01*
G01X2000610Y6754550D02*
G01X2008490Y6754550D01*
G01X2004550Y6750610D02*
G01X2004550Y6758490D01*
G01X2000610Y6709280D02*
G01X2008490Y6709280D01*
G01X2004550Y6705340D02*
G01X2004550Y6713210D01*
G01X2000610Y6664000D02*
G01X2008490Y6664000D01*
G01X2004550Y6660060D02*
G01X2004550Y6667940D01*
G01X1948250Y6754550D02*
G01X1956130Y6754550D01*
G01X1952190Y6750610D02*
G01X1952190Y6758490D01*
G01X1948250Y6709280D02*
G01X1956130Y6709280D01*
G01X1952190Y6705340D02*
G01X1952190Y6713210D01*
G01X1948250Y6664000D02*
G01X1956130Y6664000D01*
G01X1952190Y6660060D02*
G01X1952190Y6667940D01*
G01X3696500Y3384310D02*
G01X3708500Y3384310D01*
G01X3702500Y3378310D02*
G01X3702500Y3390310D01*
G01X1422190Y3269000D02*
G01X1434190Y3269000D01*
G01X1428190Y3263000D02*
G01X1428190Y3275000D01*
G01X1483330Y3207860D02*
G01X1495330Y3207860D01*
G01X1489330Y3201860D02*
G01X1489330Y3213860D01*
G01X3791690Y2615000D02*
G01X3803690Y2615000D01*
G01X3797690Y2609000D02*
G01X3797690Y2621000D01*
G01X3480490Y2651300D02*
G01X3492490Y2651300D01*
G01X3486490Y2645300D02*
G01X3486490Y2657300D01*
G01X3180190Y3066000D02*
G01X3192190Y3066000D01*
G01X3186190Y3060000D02*
G01X3186190Y3072000D01*
G01X3069250Y6490350D02*
G01X3077130Y6490350D01*
G01X3073190Y6486410D02*
G01X3073190Y6494280D01*
G01X3069250Y6533650D02*
G01X3077130Y6533650D01*
G01X3073190Y6529720D02*
G01X3073190Y6537590D01*
G01X3194250Y6533650D02*
G01X3202130Y6533650D01*
G01X3198190Y6529720D02*
G01X3198190Y6537590D01*
G01X3194250Y6490350D02*
G01X3202130Y6490350D01*
G01X3198190Y6486410D02*
G01X3198190Y6494280D01*
G01X4014760Y2630750D02*
G01X4022630Y2630750D01*
G01X4018690Y2626810D02*
G01X4018690Y2634690D01*
G01X4014760Y2599250D02*
G01X4022630Y2599250D01*
G01X4018690Y2595310D02*
G01X4018690Y2603190D01*
G01X2960190Y3452000D02*
G01X2972190Y3452000D01*
G01X2966190Y3446000D02*
G01X2966190Y3458000D01*
G01X2960190Y3502000D02*
G01X2972190Y3502000D01*
G01X2966190Y3496000D02*
G01X2966190Y3508000D01*
G01X3532190Y3066000D02*
G01X3544190Y3066000D01*
G01X3538190Y3060000D02*
G01X3538190Y3072000D01*
G01X2334190Y2759000D02*
G01X2346190Y2759000D01*
G01X2340190Y2753000D02*
G01X2340190Y2765000D01*
G01X2297190Y2759000D02*
G01X2309190Y2759000D01*
G01X2303190Y2753000D02*
G01X2303190Y2765000D01*
G01X1992190Y3166000D02*
G01X2004190Y3166000D01*
G01X1998190Y3160000D02*
G01X1998190Y3172000D01*
G01X3791690Y2694000D02*
G01X3803680Y2694000D01*
G01X3797680Y2688000D02*
G01X3797680Y2700000D01*
G01X3555190Y2985000D02*
G01X3567190Y2985000D01*
G01X3561190Y2979000D02*
G01X3561190Y2991000D01*
G01X3595190Y3021000D02*
G01X3607190Y3021000D01*
G01X3601190Y3015000D02*
G01X3601190Y3027000D01*
G01X3592190Y2948000D02*
G01X3604190Y2948000D01*
G01X3598190Y2942000D02*
G01X3598190Y2954000D01*
G01X2867190Y3452000D02*
G01X2879190Y3452000D01*
G01X2873190Y3446000D02*
G01X2873190Y3458000D01*
G01X2575190Y1998000D02*
G01X2587190Y1998000D01*
G01X2581190Y1992000D02*
G01X2581190Y2004000D01*
G01X3925190Y2086000D02*
G01X3937190Y2086000D01*
G01X3931190Y2080000D02*
G01X3931190Y2092000D01*
G01X3838190Y2173000D02*
G01X3850190Y2173000D01*
G01X3844190Y2167000D02*
G01X3844190Y2179000D01*
G01X2954650Y2162460D02*
G01X2966650Y2162460D01*
G01X2960650Y2156460D02*
G01X2960650Y2168460D01*
G01X1912190Y2885000D02*
G01X1924190Y2885000D01*
G01X1918190Y2879000D02*
G01X1918190Y2891000D01*
G01X2003190Y2976000D02*
G01X2015190Y2976000D01*
G01X2009190Y2970000D02*
G01X2009190Y2982000D01*
G01X1813190Y3166000D02*
G01X1825190Y3166000D01*
G01X1819190Y3160000D02*
G01X1819190Y3172000D01*
G01X2867190Y3502000D02*
G01X2879190Y3502000D01*
G01X2873190Y3496000D02*
G01X2873190Y3508000D01*
G01X1744190Y3505000D02*
G01X1756190Y3505000D01*
G01X1750190Y3499000D02*
G01X1750190Y3511000D01*
G01X2638140Y2070040D02*
G01X2650140Y2070040D01*
G01X2644140Y2064040D02*
G01X2644140Y2076040D01*
G01X2674050Y2319860D02*
G01X2686050Y2319860D01*
G01X2680050Y2313860D02*
G01X2680050Y2325860D01*
G01X4354190Y6367000D02*
G01X4366190Y6367000D01*
G01X4360190Y6361000D02*
G01X4360190Y6373000D01*
G01X4110190Y6210000D02*
G01X4122190Y6210000D01*
G01X4116190Y6204000D02*
G01X4116190Y6216000D01*
G01X4109190Y5948000D02*
G01X4121190Y5948000D01*
G01X4115190Y5942000D02*
G01X4115190Y5954000D01*
G01X3646500Y3384310D02*
G01X3658500Y3384310D01*
G01X3652500Y3378310D02*
G01X3652500Y3390310D01*
G01X3675190Y3438000D02*
G01X3687190Y3438000D01*
G01X3681190Y3432000D02*
G01X3681190Y3444000D01*
G01X3226190Y3020000D02*
G01X3238190Y3020000D01*
G01X3232190Y3014000D02*
G01X3232190Y3026000D01*
G01X2765190Y2995000D02*
G01X2777190Y2995000D01*
G01X2771190Y2989000D02*
G01X2771190Y3001000D01*
G01X2896920Y2952270D02*
G01X2908920Y2952270D01*
G01X2902920Y2946270D02*
G01X2902920Y2958270D01*
G01X3220190Y2948000D02*
G01X3232190Y2948000D01*
G01X3226190Y2942000D02*
G01X3226190Y2954000D01*
G01X3254190Y2985000D02*
G01X3266190Y2985000D01*
G01X3260190Y2979000D02*
G01X3260190Y2991000D01*
G01X2873830Y2596000D02*
G01X2885830Y2596000D01*
G01X2879830Y2590000D02*
G01X2879830Y2602000D01*
G01X4174190Y4766000D02*
G01X4186190Y4766000D01*
G01X4180190Y4760000D02*
G01X4180190Y4772000D01*
G01X3437190Y2688000D02*
G01X3449190Y2688000D01*
G01X3443190Y2682000D02*
G01X3443190Y2694000D01*
G01X3438190Y2498000D02*
G01X3450190Y2498000D01*
G01X3444190Y2492000D02*
G01X3444190Y2504000D01*
G01X3437190Y2624000D02*
G01X3449190Y2624000D01*
G01X3443190Y2618000D02*
G01X3443190Y2630000D01*
G01X3791690Y2545000D02*
G01X3803690Y2545000D01*
G01X3797690Y2539000D02*
G01X3797690Y2551000D01*
G01X1674140Y3224000D02*
G01X1686140Y3224000D01*
G01X1680140Y3218000D02*
G01X1680140Y3230000D01*
G01X1674140Y3261000D02*
G01X1686140Y3261000D01*
G01X1680140Y3255000D02*
G01X1680140Y3267000D01*
G01X1674140Y3298000D02*
G01X1686140Y3298000D01*
G01X1680140Y3292000D02*
G01X1680140Y3304000D01*
G01X3138190Y6207000D02*
G01X3150190Y6207000D01*
G01X3144190Y6201000D02*
G01X3144190Y6213000D01*
G01X3138190Y6168000D02*
G01X3150190Y6168000D01*
G01X3144190Y6162000D02*
G01X3144190Y6174000D01*
G01X3099190Y6168000D02*
G01X3111190Y6168000D01*
G01X3105190Y6162000D02*
G01X3105190Y6174000D01*
G01X3099190Y6207000D02*
G01X3111190Y6207000D01*
G01X3105190Y6201000D02*
G01X3105190Y6213000D01*
G01X3060190Y6207000D02*
G01X3072190Y6207000D01*
G01X3066190Y6201000D02*
G01X3066190Y6213000D01*
G01X3060190Y6168000D02*
G01X3072190Y6168000D01*
G01X3066190Y6162000D02*
G01X3066190Y6174000D01*
G01X3030190Y4314000D02*
G01X3042190Y4314000D01*
G01X3036190Y4308000D02*
G01X3036190Y4320000D01*
G01X3030190Y4353000D02*
G01X3042190Y4353000D01*
G01X3036190Y4347000D02*
G01X3036190Y4359000D01*
G01X3030190Y4275000D02*
G01X3042190Y4275000D01*
G01X3036190Y4269000D02*
G01X3036190Y4281000D01*
G01X3030190Y4236000D02*
G01X3042190Y4236000D01*
G01X3036190Y4230000D02*
G01X3036190Y4242000D01*
G01X3030190Y4392000D02*
G01X3042190Y4392000D01*
G01X3036190Y4386000D02*
G01X3036190Y4398000D01*
G01X3030190Y4470000D02*
G01X3042190Y4470000D01*
G01X3036190Y4464000D02*
G01X3036190Y4476000D01*
G01X3030190Y4431000D02*
G01X3042190Y4431000D01*
G01X3036190Y4425000D02*
G01X3036190Y4437000D01*
G01X3030190Y4509000D02*
G01X3042190Y4509000D01*
G01X3036190Y4503000D02*
G01X3036190Y4515000D01*
G01X3030190Y4587000D02*
G01X3042190Y4587000D01*
G01X3036190Y4581000D02*
G01X3036190Y4593000D01*
G01X3030190Y4548000D02*
G01X3042190Y4548000D01*
G01X3036190Y4542000D02*
G01X3036190Y4554000D01*
G01X2508190Y4548000D02*
G01X2520190Y4548000D01*
G01X2514190Y4542000D02*
G01X2514190Y4554000D01*
G01X2508190Y4587000D02*
G01X2520190Y4587000D01*
G01X2514190Y4581000D02*
G01X2514190Y4593000D01*
G01X2508190Y4509000D02*
G01X2520190Y4509000D01*
G01X2514190Y4503000D02*
G01X2514190Y4515000D01*
G01X2508190Y4431000D02*
G01X2520190Y4431000D01*
G01X2514190Y4425000D02*
G01X2514190Y4437000D01*
G01X2508190Y4470000D02*
G01X2520190Y4470000D01*
G01X2514190Y4464000D02*
G01X2514190Y4476000D01*
G01X2508190Y4392000D02*
G01X2520190Y4392000D01*
G01X2514190Y4386000D02*
G01X2514190Y4398000D01*
G01X2508190Y4236000D02*
G01X2520190Y4236000D01*
G01X2514190Y4230000D02*
G01X2514190Y4242000D01*
G01X2508190Y4275000D02*
G01X2520190Y4275000D01*
G01X2514190Y4269000D02*
G01X2514190Y4281000D01*
G01X2508190Y4353000D02*
G01X2520190Y4353000D01*
G01X2514190Y4347000D02*
G01X2514190Y4359000D01*
G01X2508190Y4314000D02*
G01X2520190Y4314000D01*
G01X2514190Y4308000D02*
G01X2514190Y4320000D01*
G01X3265190Y6468000D02*
G01X3277190Y6468000D01*
G01X3271190Y6462000D02*
G01X3271190Y6474000D01*
G01X3265190Y6507000D02*
G01X3277190Y6507000D01*
G01X3271190Y6501000D02*
G01X3271190Y6513000D01*
G01X3416190Y6746000D02*
G01X3428190Y6746000D01*
G01X3422190Y6740000D02*
G01X3422190Y6752000D01*
G01X3416190Y6785000D02*
G01X3428190Y6785000D01*
G01X3422190Y6779000D02*
G01X3422190Y6791000D01*
G01X3455190Y6785000D02*
G01X3467190Y6785000D01*
G01X3461190Y6779000D02*
G01X3461190Y6791000D01*
G01X3455190Y6746000D02*
G01X3467190Y6746000D01*
G01X3461190Y6740000D02*
G01X3461190Y6752000D01*
G01X3455190Y6824000D02*
G01X3467190Y6824000D01*
G01X3461190Y6818000D02*
G01X3461190Y6830000D01*
G01X3416190Y6824000D02*
G01X3428190Y6824000D01*
G01X3422190Y6818000D02*
G01X3422190Y6830000D01*
G01X3022190Y6751000D02*
G01X3034190Y6751000D01*
G01X3028190Y6745000D02*
G01X3028190Y6757000D01*
G01X3022190Y6790000D02*
G01X3034190Y6790000D01*
G01X3028190Y6784000D02*
G01X3028190Y6796000D01*
G01X3061190Y6790000D02*
G01X3073190Y6790000D01*
G01X3067190Y6784000D02*
G01X3067190Y6796000D01*
G01X3061190Y6751000D02*
G01X3073190Y6751000D01*
G01X3067190Y6745000D02*
G01X3067190Y6757000D01*
G01X3061190Y6829000D02*
G01X3073190Y6829000D01*
G01X3067190Y6823000D02*
G01X3067190Y6835000D01*
G01X3022190Y6829000D02*
G01X3034190Y6829000D01*
G01X3028190Y6823000D02*
G01X3028190Y6835000D01*
G01X2828190Y6638000D02*
G01X2840190Y6638000D01*
G01X2834190Y6632000D02*
G01X2834190Y6644000D01*
G01X2867190Y6638000D02*
G01X2879190Y6638000D01*
G01X2873190Y6632000D02*
G01X2873190Y6644000D01*
G01X2867190Y6599000D02*
G01X2879190Y6599000D01*
G01X2873190Y6593000D02*
G01X2873190Y6605000D01*
G01X2828190Y6599000D02*
G01X2840190Y6599000D01*
G01X2834190Y6593000D02*
G01X2834190Y6605000D01*
G01X2906190Y6599000D02*
G01X2918190Y6599000D01*
G01X2912190Y6593000D02*
G01X2912190Y6605000D01*
G01X2906190Y6638000D02*
G01X2918190Y6638000D01*
G01X2912190Y6632000D02*
G01X2912190Y6644000D01*
G01X3153920Y2949500D02*
G01X3165920Y2949500D01*
G01X3159920Y2943500D02*
G01X3159920Y2955500D01*
G01X3022920Y2949500D02*
G01X3034920Y2949500D01*
G01X3028920Y2943500D02*
G01X3028920Y2955500D01*
G01X2958920Y2949500D02*
G01X2970920Y2949500D01*
G01X2964920Y2943500D02*
G01X2964920Y2955500D01*
G01X2834190Y2949500D02*
G01X2846190Y2949500D01*
G01X2840190Y2943500D02*
G01X2840190Y2955500D01*
G01X2769190Y2949000D02*
G01X2781190Y2949000D01*
G01X2775190Y2943000D02*
G01X2775190Y2955000D01*
G01X2618190Y2912000D02*
G01X2630190Y2912000D01*
G01X2624190Y2906000D02*
G01X2624190Y2918000D01*
G01X2727190Y2837000D02*
G01X2739190Y2837000D01*
G01X2733190Y2831000D02*
G01X2733190Y2843000D01*
G01X2834190Y2795000D02*
G01X2846190Y2795000D01*
G01X2840190Y2789000D02*
G01X2840190Y2801000D01*
G01X2957190Y2795000D02*
G01X2969190Y2795000D01*
G01X2963190Y2789000D02*
G01X2963190Y2801000D01*
G01X3154190Y2786000D02*
G01X3166190Y2786000D01*
G01X3160190Y2780000D02*
G01X3160190Y2792000D01*
G01X3022190Y2796000D02*
G01X3034190Y2796000D01*
G01X3028190Y2790000D02*
G01X3028190Y2802000D01*
G01X2867650Y2655460D02*
G01X2879650Y2655460D01*
G01X2873650Y2649460D02*
G01X2873650Y2661460D01*
G01X3095190Y2643000D02*
G01X3107190Y2643000D01*
G01X3101190Y2637000D02*
G01X3101190Y2649000D01*
G01X2736190Y2568000D02*
G01X2748190Y2568000D01*
G01X2742190Y2562000D02*
G01X2742190Y2574000D01*
G01X3409190Y2297000D02*
G01X3421190Y2297000D01*
G01X3415190Y2291000D02*
G01X3415190Y2303000D01*
G01X3460190Y2355000D02*
G01X3472190Y2355000D01*
G01X3466190Y2349000D02*
G01X3466190Y2361000D01*
G01X3544190Y2173000D02*
G01X3556190Y2173000D01*
G01X3550190Y2167000D02*
G01X3550190Y2179000D01*
G01X2575150Y2070040D02*
G01X2587150Y2070040D01*
G01X2581150Y2064040D02*
G01X2581150Y2076040D01*
G01X3920180Y6069500D02*
G01X3932180Y6069500D01*
G01X3926180Y6063500D02*
G01X3926180Y6075500D01*
G01X3948190Y5830230D02*
G01X3960190Y5830230D01*
G01X3954190Y5824230D02*
G01X3954190Y5836230D01*
G01X3644190Y5957230D02*
G01X3656190Y5957230D01*
G01X3650190Y5951230D02*
G01X3650190Y5963230D01*
G01X3948190Y6124000D02*
G01X3960190Y6124000D01*
G01X3954190Y6118000D02*
G01X3954190Y6130000D01*
G01X3644190Y6251000D02*
G01X3656190Y6251000D01*
G01X3650190Y6245000D02*
G01X3650190Y6257000D01*
G01X1873190Y3375000D02*
G01X1885190Y3375000D01*
G01X1879190Y3369000D02*
G01X1879190Y3381000D01*
G01X4069690Y2669000D02*
G01X4081690Y2669000D01*
G01X4075690Y2663000D02*
G01X4075690Y2675000D01*
G01X4112690Y2533000D02*
G01X4124690Y2533000D01*
G01X4118690Y2527000D02*
G01X4118690Y2539000D01*
G01X1684190Y4112000D02*
G01X1696190Y4112000D01*
G01X1690190Y4106000D02*
G01X1690190Y4118000D01*
G01X1441140Y2941000D02*
G01X1453140Y2941000D01*
G01X1447140Y2935000D02*
G01X1447140Y2947000D01*
G01X1429140Y2788000D02*
G01X1441140Y2788000D01*
G01X1435140Y2782000D02*
G01X1435140Y2794000D01*
G01X1478070Y2594070D02*
G01X1490070Y2594070D01*
G01X1484070Y2588070D02*
G01X1484070Y2600070D01*
G01X1444130Y2628490D02*
G01X1456130Y2628490D01*
G01X1450130Y2622490D02*
G01X1450130Y2634490D01*
G01X1318140Y2934000D02*
G01X1330140Y2934000D01*
G01X1324140Y2928000D02*
G01X1324140Y2940000D01*
G01X1298140Y2906000D02*
G01X1310140Y2906000D01*
G01X1304140Y2900000D02*
G01X1304140Y2912000D01*
G01X1336140Y2906000D02*
G01X1348140Y2906000D01*
G01X1342140Y2900000D02*
G01X1342140Y2912000D01*
G01X1743140Y2982000D02*
G01X1755140Y2982000D01*
G01X1749140Y2976000D02*
G01X1749140Y2988000D01*
G01X1712140Y2657000D02*
G01X1724140Y2657000D01*
G01X1718140Y2651000D02*
G01X1718140Y2663000D01*
G01X1712140Y2695000D02*
G01X1724140Y2695000D01*
G01X1718140Y2689000D02*
G01X1718140Y2701000D01*
G01X1712140Y2733000D02*
G01X1724140Y2733000D01*
G01X1718140Y2727000D02*
G01X1718140Y2739000D01*
G01X2016140Y2228000D02*
G01X2028140Y2228000D01*
G01X2022140Y2222000D02*
G01X2022140Y2234000D01*
G01X1959140Y2181210D02*
G01X1971140Y2181210D01*
G01X1965140Y2175210D02*
G01X1965140Y2187210D01*
G01X1874120Y2223340D02*
G01X1886120Y2223340D01*
G01X1880120Y2217340D02*
G01X1880120Y2229340D01*
G01X1671300Y2421160D02*
G01X1683300Y2421160D01*
G01X1677300Y2415160D02*
G01X1677300Y2427160D01*
G01X2575190Y2676000D02*
G01X2587190Y2676000D01*
G01X2581190Y2670000D02*
G01X2581190Y2682000D01*
G01X3518190Y4366000D02*
G01X3530190Y4366000D01*
G01X3524190Y4360000D02*
G01X3524190Y4372000D01*
G01X3518190Y4327000D02*
G01X3530190Y4327000D01*
G01X3524190Y4321000D02*
G01X3524190Y4333000D01*
G01X3479190Y4327000D02*
G01X3491190Y4327000D01*
G01X3485190Y4321000D02*
G01X3485190Y4333000D01*
G01X3479190Y4366000D02*
G01X3491190Y4366000D01*
G01X3485190Y4360000D02*
G01X3485190Y4372000D01*
G01X3479190Y4288000D02*
G01X3491190Y4288000D01*
G01X3485190Y4282000D02*
G01X3485190Y4294000D01*
G01X3518190Y4288000D02*
G01X3530190Y4288000D01*
G01X3524190Y4282000D02*
G01X3524190Y4294000D01*
G01X3479190Y4249000D02*
G01X3491190Y4249000D01*
G01X3485190Y4243000D02*
G01X3485190Y4255000D01*
G01X3518190Y4249000D02*
G01X3530190Y4249000D01*
G01X3524190Y4243000D02*
G01X3524190Y4255000D01*
G01X3440190Y4249000D02*
G01X3452190Y4249000D01*
G01X3446190Y4243000D02*
G01X3446190Y4255000D01*
G01X3440190Y4288000D02*
G01X3452190Y4288000D01*
G01X3446190Y4282000D02*
G01X3446190Y4294000D01*
G01X3440190Y4366000D02*
G01X3452190Y4366000D01*
G01X3446190Y4360000D02*
G01X3446190Y4372000D01*
G01X3440190Y4327000D02*
G01X3452190Y4327000D01*
G01X3446190Y4321000D02*
G01X3446190Y4333000D01*
G01X3401190Y4249000D02*
G01X3413190Y4249000D01*
G01X3407190Y4243000D02*
G01X3407190Y4255000D01*
G01X3401190Y4288000D02*
G01X3413190Y4288000D01*
G01X3407190Y4282000D02*
G01X3407190Y4294000D01*
G01X3401190Y4366000D02*
G01X3413190Y4366000D01*
G01X3407190Y4360000D02*
G01X3407190Y4372000D01*
G01X3401190Y4327000D02*
G01X3413190Y4327000D01*
G01X3407190Y4321000D02*
G01X3407190Y4333000D01*
G01X3116700Y5206800D02*
G01X3128700Y5206800D01*
G01X3122700Y5200800D02*
G01X3122700Y5212800D01*
G01X3155700Y5206800D02*
G01X3167700Y5206800D01*
G01X3161700Y5200800D02*
G01X3161700Y5212800D01*
G01X3116700Y5167800D02*
G01X3128700Y5167800D01*
G01X3122700Y5161800D02*
G01X3122700Y5173800D01*
G01X3155700Y5167800D02*
G01X3167700Y5167800D01*
G01X3161700Y5161800D02*
G01X3161700Y5173800D01*
G01X3077700Y5167800D02*
G01X3089700Y5167800D01*
G01X3083700Y5161800D02*
G01X3083700Y5173800D01*
G01X3077700Y5206800D02*
G01X3089700Y5206800D01*
G01X3083700Y5200800D02*
G01X3083700Y5212800D01*
G01X3038700Y5167800D02*
G01X3050700Y5167800D01*
G01X3044700Y5161800D02*
G01X3044700Y5173800D01*
G01X3038700Y5206800D02*
G01X3050700Y5206800D01*
G01X3044700Y5200800D02*
G01X3044700Y5212800D01*
G01X2443190Y5209000D02*
G01X2455190Y5209000D01*
G01X2449190Y5203000D02*
G01X2449190Y5215000D01*
G01X2443190Y5170000D02*
G01X2455190Y5170000D01*
G01X2449190Y5164000D02*
G01X2449190Y5176000D01*
G01X2482190Y5209000D02*
G01X2494190Y5209000D01*
G01X2488190Y5203000D02*
G01X2488190Y5215000D01*
G01X2482190Y5170000D02*
G01X2494190Y5170000D01*
G01X2488190Y5164000D02*
G01X2488190Y5176000D01*
G01X2560190Y5170000D02*
G01X2572190Y5170000D01*
G01X2566190Y5164000D02*
G01X2566190Y5176000D01*
G01X2521190Y5170000D02*
G01X2533190Y5170000D01*
G01X2527190Y5164000D02*
G01X2527190Y5176000D01*
G01X2560190Y5209000D02*
G01X2572190Y5209000D01*
G01X2566190Y5203000D02*
G01X2566190Y5215000D01*
G01X2521190Y5209000D02*
G01X2533190Y5209000D01*
G01X2527190Y5203000D02*
G01X2527190Y5215000D01*
G01X1859190Y4532000D02*
G01X1871190Y4532000D01*
G01X1865190Y4526000D02*
G01X1865190Y4538000D01*
G01X1898190Y4532000D02*
G01X1910190Y4532000D01*
G01X1904190Y4526000D02*
G01X1904190Y4538000D01*
G01X1859190Y4493000D02*
G01X1871190Y4493000D01*
G01X1865190Y4487000D02*
G01X1865190Y4499000D01*
G01X1898190Y4493000D02*
G01X1910190Y4493000D01*
G01X1904190Y4487000D02*
G01X1904190Y4499000D01*
G01X1958190Y4083000D02*
G01X1970190Y4083000D01*
G01X1964190Y4077000D02*
G01X1964190Y4089000D01*
G01X1958190Y4122000D02*
G01X1970190Y4122000D01*
G01X1964190Y4116000D02*
G01X1964190Y4128000D01*
G01X1958190Y4044000D02*
G01X1970190Y4044000D01*
G01X1964190Y4038000D02*
G01X1964190Y4050000D01*
G01X1958190Y4005000D02*
G01X1970190Y4005000D01*
G01X1964190Y3999000D02*
G01X1964190Y4011000D01*
G01X1997190Y4083000D02*
G01X2009190Y4083000D01*
G01X2003190Y4077000D02*
G01X2003190Y4089000D01*
G01X1997190Y4122000D02*
G01X2009190Y4122000D01*
G01X2003190Y4116000D02*
G01X2003190Y4128000D01*
G01X1997190Y4044000D02*
G01X2009190Y4044000D01*
G01X2003190Y4038000D02*
G01X2003190Y4050000D01*
G01X1997190Y4005000D02*
G01X2009190Y4005000D01*
G01X2003190Y3999000D02*
G01X2003190Y4011000D01*
G01X2075190Y4005000D02*
G01X2087190Y4005000D01*
G01X2081190Y3999000D02*
G01X2081190Y4011000D01*
G01X2036190Y4005000D02*
G01X2048190Y4005000D01*
G01X2042190Y3999000D02*
G01X2042190Y4011000D01*
G01X2075190Y4044000D02*
G01X2087190Y4044000D01*
G01X2081190Y4038000D02*
G01X2081190Y4050000D01*
G01X2036190Y4044000D02*
G01X2048190Y4044000D01*
G01X2042190Y4038000D02*
G01X2042190Y4050000D01*
G01X2036190Y4122000D02*
G01X2048190Y4122000D01*
G01X2042190Y4116000D02*
G01X2042190Y4128000D01*
G01X2036190Y4083000D02*
G01X2048190Y4083000D01*
G01X2042190Y4077000D02*
G01X2042190Y4089000D01*
G01X2075190Y4083000D02*
G01X2087190Y4083000D01*
G01X2081190Y4077000D02*
G01X2081190Y4089000D01*
G01X2075190Y4122000D02*
G01X2087190Y4122000D01*
G01X2081190Y4116000D02*
G01X2081190Y4128000D01*
G01X1478190Y3860000D02*
G01X1490190Y3860000D01*
G01X1484190Y3854000D02*
G01X1484190Y3866000D01*
G01X1478190Y3811000D02*
G01X1490190Y3811000D01*
G01X1484190Y3805000D02*
G01X1484190Y3817000D01*
G01X1527190Y3811000D02*
G01X1539190Y3811000D01*
G01X1533190Y3805000D02*
G01X1533190Y3817000D01*
G01X1527190Y3860000D02*
G01X1539190Y3860000D01*
G01X1533190Y3854000D02*
G01X1533190Y3866000D01*
G01X1576190Y3811000D02*
G01X1588190Y3811000D01*
G01X1582190Y3805000D02*
G01X1582190Y3817000D01*
G01X1576190Y3860000D02*
G01X1588190Y3860000D01*
G01X1582190Y3854000D02*
G01X1582190Y3866000D01*
G01X1625190Y3811000D02*
G01X1637190Y3811000D01*
G01X1631190Y3805000D02*
G01X1631190Y3817000D01*
G01X1625190Y3860000D02*
G01X1637190Y3860000D01*
G01X1631190Y3854000D02*
G01X1631190Y3866000D01*
G01X1898190Y4415000D02*
G01X1910190Y4415000D01*
G01X1904190Y4409000D02*
G01X1904190Y4421000D01*
G01X1898190Y4376000D02*
G01X1910190Y4376000D01*
G01X1904190Y4370000D02*
G01X1904190Y4382000D01*
G01X1898190Y4337000D02*
G01X1910190Y4337000D01*
G01X1904190Y4331000D02*
G01X1904190Y4343000D01*
G01X1898190Y4454000D02*
G01X1910190Y4454000D01*
G01X1904190Y4448000D02*
G01X1904190Y4460000D01*
G01X1859190Y4337000D02*
G01X1871190Y4337000D01*
G01X1865190Y4331000D02*
G01X1865190Y4343000D01*
G01X1859190Y4376000D02*
G01X1871190Y4376000D01*
G01X1865190Y4370000D02*
G01X1865190Y4382000D01*
G01X1859190Y4415000D02*
G01X1871190Y4415000D01*
G01X1865190Y4409000D02*
G01X1865190Y4421000D01*
G01X1859190Y4454000D02*
G01X1871190Y4454000D01*
G01X1865190Y4448000D02*
G01X1865190Y4460000D01*
G01X3925760Y6585360D02*
G01X3933640Y6585360D01*
G01X3929700Y6581430D02*
G01X3929700Y6589300D01*
G01X3880490Y6585360D02*
G01X3888360Y6585360D01*
G01X3884420Y6581430D02*
G01X3884420Y6589300D01*
G01X3835210Y6585360D02*
G01X3843090Y6585360D01*
G01X3839150Y6581430D02*
G01X3839150Y6589300D01*
G01X3835210Y6533000D02*
G01X3843090Y6533000D01*
G01X3839150Y6529060D02*
G01X3839150Y6536940D01*
G01X3880490Y6533000D02*
G01X3888360Y6533000D01*
G01X3884420Y6529060D02*
G01X3884420Y6536940D01*
G01X3925760Y6533000D02*
G01X3933640Y6533000D01*
G01X3929700Y6529060D02*
G01X3929700Y6536940D01*
G01X3835210Y6480640D02*
G01X3843090Y6480640D01*
G01X3839150Y6476700D02*
G01X3839150Y6484570D01*
G01X3880490Y6480640D02*
G01X3888360Y6480640D01*
G01X3884420Y6476700D02*
G01X3884420Y6484570D01*
G01X3925760Y6480640D02*
G01X3933640Y6480640D01*
G01X3929700Y6476700D02*
G01X3929700Y6484570D01*
G01X3321590Y5031450D02*
G01X3329460Y5031450D01*
G01X3325530Y5027510D02*
G01X3325530Y5035390D01*
G01X3366870Y5031450D02*
G01X3374740Y5031450D01*
G01X3370800Y5027510D02*
G01X3370800Y5035390D01*
G01X3412140Y5031450D02*
G01X3420020Y5031450D01*
G01X3416080Y5027510D02*
G01X3416080Y5035390D01*
G01X3321590Y4979090D02*
G01X3329460Y4979090D01*
G01X3325530Y4975150D02*
G01X3325530Y4983020D01*
G01X3366870Y4979090D02*
G01X3374740Y4979090D01*
G01X3370800Y4975150D02*
G01X3370800Y4983020D01*
G01X3412140Y4979090D02*
G01X3420020Y4979090D01*
G01X3416080Y4975150D02*
G01X3416080Y4983020D01*
G01X3412140Y4926720D02*
G01X3420020Y4926720D01*
G01X3416080Y4922790D02*
G01X3416080Y4930660D01*
G01X3366870Y4926720D02*
G01X3374740Y4926720D01*
G01X3370800Y4922790D02*
G01X3370800Y4930660D01*
G01X3321590Y4926720D02*
G01X3329460Y4926720D01*
G01X3325530Y4922790D02*
G01X3325530Y4930660D01*
G01X3034630Y5031360D02*
G01X3042500Y5031360D01*
G01X3038570Y5027420D02*
G01X3038570Y5035300D01*
G01X3079910Y5031360D02*
G01X3087780Y5031360D01*
G01X3083840Y5027420D02*
G01X3083840Y5035300D01*
G01X3125180Y5031360D02*
G01X3133050Y5031360D01*
G01X3129120Y5027420D02*
G01X3129120Y5035300D01*
G01X3034630Y4979000D02*
G01X3042500Y4979000D01*
G01X3038570Y4975060D02*
G01X3038570Y4982940D01*
G01X3079910Y4979000D02*
G01X3087780Y4979000D01*
G01X3083840Y4975060D02*
G01X3083840Y4982940D01*
G01X3125180Y4979000D02*
G01X3133050Y4979000D01*
G01X3129120Y4975060D02*
G01X3129120Y4982940D01*
G01X3125180Y4926640D02*
G01X3133050Y4926640D01*
G01X3129120Y4922700D02*
G01X3129120Y4930570D01*
G01X3079910Y4926640D02*
G01X3087780Y4926640D01*
G01X3083840Y4922700D02*
G01X3083840Y4930570D01*
G01X3034630Y4926640D02*
G01X3042500Y4926640D01*
G01X3038570Y4922700D02*
G01X3038570Y4930570D01*
G01X2298420Y4926650D02*
G01X2306290Y4926650D01*
G01X2302350Y4922720D02*
G01X2302350Y4930590D01*
G01X2253140Y4926650D02*
G01X2261020Y4926650D01*
G01X2257080Y4922720D02*
G01X2257080Y4930590D01*
G01X2207870Y4926650D02*
G01X2215740Y4926650D01*
G01X2211800Y4922720D02*
G01X2211800Y4930590D01*
G01X2298420Y4979020D02*
G01X2306290Y4979020D01*
G01X2302350Y4975080D02*
G01X2302350Y4982950D01*
G01X2253140Y4979020D02*
G01X2261020Y4979020D01*
G01X2257080Y4975080D02*
G01X2257080Y4982950D01*
G01X2207870Y4979020D02*
G01X2215740Y4979020D01*
G01X2211800Y4975080D02*
G01X2211800Y4982950D01*
G01X2207870Y5031380D02*
G01X2215740Y5031380D01*
G01X2211800Y5027440D02*
G01X2211800Y5035320D01*
G01X2253140Y5031380D02*
G01X2261020Y5031380D01*
G01X2257080Y5027440D02*
G01X2257080Y5035320D01*
G01X2298420Y5031380D02*
G01X2306290Y5031380D01*
G01X2302350Y5027440D02*
G01X2302350Y5035320D01*
G01X2592460Y5031290D02*
G01X2600330Y5031290D01*
G01X2596390Y5027350D02*
G01X2596390Y5035230D01*
G01X2547180Y5031290D02*
G01X2555050Y5031290D01*
G01X2551120Y5027350D02*
G01X2551120Y5035230D01*
G01X2501900Y5031290D02*
G01X2509780Y5031290D01*
G01X2505840Y5027350D02*
G01X2505840Y5035230D01*
G01X2501900Y4978930D02*
G01X2509780Y4978930D01*
G01X2505840Y4974990D02*
G01X2505840Y4982870D01*
G01X2547180Y4978930D02*
G01X2555050Y4978930D01*
G01X2551120Y4974990D02*
G01X2551120Y4982870D01*
G01X2592460Y4978930D02*
G01X2600330Y4978930D01*
G01X2596390Y4974990D02*
G01X2596390Y4982870D01*
G01X2501900Y4926570D02*
G01X2509780Y4926570D01*
G01X2505840Y4922630D02*
G01X2505840Y4930500D01*
G01X2547180Y4926570D02*
G01X2555050Y4926570D01*
G01X2551120Y4922630D02*
G01X2551120Y4930500D01*
G01X2592460Y4926570D02*
G01X2600330Y4926570D01*
G01X2596390Y4922630D02*
G01X2596390Y4930500D01*
G01X1728250Y4305000D02*
G01X1736130Y4305000D01*
G01X1732190Y4301060D02*
G01X1732190Y4308940D01*
G01X1682980Y4305000D02*
G01X1690850Y4305000D01*
G01X1686910Y4301060D02*
G01X1686910Y4308940D01*
G01X1637700Y4305000D02*
G01X1645580Y4305000D01*
G01X1641640Y4301060D02*
G01X1641640Y4308940D01*
G01X1728250Y4357360D02*
G01X1736130Y4357360D01*
G01X1732190Y4353430D02*
G01X1732190Y4361300D01*
G01X1682980Y4357360D02*
G01X1690850Y4357360D01*
G01X1686910Y4353430D02*
G01X1686910Y4361300D01*
G01X1637700Y4357360D02*
G01X1645580Y4357360D01*
G01X1641640Y4353430D02*
G01X1641640Y4361300D01*
G01X1637700Y4409720D02*
G01X1645580Y4409720D01*
G01X1641640Y4405790D02*
G01X1641640Y4413660D01*
G01X1682980Y4409720D02*
G01X1690850Y4409720D01*
G01X1686910Y4405790D02*
G01X1686910Y4413660D01*
G01X1728250Y4409720D02*
G01X1736130Y4409720D01*
G01X1732190Y4405790D02*
G01X1732190Y4413660D01*
G01X2432190Y6219000D02*
G01X2444190Y6219000D01*
G01X2438190Y6213000D02*
G01X2438190Y6225000D01*
G01X2471190Y6219000D02*
G01X2483190Y6219000D01*
G01X2477190Y6213000D02*
G01X2477190Y6225000D01*
G01X2471190Y6180000D02*
G01X2483190Y6180000D01*
G01X2477190Y6174000D02*
G01X2477190Y6186000D01*
G01X2432190Y6180000D02*
G01X2444190Y6180000D01*
G01X2438190Y6174000D02*
G01X2438190Y6186000D01*
G01X2510190Y6180000D02*
G01X2522190Y6180000D01*
G01X2516190Y6174000D02*
G01X2516190Y6186000D01*
G01X2510190Y6219000D02*
G01X2522190Y6219000D01*
G01X2516190Y6213000D02*
G01X2516190Y6225000D01*
G01X2549190Y6180000D02*
G01X2561190Y6180000D01*
G01X2555190Y6174000D02*
G01X2555190Y6186000D01*
G01X2549190Y6219000D02*
G01X2561190Y6219000D01*
G01X2555190Y6213000D02*
G01X2555190Y6225000D01*
G01X2549190Y6141000D02*
G01X2561190Y6141000D01*
G01X2555190Y6135000D02*
G01X2555190Y6147000D01*
G01X2510190Y6141000D02*
G01X2522190Y6141000D01*
G01X2516190Y6135000D02*
G01X2516190Y6147000D01*
G01X2432190Y6141000D02*
G01X2444190Y6141000D01*
G01X2438190Y6135000D02*
G01X2438190Y6147000D01*
G01X2471190Y6141000D02*
G01X2483190Y6141000D01*
G01X2477190Y6135000D02*
G01X2477190Y6147000D01*
G01X2471190Y6446000D02*
G01X2483190Y6446000D01*
G01X2477190Y6440000D02*
G01X2477190Y6452000D01*
G01X2432190Y6446000D02*
G01X2444190Y6446000D01*
G01X2438190Y6440000D02*
G01X2438190Y6452000D01*
G01X2510190Y6446000D02*
G01X2522190Y6446000D01*
G01X2516190Y6440000D02*
G01X2516190Y6452000D01*
G01X2549190Y6446000D02*
G01X2561190Y6446000D01*
G01X2555190Y6440000D02*
G01X2555190Y6452000D01*
G01X2549190Y6524000D02*
G01X2561190Y6524000D01*
G01X2555190Y6518000D02*
G01X2555190Y6530000D01*
G01X2549190Y6485000D02*
G01X2561190Y6485000D01*
G01X2555190Y6479000D02*
G01X2555190Y6491000D01*
G01X2510190Y6524000D02*
G01X2522190Y6524000D01*
G01X2516190Y6518000D02*
G01X2516190Y6530000D01*
G01X2510190Y6485000D02*
G01X2522190Y6485000D01*
G01X2516190Y6479000D02*
G01X2516190Y6491000D01*
G01X2432190Y6485000D02*
G01X2444190Y6485000D01*
G01X2438190Y6479000D02*
G01X2438190Y6491000D01*
G01X2471190Y6485000D02*
G01X2483190Y6485000D01*
G01X2477190Y6479000D02*
G01X2477190Y6491000D01*
G01X2471190Y6524000D02*
G01X2483190Y6524000D01*
G01X2477190Y6518000D02*
G01X2477190Y6530000D01*
G01X2432190Y6524000D02*
G01X2444190Y6524000D01*
G01X2438190Y6518000D02*
G01X2438190Y6530000D01*
G01X4308010Y6253820D02*
G01X4320010Y6253820D01*
G01X4314010Y6247820D02*
G01X4314010Y6259820D01*
G01X3699190Y6507000D02*
G01X3711190Y6507000D01*
G01X3705190Y6501000D02*
G01X3705190Y6513000D01*
G01X3699190Y6468000D02*
G01X3711190Y6468000D01*
G01X3705190Y6462000D02*
G01X3705190Y6474000D01*
G01X3699190Y6546000D02*
G01X3711190Y6546000D01*
G01X3705190Y6540000D02*
G01X3705190Y6552000D01*
G01X3177190Y6168000D02*
G01X3189190Y6168000D01*
G01X3183190Y6162000D02*
G01X3183190Y6174000D01*
G01X3177190Y6207000D02*
G01X3189190Y6207000D01*
G01X3183190Y6201000D02*
G01X3183190Y6213000D01*
G01X3660190Y6546000D02*
G01X3672190Y6546000D01*
G01X3666190Y6540000D02*
G01X3666190Y6552000D01*
G01X3660190Y6468000D02*
G01X3672190Y6468000D01*
G01X3666190Y6462000D02*
G01X3666190Y6474000D01*
G01X3660190Y6507000D02*
G01X3672190Y6507000D01*
G01X3666190Y6501000D02*
G01X3666190Y6513000D01*
G01X3265190Y6429000D02*
G01X3277190Y6429000D01*
G01X3271190Y6423000D02*
G01X3271190Y6435000D01*
G01X3304190Y6507000D02*
G01X3316190Y6507000D01*
G01X3310190Y6501000D02*
G01X3310190Y6513000D01*
G01X3304190Y6429000D02*
G01X3316190Y6429000D01*
G01X3310190Y6423000D02*
G01X3310190Y6435000D01*
G01X3304190Y6468000D02*
G01X3316190Y6468000D01*
G01X3310190Y6462000D02*
G01X3310190Y6474000D01*
G01X3216190Y6207000D02*
G01X3228190Y6207000D01*
G01X3222190Y6201000D02*
G01X3222190Y6213000D01*
G01X3216190Y6168000D02*
G01X3228190Y6168000D01*
G01X3222190Y6162000D02*
G01X3222190Y6174000D01*
G01X2488210Y3249380D02*
G01X2500210Y3249380D01*
G01X2494210Y3243380D02*
G01X2494210Y3255380D01*
G01X2680200Y3249380D02*
G01X2692200Y3249380D01*
G01X2686200Y3243380D02*
G01X2686200Y3255380D01*
G01X2756170Y3249080D02*
G01X2768170Y3249080D01*
G01X2762170Y3243080D02*
G01X2762170Y3255080D01*
G01X2325190Y3988000D02*
G01X2337190Y3988000D01*
G01X2331190Y3982000D02*
G01X2331190Y3994000D01*
G01X2398190Y3988000D02*
G01X2410190Y3988000D01*
G01X2404190Y3982000D02*
G01X2404190Y3994000D01*
G01X3236910Y3990280D02*
G01X3248910Y3990280D01*
G01X3242910Y3984280D02*
G01X3242910Y3996280D01*
G01X3143910Y3990280D02*
G01X3155910Y3990280D01*
G01X3149910Y3984280D02*
G01X3149910Y3996280D01*
G01X3304960Y3248980D02*
G01X3316960Y3248980D01*
G01X3310960Y3242980D02*
G01X3310960Y3254980D01*
G01X3495950Y3249050D02*
G01X3507950Y3249050D01*
G01X3501950Y3243050D02*
G01X3501950Y3255050D01*
G01X3573460Y3248740D02*
G01X3585460Y3248740D01*
G01X3579460Y3242740D02*
G01X3579460Y3254740D01*
G01X1640190Y3693000D02*
G01X1652190Y3693000D01*
G01X1646190Y3687000D02*
G01X1646190Y3699000D01*
G01X3725190Y3438000D02*
G01X3737190Y3438000D01*
G01X3731190Y3432000D02*
G01X3731190Y3444000D01*
G01X3459190Y2786000D02*
G01X3471190Y2786000D01*
G01X3465190Y2780000D02*
G01X3465190Y2792000D01*
G01X3356190Y2284000D02*
G01X3368190Y2284000D01*
G01X3362190Y2278000D02*
G01X3362190Y2290000D01*
G01X2956190Y2479000D02*
G01X2968190Y2479000D01*
G01X2962190Y2473000D02*
G01X2962190Y2485000D01*
G01X2916190Y2299000D02*
G01X2928190Y2299000D01*
G01X2922190Y2293000D02*
G01X2922190Y2305000D01*
G01X2769190Y2622000D02*
G01X2781190Y2622000D01*
G01X2775190Y2616000D02*
G01X2775190Y2628000D01*
G01X2769190Y2659000D02*
G01X2781190Y2659000D01*
G01X2775190Y2653000D02*
G01X2775190Y2665000D01*
G01X3200320Y2469000D02*
G01X3212320Y2469000D01*
G01X3206320Y2463000D02*
G01X3206320Y2475000D01*
G01X2996190Y2469000D02*
G01X3008190Y2469000D01*
G01X3002190Y2463000D02*
G01X3002190Y2475000D01*
M02*
