G04*
G04 #@! TF.GenerationSoftware,Altium Limited,Altium Designer,18.1.9 (240)*
G04*
G04 Layer_Color=128*
%FSAX25Y25*%
%MOIN*%
G70*
G01*
G75*
%ADD15C,0.00500*%
%ADD17C,0.00800*%
%ADD21C,0.00600*%
%ADD22C,0.01000*%
G54D15*
X0336416Y0413900D02*
X0340550D01*
X0338483Y0411833D02*
Y0415967D01*
X0306888Y0413900D02*
X0311022D01*
X0308955Y0411833D02*
Y0415967D01*
X0360169Y0681200D02*
X0366469D01*
X0363319Y0678050D02*
Y0684350D01*
X0385169Y0681200D02*
X0391469D01*
X0388319Y0678050D02*
Y0684350D01*
X0142969Y0401500D02*
X0149268D01*
X0146119Y0398350D02*
Y0404650D01*
X0142969Y0426500D02*
X0149268D01*
X0146119Y0423350D02*
Y0429650D01*
X0258269Y0681200D02*
X0264568D01*
X0261419Y0678050D02*
Y0684350D01*
X0283269Y0681200D02*
X0289568D01*
X0286419Y0678050D02*
Y0684350D01*
X0244350Y0208700D02*
X0248287D01*
X0246319Y0206732D02*
Y0210668D01*
X0234350Y0208700D02*
X0238287D01*
X0236319Y0206732D02*
Y0210668D01*
X0224350Y0208700D02*
X0228287D01*
X0226319Y0206732D02*
Y0210668D01*
X0214350Y0208700D02*
X0218287D01*
X0216319Y0206732D02*
Y0210668D01*
X0194446Y0247800D02*
X0198383D01*
X0196414Y0245831D02*
Y0249768D01*
X0204446Y0247800D02*
X0208383D01*
X0206414Y0245831D02*
Y0249768D01*
X0214446Y0247800D02*
X0218383D01*
X0216414Y0245831D02*
Y0249768D01*
X0243650Y0235500D02*
X0247587D01*
X0245619Y0233531D02*
Y0237469D01*
X0243650Y0245500D02*
X0247587D01*
X0245619Y0243531D02*
Y0247468D01*
X0243650Y0255500D02*
X0247587D01*
X0245619Y0253532D02*
Y0257469D01*
X0243650Y0265500D02*
X0247587D01*
X0245619Y0263531D02*
Y0267469D01*
X0324150Y0208100D02*
X0328087D01*
X0326119Y0206132D02*
Y0210068D01*
X0314150Y0208100D02*
X0318087D01*
X0316119Y0206132D02*
Y0210068D01*
X0304150Y0208100D02*
X0308087D01*
X0306119Y0206132D02*
Y0210068D01*
X0294150Y0208100D02*
X0298087D01*
X0296119Y0206132D02*
Y0210068D01*
X0334150Y0208100D02*
X0338087D01*
X0336119Y0206132D02*
Y0210068D01*
X0344150Y0208100D02*
X0348087D01*
X0346119Y0206132D02*
Y0210068D01*
X0354150Y0208100D02*
X0358087D01*
X0356119Y0206132D02*
Y0210068D01*
X0364150Y0208100D02*
X0368087D01*
X0366119Y0206132D02*
Y0210068D01*
X0241652Y0413900D02*
X0245786D01*
X0243719Y0411833D02*
Y0415967D01*
X0212124Y0413900D02*
X0216258D01*
X0214191Y0411833D02*
Y0415967D01*
X0296616Y0618000D02*
X0300750D01*
X0298683Y0615933D02*
Y0620067D01*
X0267088Y0618000D02*
X0271222D01*
X0269155Y0615933D02*
Y0620067D01*
X0132920Y0213400D02*
X0145518D01*
X0139219Y0207101D02*
Y0219699D01*
X0132920Y0689211D02*
X0145518D01*
X0139219Y0682912D02*
Y0695510D01*
X0419754Y0689211D02*
X0432353D01*
X0426054Y0682912D02*
Y0695510D01*
X0419754Y0213400D02*
X0432353D01*
X0426054Y0207101D02*
Y0219699D01*
X0152000Y0242300D02*
X0156000D01*
X0154000Y0240300D02*
Y0244300D01*
X0204519Y0267400D02*
X0208519D01*
X0206519Y0265400D02*
Y0269400D01*
X0182200Y0208300D02*
X0186200D01*
X0184200Y0206300D02*
Y0210300D01*
X0234919Y0225600D02*
X0236119D01*
X0235519Y0225000D02*
Y0226200D01*
X0254419Y0224500D02*
X0255619D01*
X0255019Y0223900D02*
Y0225100D01*
X0230119Y0237500D02*
X0231319D01*
X0230719Y0236900D02*
Y0238100D01*
X0216119Y0256500D02*
X0217319D01*
X0216719Y0255900D02*
Y0257100D01*
X0401631Y0648064D02*
X0402419D01*
X0402025Y0647670D02*
Y0648457D01*
X0397104Y0648064D02*
X0397891D01*
X0397498Y0647670D02*
Y0648457D01*
X0401631Y0653300D02*
X0402419D01*
X0402025Y0652906D02*
Y0653694D01*
X0397104Y0653300D02*
X0397891D01*
X0397498Y0652906D02*
Y0653694D01*
X0397104Y0658536D02*
X0397891D01*
X0397498Y0658143D02*
Y0658930D01*
X0401631Y0658536D02*
X0402419D01*
X0402025Y0658143D02*
Y0658930D01*
X0220619Y0268900D02*
X0221819D01*
X0221219Y0268300D02*
Y0269500D01*
X0220619Y0287900D02*
X0221819D01*
X0221219Y0287300D02*
Y0288500D01*
X0229619Y0296900D02*
X0230819D01*
X0230219Y0296300D02*
Y0297500D01*
X0349519Y0682400D02*
X0350719D01*
X0350119Y0681800D02*
Y0683000D01*
X0349519Y0674600D02*
X0350719D01*
X0350119Y0674000D02*
Y0675200D01*
X0349519Y0678500D02*
X0350719D01*
X0350119Y0677900D02*
Y0679100D01*
X0349519Y0686400D02*
X0350719D01*
X0350119Y0685800D02*
Y0687000D01*
X0341619Y0686400D02*
X0342819D01*
X0342219Y0685800D02*
Y0687000D01*
X0345519Y0686400D02*
X0346719D01*
X0346119Y0685800D02*
Y0687000D01*
X0306119Y0686600D02*
X0307319D01*
X0306719Y0686000D02*
Y0687200D01*
X0302219Y0686600D02*
X0303419D01*
X0302819Y0686000D02*
Y0687200D01*
X0290619Y0667700D02*
X0291819D01*
X0291219Y0667100D02*
Y0668300D01*
X0286719Y0667700D02*
X0287919D01*
X0287319Y0667100D02*
Y0668300D01*
X0282819Y0667700D02*
X0284019D01*
X0283419Y0667100D02*
Y0668300D01*
X0171969Y0628250D02*
X0173169D01*
X0172569Y0627650D02*
Y0628850D01*
X0182969Y0628250D02*
X0184169D01*
X0183569Y0627650D02*
Y0628850D01*
X0177469Y0628250D02*
X0178669D01*
X0178069Y0627650D02*
Y0628850D01*
X0205298Y0684510D02*
X0206085D01*
X0205691Y0684117D02*
Y0684904D01*
X0200061Y0684510D02*
X0200849D01*
X0200455Y0684117D02*
Y0684904D01*
X0194825Y0684510D02*
X0195613D01*
X0195219Y0684117D02*
Y0684904D01*
X0210534Y0684510D02*
X0211321D01*
X0210928Y0684117D02*
Y0684904D01*
X0189589Y0684510D02*
X0190376D01*
X0189983Y0684117D02*
Y0684904D01*
X0189589Y0675455D02*
X0190376D01*
X0189983Y0675061D02*
Y0675849D01*
X0189589Y0670928D02*
X0190376D01*
X0189983Y0670534D02*
Y0671321D01*
X0189589Y0666400D02*
X0190376D01*
X0189983Y0666006D02*
Y0666794D01*
X0189589Y0679983D02*
X0190376D01*
X0189983Y0679589D02*
Y0680376D01*
X0210534Y0675455D02*
X0211321D01*
X0210928Y0675061D02*
Y0675849D01*
X0210534Y0670928D02*
X0211321D01*
X0210928Y0670534D02*
Y0671321D01*
X0210534Y0666400D02*
X0211321D01*
X0210928Y0666006D02*
Y0666794D01*
X0210534Y0679983D02*
X0211321D01*
X0210928Y0679589D02*
Y0680376D01*
X0194825Y0679983D02*
X0195613D01*
X0195219Y0679589D02*
Y0680376D01*
X0200061Y0679983D02*
X0200849D01*
X0200455Y0679589D02*
Y0680376D01*
X0205298Y0679983D02*
X0206085D01*
X0205691Y0679589D02*
Y0680376D01*
X0205298Y0666400D02*
X0206085D01*
X0205691Y0666006D02*
Y0666794D01*
X0205298Y0670928D02*
X0206085D01*
X0205691Y0670534D02*
Y0671321D01*
X0205298Y0675455D02*
X0206085D01*
X0205691Y0675061D02*
Y0675849D01*
X0200061Y0675455D02*
X0200849D01*
X0200455Y0675061D02*
Y0675849D01*
X0200061Y0670928D02*
X0200849D01*
X0200455Y0670534D02*
Y0671321D01*
X0200061Y0666400D02*
X0200849D01*
X0200455Y0666006D02*
Y0666794D01*
X0194825Y0675455D02*
X0195613D01*
X0195219Y0675061D02*
Y0675849D01*
X0194825Y0670928D02*
X0195613D01*
X0195219Y0670534D02*
Y0671321D01*
X0194825Y0666400D02*
X0195613D01*
X0195219Y0666006D02*
Y0666794D01*
X0369650Y0338431D02*
X0370850D01*
X0370250Y0337831D02*
Y0339031D01*
X0142219Y0326900D02*
X0143419D01*
X0142819Y0326300D02*
Y0327500D01*
X0148333Y0320786D02*
X0149533D01*
X0148933Y0320186D02*
Y0321386D01*
X0379169Y0261500D02*
X0380369D01*
X0379769Y0260900D02*
Y0262100D01*
X0348049Y0265130D02*
X0349249D01*
X0348649Y0264530D02*
Y0265730D01*
X0318019Y0306600D02*
X0319219D01*
X0318619Y0306000D02*
Y0307200D01*
X0306925Y0649035D02*
X0307713D01*
X0307319Y0648641D02*
Y0649428D01*
X0306925Y0653365D02*
X0307713D01*
X0307319Y0652972D02*
Y0653759D01*
X0319425Y0653365D02*
X0320213D01*
X0319819Y0652972D02*
Y0653759D01*
X0319425Y0649035D02*
X0320213D01*
X0319819Y0648641D02*
Y0649428D01*
X0401476Y0263075D02*
X0402263D01*
X0401869Y0262681D02*
Y0263469D01*
X0401476Y0259925D02*
X0402263D01*
X0401869Y0259531D02*
Y0260319D01*
X0296019Y0345200D02*
X0297219D01*
X0296619Y0344600D02*
Y0345800D01*
X0296019Y0350200D02*
X0297219D01*
X0296619Y0349600D02*
Y0350800D01*
X0353219Y0306600D02*
X0354419D01*
X0353819Y0306000D02*
Y0307200D01*
X0233419Y0275900D02*
X0234619D01*
X0234019Y0275300D02*
Y0276500D01*
X0229719Y0275900D02*
X0230919D01*
X0230319Y0275300D02*
Y0276500D01*
X0199219Y0316600D02*
X0200419D01*
X0199819Y0316000D02*
Y0317200D01*
X0379169Y0269400D02*
X0380368D01*
X0379768Y0268800D02*
Y0270000D01*
X0355519Y0298500D02*
X0356719D01*
X0356119Y0297900D02*
Y0299100D01*
X0359519Y0302100D02*
X0360719D01*
X0360119Y0301500D02*
Y0302700D01*
X0359219Y0294800D02*
X0360419D01*
X0359819Y0294200D02*
Y0295400D01*
X0286719Y0345200D02*
X0287919D01*
X0287319Y0344600D02*
Y0345800D01*
X0257519Y0199800D02*
X0258719D01*
X0258119Y0199200D02*
Y0200400D01*
X0392519Y0208600D02*
X0393719D01*
X0393119Y0208000D02*
Y0209200D01*
X0383819Y0217300D02*
X0385019D01*
X0384419Y0216700D02*
Y0217900D01*
X0295465Y0216246D02*
X0296665D01*
X0296065Y0215646D02*
Y0216846D01*
X0191219Y0288500D02*
X0192419D01*
X0191819Y0287900D02*
Y0289100D01*
X0200319Y0297600D02*
X0201519D01*
X0200919Y0297000D02*
Y0298200D01*
X0181319Y0316600D02*
X0182519D01*
X0181919Y0316000D02*
Y0317200D01*
X0286719Y0350200D02*
X0287919D01*
X0287319Y0349600D02*
Y0350800D01*
X0174419Y0350500D02*
X0175619D01*
X0175019Y0349900D02*
Y0351100D01*
X0263814Y0207004D02*
X0265014D01*
X0264414Y0206404D02*
Y0207604D01*
X0267405Y0231986D02*
X0268605D01*
X0268005Y0231386D02*
Y0232586D01*
X0435419Y0636700D02*
X0436619D01*
X0436019Y0636100D02*
Y0637300D01*
X0411019Y0621000D02*
X0412219D01*
X0411619Y0620400D02*
Y0621600D01*
X0410919Y0594800D02*
X0412119D01*
X0411519Y0594200D02*
Y0595400D01*
X0364650Y0338431D02*
X0365850D01*
X0365250Y0337831D02*
Y0339031D01*
X0367519Y0343800D02*
X0368719D01*
X0368119Y0343200D02*
Y0344400D01*
X0322619Y0302000D02*
X0323819D01*
X0323219Y0301400D02*
Y0302600D01*
X0276519Y0299500D02*
X0277719D01*
X0277119Y0298900D02*
Y0300100D01*
X0289692Y0295227D02*
X0290892D01*
X0290292Y0294627D02*
Y0295827D01*
X0322019Y0294800D02*
X0323219D01*
X0322619Y0294200D02*
Y0295400D01*
X0325419Y0298500D02*
X0326619D01*
X0326019Y0297900D02*
Y0299100D01*
X0287383Y0259600D02*
X0288583D01*
X0287983Y0259000D02*
Y0260200D01*
X0417419Y0476600D02*
X0418619D01*
X0418019Y0476000D02*
Y0477200D01*
X0343719Y0268800D02*
X0344919D01*
X0344319Y0268200D02*
Y0269400D01*
X0343819Y0249800D02*
X0345019D01*
X0344419Y0249200D02*
Y0250400D01*
X0343719Y0262400D02*
X0344919D01*
X0344319Y0261800D02*
Y0263000D01*
X0379169Y0254500D02*
X0380369D01*
X0379769Y0253900D02*
Y0255100D01*
X0167414Y0322400D02*
X0168614D01*
X0168014Y0321800D02*
Y0323000D01*
X0167414Y0326100D02*
X0168614D01*
X0168014Y0325500D02*
Y0326700D01*
X0167414Y0329800D02*
X0168614D01*
X0168014Y0329200D02*
Y0330400D01*
X0313819Y0620700D02*
X0315019D01*
X0314419Y0620100D02*
Y0621300D01*
X0313819Y0616800D02*
X0315019D01*
X0314419Y0616200D02*
Y0617400D01*
X0309919Y0616800D02*
X0311119D01*
X0310519Y0616200D02*
Y0617400D01*
X0309919Y0620700D02*
X0311119D01*
X0310519Y0620100D02*
Y0621300D01*
X0306019Y0620700D02*
X0307219D01*
X0306619Y0620100D02*
Y0621300D01*
X0306019Y0616800D02*
X0307219D01*
X0306619Y0616200D02*
Y0617400D01*
X0303019Y0431400D02*
X0304219D01*
X0303619Y0430800D02*
Y0432000D01*
X0303019Y0435300D02*
X0304219D01*
X0303619Y0434700D02*
Y0435900D01*
X0303019Y0427500D02*
X0304219D01*
X0303619Y0426900D02*
Y0428100D01*
X0303019Y0423600D02*
X0304219D01*
X0303619Y0423000D02*
Y0424200D01*
X0303019Y0439200D02*
X0304219D01*
X0303619Y0438600D02*
Y0439800D01*
X0303019Y0447000D02*
X0304219D01*
X0303619Y0446400D02*
Y0447600D01*
X0303019Y0443100D02*
X0304219D01*
X0303619Y0442500D02*
Y0443700D01*
X0303019Y0450900D02*
X0304219D01*
X0303619Y0450300D02*
Y0451500D01*
X0303019Y0458700D02*
X0304219D01*
X0303619Y0458100D02*
Y0459300D01*
X0303019Y0454800D02*
X0304219D01*
X0303619Y0454200D02*
Y0455400D01*
X0250819Y0454800D02*
X0252019D01*
X0251419Y0454200D02*
Y0455400D01*
X0250819Y0458700D02*
X0252019D01*
X0251419Y0458100D02*
Y0459300D01*
X0250819Y0450900D02*
X0252019D01*
X0251419Y0450300D02*
Y0451500D01*
X0250819Y0443100D02*
X0252019D01*
X0251419Y0442500D02*
Y0443700D01*
X0250819Y0447000D02*
X0252019D01*
X0251419Y0446400D02*
Y0447600D01*
X0250819Y0439200D02*
X0252019D01*
X0251419Y0438600D02*
Y0439800D01*
X0250819Y0423600D02*
X0252019D01*
X0251419Y0423000D02*
Y0424200D01*
X0250819Y0427500D02*
X0252019D01*
X0251419Y0426900D02*
Y0428100D01*
X0250819Y0435300D02*
X0252019D01*
X0251419Y0434700D02*
Y0435900D01*
X0250819Y0431400D02*
X0252019D01*
X0251419Y0430800D02*
Y0432000D01*
X0326519Y0646800D02*
X0327719D01*
X0327119Y0646200D02*
Y0647400D01*
X0326519Y0650700D02*
X0327719D01*
X0327119Y0650100D02*
Y0651300D01*
X0341619Y0674600D02*
X0342819D01*
X0342219Y0674000D02*
Y0675200D01*
X0341619Y0678500D02*
X0342819D01*
X0342219Y0677900D02*
Y0679100D01*
X0345519Y0678500D02*
X0346719D01*
X0346119Y0677900D02*
Y0679100D01*
X0345519Y0674600D02*
X0346719D01*
X0346119Y0674000D02*
Y0675200D01*
X0345519Y0682400D02*
X0346719D01*
X0346119Y0681800D02*
Y0683000D01*
X0341619Y0682400D02*
X0342819D01*
X0342219Y0681800D02*
Y0683000D01*
X0302219Y0675100D02*
X0303419D01*
X0302819Y0674500D02*
Y0675700D01*
X0302219Y0679000D02*
X0303419D01*
X0302819Y0678400D02*
Y0679600D01*
X0306119Y0679000D02*
X0307319D01*
X0306719Y0678400D02*
Y0679600D01*
X0306119Y0675100D02*
X0307319D01*
X0306719Y0674500D02*
Y0675700D01*
X0306119Y0682900D02*
X0307319D01*
X0306719Y0682300D02*
Y0683500D01*
X0302219Y0682900D02*
X0303419D01*
X0302819Y0682300D02*
Y0683500D01*
X0282819Y0663800D02*
X0284019D01*
X0283419Y0663200D02*
Y0664400D01*
X0286719Y0663800D02*
X0287919D01*
X0287319Y0663200D02*
Y0664400D01*
X0286719Y0659900D02*
X0287919D01*
X0287319Y0659300D02*
Y0660500D01*
X0282819Y0659900D02*
X0284019D01*
X0283419Y0659300D02*
Y0660500D01*
X0290619Y0659900D02*
X0291819D01*
X0291219Y0659300D02*
Y0660500D01*
X0290619Y0663800D02*
X0291819D01*
X0291219Y0663200D02*
Y0664400D01*
X0315392Y0294950D02*
X0316592D01*
X0315992Y0294350D02*
Y0295550D01*
X0302292Y0294950D02*
X0303492D01*
X0302892Y0294350D02*
Y0295550D01*
X0295892Y0294950D02*
X0297092D01*
X0296492Y0294350D02*
Y0295550D01*
X0283419Y0294950D02*
X0284619D01*
X0284019Y0294350D02*
Y0295550D01*
X0276919Y0294900D02*
X0278119D01*
X0277519Y0294300D02*
Y0295500D01*
X0261819Y0291200D02*
X0263019D01*
X0262419Y0290600D02*
Y0291800D01*
X0272719Y0283700D02*
X0273919D01*
X0273319Y0283100D02*
Y0284300D01*
X0283419Y0279500D02*
X0284619D01*
X0284019Y0278900D02*
Y0280100D01*
X0295719Y0279500D02*
X0296919D01*
X0296319Y0278900D02*
Y0280100D01*
X0315419Y0278600D02*
X0316619D01*
X0316019Y0278000D02*
Y0279200D01*
X0302219Y0279600D02*
X0303419D01*
X0302819Y0279000D02*
Y0280200D01*
X0286765Y0265546D02*
X0287965D01*
X0287365Y0264946D02*
Y0266146D01*
X0309519Y0264300D02*
X0310719D01*
X0310119Y0263700D02*
Y0264900D01*
X0273619Y0256800D02*
X0274819D01*
X0274219Y0256200D02*
Y0257400D01*
X0340919Y0229700D02*
X0342119D01*
X0341519Y0229100D02*
Y0230300D01*
X0346019Y0235500D02*
X0347219D01*
X0346619Y0234900D02*
Y0236100D01*
X0354419Y0217300D02*
X0355619D01*
X0355019Y0216700D02*
Y0217900D01*
X0257515Y0207004D02*
X0258715D01*
X0258115Y0206404D02*
Y0207604D01*
X0392018Y0606950D02*
X0393218D01*
X0392618Y0606350D02*
Y0607550D01*
X0394819Y0583023D02*
X0396019D01*
X0395419Y0582423D02*
Y0583623D01*
X0364419Y0595723D02*
X0365619D01*
X0365019Y0595123D02*
Y0596323D01*
X0394819Y0612400D02*
X0396019D01*
X0395419Y0611800D02*
Y0613000D01*
X0364419Y0625100D02*
X0365619D01*
X0365019Y0624500D02*
Y0625700D01*
X0187319Y0337500D02*
X0188519D01*
X0187919Y0336900D02*
Y0338100D01*
X0406969Y0266900D02*
X0408169D01*
X0407569Y0266300D02*
Y0267500D01*
X0411269Y0253300D02*
X0412469D01*
X0411869Y0252700D02*
Y0253900D01*
X0168419Y0411200D02*
X0169619D01*
X0169019Y0410600D02*
Y0411800D01*
X0144114Y0294100D02*
X0145314D01*
X0144714Y0293500D02*
Y0294700D01*
X0142914Y0278800D02*
X0144114D01*
X0143514Y0278200D02*
Y0279400D01*
X0147807Y0259407D02*
X0149007D01*
X0148407Y0258807D02*
Y0260007D01*
X0144413Y0262849D02*
X0145613D01*
X0145013Y0262249D02*
Y0263449D01*
X0131814Y0293400D02*
X0133014D01*
X0132414Y0292800D02*
Y0294000D01*
X0129814Y0290600D02*
X0131014D01*
X0130414Y0290000D02*
Y0291200D01*
X0133614Y0290600D02*
X0134814D01*
X0134214Y0290000D02*
Y0291200D01*
X0174314Y0298200D02*
X0175514D01*
X0174914Y0297600D02*
Y0298800D01*
X0171214Y0265700D02*
X0172414D01*
X0171814Y0265100D02*
Y0266300D01*
X0171214Y0269500D02*
X0172414D01*
X0171814Y0268900D02*
Y0270100D01*
X0171214Y0273300D02*
X0172414D01*
X0171814Y0272700D02*
Y0273900D01*
X0201614Y0222800D02*
X0202814D01*
X0202214Y0222200D02*
Y0223400D01*
X0195914Y0218121D02*
X0197114D01*
X0196514Y0217521D02*
Y0218721D01*
X0187412Y0222334D02*
X0188612D01*
X0188012Y0221734D02*
Y0222934D01*
X0167130Y0242116D02*
X0168330D01*
X0167730Y0241516D02*
Y0242716D01*
X0257519Y0267600D02*
X0258719D01*
X0258119Y0267000D02*
Y0268200D01*
X0351819Y0436600D02*
X0353019D01*
X0352419Y0436000D02*
Y0437200D01*
X0351819Y0432700D02*
X0353019D01*
X0352419Y0432100D02*
Y0433300D01*
X0347919Y0432700D02*
X0349119D01*
X0348519Y0432100D02*
Y0433300D01*
X0347919Y0436600D02*
X0349119D01*
X0348519Y0436000D02*
Y0437200D01*
X0347919Y0428800D02*
X0349119D01*
X0348519Y0428200D02*
Y0429400D01*
X0351819Y0428800D02*
X0353019D01*
X0352419Y0428200D02*
Y0429400D01*
X0347919Y0424900D02*
X0349119D01*
X0348519Y0424300D02*
Y0425500D01*
X0351819Y0424900D02*
X0353019D01*
X0352419Y0424300D02*
Y0425500D01*
X0344019Y0424900D02*
X0345219D01*
X0344619Y0424300D02*
Y0425500D01*
X0344019Y0428800D02*
X0345219D01*
X0344619Y0428200D02*
Y0429400D01*
X0344019Y0436600D02*
X0345219D01*
X0344619Y0436000D02*
Y0437200D01*
X0344019Y0432700D02*
X0345219D01*
X0344619Y0432100D02*
Y0433300D01*
X0340119Y0424900D02*
X0341319D01*
X0340719Y0424300D02*
Y0425500D01*
X0340119Y0428800D02*
X0341319D01*
X0340719Y0428200D02*
Y0429400D01*
X0340119Y0436600D02*
X0341319D01*
X0340719Y0436000D02*
Y0437200D01*
X0340119Y0432700D02*
X0341319D01*
X0340719Y0432100D02*
Y0433300D01*
X0311670Y0520680D02*
X0312870D01*
X0312270Y0520080D02*
Y0521280D01*
X0315570Y0520680D02*
X0316770D01*
X0316170Y0520080D02*
Y0521280D01*
X0311670Y0516780D02*
X0312870D01*
X0312270Y0516180D02*
Y0517380D01*
X0315570Y0516780D02*
X0316770D01*
X0316170Y0516180D02*
Y0517380D01*
X0307770Y0516780D02*
X0308970D01*
X0308370Y0516180D02*
Y0517380D01*
X0307770Y0520680D02*
X0308970D01*
X0308370Y0520080D02*
Y0521280D01*
X0303870Y0516780D02*
X0305070D01*
X0304470Y0516180D02*
Y0517380D01*
X0303870Y0520680D02*
X0305070D01*
X0304470Y0520080D02*
Y0521280D01*
X0244319Y0520900D02*
X0245519D01*
X0244919Y0520300D02*
Y0521500D01*
X0244319Y0517000D02*
X0245519D01*
X0244919Y0516400D02*
Y0517600D01*
X0248219Y0520900D02*
X0249419D01*
X0248819Y0520300D02*
Y0521500D01*
X0248219Y0517000D02*
X0249419D01*
X0248819Y0516400D02*
Y0517600D01*
X0256019Y0517000D02*
X0257219D01*
X0256619Y0516400D02*
Y0517600D01*
X0252119Y0517000D02*
X0253319D01*
X0252719Y0516400D02*
Y0517600D01*
X0256019Y0520900D02*
X0257219D01*
X0256619Y0520300D02*
Y0521500D01*
X0252119Y0520900D02*
X0253319D01*
X0252719Y0520300D02*
Y0521500D01*
X0185919Y0453200D02*
X0187119D01*
X0186519Y0452600D02*
Y0453800D01*
X0189819Y0453200D02*
X0191019D01*
X0190419Y0452600D02*
Y0453800D01*
X0185919Y0449300D02*
X0187119D01*
X0186519Y0448700D02*
Y0449900D01*
X0189819Y0449300D02*
X0191019D01*
X0190419Y0448700D02*
Y0449900D01*
X0195819Y0408300D02*
X0197019D01*
X0196419Y0407700D02*
Y0408900D01*
X0195819Y0412200D02*
X0197019D01*
X0196419Y0411600D02*
Y0412800D01*
X0195819Y0404400D02*
X0197019D01*
X0196419Y0403800D02*
Y0405000D01*
X0195819Y0400500D02*
X0197019D01*
X0196419Y0399900D02*
Y0401100D01*
X0199719Y0408300D02*
X0200919D01*
X0200319Y0407700D02*
Y0408900D01*
X0199719Y0412200D02*
X0200919D01*
X0200319Y0411600D02*
Y0412800D01*
X0199719Y0404400D02*
X0200919D01*
X0200319Y0403800D02*
Y0405000D01*
X0199719Y0400500D02*
X0200919D01*
X0200319Y0399900D02*
Y0401100D01*
X0207519Y0400500D02*
X0208719D01*
X0208119Y0399900D02*
Y0401100D01*
X0203619Y0400500D02*
X0204819D01*
X0204219Y0399900D02*
Y0401100D01*
X0207519Y0404400D02*
X0208719D01*
X0208119Y0403800D02*
Y0405000D01*
X0203619Y0404400D02*
X0204819D01*
X0204219Y0403800D02*
Y0405000D01*
X0203619Y0412200D02*
X0204819D01*
X0204219Y0411600D02*
Y0412800D01*
X0203619Y0408300D02*
X0204819D01*
X0204219Y0407700D02*
Y0408900D01*
X0207519Y0408300D02*
X0208719D01*
X0208119Y0407700D02*
Y0408900D01*
X0207519Y0412200D02*
X0208719D01*
X0208119Y0411600D02*
Y0412800D01*
X0147819Y0386000D02*
X0149019D01*
X0148419Y0385400D02*
Y0386600D01*
X0147819Y0381100D02*
X0149019D01*
X0148419Y0380500D02*
Y0381700D01*
X0152719Y0381100D02*
X0153919D01*
X0153319Y0380500D02*
Y0381700D01*
X0152719Y0386000D02*
X0153919D01*
X0153319Y0385400D02*
Y0386600D01*
X0157619Y0381100D02*
X0158819D01*
X0158219Y0380500D02*
Y0381700D01*
X0157619Y0386000D02*
X0158819D01*
X0158219Y0385400D02*
Y0386600D01*
X0162519Y0381100D02*
X0163719D01*
X0163119Y0380500D02*
Y0381700D01*
X0162519Y0386000D02*
X0163719D01*
X0163119Y0385400D02*
Y0386600D01*
X0189819Y0441500D02*
X0191019D01*
X0190419Y0440900D02*
Y0442100D01*
X0189819Y0437600D02*
X0191019D01*
X0190419Y0437000D02*
Y0438200D01*
X0189819Y0433700D02*
X0191019D01*
X0190419Y0433100D02*
Y0434300D01*
X0189819Y0445400D02*
X0191019D01*
X0190419Y0444800D02*
Y0446000D01*
X0185919Y0433700D02*
X0187119D01*
X0186519Y0433100D02*
Y0434300D01*
X0185919Y0437600D02*
X0187119D01*
X0186519Y0437000D02*
Y0438200D01*
X0185919Y0441500D02*
X0187119D01*
X0186519Y0440900D02*
Y0442100D01*
X0185919Y0445400D02*
X0187119D01*
X0186519Y0444800D02*
Y0446000D01*
X0392576Y0658536D02*
X0393364D01*
X0392970Y0658143D02*
Y0658930D01*
X0388049Y0658536D02*
X0388836D01*
X0388442Y0658143D02*
Y0658930D01*
X0383521Y0658536D02*
X0384309D01*
X0383915Y0658143D02*
Y0658930D01*
X0383521Y0653300D02*
X0384309D01*
X0383915Y0652906D02*
Y0653694D01*
X0388049Y0653300D02*
X0388836D01*
X0388442Y0652906D02*
Y0653694D01*
X0392576Y0653300D02*
X0393364D01*
X0392970Y0652906D02*
Y0653694D01*
X0383521Y0648064D02*
X0384309D01*
X0383915Y0647670D02*
Y0648457D01*
X0388049Y0648064D02*
X0388836D01*
X0388442Y0647670D02*
Y0648457D01*
X0392576Y0648064D02*
X0393364D01*
X0392970Y0647670D02*
Y0648457D01*
X0332159Y0503145D02*
X0332946D01*
X0332553Y0502751D02*
Y0503539D01*
X0336687Y0503145D02*
X0337474D01*
X0337080Y0502751D02*
Y0503539D01*
X0341214Y0503145D02*
X0342002D01*
X0341608Y0502751D02*
Y0503539D01*
X0332159Y0497909D02*
X0332946D01*
X0332553Y0497515D02*
Y0498302D01*
X0336687Y0497909D02*
X0337474D01*
X0337080Y0497515D02*
Y0498302D01*
X0341214Y0497909D02*
X0342002D01*
X0341608Y0497515D02*
Y0498302D01*
X0341214Y0492672D02*
X0342002D01*
X0341608Y0492279D02*
Y0493066D01*
X0336687Y0492672D02*
X0337474D01*
X0337080Y0492279D02*
Y0493066D01*
X0332159Y0492672D02*
X0332946D01*
X0332553Y0492279D02*
Y0493066D01*
X0303463Y0503136D02*
X0304250D01*
X0303857Y0502742D02*
Y0503530D01*
X0307991Y0503136D02*
X0308778D01*
X0308384Y0502742D02*
Y0503530D01*
X0312518Y0503136D02*
X0313305D01*
X0312912Y0502742D02*
Y0503530D01*
X0303463Y0497900D02*
X0304250D01*
X0303857Y0497506D02*
Y0498294D01*
X0307991Y0497900D02*
X0308778D01*
X0308384Y0497506D02*
Y0498294D01*
X0312518Y0497900D02*
X0313305D01*
X0312912Y0497506D02*
Y0498294D01*
X0312518Y0492664D02*
X0313305D01*
X0312912Y0492270D02*
Y0493057D01*
X0307991Y0492664D02*
X0308778D01*
X0308384Y0492270D02*
Y0493057D01*
X0303463Y0492664D02*
X0304250D01*
X0303857Y0492270D02*
Y0493057D01*
X0229842Y0492665D02*
X0230629D01*
X0230235Y0492272D02*
Y0493059D01*
X0225314Y0492665D02*
X0226102D01*
X0225708Y0492272D02*
Y0493059D01*
X0220787Y0492665D02*
X0221574D01*
X0221180Y0492272D02*
Y0493059D01*
X0229842Y0497902D02*
X0230629D01*
X0230235Y0497508D02*
Y0498295D01*
X0225314Y0497902D02*
X0226102D01*
X0225708Y0497508D02*
Y0498295D01*
X0220787Y0497902D02*
X0221574D01*
X0221180Y0497508D02*
Y0498295D01*
X0220787Y0503138D02*
X0221574D01*
X0221180Y0502744D02*
Y0503532D01*
X0225314Y0503138D02*
X0226102D01*
X0225708Y0502744D02*
Y0503532D01*
X0229842Y0503138D02*
X0230629D01*
X0230235Y0502744D02*
Y0503532D01*
X0259246Y0503129D02*
X0260033D01*
X0259639Y0502735D02*
Y0503523D01*
X0254718Y0503129D02*
X0255505D01*
X0255112Y0502735D02*
Y0503523D01*
X0250190Y0503129D02*
X0250978D01*
X0250584Y0502735D02*
Y0503523D01*
X0250190Y0497893D02*
X0250978D01*
X0250584Y0497499D02*
Y0498287D01*
X0254718Y0497893D02*
X0255505D01*
X0255112Y0497499D02*
Y0498287D01*
X0259246Y0497893D02*
X0260033D01*
X0259639Y0497499D02*
Y0498287D01*
X0250190Y0492657D02*
X0250978D01*
X0250584Y0492263D02*
Y0493050D01*
X0254718Y0492657D02*
X0255505D01*
X0255112Y0492263D02*
Y0493050D01*
X0259246Y0492657D02*
X0260033D01*
X0259639Y0492263D02*
Y0493050D01*
X0172825Y0430500D02*
X0173613D01*
X0173219Y0430106D02*
Y0430894D01*
X0168298Y0430500D02*
X0169085D01*
X0168691Y0430106D02*
Y0430894D01*
X0163770Y0430500D02*
X0164558D01*
X0164164Y0430106D02*
Y0430894D01*
X0172825Y0435736D02*
X0173613D01*
X0173219Y0435343D02*
Y0436130D01*
X0168298Y0435736D02*
X0169085D01*
X0168691Y0435343D02*
Y0436130D01*
X0163770Y0435736D02*
X0164558D01*
X0164164Y0435343D02*
Y0436130D01*
X0163770Y0440972D02*
X0164558D01*
X0164164Y0440579D02*
Y0441366D01*
X0168298Y0440972D02*
X0169085D01*
X0168691Y0440579D02*
Y0441366D01*
X0172825Y0440972D02*
X0173613D01*
X0173219Y0440579D02*
Y0441366D01*
X0243219Y0621900D02*
X0244419D01*
X0243819Y0621300D02*
Y0622500D01*
X0247119Y0621900D02*
X0248319D01*
X0247719Y0621300D02*
Y0622500D01*
X0247119Y0618000D02*
X0248319D01*
X0247719Y0617400D02*
Y0618600D01*
X0243219Y0618000D02*
X0244419D01*
X0243819Y0617400D02*
Y0618600D01*
X0251019Y0618000D02*
X0252219D01*
X0251619Y0617400D02*
Y0618600D01*
X0251019Y0621900D02*
X0252219D01*
X0251619Y0621300D02*
Y0622500D01*
X0254919Y0618000D02*
X0256119D01*
X0255519Y0617400D02*
Y0618600D01*
X0254919Y0621900D02*
X0256119D01*
X0255519Y0621300D02*
Y0622500D01*
X0254919Y0614100D02*
X0256119D01*
X0255519Y0613500D02*
Y0614700D01*
X0251019Y0614100D02*
X0252219D01*
X0251619Y0613500D02*
Y0614700D01*
X0243219Y0614100D02*
X0244419D01*
X0243819Y0613500D02*
Y0614700D01*
X0247119Y0614100D02*
X0248319D01*
X0247719Y0613500D02*
Y0614700D01*
X0247119Y0644600D02*
X0248319D01*
X0247719Y0644000D02*
Y0645200D01*
X0243219Y0644600D02*
X0244419D01*
X0243819Y0644000D02*
Y0645200D01*
X0251019Y0644600D02*
X0252219D01*
X0251619Y0644000D02*
Y0645200D01*
X0254919Y0644600D02*
X0256119D01*
X0255519Y0644000D02*
Y0645200D01*
X0254919Y0652400D02*
X0256119D01*
X0255519Y0651800D02*
Y0653000D01*
X0254919Y0648500D02*
X0256119D01*
X0255519Y0647900D02*
Y0649100D01*
X0251019Y0652400D02*
X0252219D01*
X0251619Y0651800D02*
Y0653000D01*
X0251019Y0648500D02*
X0252219D01*
X0251619Y0647900D02*
Y0649100D01*
X0243219Y0648500D02*
X0244419D01*
X0243819Y0647900D02*
Y0649100D01*
X0247119Y0648500D02*
X0248319D01*
X0247719Y0647900D02*
Y0649100D01*
X0247119Y0652400D02*
X0248319D01*
X0247719Y0651800D02*
Y0653000D01*
X0243219Y0652400D02*
X0244419D01*
X0243819Y0651800D02*
Y0653000D01*
X0430801Y0625382D02*
X0432001D01*
X0431401Y0624782D02*
Y0625982D01*
X0369919Y0650700D02*
X0371119D01*
X0370519Y0650100D02*
Y0651300D01*
X0369919Y0646800D02*
X0371119D01*
X0370519Y0646200D02*
Y0647400D01*
X0369919Y0654600D02*
X0371119D01*
X0370519Y0654000D02*
Y0655200D01*
X0317719Y0616800D02*
X0318919D01*
X0318319Y0616200D02*
Y0617400D01*
X0317719Y0620700D02*
X0318919D01*
X0318319Y0620100D02*
Y0621300D01*
X0366019Y0654600D02*
X0367219D01*
X0366619Y0654000D02*
Y0655200D01*
X0366019Y0646800D02*
X0367219D01*
X0366619Y0646200D02*
Y0647400D01*
X0366019Y0650700D02*
X0367219D01*
X0366619Y0650100D02*
Y0651300D01*
X0326519Y0642900D02*
X0327719D01*
X0327119Y0642300D02*
Y0643500D01*
X0330419Y0650700D02*
X0331619D01*
X0331019Y0650100D02*
Y0651300D01*
X0330419Y0642900D02*
X0331619D01*
X0331019Y0642300D02*
Y0643500D01*
X0330419Y0646800D02*
X0331619D01*
X0331019Y0646200D02*
Y0647400D01*
X0321619Y0620700D02*
X0322819D01*
X0322219Y0620100D02*
Y0621300D01*
X0321619Y0616800D02*
X0322819D01*
X0322219Y0616200D02*
Y0617400D01*
X0248821Y0324938D02*
X0250021D01*
X0249421Y0324338D02*
Y0325538D01*
X0268020Y0324938D02*
X0269220D01*
X0268620Y0324338D02*
Y0325538D01*
X0275617Y0324908D02*
X0276817D01*
X0276217Y0324308D02*
Y0325508D01*
X0232519Y0398800D02*
X0233719D01*
X0233119Y0398200D02*
Y0399400D01*
X0239819Y0398800D02*
X0241019D01*
X0240419Y0398200D02*
Y0399400D01*
X0323691Y0399028D02*
X0324891D01*
X0324291Y0398428D02*
Y0399628D01*
X0314391Y0399028D02*
X0315591D01*
X0314991Y0398428D02*
Y0399628D01*
X0330496Y0324898D02*
X0331696D01*
X0331096Y0324298D02*
Y0325498D01*
X0349595Y0324905D02*
X0350795D01*
X0350195Y0324305D02*
Y0325505D01*
X0357346Y0324874D02*
X0358546D01*
X0357946Y0324274D02*
Y0325474D01*
X0164019Y0369300D02*
X0165219D01*
X0164619Y0368700D02*
Y0369900D01*
X0372519Y0343800D02*
X0373719D01*
X0373119Y0343200D02*
Y0344400D01*
X0345919Y0278600D02*
X0347119D01*
X0346519Y0278000D02*
Y0279200D01*
X0335619Y0228400D02*
X0336819D01*
X0336219Y0227800D02*
Y0229000D01*
X0295619Y0247900D02*
X0296819D01*
X0296219Y0247300D02*
Y0248500D01*
X0291619Y0229900D02*
X0292819D01*
X0292219Y0229300D02*
Y0230500D01*
X0276919Y0262200D02*
X0278119D01*
X0277519Y0261600D02*
Y0262800D01*
X0276919Y0265900D02*
X0278119D01*
X0277519Y0265300D02*
Y0266500D01*
X0320032Y0246900D02*
X0321232D01*
X0320632Y0246300D02*
Y0247500D01*
X0299619Y0246900D02*
X0300819D01*
X0300219Y0246300D02*
Y0247500D01*
G54D17*
X0348550Y0073498D02*
X0352549D01*
X0350549D01*
Y0067500D01*
X0354548Y0073498D02*
X0356547D01*
X0355548D01*
Y0067500D01*
X0354548D01*
X0356547D01*
X0359546Y0073498D02*
Y0067500D01*
X0362545D01*
X0363545Y0068500D01*
Y0072498D01*
X0362545Y0073498D01*
X0359546D01*
X0365545Y0067500D02*
Y0071499D01*
X0367544Y0073498D01*
X0369543Y0071499D01*
Y0067500D01*
Y0070499D01*
X0365545D01*
X0371543D02*
X0375541D01*
X0377541Y0072498D02*
X0378540Y0073498D01*
X0380540D01*
X0381539Y0072498D01*
Y0068500D01*
X0380540Y0067500D01*
X0378540D01*
X0377541Y0068500D01*
Y0072498D01*
X0383539Y0067500D02*
X0385538D01*
X0384538D01*
Y0073498D01*
X0383539Y0072498D01*
X0388537D02*
X0389537Y0073498D01*
X0391536D01*
X0392536Y0072498D01*
Y0068500D01*
X0391536Y0067500D01*
X0389537D01*
X0388537Y0068500D01*
Y0072498D01*
X0394535D02*
X0395535Y0073498D01*
X0397534D01*
X0398534Y0072498D01*
Y0068500D01*
X0397534Y0067500D01*
X0395535D01*
X0394535Y0068500D01*
Y0072498D01*
X0403532Y0067500D02*
Y0073498D01*
X0400533Y0070499D01*
X0404532D01*
X0410530Y0067500D02*
X0406531D01*
X0410530Y0071499D01*
Y0072498D01*
X0409530Y0073498D01*
X0407531D01*
X0406531Y0072498D01*
X0294000Y0073498D02*
X0297999D01*
X0295999D01*
Y0067500D01*
X0299998Y0073498D02*
X0301997D01*
X0300998D01*
Y0067500D01*
X0299998D01*
X0301997D01*
X0304996Y0073498D02*
Y0067500D01*
X0307996D01*
X0308995Y0068500D01*
Y0072498D01*
X0307996Y0073498D01*
X0304996D01*
X0317992Y0067500D02*
Y0073498D01*
X0319992D02*
Y0067500D01*
X0316993Y0071499D02*
X0319992D01*
X0320991D01*
X0316993Y0069499D02*
X0320991D01*
X0322991Y0071499D02*
X0323990D01*
Y0070499D01*
X0322991D01*
Y0071499D01*
Y0068500D02*
X0323990D01*
Y0067500D01*
X0322991D01*
Y0068500D01*
X0580500Y0052965D02*
X0584499D01*
X0582499D01*
Y0046966D01*
X0590497Y0052965D02*
X0586498D01*
Y0046966D01*
X0590497D01*
X0586498Y0049966D02*
X0588497D01*
X0592496Y0052965D02*
X0596495Y0046966D01*
Y0052965D02*
X0592496Y0046966D01*
X0598494D02*
Y0050965D01*
X0600493Y0052965D01*
X0602493Y0050965D01*
Y0046966D01*
Y0049966D01*
X0598494D01*
X0608491Y0051965D02*
X0607491Y0052965D01*
X0605492D01*
X0604492Y0051965D01*
Y0050965D01*
X0605492Y0049966D01*
X0607491D01*
X0608491Y0048966D01*
Y0047966D01*
X0607491Y0046966D01*
X0605492D01*
X0604492Y0047966D01*
X0616488Y0052965D02*
X0618488D01*
X0617488D01*
Y0046966D01*
X0616488D01*
X0618488D01*
X0621487D02*
Y0052965D01*
X0625486Y0046966D01*
Y0052965D01*
X0631484Y0051965D02*
X0630484Y0052965D01*
X0628484D01*
X0627485Y0051965D01*
Y0050965D01*
X0628484Y0049966D01*
X0630484D01*
X0631484Y0048966D01*
Y0047966D01*
X0630484Y0046966D01*
X0628484D01*
X0627485Y0047966D01*
X0633483Y0052965D02*
X0637482D01*
X0635482D01*
Y0046966D01*
X0639481D02*
Y0052965D01*
X0642480D01*
X0643480Y0051965D01*
Y0049966D01*
X0642480Y0048966D01*
X0639481D01*
X0641480D02*
X0643480Y0046966D01*
X0645479Y0052965D02*
Y0047966D01*
X0646479Y0046966D01*
X0648478D01*
X0649478Y0047966D01*
Y0052965D01*
X0651477Y0046966D02*
Y0052965D01*
X0653476Y0050965D01*
X0655476Y0052965D01*
Y0046966D01*
X0661474Y0052965D02*
X0657475D01*
Y0046966D01*
X0661474D01*
X0657475Y0049966D02*
X0659474D01*
X0663473Y0046966D02*
Y0052965D01*
X0667472Y0046966D01*
Y0052965D01*
X0669471D02*
X0673470D01*
X0671471D01*
Y0046966D01*
X0679468Y0051965D02*
X0678468Y0052965D01*
X0676469D01*
X0675469Y0051965D01*
Y0050965D01*
X0676469Y0049966D01*
X0678468D01*
X0679468Y0048966D01*
Y0047966D01*
X0678468Y0046966D01*
X0676469D01*
X0675469Y0047966D01*
X0454050Y0051965D02*
X0455050Y0052965D01*
X0457049D01*
X0458049Y0051965D01*
Y0050965D01*
X0457049Y0049966D01*
X0458049Y0048966D01*
Y0047966D01*
X0457049Y0046966D01*
X0455050D01*
X0454050Y0047966D01*
Y0048966D01*
X0455050Y0049966D01*
X0454050Y0050965D01*
Y0051965D01*
X0455050Y0049966D02*
X0457049D01*
X0460048Y0050965D02*
X0461048D01*
Y0049966D01*
X0460048D01*
Y0050965D01*
Y0047966D02*
X0461048D01*
Y0046966D01*
X0460048D01*
Y0047966D01*
X0468046Y0046966D02*
Y0052965D01*
X0465046Y0049966D01*
X0469045D01*
X0471044Y0051965D02*
X0472044Y0052965D01*
X0474044D01*
X0475043Y0051965D01*
Y0050965D01*
X0474044Y0049966D01*
X0475043Y0048966D01*
Y0047966D01*
X0474044Y0046966D01*
X0472044D01*
X0471044Y0047966D01*
Y0048966D01*
X0472044Y0049966D01*
X0471044Y0050965D01*
Y0051965D01*
X0472044Y0049966D02*
X0474044D01*
X0477043Y0050965D02*
X0478042D01*
Y0049966D01*
X0477043D01*
Y0050965D01*
Y0047966D02*
X0478042D01*
Y0046966D01*
X0477043D01*
Y0047966D01*
X0485040Y0046966D02*
Y0052965D01*
X0482041Y0049966D01*
X0486040D01*
X0488039Y0051965D02*
X0489039Y0052965D01*
X0491038D01*
X0492038Y0051965D01*
Y0050965D01*
X0491038Y0049966D01*
X0492038Y0048966D01*
Y0047966D01*
X0491038Y0046966D01*
X0489039D01*
X0488039Y0047966D01*
Y0048966D01*
X0489039Y0049966D01*
X0488039Y0050965D01*
Y0051965D01*
X0489039Y0049966D02*
X0491038D01*
X0500035Y0046966D02*
Y0050965D01*
X0502035Y0052965D01*
X0504034Y0050965D01*
Y0046966D01*
Y0049966D01*
X0500035D01*
X0506033Y0046966D02*
Y0052965D01*
X0508033Y0050965D01*
X0510032Y0052965D01*
Y0046966D01*
X0046350D02*
Y0052965D01*
X0049349D01*
X0050349Y0051965D01*
Y0049966D01*
X0049349Y0048966D01*
X0046350D01*
X0052348Y0052965D02*
Y0046966D01*
X0056347D01*
X0061345Y0052965D02*
X0059346D01*
X0058346Y0051965D01*
Y0047966D01*
X0059346Y0046966D01*
X0061345D01*
X0062345Y0047966D01*
Y0051965D01*
X0061345Y0052965D01*
X0064344D02*
X0068343D01*
X0066343D01*
Y0046966D01*
X0076340D02*
Y0052965D01*
X0080339Y0046966D01*
Y0052965D01*
X0082338Y0046966D02*
Y0050965D01*
X0084338Y0052965D01*
X0086337Y0050965D01*
Y0046966D01*
Y0049966D01*
X0082338D01*
X0088336Y0046966D02*
Y0052965D01*
X0090336Y0050965D01*
X0092335Y0052965D01*
Y0046966D01*
X0098333Y0052965D02*
X0094335D01*
Y0046966D01*
X0098333D01*
X0094335Y0049966D02*
X0096334D01*
X0106331Y0048966D02*
X0110329D01*
X0106331Y0050965D02*
X0110329D01*
X0046350Y0073549D02*
Y0067551D01*
X0050349D01*
X0052348D02*
Y0071549D01*
X0054347Y0073549D01*
X0056347Y0071549D01*
Y0067551D01*
Y0070550D01*
X0052348D01*
X0058346Y0073549D02*
Y0072549D01*
X0060346Y0070550D01*
X0062345Y0072549D01*
Y0073549D01*
X0060346Y0070550D02*
Y0067551D01*
X0068343Y0073549D02*
X0064344D01*
Y0067551D01*
X0068343D01*
X0064344Y0070550D02*
X0066343D01*
X0070342Y0067551D02*
Y0073549D01*
X0073341D01*
X0074341Y0072549D01*
Y0070550D01*
X0073341Y0069550D01*
X0070342D01*
X0072342D02*
X0074341Y0067551D01*
X0082338D02*
Y0073549D01*
X0086337Y0067551D01*
Y0073549D01*
X0088336Y0067551D02*
Y0071549D01*
X0090336Y0073549D01*
X0092335Y0071549D01*
Y0067551D01*
Y0070550D01*
X0088336D01*
X0094335Y0067551D02*
Y0073549D01*
X0096334Y0071549D01*
X0098333Y0073549D01*
Y0067551D01*
X0104331Y0073549D02*
X0100332D01*
Y0067551D01*
X0104331D01*
X0100332Y0070550D02*
X0102332D01*
X0112329Y0069550D02*
X0116327D01*
X0112329Y0071549D02*
X0116327D01*
X0294000Y0093831D02*
Y0087833D01*
X0296999D01*
X0297999Y0088833D01*
Y0089833D01*
X0296999Y0090832D01*
X0294000D01*
X0296999D01*
X0297999Y0091832D01*
Y0092832D01*
X0296999Y0093831D01*
X0294000D01*
X0302997D02*
X0300998D01*
X0299998Y0092832D01*
Y0088833D01*
X0300998Y0087833D01*
X0302997D01*
X0303997Y0088833D01*
Y0092832D01*
X0302997Y0093831D01*
X0305996Y0087833D02*
Y0091832D01*
X0307996Y0093831D01*
X0309995Y0091832D01*
Y0087833D01*
Y0090832D01*
X0305996D01*
X0311994Y0087833D02*
Y0093831D01*
X0314993D01*
X0315993Y0092832D01*
Y0090832D01*
X0314993Y0089833D01*
X0311994D01*
X0313994D02*
X0315993Y0087833D01*
X0317992Y0093831D02*
Y0087833D01*
X0320991D01*
X0321991Y0088833D01*
Y0092832D01*
X0320991Y0093831D01*
X0317992D01*
X0330988Y0087833D02*
Y0093831D01*
X0332987D02*
Y0087833D01*
X0329988Y0091832D02*
X0332987D01*
X0333987D01*
X0329988Y0089833D02*
X0333987D01*
X0335986Y0091832D02*
X0336986D01*
Y0090832D01*
X0335986D01*
Y0091832D01*
Y0088833D02*
X0336986D01*
Y0087833D01*
X0335986D01*
Y0088833D01*
X0348550Y0093831D02*
X0352549D01*
X0350549D01*
Y0087833D01*
X0354548Y0093831D02*
X0356547D01*
X0355548D01*
Y0087833D01*
X0354548D01*
X0356547D01*
X0359546Y0093831D02*
Y0087833D01*
X0362545D01*
X0363545Y0088833D01*
Y0092832D01*
X0362545Y0093831D01*
X0359546D01*
X0365545Y0087833D02*
Y0091832D01*
X0367544Y0093831D01*
X0369543Y0091832D01*
Y0087833D01*
Y0090832D01*
X0365545D01*
X0371543D02*
X0375541D01*
X0377541Y0092832D02*
X0378540Y0093831D01*
X0380540D01*
X0381539Y0092832D01*
Y0088833D01*
X0380540Y0087833D01*
X0378540D01*
X0377541Y0088833D01*
Y0092832D01*
X0383539Y0087833D02*
X0385538D01*
X0384538D01*
Y0093831D01*
X0383539Y0092832D01*
X0388537D02*
X0389537Y0093831D01*
X0391536D01*
X0392536Y0092832D01*
Y0088833D01*
X0391536Y0087833D01*
X0389537D01*
X0388537Y0088833D01*
Y0092832D01*
X0394535D02*
X0395535Y0093831D01*
X0397534D01*
X0398534Y0092832D01*
Y0088833D01*
X0397534Y0087833D01*
X0395535D01*
X0394535Y0088833D01*
Y0092832D01*
X0403532Y0087833D02*
Y0093831D01*
X0400533Y0090832D01*
X0404532D01*
X0410530Y0087833D02*
X0406531D01*
X0410530Y0091832D01*
Y0092832D01*
X0409530Y0093831D01*
X0407531D01*
X0406531Y0092832D01*
X0466149Y0093831D02*
X0462150D01*
Y0087833D01*
X0466149D01*
X0462150Y0090832D02*
X0464149D01*
X0472147Y0087833D02*
X0468148D01*
X0472147Y0091832D01*
Y0092832D01*
X0471147Y0093831D01*
X0469148D01*
X0468148Y0092832D01*
X0046350Y0087833D02*
Y0091832D01*
X0048349Y0093831D01*
X0050349Y0091832D01*
Y0087833D01*
Y0090832D01*
X0046350D01*
X0052348Y0093831D02*
Y0087833D01*
X0056347D01*
X0058346Y0093831D02*
Y0087833D01*
X0062345D01*
X0070342D02*
Y0091832D01*
X0072342Y0093831D01*
X0074341Y0091832D01*
Y0087833D01*
Y0090832D01*
X0070342D01*
X0076340Y0087833D02*
Y0093831D01*
X0079339D01*
X0080339Y0092832D01*
Y0090832D01*
X0079339Y0089833D01*
X0076340D01*
X0078340D02*
X0080339Y0087833D01*
X0082338Y0093831D02*
X0086337D01*
X0084338D01*
Y0087833D01*
X0088336Y0093831D02*
Y0087833D01*
X0090336Y0089833D01*
X0092335Y0087833D01*
Y0093831D01*
X0097334D02*
X0095334D01*
X0094335Y0092832D01*
Y0088833D01*
X0095334Y0087833D01*
X0097334D01*
X0098333Y0088833D01*
Y0092832D01*
X0097334Y0093831D01*
X0100332Y0087833D02*
Y0093831D01*
X0103332D01*
X0104331Y0092832D01*
Y0090832D01*
X0103332Y0089833D01*
X0100332D01*
X0102332D02*
X0104331Y0087833D01*
X0106331Y0093831D02*
Y0087833D01*
Y0089833D01*
X0110329Y0093831D01*
X0107330Y0090832D01*
X0110329Y0087833D01*
X0118327Y0093831D02*
Y0089833D01*
X0120326Y0087833D01*
X0122325Y0089833D01*
Y0093831D01*
X0124325D02*
X0126324D01*
X0125324D01*
Y0087833D01*
X0124325D01*
X0126324D01*
X0133322Y0093831D02*
X0129323D01*
Y0087833D01*
X0133322D01*
X0129323Y0090832D02*
X0131323D01*
X0135321Y0093831D02*
Y0087833D01*
X0137321Y0089833D01*
X0139320Y0087833D01*
Y0093831D01*
X0145318D02*
X0141319D01*
Y0087833D01*
X0145318D01*
X0141319Y0090832D02*
X0143319D01*
X0147317Y0093831D02*
Y0087833D01*
X0150316D01*
X0151316Y0088833D01*
Y0092832D01*
X0150316Y0093831D01*
X0147317D01*
X0163312D02*
X0159313D01*
Y0090832D01*
X0161313D01*
X0159313D01*
Y0087833D01*
X0165312D02*
Y0093831D01*
X0168310D01*
X0169310Y0092832D01*
Y0090832D01*
X0168310Y0089833D01*
X0165312D01*
X0167311D02*
X0169310Y0087833D01*
X0174309Y0093831D02*
X0172309D01*
X0171310Y0092832D01*
Y0088833D01*
X0172309Y0087833D01*
X0174309D01*
X0175308Y0088833D01*
Y0092832D01*
X0174309Y0093831D01*
X0177308Y0087833D02*
Y0093831D01*
X0179307Y0091832D01*
X0181306Y0093831D01*
Y0087833D01*
X0189304Y0093831D02*
X0193303D01*
X0191303D01*
Y0087833D01*
X0198301Y0093831D02*
X0196301D01*
X0195302Y0092832D01*
Y0088833D01*
X0196301Y0087833D01*
X0198301D01*
X0199301Y0088833D01*
Y0092832D01*
X0198301Y0093831D01*
X0201300Y0087833D02*
Y0093831D01*
X0204299D01*
X0205299Y0092832D01*
Y0090832D01*
X0204299Y0089833D01*
X0201300D01*
X0217295Y0092832D02*
X0216295Y0093831D01*
X0214296D01*
X0213296Y0092832D01*
Y0091832D01*
X0214296Y0090832D01*
X0216295D01*
X0217295Y0089833D01*
Y0088833D01*
X0216295Y0087833D01*
X0214296D01*
X0213296Y0088833D01*
X0219294Y0093831D02*
X0221293D01*
X0220294D01*
Y0087833D01*
X0219294D01*
X0221293D01*
X0224292Y0093831D02*
Y0087833D01*
X0227291D01*
X0228291Y0088833D01*
Y0092832D01*
X0227291Y0093831D01*
X0224292D01*
X0234289D02*
X0230291D01*
Y0087833D01*
X0234289D01*
X0230291Y0090832D02*
X0232290D01*
X0298199Y0051965D02*
X0297199Y0052965D01*
X0295200D01*
X0294200Y0051965D01*
Y0047966D01*
X0295200Y0046966D01*
X0297199D01*
X0298199Y0047966D01*
Y0049966D01*
X0296199D01*
X0304197Y0052965D02*
X0300198D01*
Y0046966D01*
X0304197D01*
X0300198Y0049966D02*
X0302197D01*
X0306196Y0046966D02*
Y0052965D01*
X0310195Y0046966D01*
Y0052965D01*
X0316193D02*
X0312194D01*
Y0046966D01*
X0316193D01*
X0312194Y0049966D02*
X0314194D01*
X0318192Y0046966D02*
Y0052965D01*
X0321191D01*
X0322191Y0051965D01*
Y0049966D01*
X0321191Y0048966D01*
X0318192D01*
X0320192D02*
X0322191Y0046966D01*
X0324190D02*
Y0050965D01*
X0326190Y0052965D01*
X0328189Y0050965D01*
Y0046966D01*
Y0049966D01*
X0324190D01*
X0330188Y0052965D02*
X0334187D01*
X0332188D01*
Y0046966D01*
X0340185Y0052965D02*
X0336186D01*
Y0046966D01*
X0340185D01*
X0336186Y0049966D02*
X0338186D01*
X0342184Y0052965D02*
Y0046966D01*
X0345183D01*
X0346183Y0047966D01*
Y0051965D01*
X0345183Y0052965D01*
X0342184D01*
X0372175Y0050965D02*
X0373175D01*
Y0049966D01*
X0372175D01*
Y0050965D01*
Y0047966D02*
X0373175D01*
Y0046966D01*
X0372175D01*
Y0047966D01*
X0381150Y0046966D02*
X0383149D01*
X0382150D01*
Y0052965D01*
X0381150Y0051965D01*
X0386148Y0046966D02*
X0388148D01*
X0387148D01*
Y0052965D01*
X0386148Y0051965D01*
X0391147Y0046966D02*
X0395146Y0050965D01*
X0397145Y0046966D02*
X0399144D01*
X0398145D01*
Y0052965D01*
X0397145Y0051965D01*
X0402143D02*
X0403143Y0052965D01*
X0405142D01*
X0406142Y0051965D01*
Y0050965D01*
X0405142Y0049966D01*
X0404143D01*
X0405142D01*
X0406142Y0048966D01*
Y0047966D01*
X0405142Y0046966D01*
X0403143D01*
X0402143Y0047966D01*
X0408141Y0046966D02*
X0412140Y0050965D01*
X0418138Y0046966D02*
X0414139D01*
X0418138Y0050965D01*
Y0051965D01*
X0417138Y0052965D01*
X0415139D01*
X0414139Y0051965D01*
X0420137D02*
X0421137Y0052965D01*
X0423136D01*
X0424136Y0051965D01*
Y0047966D01*
X0423136Y0046966D01*
X0421137D01*
X0420137Y0047966D01*
Y0051965D01*
X0426135Y0046966D02*
X0428135D01*
X0427135D01*
Y0052965D01*
X0426135Y0051965D01*
X0431134D02*
X0432133Y0052965D01*
X0434133D01*
X0435133Y0051965D01*
Y0050965D01*
X0434133Y0049966D01*
X0435133Y0048966D01*
Y0047966D01*
X0434133Y0046966D01*
X0432133D01*
X0431134Y0047966D01*
Y0048966D01*
X0432133Y0049966D01*
X0431134Y0050965D01*
Y0051965D01*
X0432133Y0049966D02*
X0434133D01*
X0433000Y0087833D02*
Y0093831D01*
X0435999D01*
X0436999Y0092832D01*
Y0090832D01*
X0435999Y0089833D01*
X0433000D01*
X0434999D02*
X0436999Y0087833D01*
X0442997Y0093831D02*
X0438998D01*
Y0087833D01*
X0442997D01*
X0438998Y0090832D02*
X0440997D01*
X0444996Y0093831D02*
Y0089833D01*
X0446995Y0087833D01*
X0448995Y0089833D01*
Y0093831D01*
X0450994Y0091832D02*
X0451994D01*
Y0090832D01*
X0450994D01*
Y0091832D01*
Y0088833D02*
X0451994D01*
Y0087833D01*
X0450994D01*
Y0088833D01*
X0520799Y0092832D02*
X0519799Y0093831D01*
X0517800D01*
X0516800Y0092832D01*
Y0091832D01*
X0517800Y0090832D01*
X0519799D01*
X0520799Y0089833D01*
Y0088833D01*
X0519799Y0087833D01*
X0517800D01*
X0516800Y0088833D01*
X0522798Y0093831D02*
Y0089833D01*
X0524797Y0087833D01*
X0526797Y0089833D01*
Y0093831D01*
X0528796Y0087833D02*
Y0093831D01*
X0532795Y0087833D01*
Y0093831D01*
X0540792Y0087833D02*
Y0093831D01*
X0543791D01*
X0544791Y0092832D01*
Y0090832D01*
X0543791Y0089833D01*
X0540792D01*
X0542792D02*
X0544791Y0087833D01*
X0550789Y0093831D02*
X0546790D01*
Y0087833D01*
X0550789D01*
X0546790Y0090832D02*
X0548790D01*
X0552788Y0093831D02*
Y0089833D01*
X0554788Y0087833D01*
X0556787Y0089833D01*
Y0093831D01*
X0558786Y0091832D02*
X0559786D01*
Y0090832D01*
X0558786D01*
Y0091832D01*
Y0088833D02*
X0559786D01*
Y0087833D01*
X0558786D01*
Y0088833D01*
X0567400Y0087833D02*
Y0093831D01*
X0571399Y0087833D01*
Y0093831D01*
X0574398Y0087833D02*
X0576397D01*
X0577397Y0088833D01*
Y0090832D01*
X0576397Y0091832D01*
X0574398D01*
X0573398Y0090832D01*
Y0088833D01*
X0574398Y0087833D01*
X0580396Y0092832D02*
Y0091832D01*
X0579396D01*
X0581395D01*
X0580396D01*
Y0088833D01*
X0581395Y0087833D01*
X0590393Y0093831D02*
X0592392D01*
X0591392D01*
Y0087833D01*
X0590393D01*
X0592392D01*
X0595391D02*
Y0091832D01*
X0598390D01*
X0599390Y0090832D01*
Y0087833D01*
X0607387Y0093831D02*
Y0089833D01*
X0609386Y0087833D01*
X0611386Y0089833D01*
Y0093831D01*
X0616384Y0087833D02*
X0614385D01*
X0613385Y0088833D01*
Y0090832D01*
X0614385Y0091832D01*
X0616384D01*
X0617384Y0090832D01*
Y0089833D01*
X0613385D01*
X0619383Y0091832D02*
Y0087833D01*
Y0089833D01*
X0620383Y0090832D01*
X0621383Y0091832D01*
X0622382D01*
X0625381Y0087833D02*
X0628380D01*
X0629380Y0088833D01*
X0628380Y0089833D01*
X0626381D01*
X0625381Y0090832D01*
X0626381Y0091832D01*
X0629380D01*
X0631379Y0087833D02*
X0633379D01*
X0632379D01*
Y0091832D01*
X0631379D01*
X0637377Y0087833D02*
X0639377D01*
X0640376Y0088833D01*
Y0090832D01*
X0639377Y0091832D01*
X0637377D01*
X0636378Y0090832D01*
Y0088833D01*
X0637377Y0087833D01*
X0642376D02*
Y0091832D01*
X0645375D01*
X0646374Y0090832D01*
Y0087833D01*
X0652373Y0092832D02*
X0651373Y0093831D01*
X0649373D01*
X0648374Y0092832D01*
Y0088833D01*
X0649373Y0087833D01*
X0651373D01*
X0652373Y0088833D01*
X0655372Y0087833D02*
X0657371D01*
X0658371Y0088833D01*
Y0090832D01*
X0657371Y0091832D01*
X0655372D01*
X0654372Y0090832D01*
Y0088833D01*
X0655372Y0087833D01*
X0660370D02*
Y0091832D01*
X0663369D01*
X0664369Y0090832D01*
Y0087833D01*
X0667368Y0092832D02*
Y0091832D01*
X0666368D01*
X0668367D01*
X0667368D01*
Y0088833D01*
X0668367Y0087833D01*
X0671366Y0091832D02*
Y0087833D01*
Y0089833D01*
X0672366Y0090832D01*
X0673366Y0091832D01*
X0674365D01*
X0678364Y0087833D02*
X0680364D01*
X0681363Y0088833D01*
Y0090832D01*
X0680364Y0091832D01*
X0678364D01*
X0677364Y0090832D01*
Y0088833D01*
X0678364Y0087833D01*
X0683362D02*
X0685362D01*
X0684362D01*
Y0093831D01*
X0683362D01*
G54D21*
X0126900Y0049966D02*
X0128899D01*
X0127900D01*
Y0046966D01*
X0129899Y0049966D02*
X0130899D01*
X0130399D01*
Y0046966D01*
X0129899D01*
X0130899D01*
X0132398Y0049966D02*
Y0046966D01*
X0133898D01*
X0134398Y0047466D01*
Y0049466D01*
X0133898Y0049966D01*
X0132398D01*
X0135397Y0046966D02*
Y0048966D01*
X0136397Y0049966D01*
X0137397Y0048966D01*
Y0046966D01*
Y0048466D01*
X0135397D01*
X0138396D02*
X0140396D01*
X0141395Y0049466D02*
X0141895Y0049966D01*
X0142895D01*
X0143395Y0049466D01*
Y0047466D01*
X0142895Y0046966D01*
X0141895D01*
X0141395Y0047466D01*
Y0049466D01*
X0144394Y0046966D02*
X0145394D01*
X0144894D01*
Y0049966D01*
X0144394Y0049466D01*
X0146894D02*
X0147393Y0049966D01*
X0148393D01*
X0148893Y0049466D01*
Y0047466D01*
X0148393Y0046966D01*
X0147393D01*
X0146894Y0047466D01*
Y0049466D01*
X0149893D02*
X0150392Y0049966D01*
X0151392D01*
X0151892Y0049466D01*
Y0047466D01*
X0151392Y0046966D01*
X0150392D01*
X0149893Y0047466D01*
Y0049466D01*
X0154391Y0046966D02*
Y0049966D01*
X0152892Y0048466D01*
X0154891D01*
X0157890Y0046966D02*
X0155891D01*
X0157890Y0048966D01*
Y0049466D01*
X0157390Y0049966D01*
X0156391D01*
X0155891Y0049466D01*
X0160889Y0049966D02*
X0158890D01*
Y0046966D01*
X0160889D01*
X0158890Y0048466D02*
X0159889D01*
X0163888Y0046966D02*
X0161889D01*
X0163888Y0048966D01*
Y0049466D01*
X0163388Y0049966D01*
X0162389D01*
X0161889Y0049466D01*
X0164888Y0046966D02*
Y0047466D01*
X0165388D01*
Y0046966D01*
X0164888D01*
X0169386Y0049466D02*
X0168886Y0049966D01*
X0167887D01*
X0167387Y0049466D01*
Y0047466D01*
X0167887Y0046966D01*
X0168886D01*
X0169386Y0047466D01*
Y0048466D01*
X0168387D01*
X0172385Y0049466D02*
X0171885Y0049966D01*
X0170886D01*
X0170386Y0049466D01*
Y0047466D01*
X0170886Y0046966D01*
X0171885D01*
X0172385Y0047466D01*
Y0048466D01*
X0171386D01*
X0173385Y0046966D02*
X0174385D01*
X0173885D01*
Y0049966D01*
X0173385Y0049466D01*
G54D22*
X0559400Y0039400D02*
Y0059683D01*
X0440500Y0040050D02*
X0700200D01*
Y0101050D01*
X0286500Y0040050D02*
Y0101050D01*
X0040000Y0040050D02*
Y0101050D01*
X0040050Y0040050D02*
X0197600D01*
X0040050D02*
Y0101050D01*
Y0101050D02*
X0700200D01*
X0040000Y0040050D02*
X0440500D01*
X0040000Y0060383D02*
X0700000D01*
X0040000Y0080717D02*
X0700200D01*
X0413200D02*
Y0101050D01*
X0497200Y0080717D02*
Y0101050D01*
M02*
