G04*
G04 #@! TF.GenerationSoftware,Altium Limited,Altium Designer,18.1.9 (240)*
G04*
G04 Layer_Color=2752767*
%FSAX25Y25*%
%MOIN*%
G70*
G01*
G75*
%ADD13C,0.01500*%
%ADD15C,0.00500*%
%ADD17C,0.00800*%
%ADD21C,0.00600*%
%ADD22C,0.01000*%
%ADD169C,0.01600*%
G54D13*
X0512569Y0398350D02*
X0870075D01*
X0512569Y0293350D02*
X0870075D01*
X0512569Y0278350D02*
X0870075D01*
Y0413350D01*
X0512569D02*
X0870075D01*
X0512569Y0278350D02*
Y0413350D01*
X0792195Y0278350D02*
Y0413350D01*
X0741607Y0278350D02*
Y0413350D01*
X0626641Y0278350D02*
Y0413350D01*
X0567657Y0278350D02*
Y0413350D01*
G54D15*
X0186700Y0208300D02*
G03*
X0186700Y0208300I-0002500J0000000D01*
G01*
X0209019Y0267400D02*
G03*
X0209019Y0267400I-0002500J0000000D01*
G01*
X0156500Y0242300D02*
G03*
X0156500Y0242300I-0002500J0000000D01*
G01*
X0300219Y0244400D02*
X0302719Y0249400D01*
X0297719D02*
X0302719D01*
X0297719D02*
X0300219Y0244400D01*
X0320632D02*
X0323132Y0249400D01*
X0318132D02*
X0323132D01*
X0318132D02*
X0320632Y0244400D01*
X0277519Y0263400D02*
X0280019Y0268400D01*
X0275019D02*
X0280019D01*
X0275019D02*
X0277519Y0263400D01*
Y0259700D02*
X0280019Y0264700D01*
X0275019D02*
X0280019D01*
X0275019D02*
X0277519Y0259700D01*
X0292219Y0227400D02*
X0294719Y0232400D01*
X0289719D02*
X0294719D01*
X0289719D02*
X0292219Y0227400D01*
X0296219Y0245400D02*
X0298719Y0250400D01*
X0293719D02*
X0298719D01*
X0293719D02*
X0296219Y0245400D01*
X0336219Y0225900D02*
X0338719Y0230900D01*
X0333719D02*
X0338719D01*
X0333719D02*
X0336219Y0225900D01*
X0346519Y0276100D02*
X0349019Y0281100D01*
X0344019D02*
X0349019D01*
X0344019D02*
X0346519Y0276100D01*
X0373119Y0341300D02*
X0375619Y0346300D01*
X0370619D02*
X0375619D01*
X0370619D02*
X0373119Y0341300D01*
X0164619Y0366800D02*
X0167119Y0371800D01*
X0162119D02*
X0167119D01*
X0162119D02*
X0164619Y0366800D01*
X0357946Y0322374D02*
X0360446Y0327374D01*
X0355446D02*
X0360446D01*
X0355446D02*
X0357946Y0322374D01*
X0350195Y0322405D02*
X0352695Y0327405D01*
X0347695D02*
X0352695D01*
X0347695D02*
X0350195Y0322405D01*
X0331096Y0322398D02*
X0333596Y0327398D01*
X0328596D02*
X0333596D01*
X0328596D02*
X0331096Y0322398D01*
X0314991Y0396528D02*
X0317491Y0401528D01*
X0312491D02*
X0317491D01*
X0312491D02*
X0314991Y0396528D01*
X0324291D02*
X0326791Y0401528D01*
X0321791D02*
X0326791D01*
X0321791D02*
X0324291Y0396528D01*
X0240419Y0396300D02*
X0242919Y0401300D01*
X0237919D02*
X0242919D01*
X0237919D02*
X0240419Y0396300D01*
X0233119D02*
X0235619Y0401300D01*
X0230619D02*
X0235619D01*
X0230619D02*
X0233119Y0396300D01*
X0276217Y0322408D02*
X0278716Y0327408D01*
X0273716D02*
X0278716D01*
X0273716D02*
X0276217Y0322408D01*
X0268620Y0322438D02*
X0271120Y0327438D01*
X0266120D02*
X0271120D01*
X0266120D02*
X0268620Y0322438D01*
X0249421D02*
X0251921Y0327438D01*
X0246921D02*
X0251921D01*
X0246921D02*
X0249421Y0322438D01*
X0322219Y0614300D02*
X0324719Y0619300D01*
X0319719D02*
X0324719D01*
X0319719D02*
X0322219Y0614300D01*
Y0618200D02*
X0324719Y0623200D01*
X0319719D02*
X0324719D01*
X0319719D02*
X0322219Y0618200D01*
X0331019Y0644300D02*
X0333519Y0649300D01*
X0328519D02*
X0333519D01*
X0328519D02*
X0331019Y0644300D01*
Y0640400D02*
X0333519Y0645400D01*
X0328519D02*
X0333519D01*
X0328519D02*
X0331019Y0640400D01*
Y0648200D02*
X0333519Y0653200D01*
X0328519D02*
X0333519D01*
X0328519D02*
X0331019Y0648200D01*
X0327119Y0640400D02*
X0329619Y0645400D01*
X0324619D02*
X0329619D01*
X0324619D02*
X0327119Y0640400D01*
X0366619Y0648200D02*
X0369119Y0653200D01*
X0364119D02*
X0369119D01*
X0364119D02*
X0366619Y0648200D01*
Y0644300D02*
X0369119Y0649300D01*
X0364119D02*
X0369119D01*
X0364119D02*
X0366619Y0644300D01*
Y0652100D02*
X0369119Y0657100D01*
X0364119D02*
X0369119D01*
X0364119D02*
X0366619Y0652100D01*
X0318319Y0618200D02*
X0320819Y0623200D01*
X0315819D02*
X0320819D01*
X0315819D02*
X0318319Y0618200D01*
Y0614300D02*
X0320819Y0619300D01*
X0315819D02*
X0320819D01*
X0315819D02*
X0318319Y0614300D01*
X0370519Y0652100D02*
X0373019Y0657100D01*
X0368019D02*
X0373019D01*
X0368019D02*
X0370519Y0652100D01*
Y0644300D02*
X0373019Y0649300D01*
X0368019D02*
X0373019D01*
X0368019D02*
X0370519Y0644300D01*
Y0648200D02*
X0373019Y0653200D01*
X0368019D02*
X0373019D01*
X0368019D02*
X0370519Y0648200D01*
X0431401Y0622882D02*
X0433901Y0627882D01*
X0428901D02*
X0433901D01*
X0428901D02*
X0431401Y0622882D01*
X0243819Y0649900D02*
X0246319Y0654900D01*
X0241319D02*
X0246319D01*
X0241319D02*
X0243819Y0649900D01*
X0247719D02*
X0250219Y0654900D01*
X0245219D02*
X0250219D01*
X0245219D02*
X0247719Y0649900D01*
Y0646000D02*
X0250219Y0651000D01*
X0245219D02*
X0250219D01*
X0245219D02*
X0247719Y0646000D01*
X0243819D02*
X0246319Y0651000D01*
X0241319D02*
X0246319D01*
X0241319D02*
X0243819Y0646000D01*
X0251619D02*
X0254119Y0651000D01*
X0249119D02*
X0254119D01*
X0249119D02*
X0251619Y0646000D01*
Y0649900D02*
X0254119Y0654900D01*
X0249119D02*
X0254119D01*
X0249119D02*
X0251619Y0649900D01*
X0255519Y0646000D02*
X0258019Y0651000D01*
X0253019D02*
X0258019D01*
X0253019D02*
X0255519Y0646000D01*
Y0649900D02*
X0258019Y0654900D01*
X0253019D02*
X0258019D01*
X0253019D02*
X0255519Y0649900D01*
Y0642100D02*
X0258019Y0647100D01*
X0253019D02*
X0258019D01*
X0253019D02*
X0255519Y0642100D01*
X0251619D02*
X0254119Y0647100D01*
X0249119D02*
X0254119D01*
X0249119D02*
X0251619Y0642100D01*
X0243819D02*
X0246319Y0647100D01*
X0241319D02*
X0246319D01*
X0241319D02*
X0243819Y0642100D01*
X0247719D02*
X0250219Y0647100D01*
X0245219D02*
X0250219D01*
X0245219D02*
X0247719Y0642100D01*
Y0611600D02*
X0250219Y0616600D01*
X0245219D02*
X0250219D01*
X0245219D02*
X0247719Y0611600D01*
X0243819D02*
X0246319Y0616600D01*
X0241319D02*
X0246319D01*
X0241319D02*
X0243819Y0611600D01*
X0251619D02*
X0254119Y0616600D01*
X0249119D02*
X0254119D01*
X0249119D02*
X0251619Y0611600D01*
X0255519D02*
X0258019Y0616600D01*
X0253019D02*
X0258019D01*
X0253019D02*
X0255519Y0611600D01*
Y0619400D02*
X0258019Y0624400D01*
X0253019D02*
X0258019D01*
X0253019D02*
X0255519Y0619400D01*
Y0615500D02*
X0258019Y0620500D01*
X0253019D02*
X0258019D01*
X0253019D02*
X0255519Y0615500D01*
X0251619Y0619400D02*
X0254119Y0624400D01*
X0249119D02*
X0254119D01*
X0249119D02*
X0251619Y0619400D01*
Y0615500D02*
X0254119Y0620500D01*
X0249119D02*
X0254119D01*
X0249119D02*
X0251619Y0615500D01*
X0243819D02*
X0246319Y0620500D01*
X0241319D02*
X0246319D01*
X0241319D02*
X0243819Y0615500D01*
X0247719D02*
X0250219Y0620500D01*
X0245219D02*
X0250219D01*
X0245219D02*
X0247719Y0615500D01*
Y0619400D02*
X0250219Y0624400D01*
X0245219D02*
X0250219D01*
X0245219D02*
X0247719Y0619400D01*
X0243819D02*
X0246319Y0624400D01*
X0241319D02*
X0246319D01*
X0241319D02*
X0243819Y0619400D01*
X0171969Y0439722D02*
X0173219Y0438472D01*
X0170719Y0439722D02*
X0171969D01*
X0170719D02*
X0171969Y0440972D01*
X0170719Y0442222D02*
X0171969Y0440972D01*
X0170719Y0442222D02*
X0171969D01*
X0173219Y0443472D01*
X0174469Y0442222D01*
X0175719D01*
X0174469Y0440972D02*
X0175719Y0442222D01*
X0174469Y0440972D02*
X0175719Y0439722D01*
X0174469D02*
X0175719D01*
X0173219Y0438472D02*
X0174469Y0439722D01*
X0167441D02*
X0168691Y0438472D01*
X0166191Y0439722D02*
X0167441D01*
X0166191D02*
X0167441Y0440972D01*
X0166191Y0442222D02*
X0167441Y0440972D01*
X0166191Y0442222D02*
X0167441D01*
X0168691Y0443472D01*
X0169941Y0442222D01*
X0171191D01*
X0169941Y0440972D02*
X0171191Y0442222D01*
X0169941Y0440972D02*
X0171191Y0439722D01*
X0169941D02*
X0171191D01*
X0168691Y0438472D02*
X0169941Y0439722D01*
X0162914D02*
X0164164Y0438472D01*
X0161664Y0439722D02*
X0162914D01*
X0161664D02*
X0162914Y0440972D01*
X0161664Y0442222D02*
X0162914Y0440972D01*
X0161664Y0442222D02*
X0162914D01*
X0164164Y0443472D01*
X0165414Y0442222D01*
X0166664D01*
X0165414Y0440972D02*
X0166664Y0442222D01*
X0165414Y0440972D02*
X0166664Y0439722D01*
X0165414D02*
X0166664D01*
X0164164Y0438472D02*
X0165414Y0439722D01*
X0162914Y0434486D02*
X0164164Y0433236D01*
X0161664Y0434486D02*
X0162914D01*
X0161664D02*
X0162914Y0435736D01*
X0161664Y0436986D02*
X0162914Y0435736D01*
X0161664Y0436986D02*
X0162914D01*
X0164164Y0438236D01*
X0165414Y0436986D01*
X0166664D01*
X0165414Y0435736D02*
X0166664Y0436986D01*
X0165414Y0435736D02*
X0166664Y0434486D01*
X0165414D02*
X0166664D01*
X0164164Y0433236D02*
X0165414Y0434486D01*
X0167441D02*
X0168691Y0433236D01*
X0166191Y0434486D02*
X0167441D01*
X0166191D02*
X0167441Y0435736D01*
X0166191Y0436986D02*
X0167441Y0435736D01*
X0166191Y0436986D02*
X0167441D01*
X0168691Y0438236D01*
X0169941Y0436986D01*
X0171191D01*
X0169941Y0435736D02*
X0171191Y0436986D01*
X0169941Y0435736D02*
X0171191Y0434486D01*
X0169941D02*
X0171191D01*
X0168691Y0433236D02*
X0169941Y0434486D01*
X0171969D02*
X0173219Y0433236D01*
X0170719Y0434486D02*
X0171969D01*
X0170719D02*
X0171969Y0435736D01*
X0170719Y0436986D02*
X0171969Y0435736D01*
X0170719Y0436986D02*
X0171969D01*
X0173219Y0438236D01*
X0174469Y0436986D01*
X0175719D01*
X0174469Y0435736D02*
X0175719Y0436986D01*
X0174469Y0435736D02*
X0175719Y0434486D01*
X0174469D02*
X0175719D01*
X0173219Y0433236D02*
X0174469Y0434486D01*
X0162914Y0429250D02*
X0164164Y0428000D01*
X0161664Y0429250D02*
X0162914D01*
X0161664D02*
X0162914Y0430500D01*
X0161664Y0431750D02*
X0162914Y0430500D01*
X0161664Y0431750D02*
X0162914D01*
X0164164Y0433000D01*
X0165414Y0431750D01*
X0166664D01*
X0165414Y0430500D02*
X0166664Y0431750D01*
X0165414Y0430500D02*
X0166664Y0429250D01*
X0165414D02*
X0166664D01*
X0164164Y0428000D02*
X0165414Y0429250D01*
X0167441D02*
X0168691Y0428000D01*
X0166191Y0429250D02*
X0167441D01*
X0166191D02*
X0167441Y0430500D01*
X0166191Y0431750D02*
X0167441Y0430500D01*
X0166191Y0431750D02*
X0167441D01*
X0168691Y0433000D01*
X0169941Y0431750D01*
X0171191D01*
X0169941Y0430500D02*
X0171191Y0431750D01*
X0169941Y0430500D02*
X0171191Y0429250D01*
X0169941D02*
X0171191D01*
X0168691Y0428000D02*
X0169941Y0429250D01*
X0171969D02*
X0173219Y0428000D01*
X0170719Y0429250D02*
X0171969D01*
X0170719D02*
X0171969Y0430500D01*
X0170719Y0431750D02*
X0171969Y0430500D01*
X0170719Y0431750D02*
X0171969D01*
X0173219Y0433000D01*
X0174469Y0431750D01*
X0175719D01*
X0174469Y0430500D02*
X0175719Y0431750D01*
X0174469Y0430500D02*
X0175719Y0429250D01*
X0174469D02*
X0175719D01*
X0173219Y0428000D02*
X0174469Y0429250D01*
X0258389Y0491407D02*
X0259639Y0490157D01*
X0257139Y0491407D02*
X0258389D01*
X0257139D02*
X0258389Y0492657D01*
X0257139Y0493907D02*
X0258389Y0492657D01*
X0257139Y0493907D02*
X0258389D01*
X0259639Y0495157D01*
X0260889Y0493907D01*
X0262139D01*
X0260889Y0492657D02*
X0262139Y0493907D01*
X0260889Y0492657D02*
X0262139Y0491407D01*
X0260889D02*
X0262139D01*
X0259639Y0490157D02*
X0260889Y0491407D01*
X0253862D02*
X0255112Y0490157D01*
X0252612Y0491407D02*
X0253862D01*
X0252612D02*
X0253862Y0492657D01*
X0252612Y0493907D02*
X0253862Y0492657D01*
X0252612Y0493907D02*
X0253862D01*
X0255112Y0495157D01*
X0256362Y0493907D01*
X0257612D01*
X0256362Y0492657D02*
X0257612Y0493907D01*
X0256362Y0492657D02*
X0257612Y0491407D01*
X0256362D02*
X0257612D01*
X0255112Y0490157D02*
X0256362Y0491407D01*
X0249334D02*
X0250584Y0490157D01*
X0248084Y0491407D02*
X0249334D01*
X0248084D02*
X0249334Y0492657D01*
X0248084Y0493907D02*
X0249334Y0492657D01*
X0248084Y0493907D02*
X0249334D01*
X0250584Y0495157D01*
X0251834Y0493907D01*
X0253084D01*
X0251834Y0492657D02*
X0253084Y0493907D01*
X0251834Y0492657D02*
X0253084Y0491407D01*
X0251834D02*
X0253084D01*
X0250584Y0490157D02*
X0251834Y0491407D01*
X0258389Y0496643D02*
X0259639Y0495393D01*
X0257139Y0496643D02*
X0258389D01*
X0257139D02*
X0258389Y0497893D01*
X0257139Y0499143D02*
X0258389Y0497893D01*
X0257139Y0499143D02*
X0258389D01*
X0259639Y0500393D01*
X0260889Y0499143D01*
X0262139D01*
X0260889Y0497893D02*
X0262139Y0499143D01*
X0260889Y0497893D02*
X0262139Y0496643D01*
X0260889D02*
X0262139D01*
X0259639Y0495393D02*
X0260889Y0496643D01*
X0253862D02*
X0255112Y0495393D01*
X0252612Y0496643D02*
X0253862D01*
X0252612D02*
X0253862Y0497893D01*
X0252612Y0499143D02*
X0253862Y0497893D01*
X0252612Y0499143D02*
X0253862D01*
X0255112Y0500393D01*
X0256362Y0499143D01*
X0257612D01*
X0256362Y0497893D02*
X0257612Y0499143D01*
X0256362Y0497893D02*
X0257612Y0496643D01*
X0256362D02*
X0257612D01*
X0255112Y0495393D02*
X0256362Y0496643D01*
X0249334D02*
X0250584Y0495393D01*
X0248084Y0496643D02*
X0249334D01*
X0248084D02*
X0249334Y0497893D01*
X0248084Y0499143D02*
X0249334Y0497893D01*
X0248084Y0499143D02*
X0249334D01*
X0250584Y0500393D01*
X0251834Y0499143D01*
X0253084D01*
X0251834Y0497893D02*
X0253084Y0499143D01*
X0251834Y0497893D02*
X0253084Y0496643D01*
X0251834D02*
X0253084D01*
X0250584Y0495393D02*
X0251834Y0496643D01*
X0249334Y0501879D02*
X0250584Y0500629D01*
X0248084Y0501879D02*
X0249334D01*
X0248084D02*
X0249334Y0503129D01*
X0248084Y0504379D02*
X0249334Y0503129D01*
X0248084Y0504379D02*
X0249334D01*
X0250584Y0505629D01*
X0251834Y0504379D01*
X0253084D01*
X0251834Y0503129D02*
X0253084Y0504379D01*
X0251834Y0503129D02*
X0253084Y0501879D01*
X0251834D02*
X0253084D01*
X0250584Y0500629D02*
X0251834Y0501879D01*
X0253862D02*
X0255112Y0500629D01*
X0252612Y0501879D02*
X0253862D01*
X0252612D02*
X0253862Y0503129D01*
X0252612Y0504379D02*
X0253862Y0503129D01*
X0252612Y0504379D02*
X0253862D01*
X0255112Y0505629D01*
X0256362Y0504379D01*
X0257612D01*
X0256362Y0503129D02*
X0257612Y0504379D01*
X0256362Y0503129D02*
X0257612Y0501879D01*
X0256362D02*
X0257612D01*
X0255112Y0500629D02*
X0256362Y0501879D01*
X0258389D02*
X0259639Y0500629D01*
X0257139Y0501879D02*
X0258389D01*
X0257139D02*
X0258389Y0503129D01*
X0257139Y0504379D02*
X0258389Y0503129D01*
X0257139Y0504379D02*
X0258389D01*
X0259639Y0505629D01*
X0260889Y0504379D01*
X0262139D01*
X0260889Y0503129D02*
X0262139Y0504379D01*
X0260889Y0503129D02*
X0262139Y0501879D01*
X0260889D02*
X0262139D01*
X0259639Y0500629D02*
X0260889Y0501879D01*
X0228985Y0501888D02*
X0230235Y0500638D01*
X0227735Y0501888D02*
X0228985D01*
X0227735D02*
X0228985Y0503138D01*
X0227735Y0504388D02*
X0228985Y0503138D01*
X0227735Y0504388D02*
X0228985D01*
X0230235Y0505638D01*
X0231485Y0504388D01*
X0232735D01*
X0231485Y0503138D02*
X0232735Y0504388D01*
X0231485Y0503138D02*
X0232735Y0501888D01*
X0231485D02*
X0232735D01*
X0230235Y0500638D02*
X0231485Y0501888D01*
X0224458D02*
X0225708Y0500638D01*
X0223208Y0501888D02*
X0224458D01*
X0223208D02*
X0224458Y0503138D01*
X0223208Y0504388D02*
X0224458Y0503138D01*
X0223208Y0504388D02*
X0224458D01*
X0225708Y0505638D01*
X0226958Y0504388D01*
X0228208D01*
X0226958Y0503138D02*
X0228208Y0504388D01*
X0226958Y0503138D02*
X0228208Y0501888D01*
X0226958D02*
X0228208D01*
X0225708Y0500638D02*
X0226958Y0501888D01*
X0219930D02*
X0221180Y0500638D01*
X0218680Y0501888D02*
X0219930D01*
X0218680D02*
X0219930Y0503138D01*
X0218680Y0504388D02*
X0219930Y0503138D01*
X0218680Y0504388D02*
X0219930D01*
X0221180Y0505638D01*
X0222430Y0504388D01*
X0223680D01*
X0222430Y0503138D02*
X0223680Y0504388D01*
X0222430Y0503138D02*
X0223680Y0501888D01*
X0222430D02*
X0223680D01*
X0221180Y0500638D02*
X0222430Y0501888D01*
X0219930Y0496652D02*
X0221180Y0495402D01*
X0218680Y0496652D02*
X0219930D01*
X0218680D02*
X0219930Y0497902D01*
X0218680Y0499152D02*
X0219930Y0497902D01*
X0218680Y0499152D02*
X0219930D01*
X0221180Y0500402D01*
X0222430Y0499152D01*
X0223680D01*
X0222430Y0497902D02*
X0223680Y0499152D01*
X0222430Y0497902D02*
X0223680Y0496652D01*
X0222430D02*
X0223680D01*
X0221180Y0495402D02*
X0222430Y0496652D01*
X0224458D02*
X0225708Y0495402D01*
X0223208Y0496652D02*
X0224458D01*
X0223208D02*
X0224458Y0497902D01*
X0223208Y0499152D02*
X0224458Y0497902D01*
X0223208Y0499152D02*
X0224458D01*
X0225708Y0500402D01*
X0226958Y0499152D01*
X0228208D01*
X0226958Y0497902D02*
X0228208Y0499152D01*
X0226958Y0497902D02*
X0228208Y0496652D01*
X0226958D02*
X0228208D01*
X0225708Y0495402D02*
X0226958Y0496652D01*
X0228985D02*
X0230235Y0495402D01*
X0227735Y0496652D02*
X0228985D01*
X0227735D02*
X0228985Y0497902D01*
X0227735Y0499152D02*
X0228985Y0497902D01*
X0227735Y0499152D02*
X0228985D01*
X0230235Y0500402D01*
X0231485Y0499152D01*
X0232735D01*
X0231485Y0497902D02*
X0232735Y0499152D01*
X0231485Y0497902D02*
X0232735Y0496652D01*
X0231485D02*
X0232735D01*
X0230235Y0495402D02*
X0231485Y0496652D01*
X0219930Y0491415D02*
X0221180Y0490165D01*
X0218680Y0491415D02*
X0219930D01*
X0218680D02*
X0219930Y0492665D01*
X0218680Y0493915D02*
X0219930Y0492665D01*
X0218680Y0493915D02*
X0219930D01*
X0221180Y0495165D01*
X0222430Y0493915D01*
X0223680D01*
X0222430Y0492665D02*
X0223680Y0493915D01*
X0222430Y0492665D02*
X0223680Y0491415D01*
X0222430D02*
X0223680D01*
X0221180Y0490165D02*
X0222430Y0491415D01*
X0224458D02*
X0225708Y0490165D01*
X0223208Y0491415D02*
X0224458D01*
X0223208D02*
X0224458Y0492665D01*
X0223208Y0493915D02*
X0224458Y0492665D01*
X0223208Y0493915D02*
X0224458D01*
X0225708Y0495165D01*
X0226958Y0493915D01*
X0228208D01*
X0226958Y0492665D02*
X0228208Y0493915D01*
X0226958Y0492665D02*
X0228208Y0491415D01*
X0226958D02*
X0228208D01*
X0225708Y0490165D02*
X0226958Y0491415D01*
X0228985D02*
X0230235Y0490165D01*
X0227735Y0491415D02*
X0228985D01*
X0227735D02*
X0228985Y0492665D01*
X0227735Y0493915D02*
X0228985Y0492665D01*
X0227735Y0493915D02*
X0228985D01*
X0230235Y0495165D01*
X0231485Y0493915D01*
X0232735D01*
X0231485Y0492665D02*
X0232735Y0493915D01*
X0231485Y0492665D02*
X0232735Y0491415D01*
X0231485D02*
X0232735D01*
X0230235Y0490165D02*
X0231485Y0491415D01*
X0302607Y0491414D02*
X0303857Y0490164D01*
X0301357Y0491414D02*
X0302607D01*
X0301357D02*
X0302607Y0492664D01*
X0301357Y0493914D02*
X0302607Y0492664D01*
X0301357Y0493914D02*
X0302607D01*
X0303857Y0495164D01*
X0305107Y0493914D01*
X0306357D01*
X0305107Y0492664D02*
X0306357Y0493914D01*
X0305107Y0492664D02*
X0306357Y0491414D01*
X0305107D02*
X0306357D01*
X0303857Y0490164D02*
X0305107Y0491414D01*
X0307134D02*
X0308384Y0490164D01*
X0305884Y0491414D02*
X0307134D01*
X0305884D02*
X0307134Y0492664D01*
X0305884Y0493914D02*
X0307134Y0492664D01*
X0305884Y0493914D02*
X0307134D01*
X0308384Y0495164D01*
X0309634Y0493914D01*
X0310884D01*
X0309634Y0492664D02*
X0310884Y0493914D01*
X0309634Y0492664D02*
X0310884Y0491414D01*
X0309634D02*
X0310884D01*
X0308384Y0490164D02*
X0309634Y0491414D01*
X0311662D02*
X0312912Y0490164D01*
X0310412Y0491414D02*
X0311662D01*
X0310412D02*
X0311662Y0492664D01*
X0310412Y0493914D02*
X0311662Y0492664D01*
X0310412Y0493914D02*
X0311662D01*
X0312912Y0495164D01*
X0314162Y0493914D01*
X0315412D01*
X0314162Y0492664D02*
X0315412Y0493914D01*
X0314162Y0492664D02*
X0315412Y0491414D01*
X0314162D02*
X0315412D01*
X0312912Y0490164D02*
X0314162Y0491414D01*
X0311662Y0496650D02*
X0312912Y0495400D01*
X0310412Y0496650D02*
X0311662D01*
X0310412D02*
X0311662Y0497900D01*
X0310412Y0499150D02*
X0311662Y0497900D01*
X0310412Y0499150D02*
X0311662D01*
X0312912Y0500400D01*
X0314162Y0499150D01*
X0315412D01*
X0314162Y0497900D02*
X0315412Y0499150D01*
X0314162Y0497900D02*
X0315412Y0496650D01*
X0314162D02*
X0315412D01*
X0312912Y0495400D02*
X0314162Y0496650D01*
X0307134D02*
X0308384Y0495400D01*
X0305884Y0496650D02*
X0307134D01*
X0305884D02*
X0307134Y0497900D01*
X0305884Y0499150D02*
X0307134Y0497900D01*
X0305884Y0499150D02*
X0307134D01*
X0308384Y0500400D01*
X0309634Y0499150D01*
X0310884D01*
X0309634Y0497900D02*
X0310884Y0499150D01*
X0309634Y0497900D02*
X0310884Y0496650D01*
X0309634D02*
X0310884D01*
X0308384Y0495400D02*
X0309634Y0496650D01*
X0302607D02*
X0303857Y0495400D01*
X0301357Y0496650D02*
X0302607D01*
X0301357D02*
X0302607Y0497900D01*
X0301357Y0499150D02*
X0302607Y0497900D01*
X0301357Y0499150D02*
X0302607D01*
X0303857Y0500400D01*
X0305107Y0499150D01*
X0306357D01*
X0305107Y0497900D02*
X0306357Y0499150D01*
X0305107Y0497900D02*
X0306357Y0496650D01*
X0305107D02*
X0306357D01*
X0303857Y0495400D02*
X0305107Y0496650D01*
X0311662Y0501886D02*
X0312912Y0500636D01*
X0310412Y0501886D02*
X0311662D01*
X0310412D02*
X0311662Y0503136D01*
X0310412Y0504386D02*
X0311662Y0503136D01*
X0310412Y0504386D02*
X0311662D01*
X0312912Y0505636D01*
X0314162Y0504386D01*
X0315412D01*
X0314162Y0503136D02*
X0315412Y0504386D01*
X0314162Y0503136D02*
X0315412Y0501886D01*
X0314162D02*
X0315412D01*
X0312912Y0500636D02*
X0314162Y0501886D01*
X0307134D02*
X0308384Y0500636D01*
X0305884Y0501886D02*
X0307134D01*
X0305884D02*
X0307134Y0503136D01*
X0305884Y0504386D02*
X0307134Y0503136D01*
X0305884Y0504386D02*
X0307134D01*
X0308384Y0505636D01*
X0309634Y0504386D01*
X0310884D01*
X0309634Y0503136D02*
X0310884Y0504386D01*
X0309634Y0503136D02*
X0310884Y0501886D01*
X0309634D02*
X0310884D01*
X0308384Y0500636D02*
X0309634Y0501886D01*
X0302607D02*
X0303857Y0500636D01*
X0301357Y0501886D02*
X0302607D01*
X0301357D02*
X0302607Y0503136D01*
X0301357Y0504386D02*
X0302607Y0503136D01*
X0301357Y0504386D02*
X0302607D01*
X0303857Y0505636D01*
X0305107Y0504386D01*
X0306357D01*
X0305107Y0503136D02*
X0306357Y0504386D01*
X0305107Y0503136D02*
X0306357Y0501886D01*
X0305107D02*
X0306357D01*
X0303857Y0500636D02*
X0305107Y0501886D01*
X0331303Y0491422D02*
X0332553Y0490172D01*
X0330053Y0491422D02*
X0331303D01*
X0330053D02*
X0331303Y0492672D01*
X0330053Y0493922D02*
X0331303Y0492672D01*
X0330053Y0493922D02*
X0331303D01*
X0332553Y0495172D01*
X0333803Y0493922D01*
X0335053D01*
X0333803Y0492672D02*
X0335053Y0493922D01*
X0333803Y0492672D02*
X0335053Y0491422D01*
X0333803D02*
X0335053D01*
X0332553Y0490172D02*
X0333803Y0491422D01*
X0335830D02*
X0337080Y0490172D01*
X0334580Y0491422D02*
X0335830D01*
X0334580D02*
X0335830Y0492672D01*
X0334580Y0493922D02*
X0335830Y0492672D01*
X0334580Y0493922D02*
X0335830D01*
X0337080Y0495172D01*
X0338330Y0493922D01*
X0339580D01*
X0338330Y0492672D02*
X0339580Y0493922D01*
X0338330Y0492672D02*
X0339580Y0491422D01*
X0338330D02*
X0339580D01*
X0337080Y0490172D02*
X0338330Y0491422D01*
X0340358D02*
X0341608Y0490172D01*
X0339108Y0491422D02*
X0340358D01*
X0339108D02*
X0340358Y0492672D01*
X0339108Y0493922D02*
X0340358Y0492672D01*
X0339108Y0493922D02*
X0340358D01*
X0341608Y0495172D01*
X0342858Y0493922D01*
X0344108D01*
X0342858Y0492672D02*
X0344108Y0493922D01*
X0342858Y0492672D02*
X0344108Y0491422D01*
X0342858D02*
X0344108D01*
X0341608Y0490172D02*
X0342858Y0491422D01*
X0340358Y0496659D02*
X0341608Y0495409D01*
X0339108Y0496659D02*
X0340358D01*
X0339108D02*
X0340358Y0497909D01*
X0339108Y0499159D02*
X0340358Y0497909D01*
X0339108Y0499159D02*
X0340358D01*
X0341608Y0500409D01*
X0342858Y0499159D01*
X0344108D01*
X0342858Y0497909D02*
X0344108Y0499159D01*
X0342858Y0497909D02*
X0344108Y0496659D01*
X0342858D02*
X0344108D01*
X0341608Y0495409D02*
X0342858Y0496659D01*
X0335830D02*
X0337080Y0495409D01*
X0334580Y0496659D02*
X0335830D01*
X0334580D02*
X0335830Y0497909D01*
X0334580Y0499159D02*
X0335830Y0497909D01*
X0334580Y0499159D02*
X0335830D01*
X0337080Y0500409D01*
X0338330Y0499159D01*
X0339580D01*
X0338330Y0497909D02*
X0339580Y0499159D01*
X0338330Y0497909D02*
X0339580Y0496659D01*
X0338330D02*
X0339580D01*
X0337080Y0495409D02*
X0338330Y0496659D01*
X0331303D02*
X0332553Y0495409D01*
X0330053Y0496659D02*
X0331303D01*
X0330053D02*
X0331303Y0497909D01*
X0330053Y0499159D02*
X0331303Y0497909D01*
X0330053Y0499159D02*
X0331303D01*
X0332553Y0500409D01*
X0333803Y0499159D01*
X0335053D01*
X0333803Y0497909D02*
X0335053Y0499159D01*
X0333803Y0497909D02*
X0335053Y0496659D01*
X0333803D02*
X0335053D01*
X0332553Y0495409D02*
X0333803Y0496659D01*
X0340358Y0501895D02*
X0341608Y0500645D01*
X0339108Y0501895D02*
X0340358D01*
X0339108D02*
X0340358Y0503145D01*
X0339108Y0504395D02*
X0340358Y0503145D01*
X0339108Y0504395D02*
X0340358D01*
X0341608Y0505645D01*
X0342858Y0504395D01*
X0344108D01*
X0342858Y0503145D02*
X0344108Y0504395D01*
X0342858Y0503145D02*
X0344108Y0501895D01*
X0342858D02*
X0344108D01*
X0341608Y0500645D02*
X0342858Y0501895D01*
X0335830D02*
X0337080Y0500645D01*
X0334580Y0501895D02*
X0335830D01*
X0334580D02*
X0335830Y0503145D01*
X0334580Y0504395D02*
X0335830Y0503145D01*
X0334580Y0504395D02*
X0335830D01*
X0337080Y0505645D01*
X0338330Y0504395D01*
X0339580D01*
X0338330Y0503145D02*
X0339580Y0504395D01*
X0338330Y0503145D02*
X0339580Y0501895D01*
X0338330D02*
X0339580D01*
X0337080Y0500645D02*
X0338330Y0501895D01*
X0331303D02*
X0332553Y0500645D01*
X0330053Y0501895D02*
X0331303D01*
X0330053D02*
X0331303Y0503145D01*
X0330053Y0504395D02*
X0331303Y0503145D01*
X0330053Y0504395D02*
X0331303D01*
X0332553Y0505645D01*
X0333803Y0504395D01*
X0335053D01*
X0333803Y0503145D02*
X0335053Y0504395D01*
X0333803Y0503145D02*
X0335053Y0501895D01*
X0333803D02*
X0335053D01*
X0332553Y0500645D02*
X0333803Y0501895D01*
X0391720Y0646814D02*
X0392970Y0645564D01*
X0390470Y0646814D02*
X0391720D01*
X0390470D02*
X0391720Y0648064D01*
X0390470Y0649314D02*
X0391720Y0648064D01*
X0390470Y0649314D02*
X0391720D01*
X0392970Y0650564D01*
X0394220Y0649314D01*
X0395470D01*
X0394220Y0648064D02*
X0395470Y0649314D01*
X0394220Y0648064D02*
X0395470Y0646814D01*
X0394220D02*
X0395470D01*
X0392970Y0645564D02*
X0394220Y0646814D01*
X0387193D02*
X0388442Y0645564D01*
X0385943Y0646814D02*
X0387193D01*
X0385943D02*
X0387193Y0648064D01*
X0385943Y0649314D02*
X0387193Y0648064D01*
X0385943Y0649314D02*
X0387193D01*
X0388442Y0650564D01*
X0389692Y0649314D01*
X0390943D01*
X0389692Y0648064D02*
X0390943Y0649314D01*
X0389692Y0648064D02*
X0390943Y0646814D01*
X0389692D02*
X0390943D01*
X0388442Y0645564D02*
X0389692Y0646814D01*
X0382665D02*
X0383915Y0645564D01*
X0381415Y0646814D02*
X0382665D01*
X0381415D02*
X0382665Y0648064D01*
X0381415Y0649314D02*
X0382665Y0648064D01*
X0381415Y0649314D02*
X0382665D01*
X0383915Y0650564D01*
X0385165Y0649314D01*
X0386415D01*
X0385165Y0648064D02*
X0386415Y0649314D01*
X0385165Y0648064D02*
X0386415Y0646814D01*
X0385165D02*
X0386415D01*
X0383915Y0645564D02*
X0385165Y0646814D01*
X0391720Y0652050D02*
X0392970Y0650800D01*
X0390470Y0652050D02*
X0391720D01*
X0390470D02*
X0391720Y0653300D01*
X0390470Y0654550D02*
X0391720Y0653300D01*
X0390470Y0654550D02*
X0391720D01*
X0392970Y0655800D01*
X0394220Y0654550D01*
X0395470D01*
X0394220Y0653300D02*
X0395470Y0654550D01*
X0394220Y0653300D02*
X0395470Y0652050D01*
X0394220D02*
X0395470D01*
X0392970Y0650800D02*
X0394220Y0652050D01*
X0387193D02*
X0388442Y0650800D01*
X0385943Y0652050D02*
X0387193D01*
X0385943D02*
X0387193Y0653300D01*
X0385943Y0654550D02*
X0387193Y0653300D01*
X0385943Y0654550D02*
X0387193D01*
X0388442Y0655800D01*
X0389692Y0654550D01*
X0390943D01*
X0389692Y0653300D02*
X0390943Y0654550D01*
X0389692Y0653300D02*
X0390943Y0652050D01*
X0389692D02*
X0390943D01*
X0388442Y0650800D02*
X0389692Y0652050D01*
X0382665D02*
X0383915Y0650800D01*
X0381415Y0652050D02*
X0382665D01*
X0381415D02*
X0382665Y0653300D01*
X0381415Y0654550D02*
X0382665Y0653300D01*
X0381415Y0654550D02*
X0382665D01*
X0383915Y0655800D01*
X0385165Y0654550D01*
X0386415D01*
X0385165Y0653300D02*
X0386415Y0654550D01*
X0385165Y0653300D02*
X0386415Y0652050D01*
X0385165D02*
X0386415D01*
X0383915Y0650800D02*
X0385165Y0652050D01*
X0382665Y0657286D02*
X0383915Y0656036D01*
X0381415Y0657286D02*
X0382665D01*
X0381415D02*
X0382665Y0658536D01*
X0381415Y0659786D02*
X0382665Y0658536D01*
X0381415Y0659786D02*
X0382665D01*
X0383915Y0661036D01*
X0385165Y0659786D01*
X0386415D01*
X0385165Y0658536D02*
X0386415Y0659786D01*
X0385165Y0658536D02*
X0386415Y0657286D01*
X0385165D02*
X0386415D01*
X0383915Y0656036D02*
X0385165Y0657286D01*
X0387193D02*
X0388442Y0656036D01*
X0385943Y0657286D02*
X0387193D01*
X0385943D02*
X0387193Y0658536D01*
X0385943Y0659786D02*
X0387193Y0658536D01*
X0385943Y0659786D02*
X0387193D01*
X0388442Y0661036D01*
X0389692Y0659786D01*
X0390943D01*
X0389692Y0658536D02*
X0390943Y0659786D01*
X0389692Y0658536D02*
X0390943Y0657286D01*
X0389692D02*
X0390943D01*
X0388442Y0656036D02*
X0389692Y0657286D01*
X0391720D02*
X0392970Y0656036D01*
X0390470Y0657286D02*
X0391720D01*
X0390470D02*
X0391720Y0658536D01*
X0390470Y0659786D02*
X0391720Y0658536D01*
X0390470Y0659786D02*
X0391720D01*
X0392970Y0661036D01*
X0394220Y0659786D01*
X0395470D01*
X0394220Y0658536D02*
X0395470Y0659786D01*
X0394220Y0658536D02*
X0395470Y0657286D01*
X0394220D02*
X0395470D01*
X0392970Y0656036D02*
X0394220Y0657286D01*
X0186519Y0442900D02*
X0189019Y0447900D01*
X0184019D02*
X0189019D01*
X0184019D02*
X0186519Y0442900D01*
Y0439000D02*
X0189019Y0444000D01*
X0184019D02*
X0189019D01*
X0184019D02*
X0186519Y0439000D01*
Y0435100D02*
X0189019Y0440100D01*
X0184019D02*
X0189019D01*
X0184019D02*
X0186519Y0435100D01*
Y0431200D02*
X0189019Y0436200D01*
X0184019D02*
X0189019D01*
X0184019D02*
X0186519Y0431200D01*
X0190419Y0442900D02*
X0192919Y0447900D01*
X0187919D02*
X0192919D01*
X0187919D02*
X0190419Y0442900D01*
Y0431200D02*
X0192919Y0436200D01*
X0187919D02*
X0192919D01*
X0187919D02*
X0190419Y0431200D01*
Y0435100D02*
X0192919Y0440100D01*
X0187919D02*
X0192919D01*
X0187919D02*
X0190419Y0435100D01*
Y0439000D02*
X0192919Y0444000D01*
X0187919D02*
X0192919D01*
X0187919D02*
X0190419Y0439000D01*
X0163119Y0383500D02*
X0165619Y0388500D01*
X0160619D02*
X0165619D01*
X0160619D02*
X0163119Y0383500D01*
Y0378600D02*
X0165619Y0383600D01*
X0160619D02*
X0165619D01*
X0160619D02*
X0163119Y0378600D01*
X0158219Y0383500D02*
X0160719Y0388500D01*
X0155719D02*
X0160719D01*
X0155719D02*
X0158219Y0383500D01*
Y0378600D02*
X0160719Y0383600D01*
X0155719D02*
X0160719D01*
X0155719D02*
X0158219Y0378600D01*
X0153319Y0383500D02*
X0155819Y0388500D01*
X0150819D02*
X0155819D01*
X0150819D02*
X0153319Y0383500D01*
Y0378600D02*
X0155819Y0383600D01*
X0150819D02*
X0155819D01*
X0150819D02*
X0153319Y0378600D01*
X0148419D02*
X0150919Y0383600D01*
X0145919D02*
X0150919D01*
X0145919D02*
X0148419Y0378600D01*
Y0383500D02*
X0150919Y0388500D01*
X0145919D02*
X0150919D01*
X0145919D02*
X0148419Y0383500D01*
X0208119Y0409700D02*
X0210619Y0414700D01*
X0205619D02*
X0210619D01*
X0205619D02*
X0208119Y0409700D01*
Y0405800D02*
X0210619Y0410800D01*
X0205619D02*
X0210619D01*
X0205619D02*
X0208119Y0405800D01*
X0204219D02*
X0206719Y0410800D01*
X0201719D02*
X0206719D01*
X0201719D02*
X0204219Y0405800D01*
Y0409700D02*
X0206719Y0414700D01*
X0201719D02*
X0206719D01*
X0201719D02*
X0204219Y0409700D01*
Y0401900D02*
X0206719Y0406900D01*
X0201719D02*
X0206719D01*
X0201719D02*
X0204219Y0401900D01*
X0208119D02*
X0210619Y0406900D01*
X0205619D02*
X0210619D01*
X0205619D02*
X0208119Y0401900D01*
X0204219Y0398000D02*
X0206719Y0403000D01*
X0201719D02*
X0206719D01*
X0201719D02*
X0204219Y0398000D01*
X0208119D02*
X0210619Y0403000D01*
X0205619D02*
X0210619D01*
X0205619D02*
X0208119Y0398000D01*
X0200319D02*
X0202819Y0403000D01*
X0197819D02*
X0202819D01*
X0197819D02*
X0200319Y0398000D01*
Y0401900D02*
X0202819Y0406900D01*
X0197819D02*
X0202819D01*
X0197819D02*
X0200319Y0401900D01*
Y0409700D02*
X0202819Y0414700D01*
X0197819D02*
X0202819D01*
X0197819D02*
X0200319Y0409700D01*
Y0405800D02*
X0202819Y0410800D01*
X0197819D02*
X0202819D01*
X0197819D02*
X0200319Y0405800D01*
X0196419Y0398000D02*
X0198919Y0403000D01*
X0193919D02*
X0198919D01*
X0193919D02*
X0196419Y0398000D01*
Y0401900D02*
X0198919Y0406900D01*
X0193919D02*
X0198919D01*
X0193919D02*
X0196419Y0401900D01*
Y0409700D02*
X0198919Y0414700D01*
X0193919D02*
X0198919D01*
X0193919D02*
X0196419Y0409700D01*
Y0405800D02*
X0198919Y0410800D01*
X0193919D02*
X0198919D01*
X0193919D02*
X0196419Y0405800D01*
X0190419Y0446800D02*
X0192919Y0451800D01*
X0187919D02*
X0192919D01*
X0187919D02*
X0190419Y0446800D01*
X0186519D02*
X0189019Y0451800D01*
X0184019D02*
X0189019D01*
X0184019D02*
X0186519Y0446800D01*
X0190419Y0450700D02*
X0192919Y0455700D01*
X0187919D02*
X0192919D01*
X0187919D02*
X0190419Y0450700D01*
X0186519D02*
X0189019Y0455700D01*
X0184019D02*
X0189019D01*
X0184019D02*
X0186519Y0450700D01*
X0252719Y0518400D02*
X0255219Y0523400D01*
X0250219D02*
X0255219D01*
X0250219D02*
X0252719Y0518400D01*
X0256619D02*
X0259119Y0523400D01*
X0254119D02*
X0259119D01*
X0254119D02*
X0256619Y0518400D01*
X0252719Y0514500D02*
X0255219Y0519500D01*
X0250219D02*
X0255219D01*
X0250219D02*
X0252719Y0514500D01*
X0256619D02*
X0259119Y0519500D01*
X0254119D02*
X0259119D01*
X0254119D02*
X0256619Y0514500D01*
X0248819D02*
X0251319Y0519500D01*
X0246319D02*
X0251319D01*
X0246319D02*
X0248819Y0514500D01*
Y0518400D02*
X0251319Y0523400D01*
X0246319D02*
X0251319D01*
X0246319D02*
X0248819Y0518400D01*
X0244919Y0514500D02*
X0247419Y0519500D01*
X0242419D02*
X0247419D01*
X0242419D02*
X0244919Y0514500D01*
Y0518400D02*
X0247419Y0523400D01*
X0242419D02*
X0247419D01*
X0242419D02*
X0244919Y0518400D01*
X0304470Y0518180D02*
X0306970Y0523180D01*
X0301970D02*
X0306970D01*
X0301970D02*
X0304470Y0518180D01*
Y0514280D02*
X0306970Y0519280D01*
X0301970D02*
X0306970D01*
X0301970D02*
X0304470Y0514280D01*
X0308370Y0518180D02*
X0310870Y0523180D01*
X0305870D02*
X0310870D01*
X0305870D02*
X0308370Y0518180D01*
Y0514280D02*
X0310870Y0519280D01*
X0305870D02*
X0310870D01*
X0305870D02*
X0308370Y0514280D01*
X0316170D02*
X0318670Y0519280D01*
X0313670D02*
X0318670D01*
X0313670D02*
X0316170Y0514280D01*
X0312270D02*
X0314770Y0519280D01*
X0309770D02*
X0314770D01*
X0309770D02*
X0312270Y0514280D01*
X0316170Y0518180D02*
X0318670Y0523180D01*
X0313670D02*
X0318670D01*
X0313670D02*
X0316170Y0518180D01*
X0312270D02*
X0314770Y0523180D01*
X0309770D02*
X0314770D01*
X0309770D02*
X0312270Y0518180D01*
X0340719Y0430200D02*
X0343219Y0435200D01*
X0338219D02*
X0343219D01*
X0338219D02*
X0340719Y0430200D01*
Y0434100D02*
X0343219Y0439100D01*
X0338219D02*
X0343219D01*
X0338219D02*
X0340719Y0434100D01*
Y0426300D02*
X0343219Y0431300D01*
X0338219D02*
X0343219D01*
X0338219D02*
X0340719Y0426300D01*
Y0422400D02*
X0343219Y0427400D01*
X0338219D02*
X0343219D01*
X0338219D02*
X0340719Y0422400D01*
X0344619Y0430200D02*
X0347119Y0435200D01*
X0342119D02*
X0347119D01*
X0342119D02*
X0344619Y0430200D01*
Y0434100D02*
X0347119Y0439100D01*
X0342119D02*
X0347119D01*
X0342119D02*
X0344619Y0434100D01*
Y0426300D02*
X0347119Y0431300D01*
X0342119D02*
X0347119D01*
X0342119D02*
X0344619Y0426300D01*
Y0422400D02*
X0347119Y0427400D01*
X0342119D02*
X0347119D01*
X0342119D02*
X0344619Y0422400D01*
X0352419D02*
X0354919Y0427400D01*
X0349919D02*
X0354919D01*
X0349919D02*
X0352419Y0422400D01*
X0348519D02*
X0351019Y0427400D01*
X0346019D02*
X0351019D01*
X0346019D02*
X0348519Y0422400D01*
X0352419Y0426300D02*
X0354919Y0431300D01*
X0349919D02*
X0354919D01*
X0349919D02*
X0352419Y0426300D01*
X0348519D02*
X0351019Y0431300D01*
X0346019D02*
X0351019D01*
X0346019D02*
X0348519Y0426300D01*
Y0434100D02*
X0351019Y0439100D01*
X0346019D02*
X0351019D01*
X0346019D02*
X0348519Y0434100D01*
Y0430200D02*
X0351019Y0435200D01*
X0346019D02*
X0351019D01*
X0346019D02*
X0348519Y0430200D01*
X0352419D02*
X0354919Y0435200D01*
X0349919D02*
X0354919D01*
X0349919D02*
X0352419Y0430200D01*
Y0434100D02*
X0354919Y0439100D01*
X0349919D02*
X0354919D01*
X0349919D02*
X0352419Y0434100D01*
X0258119Y0265100D02*
X0260619Y0270100D01*
X0255619D02*
X0260619D01*
X0255619D02*
X0258119Y0265100D01*
X0167730Y0239616D02*
X0170230Y0244616D01*
X0165230D02*
X0170230D01*
X0165230D02*
X0167730Y0239616D01*
X0188012Y0219834D02*
X0190512Y0224834D01*
X0185512D02*
X0190512D01*
X0185512D02*
X0188012Y0219834D01*
X0196514Y0215621D02*
X0199014Y0220621D01*
X0194014D02*
X0199014D01*
X0194014D02*
X0196514Y0215621D01*
X0202214Y0220300D02*
X0204714Y0225300D01*
X0199714D02*
X0204714D01*
X0199714D02*
X0202214Y0220300D01*
X0171814Y0270800D02*
X0174314Y0275800D01*
X0169314D02*
X0174314D01*
X0169314D02*
X0171814Y0270800D01*
Y0267000D02*
X0174314Y0272000D01*
X0169314D02*
X0174314D01*
X0169314D02*
X0171814Y0267000D01*
Y0263200D02*
X0174314Y0268200D01*
X0169314D02*
X0174314D01*
X0169314D02*
X0171814Y0263200D01*
X0174914Y0295700D02*
X0177414Y0300700D01*
X0172414D02*
X0177414D01*
X0172414D02*
X0174914Y0295700D01*
X0134214Y0288100D02*
X0136714Y0293100D01*
X0131714D02*
X0136714D01*
X0131714D02*
X0134214Y0288100D01*
X0130414D02*
X0132914Y0293100D01*
X0127914D02*
X0132914D01*
X0127914D02*
X0130414Y0288100D01*
X0132414Y0290900D02*
X0134914Y0295900D01*
X0129914D02*
X0134914D01*
X0129914D02*
X0132414Y0290900D01*
X0145013Y0260349D02*
X0147513Y0265349D01*
X0142513D02*
X0147513D01*
X0142513D02*
X0145013Y0260349D01*
X0148407Y0256907D02*
X0150907Y0261907D01*
X0145907D02*
X0150907D01*
X0145907D02*
X0148407Y0256907D01*
X0143514Y0276300D02*
X0146014Y0281300D01*
X0141014D02*
X0146014D01*
X0141014D02*
X0143514Y0276300D01*
X0144714Y0291600D02*
X0147214Y0296600D01*
X0142214D02*
X0147214D01*
X0142214D02*
X0144714Y0291600D01*
X0169019Y0408700D02*
X0171519Y0413700D01*
X0166519D02*
X0171519D01*
X0166519D02*
X0169019Y0408700D01*
X0411869Y0250800D02*
X0414369Y0255800D01*
X0409369D02*
X0414369D01*
X0409369D02*
X0411869Y0250800D01*
X0407569Y0264400D02*
X0410069Y0269400D01*
X0405069D02*
X0410069D01*
X0405069D02*
X0407569Y0264400D01*
X0187919Y0335000D02*
X0190419Y0340000D01*
X0185419D02*
X0190419D01*
X0185419D02*
X0187919Y0335000D01*
X0365019Y0622600D02*
X0367519Y0627600D01*
X0362519D02*
X0367519D01*
X0362519D02*
X0365019Y0622600D01*
X0395419Y0609900D02*
X0397919Y0614900D01*
X0392919D02*
X0397919D01*
X0392919D02*
X0395419Y0609900D01*
X0365019Y0593223D02*
X0367519Y0598223D01*
X0362519D02*
X0367519D01*
X0362519D02*
X0365019Y0593223D01*
X0395419Y0580523D02*
X0397919Y0585523D01*
X0392919D02*
X0397919D01*
X0392919D02*
X0395419Y0580523D01*
X0392618Y0604450D02*
X0395118Y0609450D01*
X0390118D02*
X0395118D01*
X0390118D02*
X0392618Y0604450D01*
X0258115Y0204504D02*
X0260615Y0209504D01*
X0255615D02*
X0260615D01*
X0255615D02*
X0258115Y0204504D01*
X0355019Y0214800D02*
X0357519Y0219800D01*
X0352519D02*
X0357519D01*
X0352519D02*
X0355019Y0214800D01*
X0346619Y0233000D02*
X0349119Y0238000D01*
X0344119D02*
X0349119D01*
X0344119D02*
X0346619Y0233000D01*
X0341519Y0227200D02*
X0344019Y0232200D01*
X0339019D02*
X0344019D01*
X0339019D02*
X0341519Y0227200D01*
X0274219Y0254300D02*
X0276719Y0259300D01*
X0271719D02*
X0276719D01*
X0271719D02*
X0274219Y0254300D01*
X0310119Y0261800D02*
X0312619Y0266800D01*
X0307619D02*
X0312619D01*
X0307619D02*
X0310119Y0261800D01*
X0287365Y0263046D02*
X0289865Y0268046D01*
X0284865D02*
X0289865D01*
X0284865D02*
X0287365Y0263046D01*
X0302819Y0277100D02*
X0305319Y0282100D01*
X0300319D02*
X0305319D01*
X0300319D02*
X0302819Y0277100D01*
X0316019Y0276100D02*
X0318519Y0281100D01*
X0313519D02*
X0318519D01*
X0313519D02*
X0316019Y0276100D01*
X0296319Y0277000D02*
X0298819Y0282000D01*
X0293819D02*
X0298819D01*
X0293819D02*
X0296319Y0277000D01*
X0284019D02*
X0286519Y0282000D01*
X0281519D02*
X0286519D01*
X0281519D02*
X0284019Y0277000D01*
X0273319Y0281200D02*
X0275819Y0286200D01*
X0270819D02*
X0275819D01*
X0270819D02*
X0273319Y0281200D01*
X0262419Y0288700D02*
X0264919Y0293700D01*
X0259919D02*
X0264919D01*
X0259919D02*
X0262419Y0288700D01*
X0277519Y0292400D02*
X0280019Y0297400D01*
X0275019D02*
X0280019D01*
X0275019D02*
X0277519Y0292400D01*
X0284019Y0292450D02*
X0286519Y0297450D01*
X0281519D02*
X0286519D01*
X0281519D02*
X0284019Y0292450D01*
X0296492Y0292450D02*
X0298992Y0297450D01*
X0293992D02*
X0298992D01*
X0293992D02*
X0296492Y0292450D01*
X0302892D02*
X0305392Y0297450D01*
X0300392D02*
X0305392D01*
X0300392D02*
X0302892Y0292450D01*
X0315992D02*
X0318492Y0297450D01*
X0313492D02*
X0318492D01*
X0313492D02*
X0315992Y0292450D01*
X0291219Y0661300D02*
X0293719Y0666300D01*
X0288719D02*
X0293719D01*
X0288719D02*
X0291219Y0661300D01*
Y0657400D02*
X0293719Y0662400D01*
X0288719D02*
X0293719D01*
X0288719D02*
X0291219Y0657400D01*
X0283419D02*
X0285919Y0662400D01*
X0280919D02*
X0285919D01*
X0280919D02*
X0283419Y0657400D01*
X0287319D02*
X0289819Y0662400D01*
X0284819D02*
X0289819D01*
X0284819D02*
X0287319Y0657400D01*
Y0661300D02*
X0289819Y0666300D01*
X0284819D02*
X0289819D01*
X0284819D02*
X0287319Y0661300D01*
X0283419D02*
X0285919Y0666300D01*
X0280919D02*
X0285919D01*
X0280919D02*
X0283419Y0661300D01*
X0302819Y0680400D02*
X0305319Y0685400D01*
X0300319D02*
X0305319D01*
X0300319D02*
X0302819Y0680400D01*
X0306719D02*
X0309219Y0685400D01*
X0304219D02*
X0309219D01*
X0304219D02*
X0306719Y0680400D01*
Y0672600D02*
X0309219Y0677600D01*
X0304219D02*
X0309219D01*
X0304219D02*
X0306719Y0672600D01*
Y0676500D02*
X0309219Y0681500D01*
X0304219D02*
X0309219D01*
X0304219D02*
X0306719Y0676500D01*
X0302819D02*
X0305319Y0681500D01*
X0300319D02*
X0305319D01*
X0300319D02*
X0302819Y0676500D01*
Y0672600D02*
X0305319Y0677600D01*
X0300319D02*
X0305319D01*
X0300319D02*
X0302819Y0672600D01*
X0342219Y0679900D02*
X0344719Y0684900D01*
X0339719D02*
X0344719D01*
X0339719D02*
X0342219Y0679900D01*
X0346119D02*
X0348619Y0684900D01*
X0343619D02*
X0348619D01*
X0343619D02*
X0346119Y0679900D01*
Y0672100D02*
X0348619Y0677100D01*
X0343619D02*
X0348619D01*
X0343619D02*
X0346119Y0672100D01*
Y0676000D02*
X0348619Y0681000D01*
X0343619D02*
X0348619D01*
X0343619D02*
X0346119Y0676000D01*
X0342219D02*
X0344719Y0681000D01*
X0339719D02*
X0344719D01*
X0339719D02*
X0342219Y0676000D01*
Y0672100D02*
X0344719Y0677100D01*
X0339719D02*
X0344719D01*
X0339719D02*
X0342219Y0672100D01*
X0327119Y0648200D02*
X0329619Y0653200D01*
X0324619D02*
X0329619D01*
X0324619D02*
X0327119Y0648200D01*
Y0644300D02*
X0329619Y0649300D01*
X0324619D02*
X0329619D01*
X0324619D02*
X0327119Y0644300D01*
X0251419Y0428900D02*
X0253919Y0433900D01*
X0248919D02*
X0253919D01*
X0248919D02*
X0251419Y0428900D01*
Y0432800D02*
X0253919Y0437800D01*
X0248919D02*
X0253919D01*
X0248919D02*
X0251419Y0432800D01*
Y0425000D02*
X0253919Y0430000D01*
X0248919D02*
X0253919D01*
X0248919D02*
X0251419Y0425000D01*
Y0421100D02*
X0253919Y0426100D01*
X0248919D02*
X0253919D01*
X0248919D02*
X0251419Y0421100D01*
Y0436700D02*
X0253919Y0441700D01*
X0248919D02*
X0253919D01*
X0248919D02*
X0251419Y0436700D01*
Y0444500D02*
X0253919Y0449500D01*
X0248919D02*
X0253919D01*
X0248919D02*
X0251419Y0444500D01*
Y0440600D02*
X0253919Y0445600D01*
X0248919D02*
X0253919D01*
X0248919D02*
X0251419Y0440600D01*
Y0448400D02*
X0253919Y0453400D01*
X0248919D02*
X0253919D01*
X0248919D02*
X0251419Y0448400D01*
Y0456200D02*
X0253919Y0461200D01*
X0248919D02*
X0253919D01*
X0248919D02*
X0251419Y0456200D01*
Y0452300D02*
X0253919Y0457300D01*
X0248919D02*
X0253919D01*
X0248919D02*
X0251419Y0452300D01*
X0303619Y0452300D02*
X0306119Y0457300D01*
X0301119D02*
X0306119D01*
X0301119D02*
X0303619Y0452300D01*
Y0456200D02*
X0306119Y0461200D01*
X0301119D02*
X0306119D01*
X0301119D02*
X0303619Y0456200D01*
Y0448400D02*
X0306119Y0453400D01*
X0301119D02*
X0306119D01*
X0301119D02*
X0303619Y0448400D01*
Y0440600D02*
X0306119Y0445600D01*
X0301119D02*
X0306119D01*
X0301119D02*
X0303619Y0440600D01*
Y0444500D02*
X0306119Y0449500D01*
X0301119D02*
X0306119D01*
X0301119D02*
X0303619Y0444500D01*
Y0436700D02*
X0306119Y0441700D01*
X0301119D02*
X0306119D01*
X0301119D02*
X0303619Y0436700D01*
Y0421100D02*
X0306119Y0426100D01*
X0301119D02*
X0306119D01*
X0301119D02*
X0303619Y0421100D01*
Y0425000D02*
X0306119Y0430000D01*
X0301119D02*
X0306119D01*
X0301119D02*
X0303619Y0425000D01*
Y0432800D02*
X0306119Y0437800D01*
X0301119D02*
X0306119D01*
X0301119D02*
X0303619Y0432800D01*
Y0428900D02*
X0306119Y0433900D01*
X0301119D02*
X0306119D01*
X0301119D02*
X0303619Y0428900D01*
X0306619Y0614300D02*
X0309119Y0619300D01*
X0304119D02*
X0309119D01*
X0304119D02*
X0306619Y0614300D01*
Y0618200D02*
X0309119Y0623200D01*
X0304119D02*
X0309119D01*
X0304119D02*
X0306619Y0618200D01*
X0310519D02*
X0313019Y0623200D01*
X0308019D02*
X0313019D01*
X0308019D02*
X0310519Y0618200D01*
Y0614300D02*
X0313019Y0619300D01*
X0308019D02*
X0313019D01*
X0308019D02*
X0310519Y0614300D01*
X0314419D02*
X0316919Y0619300D01*
X0311919D02*
X0316919D01*
X0311919D02*
X0314419Y0614300D01*
Y0618200D02*
X0316919Y0623200D01*
X0311919D02*
X0316919D01*
X0311919D02*
X0314419Y0618200D01*
X0168014Y0327300D02*
X0170514Y0332300D01*
X0165514D02*
X0170514D01*
X0165514D02*
X0168014Y0327300D01*
Y0323600D02*
X0170514Y0328600D01*
X0165514D02*
X0170514D01*
X0165514D02*
X0168014Y0323600D01*
Y0319900D02*
X0170514Y0324900D01*
X0165514D02*
X0170514D01*
X0165514D02*
X0168014Y0319900D01*
X0379769Y0252000D02*
X0382269Y0257000D01*
X0377269D02*
X0382269D01*
X0377269D02*
X0379769Y0252000D01*
X0344319Y0259900D02*
X0346819Y0264900D01*
X0341819D02*
X0346819D01*
X0341819D02*
X0344319Y0259900D01*
X0344419Y0247300D02*
X0346919Y0252300D01*
X0341919D02*
X0346919D01*
X0341919D02*
X0344419Y0247300D01*
X0344319Y0266300D02*
X0346819Y0271300D01*
X0341819D02*
X0346819D01*
X0341819D02*
X0344319Y0266300D01*
X0418019Y0474100D02*
X0420519Y0479100D01*
X0415519D02*
X0420519D01*
X0415519D02*
X0418019Y0474100D01*
X0287983Y0257100D02*
X0290483Y0262100D01*
X0285483D02*
X0290483D01*
X0285483D02*
X0287983Y0257100D01*
X0326019Y0296000D02*
X0328519Y0301000D01*
X0323519D02*
X0328519D01*
X0323519D02*
X0326019Y0296000D01*
X0322619Y0292300D02*
X0325119Y0297300D01*
X0320119D02*
X0325119D01*
X0320119D02*
X0322619Y0292300D01*
X0290292Y0292727D02*
X0292792Y0297727D01*
X0287792D02*
X0292792D01*
X0287792D02*
X0290292Y0292727D01*
X0277119Y0297000D02*
X0279619Y0302000D01*
X0274619D02*
X0279619D01*
X0274619D02*
X0277119Y0297000D01*
X0323219Y0299500D02*
X0325719Y0304500D01*
X0320719D02*
X0325719D01*
X0320719D02*
X0323219Y0299500D01*
X0368119Y0341300D02*
X0370619Y0346300D01*
X0365619D02*
X0370619D01*
X0365619D02*
X0368119Y0341300D01*
X0365250Y0335931D02*
X0367750Y0340931D01*
X0362750D02*
X0367750D01*
X0362750D02*
X0365250Y0335931D01*
X0411519Y0592300D02*
X0414019Y0597300D01*
X0409019D02*
X0414019D01*
X0409019D02*
X0411519Y0592300D01*
X0411619Y0618500D02*
X0414119Y0623500D01*
X0409119D02*
X0414119D01*
X0409119D02*
X0411619Y0618500D01*
X0436019Y0634200D02*
X0438519Y0639200D01*
X0433519D02*
X0438519D01*
X0433519D02*
X0436019Y0634200D01*
X0268005Y0229486D02*
X0270505Y0234486D01*
X0265505D02*
X0270505D01*
X0265505D02*
X0268005Y0229486D01*
X0264414Y0204504D02*
X0266914Y0209504D01*
X0261914D02*
X0266914D01*
X0261914D02*
X0264414Y0204504D01*
X0175019Y0348000D02*
X0177519Y0353000D01*
X0172519D02*
X0177519D01*
X0172519D02*
X0175019Y0348000D01*
X0287319Y0347700D02*
X0289819Y0352700D01*
X0284819D02*
X0289819D01*
X0284819D02*
X0287319Y0347700D01*
X0181919Y0314100D02*
X0184419Y0319100D01*
X0179419D02*
X0184419D01*
X0179419D02*
X0181919Y0314100D01*
X0200919Y0295100D02*
X0203419Y0300100D01*
X0198419D02*
X0203419D01*
X0198419D02*
X0200919Y0295100D01*
X0191819Y0286000D02*
X0194319Y0291000D01*
X0189319D02*
X0194319D01*
X0189319D02*
X0191819Y0286000D01*
X0296065Y0213746D02*
X0298565Y0218746D01*
X0293565D02*
X0298565D01*
X0293565D02*
X0296065Y0213746D01*
X0384419Y0214800D02*
X0386919Y0219800D01*
X0381919D02*
X0386919D01*
X0381919D02*
X0384419Y0214800D01*
X0393119Y0206100D02*
X0395619Y0211100D01*
X0390619D02*
X0395619D01*
X0390619D02*
X0393119Y0206100D01*
X0258119Y0197300D02*
X0260619Y0202300D01*
X0255619D02*
X0260619D01*
X0255619D02*
X0258119Y0197300D01*
X0287319Y0342700D02*
X0289819Y0347700D01*
X0284819D02*
X0289819D01*
X0284819D02*
X0287319Y0342700D01*
X0359819Y0292300D02*
X0362319Y0297300D01*
X0357319D02*
X0362319D01*
X0357319D02*
X0359819Y0292300D01*
X0360119Y0299600D02*
X0362619Y0304600D01*
X0357619D02*
X0362619D01*
X0357619D02*
X0360119Y0299600D01*
X0356119Y0296000D02*
X0358619Y0301000D01*
X0353619D02*
X0358619D01*
X0353619D02*
X0356119Y0296000D01*
X0379768Y0266900D02*
X0382269Y0271900D01*
X0377269D02*
X0382269D01*
X0377269D02*
X0379768Y0266900D01*
X0199819Y0314100D02*
X0202319Y0319100D01*
X0197319D02*
X0202319D01*
X0197319D02*
X0199819Y0314100D01*
X0230319Y0273400D02*
X0232819Y0278400D01*
X0227819D02*
X0232819D01*
X0227819D02*
X0230319Y0273400D01*
X0234019D02*
X0236519Y0278400D01*
X0231519D02*
X0236519D01*
X0231519D02*
X0234019Y0273400D01*
X0353819Y0304100D02*
X0356319Y0309100D01*
X0351319D02*
X0356319D01*
X0351319D02*
X0353819Y0304100D01*
X0296619Y0347700D02*
X0299119Y0352700D01*
X0294119D02*
X0299119D01*
X0294119D02*
X0296619Y0347700D01*
Y0342700D02*
X0299119Y0347700D01*
X0294119D02*
X0299119D01*
X0294119D02*
X0296619Y0342700D01*
X0400619Y0258675D02*
X0401869Y0257425D01*
X0399369Y0258675D02*
X0400619D01*
X0399369D02*
X0400619Y0259925D01*
X0399369Y0261175D02*
X0400619Y0259925D01*
X0399369Y0261175D02*
X0400619D01*
X0401869Y0262425D01*
X0403119Y0261175D01*
X0404369D01*
X0403119Y0259925D02*
X0404369Y0261175D01*
X0403119Y0259925D02*
X0404369Y0258675D01*
X0403119D02*
X0404369D01*
X0401869Y0257425D02*
X0403119Y0258675D01*
X0400619Y0261825D02*
X0401869Y0260575D01*
X0399369Y0261825D02*
X0400619D01*
X0399369D02*
X0400619Y0263075D01*
X0399369Y0264325D02*
X0400619Y0263075D01*
X0399369Y0264325D02*
X0400619D01*
X0401869Y0265575D01*
X0403119Y0264325D01*
X0404369D01*
X0403119Y0263075D02*
X0404369Y0264325D01*
X0403119Y0263075D02*
X0404369Y0261825D01*
X0403119D02*
X0404369D01*
X0401869Y0260575D02*
X0403119Y0261825D01*
X0318569Y0647785D02*
X0319819Y0646535D01*
X0317319Y0647785D02*
X0318569D01*
X0317319D02*
X0318569Y0649035D01*
X0317319Y0650285D02*
X0318569Y0649035D01*
X0317319Y0650285D02*
X0318569D01*
X0319819Y0651535D01*
X0321069Y0650285D01*
X0322319D01*
X0321069Y0649035D02*
X0322319Y0650285D01*
X0321069Y0649035D02*
X0322319Y0647785D01*
X0321069D02*
X0322319D01*
X0319819Y0646535D02*
X0321069Y0647785D01*
X0318569Y0652115D02*
X0319819Y0650865D01*
X0317319Y0652115D02*
X0318569D01*
X0317319D02*
X0318569Y0653365D01*
X0317319Y0654615D02*
X0318569Y0653365D01*
X0317319Y0654615D02*
X0318569D01*
X0319819Y0655865D01*
X0321069Y0654615D01*
X0322319D01*
X0321069Y0653365D02*
X0322319Y0654615D01*
X0321069Y0653365D02*
X0322319Y0652115D01*
X0321069D02*
X0322319D01*
X0319819Y0650865D02*
X0321069Y0652115D01*
X0306069D02*
X0307319Y0650865D01*
X0304819Y0652115D02*
X0306069D01*
X0304819D02*
X0306069Y0653365D01*
X0304819Y0654615D02*
X0306069Y0653365D01*
X0304819Y0654615D02*
X0306069D01*
X0307319Y0655865D01*
X0308569Y0654615D01*
X0309819D01*
X0308569Y0653365D02*
X0309819Y0654615D01*
X0308569Y0653365D02*
X0309819Y0652115D01*
X0308569D02*
X0309819D01*
X0307319Y0650865D02*
X0308569Y0652115D01*
X0306069Y0647785D02*
X0307319Y0646535D01*
X0304819Y0647785D02*
X0306069D01*
X0304819D02*
X0306069Y0649035D01*
X0304819Y0650285D02*
X0306069Y0649035D01*
X0304819Y0650285D02*
X0306069D01*
X0307319Y0651535D01*
X0308569Y0650285D01*
X0309819D01*
X0308569Y0649035D02*
X0309819Y0650285D01*
X0308569Y0649035D02*
X0309819Y0647785D01*
X0308569D02*
X0309819D01*
X0307319Y0646535D02*
X0308569Y0647785D01*
X0318619Y0304100D02*
X0321119Y0309100D01*
X0316119D02*
X0321119D01*
X0316119D02*
X0318619Y0304100D01*
X0348649Y0262630D02*
X0351149Y0267630D01*
X0346149D02*
X0351149D01*
X0346149D02*
X0348649Y0262630D01*
X0379769Y0259000D02*
X0382269Y0264000D01*
X0377269D02*
X0382269D01*
X0377269D02*
X0379769Y0259000D01*
X0148933Y0318286D02*
X0151433Y0323286D01*
X0146433D02*
X0151433D01*
X0146433D02*
X0148933Y0318286D01*
X0142819Y0324400D02*
X0145319Y0329400D01*
X0140319D02*
X0145319D01*
X0140319D02*
X0142819Y0324400D01*
X0370250Y0335931D02*
X0372750Y0340931D01*
X0367750D02*
X0372750D01*
X0367750D02*
X0370250Y0335931D01*
X0193969Y0665150D02*
X0195219Y0663900D01*
X0192719Y0665150D02*
X0193969D01*
X0192719D02*
X0193969Y0666400D01*
X0192719Y0667650D02*
X0193969Y0666400D01*
X0192719Y0667650D02*
X0193969D01*
X0195219Y0668900D01*
X0196469Y0667650D01*
X0197719D01*
X0196469Y0666400D02*
X0197719Y0667650D01*
X0196469Y0666400D02*
X0197719Y0665150D01*
X0196469D02*
X0197719D01*
X0195219Y0663900D02*
X0196469Y0665150D01*
X0193969Y0669678D02*
X0195219Y0668428D01*
X0192719Y0669678D02*
X0193969D01*
X0192719D02*
X0193969Y0670928D01*
X0192719Y0672178D02*
X0193969Y0670928D01*
X0192719Y0672178D02*
X0193969D01*
X0195219Y0673428D01*
X0196469Y0672178D01*
X0197719D01*
X0196469Y0670928D02*
X0197719Y0672178D01*
X0196469Y0670928D02*
X0197719Y0669678D01*
X0196469D02*
X0197719D01*
X0195219Y0668428D02*
X0196469Y0669678D01*
X0193969Y0674205D02*
X0195219Y0672955D01*
X0192719Y0674205D02*
X0193969D01*
X0192719D02*
X0193969Y0675455D01*
X0192719Y0676705D02*
X0193969Y0675455D01*
X0192719Y0676705D02*
X0193969D01*
X0195219Y0677955D01*
X0196469Y0676705D01*
X0197719D01*
X0196469Y0675455D02*
X0197719Y0676705D01*
X0196469Y0675455D02*
X0197719Y0674205D01*
X0196469D02*
X0197719D01*
X0195219Y0672955D02*
X0196469Y0674205D01*
X0199205Y0665150D02*
X0200455Y0663900D01*
X0197955Y0665150D02*
X0199205D01*
X0197955D02*
X0199205Y0666400D01*
X0197955Y0667650D02*
X0199205Y0666400D01*
X0197955Y0667650D02*
X0199205D01*
X0200455Y0668900D01*
X0201705Y0667650D01*
X0202955D01*
X0201705Y0666400D02*
X0202955Y0667650D01*
X0201705Y0666400D02*
X0202955Y0665150D01*
X0201705D02*
X0202955D01*
X0200455Y0663900D02*
X0201705Y0665150D01*
X0199205Y0669678D02*
X0200455Y0668428D01*
X0197955Y0669678D02*
X0199205D01*
X0197955D02*
X0199205Y0670928D01*
X0197955Y0672178D02*
X0199205Y0670928D01*
X0197955Y0672178D02*
X0199205D01*
X0200455Y0673428D01*
X0201705Y0672178D01*
X0202955D01*
X0201705Y0670928D02*
X0202955Y0672178D01*
X0201705Y0670928D02*
X0202955Y0669678D01*
X0201705D02*
X0202955D01*
X0200455Y0668428D02*
X0201705Y0669678D01*
X0199205Y0674205D02*
X0200455Y0672955D01*
X0197955Y0674205D02*
X0199205D01*
X0197955D02*
X0199205Y0675455D01*
X0197955Y0676705D02*
X0199205Y0675455D01*
X0197955Y0676705D02*
X0199205D01*
X0200455Y0677955D01*
X0201705Y0676705D01*
X0202955D01*
X0201705Y0675455D02*
X0202955Y0676705D01*
X0201705Y0675455D02*
X0202955Y0674205D01*
X0201705D02*
X0202955D01*
X0200455Y0672955D02*
X0201705Y0674205D01*
X0204441D02*
X0205691Y0672955D01*
X0203191Y0674205D02*
X0204441D01*
X0203191D02*
X0204441Y0675455D01*
X0203191Y0676705D02*
X0204441Y0675455D01*
X0203191Y0676705D02*
X0204441D01*
X0205691Y0677955D01*
X0206941Y0676705D01*
X0208191D01*
X0206941Y0675455D02*
X0208191Y0676705D01*
X0206941Y0675455D02*
X0208191Y0674205D01*
X0206941D02*
X0208191D01*
X0205691Y0672955D02*
X0206941Y0674205D01*
X0204441Y0669678D02*
X0205691Y0668428D01*
X0203191Y0669678D02*
X0204441D01*
X0203191D02*
X0204441Y0670928D01*
X0203191Y0672178D02*
X0204441Y0670928D01*
X0203191Y0672178D02*
X0204441D01*
X0205691Y0673428D01*
X0206941Y0672178D01*
X0208191D01*
X0206941Y0670928D02*
X0208191Y0672178D01*
X0206941Y0670928D02*
X0208191Y0669678D01*
X0206941D02*
X0208191D01*
X0205691Y0668428D02*
X0206941Y0669678D01*
X0204441Y0665150D02*
X0205691Y0663900D01*
X0203191Y0665150D02*
X0204441D01*
X0203191D02*
X0204441Y0666400D01*
X0203191Y0667650D02*
X0204441Y0666400D01*
X0203191Y0667650D02*
X0204441D01*
X0205691Y0668900D01*
X0206941Y0667650D01*
X0208191D01*
X0206941Y0666400D02*
X0208191Y0667650D01*
X0206941Y0666400D02*
X0208191Y0665150D01*
X0206941D02*
X0208191D01*
X0205691Y0663900D02*
X0206941Y0665150D01*
X0204441Y0678733D02*
X0205691Y0677483D01*
X0203191Y0678733D02*
X0204441D01*
X0203191D02*
X0204441Y0679983D01*
X0203191Y0681233D02*
X0204441Y0679983D01*
X0203191Y0681233D02*
X0204441D01*
X0205691Y0682483D01*
X0206941Y0681233D01*
X0208191D01*
X0206941Y0679983D02*
X0208191Y0681233D01*
X0206941Y0679983D02*
X0208191Y0678733D01*
X0206941D02*
X0208191D01*
X0205691Y0677483D02*
X0206941Y0678733D01*
X0199205D02*
X0200455Y0677483D01*
X0197955Y0678733D02*
X0199205D01*
X0197955D02*
X0199205Y0679983D01*
X0197955Y0681233D02*
X0199205Y0679983D01*
X0197955Y0681233D02*
X0199205D01*
X0200455Y0682483D01*
X0201705Y0681233D01*
X0202955D01*
X0201705Y0679983D02*
X0202955Y0681233D01*
X0201705Y0679983D02*
X0202955Y0678733D01*
X0201705D02*
X0202955D01*
X0200455Y0677483D02*
X0201705Y0678733D01*
X0193969D02*
X0195219Y0677483D01*
X0192719Y0678733D02*
X0193969D01*
X0192719D02*
X0193969Y0679983D01*
X0192719Y0681233D02*
X0193969Y0679983D01*
X0192719Y0681233D02*
X0193969D01*
X0195219Y0682483D01*
X0196469Y0681233D01*
X0197719D01*
X0196469Y0679983D02*
X0197719Y0681233D01*
X0196469Y0679983D02*
X0197719Y0678733D01*
X0196469D02*
X0197719D01*
X0195219Y0677483D02*
X0196469Y0678733D01*
X0209678D02*
X0210928Y0677483D01*
X0208428Y0678733D02*
X0209678D01*
X0208428D02*
X0209678Y0679983D01*
X0208428Y0681233D02*
X0209678Y0679983D01*
X0208428Y0681233D02*
X0209678D01*
X0210928Y0682483D01*
X0212178Y0681233D01*
X0213428D01*
X0212178Y0679983D02*
X0213428Y0681233D01*
X0212178Y0679983D02*
X0213428Y0678733D01*
X0212178D02*
X0213428D01*
X0210928Y0677483D02*
X0212178Y0678733D01*
X0209678Y0665150D02*
X0210928Y0663900D01*
X0208428Y0665150D02*
X0209678D01*
X0208428D02*
X0209678Y0666400D01*
X0208428Y0667650D02*
X0209678Y0666400D01*
X0208428Y0667650D02*
X0209678D01*
X0210928Y0668900D01*
X0212178Y0667650D01*
X0213428D01*
X0212178Y0666400D02*
X0213428Y0667650D01*
X0212178Y0666400D02*
X0213428Y0665150D01*
X0212178D02*
X0213428D01*
X0210928Y0663900D02*
X0212178Y0665150D01*
X0209678Y0669678D02*
X0210928Y0668428D01*
X0208428Y0669678D02*
X0209678D01*
X0208428D02*
X0209678Y0670928D01*
X0208428Y0672178D02*
X0209678Y0670928D01*
X0208428Y0672178D02*
X0209678D01*
X0210928Y0673428D01*
X0212178Y0672178D01*
X0213428D01*
X0212178Y0670928D02*
X0213428Y0672178D01*
X0212178Y0670928D02*
X0213428Y0669678D01*
X0212178D02*
X0213428D01*
X0210928Y0668428D02*
X0212178Y0669678D01*
X0209678Y0674205D02*
X0210928Y0672955D01*
X0208428Y0674205D02*
X0209678D01*
X0208428D02*
X0209678Y0675455D01*
X0208428Y0676705D02*
X0209678Y0675455D01*
X0208428Y0676705D02*
X0209678D01*
X0210928Y0677955D01*
X0212178Y0676705D01*
X0213428D01*
X0212178Y0675455D02*
X0213428Y0676705D01*
X0212178Y0675455D02*
X0213428Y0674205D01*
X0212178D02*
X0213428D01*
X0210928Y0672955D02*
X0212178Y0674205D01*
X0188733Y0678733D02*
X0189983Y0677483D01*
X0187483Y0678733D02*
X0188733D01*
X0187483D02*
X0188733Y0679983D01*
X0187483Y0681233D02*
X0188733Y0679983D01*
X0187483Y0681233D02*
X0188733D01*
X0189983Y0682483D01*
X0191233Y0681233D01*
X0192483D01*
X0191233Y0679983D02*
X0192483Y0681233D01*
X0191233Y0679983D02*
X0192483Y0678733D01*
X0191233D02*
X0192483D01*
X0189983Y0677483D02*
X0191233Y0678733D01*
X0188733Y0665150D02*
X0189983Y0663900D01*
X0187483Y0665150D02*
X0188733D01*
X0187483D02*
X0188733Y0666400D01*
X0187483Y0667650D02*
X0188733Y0666400D01*
X0187483Y0667650D02*
X0188733D01*
X0189983Y0668900D01*
X0191233Y0667650D01*
X0192483D01*
X0191233Y0666400D02*
X0192483Y0667650D01*
X0191233Y0666400D02*
X0192483Y0665150D01*
X0191233D02*
X0192483D01*
X0189983Y0663900D02*
X0191233Y0665150D01*
X0188733Y0669678D02*
X0189983Y0668428D01*
X0187483Y0669678D02*
X0188733D01*
X0187483D02*
X0188733Y0670928D01*
X0187483Y0672178D02*
X0188733Y0670928D01*
X0187483Y0672178D02*
X0188733D01*
X0189983Y0673428D01*
X0191233Y0672178D01*
X0192483D01*
X0191233Y0670928D02*
X0192483Y0672178D01*
X0191233Y0670928D02*
X0192483Y0669678D01*
X0191233D02*
X0192483D01*
X0189983Y0668428D02*
X0191233Y0669678D01*
X0188733Y0674205D02*
X0189983Y0672955D01*
X0187483Y0674205D02*
X0188733D01*
X0187483D02*
X0188733Y0675455D01*
X0187483Y0676705D02*
X0188733Y0675455D01*
X0187483Y0676705D02*
X0188733D01*
X0189983Y0677955D01*
X0191233Y0676705D01*
X0192483D01*
X0191233Y0675455D02*
X0192483Y0676705D01*
X0191233Y0675455D02*
X0192483Y0674205D01*
X0191233D02*
X0192483D01*
X0189983Y0672955D02*
X0191233Y0674205D01*
X0188733Y0683260D02*
X0189983Y0682010D01*
X0187483Y0683260D02*
X0188733D01*
X0187483D02*
X0188733Y0684510D01*
X0187483Y0685760D02*
X0188733Y0684510D01*
X0187483Y0685760D02*
X0188733D01*
X0189983Y0687010D01*
X0191233Y0685760D01*
X0192483D01*
X0191233Y0684510D02*
X0192483Y0685760D01*
X0191233Y0684510D02*
X0192483Y0683260D01*
X0191233D02*
X0192483D01*
X0189983Y0682010D02*
X0191233Y0683260D01*
X0209678D02*
X0210928Y0682010D01*
X0208428Y0683260D02*
X0209678D01*
X0208428D02*
X0209678Y0684510D01*
X0208428Y0685760D02*
X0209678Y0684510D01*
X0208428Y0685760D02*
X0209678D01*
X0210928Y0687010D01*
X0212178Y0685760D01*
X0213428D01*
X0212178Y0684510D02*
X0213428Y0685760D01*
X0212178Y0684510D02*
X0213428Y0683260D01*
X0212178D02*
X0213428D01*
X0210928Y0682010D02*
X0212178Y0683260D01*
X0193969D02*
X0195219Y0682010D01*
X0192719Y0683260D02*
X0193969D01*
X0192719D02*
X0193969Y0684510D01*
X0192719Y0685760D02*
X0193969Y0684510D01*
X0192719Y0685760D02*
X0193969D01*
X0195219Y0687010D01*
X0196469Y0685760D01*
X0197719D01*
X0196469Y0684510D02*
X0197719Y0685760D01*
X0196469Y0684510D02*
X0197719Y0683260D01*
X0196469D02*
X0197719D01*
X0195219Y0682010D02*
X0196469Y0683260D01*
X0199205D02*
X0200455Y0682010D01*
X0197955Y0683260D02*
X0199205D01*
X0197955D02*
X0199205Y0684510D01*
X0197955Y0685760D02*
X0199205Y0684510D01*
X0197955Y0685760D02*
X0199205D01*
X0200455Y0687010D01*
X0201705Y0685760D01*
X0202955D01*
X0201705Y0684510D02*
X0202955Y0685760D01*
X0201705Y0684510D02*
X0202955Y0683260D01*
X0201705D02*
X0202955D01*
X0200455Y0682010D02*
X0201705Y0683260D01*
X0204441D02*
X0205691Y0682010D01*
X0203191Y0683260D02*
X0204441D01*
X0203191D02*
X0204441Y0684510D01*
X0203191Y0685760D02*
X0204441Y0684510D01*
X0203191Y0685760D02*
X0204441D01*
X0205691Y0687010D01*
X0206941Y0685760D01*
X0208191D01*
X0206941Y0684510D02*
X0208191Y0685760D01*
X0206941Y0684510D02*
X0208191Y0683260D01*
X0206941D02*
X0208191D01*
X0205691Y0682010D02*
X0206941Y0683260D01*
X0178069Y0625750D02*
X0180569Y0630750D01*
X0175569D02*
X0180569D01*
X0175569D02*
X0178069Y0625750D01*
X0183569D02*
X0186069Y0630750D01*
X0181069D02*
X0186069D01*
X0181069D02*
X0183569Y0625750D01*
X0172569D02*
X0175069Y0630750D01*
X0170069D02*
X0175069D01*
X0170069D02*
X0172569Y0625750D01*
X0283419Y0665200D02*
X0285919Y0670200D01*
X0280919D02*
X0285919D01*
X0280919D02*
X0283419Y0665200D01*
X0287319D02*
X0289819Y0670200D01*
X0284819D02*
X0289819D01*
X0284819D02*
X0287319Y0665200D01*
X0291219D02*
X0293719Y0670200D01*
X0288719D02*
X0293719D01*
X0288719D02*
X0291219Y0665200D01*
X0302819Y0684100D02*
X0305319Y0689100D01*
X0300319D02*
X0305319D01*
X0300319D02*
X0302819Y0684100D01*
X0306719D02*
X0309219Y0689100D01*
X0304219D02*
X0309219D01*
X0304219D02*
X0306719Y0684100D01*
X0346119Y0683900D02*
X0348619Y0688900D01*
X0343619D02*
X0348619D01*
X0343619D02*
X0346119Y0683900D01*
X0342219D02*
X0344719Y0688900D01*
X0339719D02*
X0344719D01*
X0339719D02*
X0342219Y0683900D01*
X0350119D02*
X0352619Y0688900D01*
X0347619D02*
X0352619D01*
X0347619D02*
X0350119Y0683900D01*
Y0676000D02*
X0352619Y0681000D01*
X0347619D02*
X0352619D01*
X0347619D02*
X0350119Y0676000D01*
Y0672100D02*
X0352619Y0677100D01*
X0347619D02*
X0352619D01*
X0347619D02*
X0350119Y0672100D01*
Y0679900D02*
X0352619Y0684900D01*
X0347619D02*
X0352619D01*
X0347619D02*
X0350119Y0679900D01*
X0230219Y0294400D02*
X0232719Y0299400D01*
X0227719D02*
X0232719D01*
X0227719D02*
X0230219Y0294400D01*
X0221219Y0285400D02*
X0223719Y0290400D01*
X0218719D02*
X0223719D01*
X0218719D02*
X0221219Y0285400D01*
Y0266400D02*
X0223719Y0271400D01*
X0218719D02*
X0223719D01*
X0218719D02*
X0221219Y0266400D01*
X0400775Y0657286D02*
X0402025Y0656036D01*
X0399525Y0657286D02*
X0400775D01*
X0399525D02*
X0400775Y0658536D01*
X0399525Y0659786D02*
X0400775Y0658536D01*
X0399525Y0659786D02*
X0400775D01*
X0402025Y0661036D01*
X0403275Y0659786D01*
X0404525D01*
X0403275Y0658536D02*
X0404525Y0659786D01*
X0403275Y0658536D02*
X0404525Y0657286D01*
X0403275D02*
X0404525D01*
X0402025Y0656036D02*
X0403275Y0657286D01*
X0396248D02*
X0397498Y0656036D01*
X0394998Y0657286D02*
X0396248D01*
X0394998D02*
X0396248Y0658536D01*
X0394998Y0659786D02*
X0396248Y0658536D01*
X0394998Y0659786D02*
X0396248D01*
X0397498Y0661036D01*
X0398748Y0659786D01*
X0399998D01*
X0398748Y0658536D02*
X0399998Y0659786D01*
X0398748Y0658536D02*
X0399998Y0657286D01*
X0398748D02*
X0399998D01*
X0397498Y0656036D02*
X0398748Y0657286D01*
X0396248Y0652050D02*
X0397498Y0650800D01*
X0394998Y0652050D02*
X0396248D01*
X0394998D02*
X0396248Y0653300D01*
X0394998Y0654550D02*
X0396248Y0653300D01*
X0394998Y0654550D02*
X0396248D01*
X0397498Y0655800D01*
X0398748Y0654550D01*
X0399998D01*
X0398748Y0653300D02*
X0399998Y0654550D01*
X0398748Y0653300D02*
X0399998Y0652050D01*
X0398748D02*
X0399998D01*
X0397498Y0650800D02*
X0398748Y0652050D01*
X0400775D02*
X0402025Y0650800D01*
X0399525Y0652050D02*
X0400775D01*
X0399525D02*
X0400775Y0653300D01*
X0399525Y0654550D02*
X0400775Y0653300D01*
X0399525Y0654550D02*
X0400775D01*
X0402025Y0655800D01*
X0403275Y0654550D01*
X0404525D01*
X0403275Y0653300D02*
X0404525Y0654550D01*
X0403275Y0653300D02*
X0404525Y0652050D01*
X0403275D02*
X0404525D01*
X0402025Y0650800D02*
X0403275Y0652050D01*
X0396248Y0646814D02*
X0397498Y0645564D01*
X0394998Y0646814D02*
X0396248D01*
X0394998D02*
X0396248Y0648064D01*
X0394998Y0649314D02*
X0396248Y0648064D01*
X0394998Y0649314D02*
X0396248D01*
X0397498Y0650564D01*
X0398748Y0649314D01*
X0399998D01*
X0398748Y0648064D02*
X0399998Y0649314D01*
X0398748Y0648064D02*
X0399998Y0646814D01*
X0398748D02*
X0399998D01*
X0397498Y0645564D02*
X0398748Y0646814D01*
X0400775D02*
X0402025Y0645564D01*
X0399525Y0646814D02*
X0400775D01*
X0399525D02*
X0400775Y0648064D01*
X0399525Y0649314D02*
X0400775Y0648064D01*
X0399525Y0649314D02*
X0400775D01*
X0402025Y0650564D01*
X0403275Y0649314D01*
X0404525D01*
X0403275Y0648064D02*
X0404525Y0649314D01*
X0403275Y0648064D02*
X0404525Y0646814D01*
X0403275D02*
X0404525D01*
X0402025Y0645564D02*
X0403275Y0646814D01*
X0216719Y0254000D02*
X0219219Y0259000D01*
X0214219D02*
X0219219D01*
X0214219D02*
X0216719Y0254000D01*
X0230719Y0235000D02*
X0233219Y0240000D01*
X0228219D02*
X0233219D01*
X0228219D02*
X0230719Y0235000D01*
X0255019Y0222000D02*
X0257519Y0227000D01*
X0252519D02*
X0257519D01*
X0252519D02*
X0255019Y0222000D01*
X0235519Y0223100D02*
X0238019Y0228100D01*
X0233019D02*
X0238019D01*
X0233019D02*
X0235519Y0223100D01*
X0423554Y0210900D02*
X0426054Y0212150D01*
X0428554Y0210900D01*
X0427304Y0213400D02*
X0428554Y0210900D01*
X0427304Y0213400D02*
X0428554Y0215900D01*
X0426054Y0214650D02*
X0428554Y0215900D01*
X0423554D02*
X0426054Y0214650D01*
X0423554Y0215900D02*
X0424804Y0213400D01*
X0423554Y0210900D02*
X0424804Y0213400D01*
X0423554Y0686711D02*
X0426054Y0687961D01*
X0428554Y0686711D01*
X0427304Y0689211D02*
X0428554Y0686711D01*
X0427304Y0689211D02*
X0428554Y0691711D01*
X0426054Y0690461D02*
X0428554Y0691711D01*
X0423554D02*
X0426054Y0690461D01*
X0423554Y0691711D02*
X0424804Y0689211D01*
X0423554Y0686711D02*
X0424804Y0689211D01*
X0136719Y0686711D02*
X0139219Y0687961D01*
X0141719Y0686711D01*
X0140469Y0689211D02*
X0141719Y0686711D01*
X0140469Y0689211D02*
X0141719Y0691711D01*
X0139219Y0690461D02*
X0141719Y0691711D01*
X0136719D02*
X0139219Y0690461D01*
X0136719Y0691711D02*
X0137969Y0689211D01*
X0136719Y0686711D02*
X0137969Y0689211D01*
X0136719Y0210900D02*
X0139219Y0212150D01*
X0141719Y0210900D01*
X0140469Y0213400D02*
X0141719Y0210900D01*
X0140469Y0213400D02*
X0141719Y0215900D01*
X0139219Y0214650D02*
X0141719Y0215900D01*
X0136719D02*
X0139219Y0214650D01*
X0136719Y0215900D02*
X0137969Y0213400D01*
X0136719Y0210900D02*
X0137969Y0213400D01*
X0266655Y0615500D02*
X0271655D01*
Y0620500D01*
X0266655D02*
X0271655D01*
X0266655Y0615500D02*
Y0620500D01*
X0296183Y0615500D02*
X0301183D01*
Y0620500D01*
X0296183D02*
X0301183D01*
X0296183Y0615500D02*
Y0620500D01*
X0211691Y0411400D02*
X0216691D01*
Y0416400D01*
X0211691D02*
X0216691D01*
X0211691Y0411400D02*
Y0416400D01*
X0241219Y0411400D02*
X0246219D01*
Y0416400D01*
X0241219D02*
X0246219D01*
X0241219Y0411400D02*
Y0416400D01*
X0364619Y0206600D02*
X0366119Y0207350D01*
X0367619Y0206600D01*
X0366869Y0208100D02*
X0367619Y0206600D01*
X0366869Y0208100D02*
X0367619Y0209600D01*
X0366119Y0208850D02*
X0367619Y0209600D01*
X0364619D02*
X0366119Y0208850D01*
X0364619Y0209600D02*
X0365369Y0208100D01*
X0364619Y0206600D02*
X0365369Y0208100D01*
X0363619Y0205600D02*
X0366119Y0206850D01*
X0368619Y0205600D01*
X0367369Y0208100D02*
X0368619Y0205600D01*
X0367369Y0208100D02*
X0368619Y0210600D01*
X0366119Y0209350D02*
X0368619Y0210600D01*
X0363619D02*
X0366119Y0209350D01*
X0363619Y0210600D02*
X0364869Y0208100D01*
X0363619Y0205600D02*
X0364869Y0208100D01*
X0354619Y0206600D02*
X0356119Y0207350D01*
X0357619Y0206600D01*
X0356869Y0208100D02*
X0357619Y0206600D01*
X0356869Y0208100D02*
X0357619Y0209600D01*
X0356119Y0208850D02*
X0357619Y0209600D01*
X0354619D02*
X0356119Y0208850D01*
X0354619Y0209600D02*
X0355369Y0208100D01*
X0354619Y0206600D02*
X0355369Y0208100D01*
X0353619Y0205600D02*
X0356119Y0206850D01*
X0358619Y0205600D01*
X0357369Y0208100D02*
X0358619Y0205600D01*
X0357369Y0208100D02*
X0358619Y0210600D01*
X0356119Y0209350D02*
X0358619Y0210600D01*
X0353619D02*
X0356119Y0209350D01*
X0353619Y0210600D02*
X0354869Y0208100D01*
X0353619Y0205600D02*
X0354869Y0208100D01*
X0344619Y0206600D02*
X0346119Y0207350D01*
X0347619Y0206600D01*
X0346869Y0208100D02*
X0347619Y0206600D01*
X0346869Y0208100D02*
X0347619Y0209600D01*
X0346119Y0208850D02*
X0347619Y0209600D01*
X0344619D02*
X0346119Y0208850D01*
X0344619Y0209600D02*
X0345369Y0208100D01*
X0344619Y0206600D02*
X0345369Y0208100D01*
X0343619Y0205600D02*
X0346119Y0206850D01*
X0348619Y0205600D01*
X0347369Y0208100D02*
X0348619Y0205600D01*
X0347369Y0208100D02*
X0348619Y0210600D01*
X0346119Y0209350D02*
X0348619Y0210600D01*
X0343619D02*
X0346119Y0209350D01*
X0343619Y0210600D02*
X0344869Y0208100D01*
X0343619Y0205600D02*
X0344869Y0208100D01*
X0334619Y0206600D02*
X0336119Y0207350D01*
X0337619Y0206600D01*
X0336869Y0208100D02*
X0337619Y0206600D01*
X0336869Y0208100D02*
X0337619Y0209600D01*
X0336119Y0208850D02*
X0337619Y0209600D01*
X0334619D02*
X0336119Y0208850D01*
X0334619Y0209600D02*
X0335369Y0208100D01*
X0334619Y0206600D02*
X0335369Y0208100D01*
X0333619Y0205600D02*
X0336119Y0206850D01*
X0338619Y0205600D01*
X0337369Y0208100D02*
X0338619Y0205600D01*
X0337369Y0208100D02*
X0338619Y0210600D01*
X0336119Y0209350D02*
X0338619Y0210600D01*
X0333619D02*
X0336119Y0209350D01*
X0333619Y0210600D02*
X0334869Y0208100D01*
X0333619Y0205600D02*
X0334869Y0208100D01*
X0294619Y0206600D02*
X0296119Y0207350D01*
X0297619Y0206600D01*
X0296869Y0208100D02*
X0297619Y0206600D01*
X0296869Y0208100D02*
X0297619Y0209600D01*
X0296119Y0208850D02*
X0297619Y0209600D01*
X0294619D02*
X0296119Y0208850D01*
X0294619Y0209600D02*
X0295369Y0208100D01*
X0294619Y0206600D02*
X0295369Y0208100D01*
X0293619Y0205600D02*
X0296119Y0206850D01*
X0298619Y0205600D01*
X0297369Y0208100D02*
X0298619Y0205600D01*
X0297369Y0208100D02*
X0298619Y0210600D01*
X0296119Y0209350D02*
X0298619Y0210600D01*
X0293619D02*
X0296119Y0209350D01*
X0293619Y0210600D02*
X0294869Y0208100D01*
X0293619Y0205600D02*
X0294869Y0208100D01*
X0304619Y0206600D02*
X0306119Y0207350D01*
X0307619Y0206600D01*
X0306869Y0208100D02*
X0307619Y0206600D01*
X0306869Y0208100D02*
X0307619Y0209600D01*
X0306119Y0208850D02*
X0307619Y0209600D01*
X0304619D02*
X0306119Y0208850D01*
X0304619Y0209600D02*
X0305369Y0208100D01*
X0304619Y0206600D02*
X0305369Y0208100D01*
X0303619Y0205600D02*
X0306119Y0206850D01*
X0308619Y0205600D01*
X0307369Y0208100D02*
X0308619Y0205600D01*
X0307369Y0208100D02*
X0308619Y0210600D01*
X0306119Y0209350D02*
X0308619Y0210600D01*
X0303619D02*
X0306119Y0209350D01*
X0303619Y0210600D02*
X0304869Y0208100D01*
X0303619Y0205600D02*
X0304869Y0208100D01*
X0314619Y0206600D02*
X0316119Y0207350D01*
X0317619Y0206600D01*
X0316869Y0208100D02*
X0317619Y0206600D01*
X0316869Y0208100D02*
X0317619Y0209600D01*
X0316119Y0208850D02*
X0317619Y0209600D01*
X0314619D02*
X0316119Y0208850D01*
X0314619Y0209600D02*
X0315369Y0208100D01*
X0314619Y0206600D02*
X0315369Y0208100D01*
X0313619Y0205600D02*
X0316119Y0206850D01*
X0318619Y0205600D01*
X0317369Y0208100D02*
X0318619Y0205600D01*
X0317369Y0208100D02*
X0318619Y0210600D01*
X0316119Y0209350D02*
X0318619Y0210600D01*
X0313619D02*
X0316119Y0209350D01*
X0313619Y0210600D02*
X0314869Y0208100D01*
X0313619Y0205600D02*
X0314869Y0208100D01*
X0324619Y0206600D02*
X0326119Y0207350D01*
X0327619Y0206600D01*
X0326869Y0208100D02*
X0327619Y0206600D01*
X0326869Y0208100D02*
X0327619Y0209600D01*
X0326119Y0208850D02*
X0327619Y0209600D01*
X0324619D02*
X0326119Y0208850D01*
X0324619Y0209600D02*
X0325369Y0208100D01*
X0324619Y0206600D02*
X0325369Y0208100D01*
X0323619Y0205600D02*
X0326119Y0206850D01*
X0328619Y0205600D01*
X0327369Y0208100D02*
X0328619Y0205600D01*
X0327369Y0208100D02*
X0328619Y0210600D01*
X0326119Y0209350D02*
X0328619Y0210600D01*
X0323619D02*
X0326119Y0209350D01*
X0323619Y0210600D02*
X0324869Y0208100D01*
X0323619Y0205600D02*
X0324869Y0208100D01*
X0244119Y0264000D02*
X0245619Y0264750D01*
X0247119Y0264000D01*
X0246369Y0265500D02*
X0247119Y0264000D01*
X0246369Y0265500D02*
X0247119Y0267000D01*
X0245619Y0266250D02*
X0247119Y0267000D01*
X0244119D02*
X0245619Y0266250D01*
X0244119Y0267000D02*
X0244869Y0265500D01*
X0244119Y0264000D02*
X0244869Y0265500D01*
X0243119Y0263000D02*
X0245619Y0264250D01*
X0248119Y0263000D01*
X0246869Y0265500D02*
X0248119Y0263000D01*
X0246869Y0265500D02*
X0248119Y0268000D01*
X0245619Y0266750D02*
X0248119Y0268000D01*
X0243119D02*
X0245619Y0266750D01*
X0243119Y0268000D02*
X0244369Y0265500D01*
X0243119Y0263000D02*
X0244369Y0265500D01*
X0244119Y0254000D02*
X0245619Y0254750D01*
X0247119Y0254000D01*
X0246369Y0255500D02*
X0247119Y0254000D01*
X0246369Y0255500D02*
X0247119Y0257000D01*
X0245619Y0256250D02*
X0247119Y0257000D01*
X0244119D02*
X0245619Y0256250D01*
X0244119Y0257000D02*
X0244869Y0255500D01*
X0244119Y0254000D02*
X0244869Y0255500D01*
X0243119Y0253000D02*
X0245619Y0254250D01*
X0248119Y0253000D01*
X0246869Y0255500D02*
X0248119Y0253000D01*
X0246869Y0255500D02*
X0248119Y0258000D01*
X0245619Y0256750D02*
X0248119Y0258000D01*
X0243119D02*
X0245619Y0256750D01*
X0243119Y0258000D02*
X0244369Y0255500D01*
X0243119Y0253000D02*
X0244369Y0255500D01*
X0244119Y0244000D02*
X0245619Y0244750D01*
X0247119Y0244000D01*
X0246369Y0245500D02*
X0247119Y0244000D01*
X0246369Y0245500D02*
X0247119Y0247000D01*
X0245619Y0246250D02*
X0247119Y0247000D01*
X0244119D02*
X0245619Y0246250D01*
X0244119Y0247000D02*
X0244869Y0245500D01*
X0244119Y0244000D02*
X0244869Y0245500D01*
X0243119Y0243000D02*
X0245619Y0244250D01*
X0248119Y0243000D01*
X0246869Y0245500D02*
X0248119Y0243000D01*
X0246869Y0245500D02*
X0248119Y0248000D01*
X0245619Y0246750D02*
X0248119Y0248000D01*
X0243119D02*
X0245619Y0246750D01*
X0243119Y0248000D02*
X0244369Y0245500D01*
X0243119Y0243000D02*
X0244369Y0245500D01*
X0244119Y0234000D02*
X0245619Y0234750D01*
X0247119Y0234000D01*
X0246369Y0235500D02*
X0247119Y0234000D01*
X0246369Y0235500D02*
X0247119Y0237000D01*
X0245619Y0236250D02*
X0247119Y0237000D01*
X0244119D02*
X0245619Y0236250D01*
X0244119Y0237000D02*
X0244869Y0235500D01*
X0244119Y0234000D02*
X0244869Y0235500D01*
X0243119Y0233000D02*
X0245619Y0234250D01*
X0248119Y0233000D01*
X0246869Y0235500D02*
X0248119Y0233000D01*
X0246869Y0235500D02*
X0248119Y0238000D01*
X0245619Y0236750D02*
X0248119Y0238000D01*
X0243119D02*
X0245619Y0236750D01*
X0243119Y0238000D02*
X0244369Y0235500D01*
X0243119Y0233000D02*
X0244369Y0235500D01*
X0214914Y0246300D02*
X0216414Y0247050D01*
X0217914Y0246300D01*
X0217164Y0247800D02*
X0217914Y0246300D01*
X0217164Y0247800D02*
X0217914Y0249300D01*
X0216414Y0248550D02*
X0217914Y0249300D01*
X0214914D02*
X0216414Y0248550D01*
X0214914Y0249300D02*
X0215664Y0247800D01*
X0214914Y0246300D02*
X0215664Y0247800D01*
X0213914Y0245300D02*
X0216414Y0246550D01*
X0218914Y0245300D01*
X0217664Y0247800D02*
X0218914Y0245300D01*
X0217664Y0247800D02*
X0218914Y0250300D01*
X0216414Y0249050D02*
X0218914Y0250300D01*
X0213914D02*
X0216414Y0249050D01*
X0213914Y0250300D02*
X0215164Y0247800D01*
X0213914Y0245300D02*
X0215164Y0247800D01*
X0204914Y0246300D02*
X0206414Y0247050D01*
X0207914Y0246300D01*
X0207164Y0247800D02*
X0207914Y0246300D01*
X0207164Y0247800D02*
X0207914Y0249300D01*
X0206414Y0248550D02*
X0207914Y0249300D01*
X0204914D02*
X0206414Y0248550D01*
X0204914Y0249300D02*
X0205664Y0247800D01*
X0204914Y0246300D02*
X0205664Y0247800D01*
X0203914Y0245300D02*
X0206414Y0246550D01*
X0208914Y0245300D01*
X0207664Y0247800D02*
X0208914Y0245300D01*
X0207664Y0247800D02*
X0208914Y0250300D01*
X0206414Y0249050D02*
X0208914Y0250300D01*
X0203914D02*
X0206414Y0249050D01*
X0203914Y0250300D02*
X0205164Y0247800D01*
X0203914Y0245300D02*
X0205164Y0247800D01*
X0194914Y0246300D02*
X0196414Y0247050D01*
X0197914Y0246300D01*
X0197164Y0247800D02*
X0197914Y0246300D01*
X0197164Y0247800D02*
X0197914Y0249300D01*
X0196414Y0248550D02*
X0197914Y0249300D01*
X0194914D02*
X0196414Y0248550D01*
X0194914Y0249300D02*
X0195664Y0247800D01*
X0194914Y0246300D02*
X0195664Y0247800D01*
X0193914Y0245300D02*
X0196414Y0246550D01*
X0198914Y0245300D01*
X0197664Y0247800D02*
X0198914Y0245300D01*
X0197664Y0247800D02*
X0198914Y0250300D01*
X0196414Y0249050D02*
X0198914Y0250300D01*
X0193914D02*
X0196414Y0249050D01*
X0193914Y0250300D02*
X0195164Y0247800D01*
X0193914Y0245300D02*
X0195164Y0247800D01*
X0214819Y0207200D02*
X0216319Y0207950D01*
X0217819Y0207200D01*
X0217069Y0208700D02*
X0217819Y0207200D01*
X0217069Y0208700D02*
X0217819Y0210200D01*
X0216319Y0209450D02*
X0217819Y0210200D01*
X0214819D02*
X0216319Y0209450D01*
X0214819Y0210200D02*
X0215569Y0208700D01*
X0214819Y0207200D02*
X0215569Y0208700D01*
X0213819Y0206200D02*
X0216319Y0207450D01*
X0218819Y0206200D01*
X0217569Y0208700D02*
X0218819Y0206200D01*
X0217569Y0208700D02*
X0218819Y0211200D01*
X0216319Y0209950D02*
X0218819Y0211200D01*
X0213819D02*
X0216319Y0209950D01*
X0213819Y0211200D02*
X0215069Y0208700D01*
X0213819Y0206200D02*
X0215069Y0208700D01*
X0224819Y0207200D02*
X0226319Y0207950D01*
X0227819Y0207200D01*
X0227069Y0208700D02*
X0227819Y0207200D01*
X0227069Y0208700D02*
X0227819Y0210200D01*
X0226319Y0209450D02*
X0227819Y0210200D01*
X0224819D02*
X0226319Y0209450D01*
X0224819Y0210200D02*
X0225569Y0208700D01*
X0224819Y0207200D02*
X0225569Y0208700D01*
X0223819Y0206200D02*
X0226319Y0207450D01*
X0228819Y0206200D01*
X0227569Y0208700D02*
X0228819Y0206200D01*
X0227569Y0208700D02*
X0228819Y0211200D01*
X0226319Y0209950D02*
X0228819Y0211200D01*
X0223819D02*
X0226319Y0209950D01*
X0223819Y0211200D02*
X0225069Y0208700D01*
X0223819Y0206200D02*
X0225069Y0208700D01*
X0234819Y0207200D02*
X0236319Y0207950D01*
X0237819Y0207200D01*
X0237069Y0208700D02*
X0237819Y0207200D01*
X0237069Y0208700D02*
X0237819Y0210200D01*
X0236319Y0209450D02*
X0237819Y0210200D01*
X0234819D02*
X0236319Y0209450D01*
X0234819Y0210200D02*
X0235569Y0208700D01*
X0234819Y0207200D02*
X0235569Y0208700D01*
X0233819Y0206200D02*
X0236319Y0207450D01*
X0238819Y0206200D01*
X0237569Y0208700D02*
X0238819Y0206200D01*
X0237569Y0208700D02*
X0238819Y0211200D01*
X0236319Y0209950D02*
X0238819Y0211200D01*
X0233819D02*
X0236319Y0209950D01*
X0233819Y0211200D02*
X0235069Y0208700D01*
X0233819Y0206200D02*
X0235069Y0208700D01*
X0244819Y0207200D02*
X0246319Y0207950D01*
X0247819Y0207200D01*
X0247069Y0208700D02*
X0247819Y0207200D01*
X0247069Y0208700D02*
X0247819Y0210200D01*
X0246319Y0209450D02*
X0247819Y0210200D01*
X0244819D02*
X0246319Y0209450D01*
X0244819Y0210200D02*
X0245569Y0208700D01*
X0244819Y0207200D02*
X0245569Y0208700D01*
X0243819Y0206200D02*
X0246319Y0207450D01*
X0248819Y0206200D01*
X0247569Y0208700D02*
X0248819Y0206200D01*
X0247569Y0208700D02*
X0248819Y0211200D01*
X0246319Y0209950D02*
X0248819Y0211200D01*
X0243819D02*
X0246319Y0209950D01*
X0243819Y0211200D02*
X0245069Y0208700D01*
X0243819Y0206200D02*
X0245069Y0208700D01*
X0283919Y0681200D02*
X0286419Y0678700D01*
X0288919Y0681200D01*
X0286419Y0683700D02*
X0288919Y0681200D01*
X0283919D02*
X0286419Y0683700D01*
X0258919Y0681200D02*
X0261419Y0678700D01*
X0263919Y0681200D01*
X0261419Y0683700D02*
X0263919Y0681200D01*
X0258919D02*
X0261419Y0683700D01*
X0143619Y0426500D02*
X0146119Y0424000D01*
X0148619Y0426500D01*
X0146119Y0429000D02*
X0148619Y0426500D01*
X0143619D02*
X0146119Y0429000D01*
X0143619Y0401500D02*
X0146119Y0399000D01*
X0148619Y0401500D01*
X0146119Y0404000D02*
X0148619Y0401500D01*
X0143619D02*
X0146119Y0404000D01*
X0385819Y0681200D02*
X0388319Y0678700D01*
X0390819Y0681200D01*
X0388319Y0683700D02*
X0390819Y0681200D01*
X0385819D02*
X0388319Y0683700D01*
X0360819Y0681200D02*
X0363319Y0678700D01*
X0365819Y0681200D01*
X0363319Y0683700D02*
X0365819Y0681200D01*
X0360819D02*
X0363319Y0683700D01*
X0306455Y0411400D02*
X0311455D01*
Y0416400D01*
X0306455D02*
X0311455D01*
X0306455Y0411400D02*
Y0416400D01*
X0335983Y0411400D02*
X0340983D01*
Y0416400D01*
X0335983D02*
X0340983D01*
X0335983Y0411400D02*
Y0416400D01*
G54D17*
X0348550Y0073498D02*
X0352549D01*
X0350549D01*
Y0067500D01*
X0354548Y0073498D02*
X0356547D01*
X0355548D01*
Y0067500D01*
X0354548D01*
X0356547D01*
X0359546Y0073498D02*
Y0067500D01*
X0362545D01*
X0363545Y0068500D01*
Y0072498D01*
X0362545Y0073498D01*
X0359546D01*
X0365545Y0067500D02*
Y0071499D01*
X0367544Y0073498D01*
X0369543Y0071499D01*
Y0067500D01*
Y0070499D01*
X0365545D01*
X0371543D02*
X0375541D01*
X0377541Y0072498D02*
X0378540Y0073498D01*
X0380540D01*
X0381539Y0072498D01*
Y0068500D01*
X0380540Y0067500D01*
X0378540D01*
X0377541Y0068500D01*
Y0072498D01*
X0383539Y0067500D02*
X0385538D01*
X0384538D01*
Y0073498D01*
X0383539Y0072498D01*
X0388537D02*
X0389537Y0073498D01*
X0391536D01*
X0392536Y0072498D01*
Y0068500D01*
X0391536Y0067500D01*
X0389537D01*
X0388537Y0068500D01*
Y0072498D01*
X0394535D02*
X0395535Y0073498D01*
X0397534D01*
X0398534Y0072498D01*
Y0068500D01*
X0397534Y0067500D01*
X0395535D01*
X0394535Y0068500D01*
Y0072498D01*
X0403532Y0067500D02*
Y0073498D01*
X0400533Y0070499D01*
X0404532D01*
X0410530Y0067500D02*
X0406531D01*
X0410530Y0071499D01*
Y0072498D01*
X0409530Y0073498D01*
X0407531D01*
X0406531Y0072498D01*
X0294000Y0073498D02*
X0297999D01*
X0295999D01*
Y0067500D01*
X0299998Y0073498D02*
X0301997D01*
X0300998D01*
Y0067500D01*
X0299998D01*
X0301997D01*
X0304996Y0073498D02*
Y0067500D01*
X0307996D01*
X0308995Y0068500D01*
Y0072498D01*
X0307996Y0073498D01*
X0304996D01*
X0317992Y0067500D02*
Y0073498D01*
X0319992D02*
Y0067500D01*
X0316993Y0071499D02*
X0319992D01*
X0320991D01*
X0316993Y0069499D02*
X0320991D01*
X0322991Y0071499D02*
X0323990D01*
Y0070499D01*
X0322991D01*
Y0071499D01*
Y0068500D02*
X0323990D01*
Y0067500D01*
X0322991D01*
Y0068500D01*
X0580500Y0052965D02*
X0584499D01*
X0582499D01*
Y0046966D01*
X0590497Y0052965D02*
X0586498D01*
Y0046966D01*
X0590497D01*
X0586498Y0049966D02*
X0588497D01*
X0592496Y0052965D02*
X0596495Y0046966D01*
Y0052965D02*
X0592496Y0046966D01*
X0598494D02*
Y0050965D01*
X0600493Y0052965D01*
X0602493Y0050965D01*
Y0046966D01*
Y0049966D01*
X0598494D01*
X0608491Y0051965D02*
X0607491Y0052965D01*
X0605492D01*
X0604492Y0051965D01*
Y0050965D01*
X0605492Y0049966D01*
X0607491D01*
X0608491Y0048966D01*
Y0047966D01*
X0607491Y0046966D01*
X0605492D01*
X0604492Y0047966D01*
X0616488Y0052965D02*
X0618488D01*
X0617488D01*
Y0046966D01*
X0616488D01*
X0618488D01*
X0621487D02*
Y0052965D01*
X0625486Y0046966D01*
Y0052965D01*
X0631484Y0051965D02*
X0630484Y0052965D01*
X0628484D01*
X0627485Y0051965D01*
Y0050965D01*
X0628484Y0049966D01*
X0630484D01*
X0631484Y0048966D01*
Y0047966D01*
X0630484Y0046966D01*
X0628484D01*
X0627485Y0047966D01*
X0633483Y0052965D02*
X0637482D01*
X0635482D01*
Y0046966D01*
X0639481D02*
Y0052965D01*
X0642480D01*
X0643480Y0051965D01*
Y0049966D01*
X0642480Y0048966D01*
X0639481D01*
X0641480D02*
X0643480Y0046966D01*
X0645479Y0052965D02*
Y0047966D01*
X0646479Y0046966D01*
X0648478D01*
X0649478Y0047966D01*
Y0052965D01*
X0651477Y0046966D02*
Y0052965D01*
X0653476Y0050965D01*
X0655476Y0052965D01*
Y0046966D01*
X0661474Y0052965D02*
X0657475D01*
Y0046966D01*
X0661474D01*
X0657475Y0049966D02*
X0659474D01*
X0663473Y0046966D02*
Y0052965D01*
X0667472Y0046966D01*
Y0052965D01*
X0669471D02*
X0673470D01*
X0671471D01*
Y0046966D01*
X0679468Y0051965D02*
X0678468Y0052965D01*
X0676469D01*
X0675469Y0051965D01*
Y0050965D01*
X0676469Y0049966D01*
X0678468D01*
X0679468Y0048966D01*
Y0047966D01*
X0678468Y0046966D01*
X0676469D01*
X0675469Y0047966D01*
X0454050Y0051965D02*
X0455050Y0052965D01*
X0457049D01*
X0458049Y0051965D01*
Y0050965D01*
X0457049Y0049966D01*
X0458049Y0048966D01*
Y0047966D01*
X0457049Y0046966D01*
X0455050D01*
X0454050Y0047966D01*
Y0048966D01*
X0455050Y0049966D01*
X0454050Y0050965D01*
Y0051965D01*
X0455050Y0049966D02*
X0457049D01*
X0460048Y0050965D02*
X0461048D01*
Y0049966D01*
X0460048D01*
Y0050965D01*
Y0047966D02*
X0461048D01*
Y0046966D01*
X0460048D01*
Y0047966D01*
X0468046Y0046966D02*
Y0052965D01*
X0465046Y0049966D01*
X0469045D01*
X0471044Y0051965D02*
X0472044Y0052965D01*
X0474044D01*
X0475043Y0051965D01*
Y0050965D01*
X0474044Y0049966D01*
X0475043Y0048966D01*
Y0047966D01*
X0474044Y0046966D01*
X0472044D01*
X0471044Y0047966D01*
Y0048966D01*
X0472044Y0049966D01*
X0471044Y0050965D01*
Y0051965D01*
X0472044Y0049966D02*
X0474044D01*
X0477043Y0050965D02*
X0478042D01*
Y0049966D01*
X0477043D01*
Y0050965D01*
Y0047966D02*
X0478042D01*
Y0046966D01*
X0477043D01*
Y0047966D01*
X0485040Y0046966D02*
Y0052965D01*
X0482041Y0049966D01*
X0486040D01*
X0488039Y0052965D02*
X0492038D01*
Y0051965D01*
X0488039Y0047966D01*
Y0046966D01*
X0500035D02*
Y0050965D01*
X0502035Y0052965D01*
X0504034Y0050965D01*
Y0046966D01*
Y0049966D01*
X0500035D01*
X0506033Y0046966D02*
Y0052965D01*
X0508033Y0050965D01*
X0510032Y0052965D01*
Y0046966D01*
X0046350D02*
Y0052965D01*
X0049349D01*
X0050349Y0051965D01*
Y0049966D01*
X0049349Y0048966D01*
X0046350D01*
X0052348Y0052965D02*
Y0046966D01*
X0056347D01*
X0061345Y0052965D02*
X0059346D01*
X0058346Y0051965D01*
Y0047966D01*
X0059346Y0046966D01*
X0061345D01*
X0062345Y0047966D01*
Y0051965D01*
X0061345Y0052965D01*
X0064344D02*
X0068343D01*
X0066343D01*
Y0046966D01*
X0076340D02*
Y0052965D01*
X0080339Y0046966D01*
Y0052965D01*
X0082338Y0046966D02*
Y0050965D01*
X0084338Y0052965D01*
X0086337Y0050965D01*
Y0046966D01*
Y0049966D01*
X0082338D01*
X0088336Y0046966D02*
Y0052965D01*
X0090336Y0050965D01*
X0092335Y0052965D01*
Y0046966D01*
X0098333Y0052965D02*
X0094335D01*
Y0046966D01*
X0098333D01*
X0094335Y0049966D02*
X0096334D01*
X0106331Y0048966D02*
X0110329D01*
X0106331Y0050965D02*
X0110329D01*
X0046350Y0073549D02*
Y0067551D01*
X0050349D01*
X0052348D02*
Y0071549D01*
X0054347Y0073549D01*
X0056347Y0071549D01*
Y0067551D01*
Y0070550D01*
X0052348D01*
X0058346Y0073549D02*
Y0072549D01*
X0060346Y0070550D01*
X0062345Y0072549D01*
Y0073549D01*
X0060346Y0070550D02*
Y0067551D01*
X0068343Y0073549D02*
X0064344D01*
Y0067551D01*
X0068343D01*
X0064344Y0070550D02*
X0066343D01*
X0070342Y0067551D02*
Y0073549D01*
X0073341D01*
X0074341Y0072549D01*
Y0070550D01*
X0073341Y0069550D01*
X0070342D01*
X0072342D02*
X0074341Y0067551D01*
X0082338D02*
Y0073549D01*
X0086337Y0067551D01*
Y0073549D01*
X0088336Y0067551D02*
Y0071549D01*
X0090336Y0073549D01*
X0092335Y0071549D01*
Y0067551D01*
Y0070550D01*
X0088336D01*
X0094335Y0067551D02*
Y0073549D01*
X0096334Y0071549D01*
X0098333Y0073549D01*
Y0067551D01*
X0104331Y0073549D02*
X0100332D01*
Y0067551D01*
X0104331D01*
X0100332Y0070550D02*
X0102332D01*
X0112329Y0069550D02*
X0116327D01*
X0112329Y0071549D02*
X0116327D01*
X0294000Y0093831D02*
Y0087833D01*
X0296999D01*
X0297999Y0088833D01*
Y0089833D01*
X0296999Y0090832D01*
X0294000D01*
X0296999D01*
X0297999Y0091832D01*
Y0092832D01*
X0296999Y0093831D01*
X0294000D01*
X0302997D02*
X0300998D01*
X0299998Y0092832D01*
Y0088833D01*
X0300998Y0087833D01*
X0302997D01*
X0303997Y0088833D01*
Y0092832D01*
X0302997Y0093831D01*
X0305996Y0087833D02*
Y0091832D01*
X0307996Y0093831D01*
X0309995Y0091832D01*
Y0087833D01*
Y0090832D01*
X0305996D01*
X0311994Y0087833D02*
Y0093831D01*
X0314993D01*
X0315993Y0092832D01*
Y0090832D01*
X0314993Y0089833D01*
X0311994D01*
X0313994D02*
X0315993Y0087833D01*
X0317992Y0093831D02*
Y0087833D01*
X0320991D01*
X0321991Y0088833D01*
Y0092832D01*
X0320991Y0093831D01*
X0317992D01*
X0330988Y0087833D02*
Y0093831D01*
X0332987D02*
Y0087833D01*
X0329988Y0091832D02*
X0332987D01*
X0333987D01*
X0329988Y0089833D02*
X0333987D01*
X0335986Y0091832D02*
X0336986D01*
Y0090832D01*
X0335986D01*
Y0091832D01*
Y0088833D02*
X0336986D01*
Y0087833D01*
X0335986D01*
Y0088833D01*
X0348550Y0093831D02*
X0352549D01*
X0350549D01*
Y0087833D01*
X0354548Y0093831D02*
X0356547D01*
X0355548D01*
Y0087833D01*
X0354548D01*
X0356547D01*
X0359546Y0093831D02*
Y0087833D01*
X0362545D01*
X0363545Y0088833D01*
Y0092832D01*
X0362545Y0093831D01*
X0359546D01*
X0365545Y0087833D02*
Y0091832D01*
X0367544Y0093831D01*
X0369543Y0091832D01*
Y0087833D01*
Y0090832D01*
X0365545D01*
X0371543D02*
X0375541D01*
X0377541Y0092832D02*
X0378540Y0093831D01*
X0380540D01*
X0381539Y0092832D01*
Y0088833D01*
X0380540Y0087833D01*
X0378540D01*
X0377541Y0088833D01*
Y0092832D01*
X0383539Y0087833D02*
X0385538D01*
X0384538D01*
Y0093831D01*
X0383539Y0092832D01*
X0388537D02*
X0389537Y0093831D01*
X0391536D01*
X0392536Y0092832D01*
Y0088833D01*
X0391536Y0087833D01*
X0389537D01*
X0388537Y0088833D01*
Y0092832D01*
X0394535D02*
X0395535Y0093831D01*
X0397534D01*
X0398534Y0092832D01*
Y0088833D01*
X0397534Y0087833D01*
X0395535D01*
X0394535Y0088833D01*
Y0092832D01*
X0403532Y0087833D02*
Y0093831D01*
X0400533Y0090832D01*
X0404532D01*
X0410530Y0087833D02*
X0406531D01*
X0410530Y0091832D01*
Y0092832D01*
X0409530Y0093831D01*
X0407531D01*
X0406531Y0092832D01*
X0466149Y0093831D02*
X0462150D01*
Y0087833D01*
X0466149D01*
X0462150Y0090832D02*
X0464149D01*
X0472147Y0087833D02*
X0468148D01*
X0472147Y0091832D01*
Y0092832D01*
X0471147Y0093831D01*
X0469148D01*
X0468148Y0092832D01*
X0046350Y0087833D02*
Y0091832D01*
X0048349Y0093831D01*
X0050349Y0091832D01*
Y0087833D01*
Y0090832D01*
X0046350D01*
X0052348Y0093831D02*
Y0087833D01*
X0056347D01*
X0058346Y0093831D02*
Y0087833D01*
X0062345D01*
X0070342D02*
Y0091832D01*
X0072342Y0093831D01*
X0074341Y0091832D01*
Y0087833D01*
Y0090832D01*
X0070342D01*
X0076340Y0087833D02*
Y0093831D01*
X0079339D01*
X0080339Y0092832D01*
Y0090832D01*
X0079339Y0089833D01*
X0076340D01*
X0078340D02*
X0080339Y0087833D01*
X0082338Y0093831D02*
X0086337D01*
X0084338D01*
Y0087833D01*
X0088336Y0093831D02*
Y0087833D01*
X0090336Y0089833D01*
X0092335Y0087833D01*
Y0093831D01*
X0097334D02*
X0095334D01*
X0094335Y0092832D01*
Y0088833D01*
X0095334Y0087833D01*
X0097334D01*
X0098333Y0088833D01*
Y0092832D01*
X0097334Y0093831D01*
X0100332Y0087833D02*
Y0093831D01*
X0103332D01*
X0104331Y0092832D01*
Y0090832D01*
X0103332Y0089833D01*
X0100332D01*
X0102332D02*
X0104331Y0087833D01*
X0106331Y0093831D02*
Y0087833D01*
Y0089833D01*
X0110329Y0093831D01*
X0107330Y0090832D01*
X0110329Y0087833D01*
X0118327Y0093831D02*
Y0089833D01*
X0120326Y0087833D01*
X0122325Y0089833D01*
Y0093831D01*
X0124325D02*
X0126324D01*
X0125324D01*
Y0087833D01*
X0124325D01*
X0126324D01*
X0133322Y0093831D02*
X0129323D01*
Y0087833D01*
X0133322D01*
X0129323Y0090832D02*
X0131323D01*
X0135321Y0093831D02*
Y0087833D01*
X0137321Y0089833D01*
X0139320Y0087833D01*
Y0093831D01*
X0145318D02*
X0141319D01*
Y0087833D01*
X0145318D01*
X0141319Y0090832D02*
X0143319D01*
X0147317Y0093831D02*
Y0087833D01*
X0150316D01*
X0151316Y0088833D01*
Y0092832D01*
X0150316Y0093831D01*
X0147317D01*
X0163312D02*
X0159313D01*
Y0090832D01*
X0161313D01*
X0159313D01*
Y0087833D01*
X0165312D02*
Y0093831D01*
X0168310D01*
X0169310Y0092832D01*
Y0090832D01*
X0168310Y0089833D01*
X0165312D01*
X0167311D02*
X0169310Y0087833D01*
X0174309Y0093831D02*
X0172309D01*
X0171310Y0092832D01*
Y0088833D01*
X0172309Y0087833D01*
X0174309D01*
X0175308Y0088833D01*
Y0092832D01*
X0174309Y0093831D01*
X0177308Y0087833D02*
Y0093831D01*
X0179307Y0091832D01*
X0181306Y0093831D01*
Y0087833D01*
X0189304Y0093831D02*
X0193303D01*
X0191303D01*
Y0087833D01*
X0198301Y0093831D02*
X0196301D01*
X0195302Y0092832D01*
Y0088833D01*
X0196301Y0087833D01*
X0198301D01*
X0199301Y0088833D01*
Y0092832D01*
X0198301Y0093831D01*
X0201300Y0087833D02*
Y0093831D01*
X0204299D01*
X0205299Y0092832D01*
Y0090832D01*
X0204299Y0089833D01*
X0201300D01*
X0217295Y0092832D02*
X0216295Y0093831D01*
X0214296D01*
X0213296Y0092832D01*
Y0091832D01*
X0214296Y0090832D01*
X0216295D01*
X0217295Y0089833D01*
Y0088833D01*
X0216295Y0087833D01*
X0214296D01*
X0213296Y0088833D01*
X0219294Y0093831D02*
X0221293D01*
X0220294D01*
Y0087833D01*
X0219294D01*
X0221293D01*
X0224292Y0093831D02*
Y0087833D01*
X0227291D01*
X0228291Y0088833D01*
Y0092832D01*
X0227291Y0093831D01*
X0224292D01*
X0234289D02*
X0230291D01*
Y0087833D01*
X0234289D01*
X0230291Y0090832D02*
X0232290D01*
X0298199Y0051965D02*
X0297199Y0052965D01*
X0295200D01*
X0294200Y0051965D01*
Y0047966D01*
X0295200Y0046966D01*
X0297199D01*
X0298199Y0047966D01*
Y0049966D01*
X0296199D01*
X0304197Y0052965D02*
X0300198D01*
Y0046966D01*
X0304197D01*
X0300198Y0049966D02*
X0302197D01*
X0306196Y0046966D02*
Y0052965D01*
X0310195Y0046966D01*
Y0052965D01*
X0316193D02*
X0312194D01*
Y0046966D01*
X0316193D01*
X0312194Y0049966D02*
X0314194D01*
X0318192Y0046966D02*
Y0052965D01*
X0321191D01*
X0322191Y0051965D01*
Y0049966D01*
X0321191Y0048966D01*
X0318192D01*
X0320192D02*
X0322191Y0046966D01*
X0324190D02*
Y0050965D01*
X0326190Y0052965D01*
X0328189Y0050965D01*
Y0046966D01*
Y0049966D01*
X0324190D01*
X0330188Y0052965D02*
X0334187D01*
X0332188D01*
Y0046966D01*
X0340185Y0052965D02*
X0336186D01*
Y0046966D01*
X0340185D01*
X0336186Y0049966D02*
X0338186D01*
X0342184Y0052965D02*
Y0046966D01*
X0345183D01*
X0346183Y0047966D01*
Y0051965D01*
X0345183Y0052965D01*
X0342184D01*
X0372175Y0050965D02*
X0373175D01*
Y0049966D01*
X0372175D01*
Y0050965D01*
Y0047966D02*
X0373175D01*
Y0046966D01*
X0372175D01*
Y0047966D01*
X0381150Y0046966D02*
X0383149D01*
X0382150D01*
Y0052965D01*
X0381150Y0051965D01*
X0386148Y0046966D02*
X0388148D01*
X0387148D01*
Y0052965D01*
X0386148Y0051965D01*
X0391147Y0046966D02*
X0395146Y0050965D01*
X0397145Y0046966D02*
X0399144D01*
X0398145D01*
Y0052965D01*
X0397145Y0051965D01*
X0402143D02*
X0403143Y0052965D01*
X0405142D01*
X0406142Y0051965D01*
Y0050965D01*
X0405142Y0049966D01*
X0404143D01*
X0405142D01*
X0406142Y0048966D01*
Y0047966D01*
X0405142Y0046966D01*
X0403143D01*
X0402143Y0047966D01*
X0408141Y0046966D02*
X0412140Y0050965D01*
X0418138Y0046966D02*
X0414139D01*
X0418138Y0050965D01*
Y0051965D01*
X0417138Y0052965D01*
X0415139D01*
X0414139Y0051965D01*
X0420137D02*
X0421137Y0052965D01*
X0423136D01*
X0424136Y0051965D01*
Y0047966D01*
X0423136Y0046966D01*
X0421137D01*
X0420137Y0047966D01*
Y0051965D01*
X0426135Y0046966D02*
X0428135D01*
X0427135D01*
Y0052965D01*
X0426135Y0051965D01*
X0431134D02*
X0432133Y0052965D01*
X0434133D01*
X0435133Y0051965D01*
Y0050965D01*
X0434133Y0049966D01*
X0435133Y0048966D01*
Y0047966D01*
X0434133Y0046966D01*
X0432133D01*
X0431134Y0047966D01*
Y0048966D01*
X0432133Y0049966D01*
X0431134Y0050965D01*
Y0051965D01*
X0432133Y0049966D02*
X0434133D01*
X0433000Y0087833D02*
Y0093831D01*
X0435999D01*
X0436999Y0092832D01*
Y0090832D01*
X0435999Y0089833D01*
X0433000D01*
X0434999D02*
X0436999Y0087833D01*
X0442997Y0093831D02*
X0438998D01*
Y0087833D01*
X0442997D01*
X0438998Y0090832D02*
X0440997D01*
X0444996Y0093831D02*
Y0089833D01*
X0446995Y0087833D01*
X0448995Y0089833D01*
Y0093831D01*
X0450994Y0091832D02*
X0451994D01*
Y0090832D01*
X0450994D01*
Y0091832D01*
Y0088833D02*
X0451994D01*
Y0087833D01*
X0450994D01*
Y0088833D01*
X0520799Y0092832D02*
X0519799Y0093831D01*
X0517800D01*
X0516800Y0092832D01*
Y0091832D01*
X0517800Y0090832D01*
X0519799D01*
X0520799Y0089833D01*
Y0088833D01*
X0519799Y0087833D01*
X0517800D01*
X0516800Y0088833D01*
X0522798Y0093831D02*
Y0089833D01*
X0524797Y0087833D01*
X0526797Y0089833D01*
Y0093831D01*
X0528796Y0087833D02*
Y0093831D01*
X0532795Y0087833D01*
Y0093831D01*
X0540792Y0087833D02*
Y0093831D01*
X0543791D01*
X0544791Y0092832D01*
Y0090832D01*
X0543791Y0089833D01*
X0540792D01*
X0542792D02*
X0544791Y0087833D01*
X0550789Y0093831D02*
X0546790D01*
Y0087833D01*
X0550789D01*
X0546790Y0090832D02*
X0548790D01*
X0552788Y0093831D02*
Y0089833D01*
X0554788Y0087833D01*
X0556787Y0089833D01*
Y0093831D01*
X0558786Y0091832D02*
X0559786D01*
Y0090832D01*
X0558786D01*
Y0091832D01*
Y0088833D02*
X0559786D01*
Y0087833D01*
X0558786D01*
Y0088833D01*
X0567400Y0087833D02*
Y0093831D01*
X0571399Y0087833D01*
Y0093831D01*
X0574398Y0087833D02*
X0576397D01*
X0577397Y0088833D01*
Y0090832D01*
X0576397Y0091832D01*
X0574398D01*
X0573398Y0090832D01*
Y0088833D01*
X0574398Y0087833D01*
X0580396Y0092832D02*
Y0091832D01*
X0579396D01*
X0581395D01*
X0580396D01*
Y0088833D01*
X0581395Y0087833D01*
X0590393Y0093831D02*
X0592392D01*
X0591392D01*
Y0087833D01*
X0590393D01*
X0592392D01*
X0595391D02*
Y0091832D01*
X0598390D01*
X0599390Y0090832D01*
Y0087833D01*
X0607387Y0093831D02*
Y0089833D01*
X0609386Y0087833D01*
X0611386Y0089833D01*
Y0093831D01*
X0616384Y0087833D02*
X0614385D01*
X0613385Y0088833D01*
Y0090832D01*
X0614385Y0091832D01*
X0616384D01*
X0617384Y0090832D01*
Y0089833D01*
X0613385D01*
X0619383Y0091832D02*
Y0087833D01*
Y0089833D01*
X0620383Y0090832D01*
X0621383Y0091832D01*
X0622382D01*
X0625381Y0087833D02*
X0628380D01*
X0629380Y0088833D01*
X0628380Y0089833D01*
X0626381D01*
X0625381Y0090832D01*
X0626381Y0091832D01*
X0629380D01*
X0631379Y0087833D02*
X0633379D01*
X0632379D01*
Y0091832D01*
X0631379D01*
X0637377Y0087833D02*
X0639377D01*
X0640376Y0088833D01*
Y0090832D01*
X0639377Y0091832D01*
X0637377D01*
X0636378Y0090832D01*
Y0088833D01*
X0637377Y0087833D01*
X0642376D02*
Y0091832D01*
X0645375D01*
X0646374Y0090832D01*
Y0087833D01*
X0652373Y0092832D02*
X0651373Y0093831D01*
X0649373D01*
X0648374Y0092832D01*
Y0088833D01*
X0649373Y0087833D01*
X0651373D01*
X0652373Y0088833D01*
X0655372Y0087833D02*
X0657371D01*
X0658371Y0088833D01*
Y0090832D01*
X0657371Y0091832D01*
X0655372D01*
X0654372Y0090832D01*
Y0088833D01*
X0655372Y0087833D01*
X0660370D02*
Y0091832D01*
X0663369D01*
X0664369Y0090832D01*
Y0087833D01*
X0667368Y0092832D02*
Y0091832D01*
X0666368D01*
X0668367D01*
X0667368D01*
Y0088833D01*
X0668367Y0087833D01*
X0671366Y0091832D02*
Y0087833D01*
Y0089833D01*
X0672366Y0090832D01*
X0673366Y0091832D01*
X0674365D01*
X0678364Y0087833D02*
X0680364D01*
X0681363Y0088833D01*
Y0090832D01*
X0680364Y0091832D01*
X0678364D01*
X0677364Y0090832D01*
Y0088833D01*
X0678364Y0087833D01*
X0683362D02*
X0685362D01*
X0684362D01*
Y0093831D01*
X0683362D01*
X0519918Y0246698D02*
X0515919D01*
Y0243699D01*
X0517918D01*
X0515919D01*
Y0240700D01*
X0524916Y0246698D02*
X0522917D01*
X0521917Y0245698D01*
Y0241700D01*
X0522917Y0240700D01*
X0524916D01*
X0525916Y0241700D01*
Y0245698D01*
X0524916Y0246698D01*
X0527915Y0240700D02*
Y0246698D01*
X0530914D01*
X0531914Y0245698D01*
Y0243699D01*
X0530914Y0242699D01*
X0527915D01*
X0529914D02*
X0531914Y0240700D01*
X0539911Y0246698D02*
X0543910D01*
Y0245698D01*
X0539911Y0241700D01*
Y0240700D01*
X0545909D02*
Y0241700D01*
X0546909D01*
Y0240700D01*
X0545909D01*
X0550908Y0245698D02*
X0551907Y0246698D01*
X0553907D01*
X0554906Y0245698D01*
Y0244699D01*
X0553907Y0243699D01*
X0554906Y0242699D01*
Y0241700D01*
X0553907Y0240700D01*
X0551907D01*
X0550908Y0241700D01*
Y0242699D01*
X0551907Y0243699D01*
X0550908Y0244699D01*
Y0245698D01*
X0551907Y0243699D02*
X0553907D01*
X0556906Y0246698D02*
X0560904D01*
Y0245698D01*
X0556906Y0241700D01*
Y0240700D01*
X0565903D02*
Y0246698D01*
X0562904Y0243699D01*
X0566902D01*
X0568902Y0240700D02*
Y0246698D01*
X0570901Y0244699D01*
X0572900Y0246698D01*
Y0240700D01*
X0574900Y0246698D02*
X0576899D01*
X0575900D01*
Y0240700D01*
X0574900D01*
X0576899D01*
X0579898Y0246698D02*
Y0240700D01*
X0583897D01*
X0591894Y0246698D02*
Y0240700D01*
X0594893D01*
X0595893Y0241700D01*
Y0245698D01*
X0594893Y0246698D01*
X0591894D01*
X0597892Y0240700D02*
Y0246698D01*
X0600891D01*
X0601891Y0245698D01*
Y0243699D01*
X0600891Y0242699D01*
X0597892D01*
X0599892D02*
X0601891Y0240700D01*
X0603890Y0246698D02*
X0605890D01*
X0604890D01*
Y0240700D01*
X0603890D01*
X0605890D01*
X0608889Y0246698D02*
Y0240700D01*
X0612887D01*
X0614887Y0246698D02*
Y0240700D01*
X0618886D01*
X0626883Y0243699D02*
X0630882D01*
X0628882Y0245698D02*
Y0241700D01*
X0632881Y0245698D02*
X0633881Y0246698D01*
X0635880D01*
X0636880Y0245698D01*
Y0241700D01*
X0635880Y0240700D01*
X0633881D01*
X0632881Y0241700D01*
Y0245698D01*
X0638879Y0240700D02*
X0642878Y0244699D01*
X0644877Y0243699D02*
X0648876D01*
X0650875Y0246698D02*
X0654874D01*
Y0245698D01*
X0650875Y0241700D01*
Y0240700D01*
X0656873D02*
Y0241700D01*
X0657873D01*
Y0240700D01*
X0656873D01*
X0661872Y0245698D02*
X0662871Y0246698D01*
X0664871D01*
X0665870Y0245698D01*
Y0244699D01*
X0664871Y0243699D01*
X0665870Y0242699D01*
Y0241700D01*
X0664871Y0240700D01*
X0662871D01*
X0661872Y0241700D01*
Y0242699D01*
X0662871Y0243699D01*
X0661872Y0244699D01*
Y0245698D01*
X0662871Y0243699D02*
X0664871D01*
X0667870Y0246698D02*
X0671868D01*
Y0245698D01*
X0667870Y0241700D01*
Y0240700D01*
X0676867D02*
Y0246698D01*
X0673868Y0243699D01*
X0677867D01*
X0679866Y0240700D02*
Y0246698D01*
X0681865Y0244699D01*
X0683865Y0246698D01*
Y0240700D01*
X0685864Y0246698D02*
X0687863D01*
X0686864D01*
Y0240700D01*
X0685864D01*
X0687863D01*
X0690862Y0246698D02*
Y0240700D01*
X0694861D01*
X0126900Y0073549D02*
Y0067551D01*
X0129899D01*
X0130899Y0068550D01*
Y0072549D01*
X0129899Y0073549D01*
X0126900D01*
X0132898Y0071549D02*
Y0067551D01*
Y0069550D01*
X0133898Y0070550D01*
X0134897Y0071549D01*
X0135897D01*
X0138896Y0067551D02*
X0140895D01*
X0139896D01*
Y0071549D01*
X0138896D01*
X0143895Y0067551D02*
X0145894D01*
X0144894D01*
Y0073549D01*
X0143895D01*
X0148893Y0067551D02*
X0150892D01*
X0149893D01*
Y0073549D01*
X0148893D01*
X0159889D02*
Y0067551D01*
X0162888D01*
X0163888Y0068550D01*
Y0072549D01*
X0162888Y0073549D01*
X0159889D01*
X0165887Y0071549D02*
Y0067551D01*
Y0069550D01*
X0166887Y0070550D01*
X0167887Y0071549D01*
X0168886D01*
X0172885D02*
X0174884D01*
X0175884Y0070550D01*
Y0067551D01*
X0172885D01*
X0171885Y0068550D01*
X0172885Y0069550D01*
X0175884D01*
X0177884Y0071549D02*
Y0068550D01*
X0178883Y0067551D01*
X0179883Y0068550D01*
X0180883Y0067551D01*
X0181882Y0068550D01*
Y0071549D01*
X0183882Y0067551D02*
X0185881D01*
X0184881D01*
Y0071549D01*
X0183882D01*
X0188880Y0067551D02*
Y0071549D01*
X0191879D01*
X0192879Y0070550D01*
Y0067551D01*
X0196877Y0065551D02*
X0197877D01*
X0198877Y0066551D01*
Y0071549D01*
X0195878D01*
X0194878Y0070550D01*
Y0068550D01*
X0195878Y0067551D01*
X0198877D01*
X0519918Y0236798D02*
X0515919D01*
Y0233799D01*
X0517918D01*
X0515919D01*
Y0230800D01*
X0524916Y0236798D02*
X0522917D01*
X0521917Y0235798D01*
Y0231800D01*
X0522917Y0230800D01*
X0524916D01*
X0525916Y0231800D01*
Y0235798D01*
X0524916Y0236798D01*
X0527915Y0230800D02*
Y0236798D01*
X0530914D01*
X0531914Y0235798D01*
Y0233799D01*
X0530914Y0232799D01*
X0527915D01*
X0529914D02*
X0531914Y0230800D01*
X0539911D02*
X0541911D01*
X0540911D01*
Y0236798D01*
X0539911Y0235798D01*
X0548908Y0230800D02*
X0544909D01*
X0548908Y0234799D01*
Y0235798D01*
X0547908Y0236798D01*
X0545909D01*
X0544909Y0235798D01*
X0550908Y0230800D02*
Y0236798D01*
X0552907Y0234799D01*
X0554906Y0236798D01*
Y0230800D01*
X0556906Y0236798D02*
X0558905D01*
X0557905D01*
Y0230800D01*
X0556906D01*
X0558905D01*
X0561904Y0236798D02*
Y0230800D01*
X0565903D01*
X0573900Y0236798D02*
Y0230800D01*
X0576899D01*
X0577899Y0231800D01*
Y0235798D01*
X0576899Y0236798D01*
X0573900D01*
X0579898Y0230800D02*
Y0236798D01*
X0582897D01*
X0583897Y0235798D01*
Y0233799D01*
X0582897Y0232799D01*
X0579898D01*
X0581897D02*
X0583897Y0230800D01*
X0585896Y0236798D02*
X0587896D01*
X0586896D01*
Y0230800D01*
X0585896D01*
X0587896D01*
X0590895Y0236798D02*
Y0230800D01*
X0594893D01*
X0596893Y0236798D02*
Y0230800D01*
X0600891D01*
X0608889Y0233799D02*
X0612887D01*
X0610888Y0235798D02*
Y0231800D01*
X0614887Y0235798D02*
X0615886Y0236798D01*
X0617886D01*
X0618886Y0235798D01*
Y0231800D01*
X0617886Y0230800D01*
X0615886D01*
X0614887Y0231800D01*
Y0235798D01*
X0620885Y0230800D02*
X0624884Y0234799D01*
X0626883Y0233799D02*
X0630882D01*
X0632881Y0230800D02*
X0634880D01*
X0633881D01*
Y0236798D01*
X0632881Y0235798D01*
X0641878Y0230800D02*
X0637879D01*
X0641878Y0234799D01*
Y0235798D01*
X0640878Y0236798D01*
X0638879D01*
X0637879Y0235798D01*
X0643878Y0230800D02*
Y0236798D01*
X0645877Y0234799D01*
X0647876Y0236798D01*
Y0230800D01*
X0649876Y0236798D02*
X0651875D01*
X0650875D01*
Y0230800D01*
X0649876D01*
X0651875D01*
X0654874Y0236798D02*
Y0230800D01*
X0658873D01*
X0519468Y0225943D02*
X0515469D01*
Y0222944D01*
X0517469D01*
X0515469D01*
Y0219945D01*
X0524467Y0225943D02*
X0522467D01*
X0521467Y0224943D01*
Y0220945D01*
X0522467Y0219945D01*
X0524467D01*
X0525466Y0220945D01*
Y0224943D01*
X0524467Y0225943D01*
X0527465Y0219945D02*
Y0225943D01*
X0530465D01*
X0531464Y0224943D01*
Y0222944D01*
X0530465Y0221944D01*
X0527465D01*
X0529465D02*
X0531464Y0219945D01*
X0539462D02*
Y0225943D01*
X0542461D01*
X0543460Y0224943D01*
Y0222944D01*
X0542461Y0221944D01*
X0539462D01*
X0545460Y0225943D02*
X0549458D01*
X0547459D01*
Y0219945D01*
X0551458Y0225943D02*
Y0219945D01*
Y0222944D01*
X0555456D01*
Y0225943D01*
Y0219945D01*
X0563454Y0225943D02*
Y0219945D01*
X0566453D01*
X0567453Y0220945D01*
Y0224943D01*
X0566453Y0225943D01*
X0563454D01*
X0569452Y0219945D02*
Y0225943D01*
X0572451D01*
X0573451Y0224943D01*
Y0222944D01*
X0572451Y0221944D01*
X0569452D01*
X0571451D02*
X0573451Y0219945D01*
X0575450Y0225943D02*
X0577449D01*
X0576450D01*
Y0219945D01*
X0575450D01*
X0577449D01*
X0580448Y0225943D02*
Y0219945D01*
X0584447D01*
X0586446Y0225943D02*
Y0219945D01*
X0590445D01*
X0598443Y0222944D02*
X0602441D01*
X0600442Y0224943D02*
Y0220945D01*
X0604441Y0219945D02*
X0608439Y0223944D01*
X0610439Y0222944D02*
X0614437D01*
X0616437Y0224943D02*
X0617436Y0225943D01*
X0619436D01*
X0620435Y0224943D01*
Y0223944D01*
X0619436Y0222944D01*
X0618436D01*
X0619436D01*
X0620435Y0221944D01*
Y0220945D01*
X0619436Y0219945D01*
X0617436D01*
X0616437Y0220945D01*
X0622435Y0219945D02*
Y0225943D01*
X0624434Y0223944D01*
X0626434Y0225943D01*
Y0219945D01*
X0628433Y0225943D02*
X0630432D01*
X0629432D01*
Y0219945D01*
X0628433D01*
X0630432D01*
X0633431Y0225943D02*
Y0219945D01*
X0637430D01*
X0519895Y0217598D02*
X0515896D01*
Y0214599D01*
X0517895D01*
X0515896D01*
Y0211600D01*
X0524893Y0217598D02*
X0522894D01*
X0521894Y0216598D01*
Y0212600D01*
X0522894Y0211600D01*
X0524893D01*
X0525893Y0212600D01*
Y0216598D01*
X0524893Y0217598D01*
X0527892Y0211600D02*
Y0217598D01*
X0530891D01*
X0531891Y0216598D01*
Y0214599D01*
X0530891Y0213599D01*
X0527892D01*
X0529891D02*
X0531891Y0211600D01*
X0539888D02*
Y0217598D01*
X0543887Y0211600D01*
Y0217598D01*
X0545886Y0211600D02*
Y0217598D01*
X0548885D01*
X0549885Y0216598D01*
Y0214599D01*
X0548885Y0213599D01*
X0545886D01*
X0551884Y0217598D02*
X0555883D01*
X0553884D01*
Y0211600D01*
X0557882Y0217598D02*
Y0211600D01*
Y0214599D01*
X0561881D01*
Y0217598D01*
Y0211600D01*
X0569879Y0217598D02*
Y0211600D01*
X0572878D01*
X0573877Y0212600D01*
Y0216598D01*
X0572878Y0217598D01*
X0569879D01*
X0575877Y0211600D02*
Y0217598D01*
X0578876D01*
X0579875Y0216598D01*
Y0214599D01*
X0578876Y0213599D01*
X0575877D01*
X0577876D02*
X0579875Y0211600D01*
X0581875Y0217598D02*
X0583874D01*
X0582874D01*
Y0211600D01*
X0581875D01*
X0583874D01*
X0586873Y0217598D02*
Y0211600D01*
X0590872D01*
X0592871Y0217598D02*
Y0211600D01*
X0596870D01*
X0604867Y0214599D02*
X0608866D01*
X0606867Y0216598D02*
Y0212600D01*
X0610865Y0211600D02*
X0614864Y0215599D01*
X0616863Y0214599D02*
X0620862D01*
X0626860Y0211600D02*
X0622861D01*
X0626860Y0215599D01*
Y0216598D01*
X0625861Y0217598D01*
X0623861D01*
X0622861Y0216598D01*
X0628860Y0211600D02*
Y0217598D01*
X0630859Y0215599D01*
X0632858Y0217598D01*
Y0211600D01*
X0634858Y0217598D02*
X0636857D01*
X0635857D01*
Y0211600D01*
X0634858D01*
X0636857D01*
X0639856Y0217598D02*
Y0211600D01*
X0643855D01*
G54D21*
X0126900Y0049966D02*
X0128899D01*
X0127900D01*
Y0046966D01*
X0129899Y0049966D02*
X0130899D01*
X0130399D01*
Y0046966D01*
X0129899D01*
X0130899D01*
X0132398Y0049966D02*
Y0046966D01*
X0133898D01*
X0134398Y0047466D01*
Y0049466D01*
X0133898Y0049966D01*
X0132398D01*
X0135397Y0046966D02*
Y0048966D01*
X0136397Y0049966D01*
X0137397Y0048966D01*
Y0046966D01*
Y0048466D01*
X0135397D01*
X0138396D02*
X0140396D01*
X0141395Y0049466D02*
X0141895Y0049966D01*
X0142895D01*
X0143395Y0049466D01*
Y0047466D01*
X0142895Y0046966D01*
X0141895D01*
X0141395Y0047466D01*
Y0049466D01*
X0144394Y0046966D02*
X0145394D01*
X0144894D01*
Y0049966D01*
X0144394Y0049466D01*
X0146894D02*
X0147393Y0049966D01*
X0148393D01*
X0148893Y0049466D01*
Y0047466D01*
X0148393Y0046966D01*
X0147393D01*
X0146894Y0047466D01*
Y0049466D01*
X0149893D02*
X0150392Y0049966D01*
X0151392D01*
X0151892Y0049466D01*
Y0047466D01*
X0151392Y0046966D01*
X0150392D01*
X0149893Y0047466D01*
Y0049466D01*
X0154391Y0046966D02*
Y0049966D01*
X0152892Y0048466D01*
X0154891D01*
X0157890Y0046966D02*
X0155891D01*
X0157890Y0048966D01*
Y0049466D01*
X0157390Y0049966D01*
X0156391D01*
X0155891Y0049466D01*
X0160889Y0049966D02*
X0158890D01*
Y0046966D01*
X0160889D01*
X0158890Y0048466D02*
X0159889D01*
X0163888Y0046966D02*
X0161889D01*
X0163888Y0048966D01*
Y0049466D01*
X0163388Y0049966D01*
X0162389D01*
X0161889Y0049466D01*
X0164888Y0046966D02*
Y0047466D01*
X0165388D01*
Y0046966D01*
X0164888D01*
X0169386Y0049466D02*
X0168886Y0049966D01*
X0167887D01*
X0167387Y0049466D01*
Y0047466D01*
X0167887Y0046966D01*
X0168886D01*
X0169386Y0047466D01*
Y0048466D01*
X0168387D01*
X0170386Y0049966D02*
Y0046966D01*
X0171885D01*
X0172385Y0047466D01*
Y0049466D01*
X0171885Y0049966D01*
X0170386D01*
X0173385Y0046966D02*
X0174385D01*
X0173885D01*
Y0049966D01*
X0173385Y0049466D01*
G54D22*
X0559400Y0039400D02*
Y0059683D01*
X0440500Y0040050D02*
X0700200D01*
Y0101050D01*
X0286500Y0040050D02*
Y0101050D01*
X0040000Y0040050D02*
Y0101050D01*
X0040050Y0040050D02*
X0197600D01*
X0040050D02*
Y0101050D01*
Y0101050D02*
X0700200D01*
X0040000Y0040050D02*
X0440500D01*
X0040000Y0060383D02*
X0700000D01*
X0040000Y0080717D02*
X0700200D01*
X0413200D02*
Y0101050D01*
X0497200Y0080717D02*
Y0101050D01*
X0525215Y0346183D02*
G03*
X0525215Y0346183I-0003333J0000000D01*
G01*
X0520215Y0389517D02*
X0521881Y0387850D01*
X0518548Y0389517D02*
X0520215D01*
X0518548D02*
X0520215Y0391183D01*
X0518548Y0392850D02*
X0520215Y0391183D01*
X0518548Y0392850D02*
X0520215D01*
X0521881Y0394517D01*
X0523548Y0392850D01*
X0525215D01*
X0523548Y0391183D02*
X0525215Y0392850D01*
X0523548Y0391183D02*
X0525215Y0389517D01*
X0523548D02*
X0525215D01*
X0521881Y0387850D02*
X0523548Y0389517D01*
X0521881Y0372850D02*
X0525215Y0379517D01*
X0518548D02*
X0525215D01*
X0518548D02*
X0521881Y0372850D01*
X0519881Y0359183D02*
X0521881Y0360183D01*
X0523881Y0359183D01*
X0522881Y0361183D02*
X0523881Y0359183D01*
X0522881Y0361183D02*
X0523881Y0363183D01*
X0521881Y0362183D02*
X0523881Y0363183D01*
X0519881D02*
X0521881Y0362183D01*
X0519881Y0363183D02*
X0520881Y0361183D01*
X0519881Y0359183D02*
X0520881Y0361183D01*
X0518548Y0357850D02*
X0521881Y0359517D01*
X0525215Y0357850D01*
X0523548Y0361183D02*
X0525215Y0357850D01*
X0523548Y0361183D02*
X0525215Y0364517D01*
X0521881Y0362850D02*
X0525215Y0364517D01*
X0518548D02*
X0521881Y0362850D01*
X0518548Y0364517D02*
X0520215Y0361183D01*
X0518548Y0357850D02*
X0520215Y0361183D01*
X0518548Y0327850D02*
X0525215D01*
Y0334517D01*
X0518548D02*
X0525215D01*
X0518548Y0327850D02*
Y0334517D01*
Y0316183D02*
X0521881Y0312850D01*
X0525215Y0316183D01*
X0521881Y0319517D02*
X0525215Y0316183D01*
X0518548D02*
X0521881Y0319517D01*
X0518548Y0297850D02*
X0521881Y0299517D01*
X0525215Y0297850D01*
X0523548Y0301183D02*
X0525215Y0297850D01*
X0523548Y0301183D02*
X0525215Y0304517D01*
X0521881Y0302850D02*
X0525215Y0304517D01*
X0518548D02*
X0521881Y0302850D01*
X0518548Y0304517D02*
X0520215Y0301183D01*
X0518548Y0297850D02*
X0520215Y0301183D01*
X0796695Y0387850D02*
Y0393848D01*
X0799694D01*
X0800694Y0392848D01*
Y0390849D01*
X0799694Y0389849D01*
X0796695D01*
X0798694D02*
X0800694Y0387850D01*
X0803693D02*
X0805692D01*
X0806692Y0388850D01*
Y0390849D01*
X0805692Y0391849D01*
X0803693D01*
X0802693Y0390849D01*
Y0388850D01*
X0803693Y0387850D01*
X0808691Y0391849D02*
Y0388850D01*
X0809691Y0387850D01*
X0812690D01*
Y0391849D01*
X0814689Y0387850D02*
Y0391849D01*
X0817688D01*
X0818688Y0390849D01*
Y0387850D01*
X0824686Y0393848D02*
Y0387850D01*
X0821687D01*
X0820687Y0388850D01*
Y0390849D01*
X0821687Y0391849D01*
X0824686D01*
X0796695Y0372850D02*
Y0378848D01*
X0799694D01*
X0800694Y0377848D01*
Y0375849D01*
X0799694Y0374849D01*
X0796695D01*
X0798694D02*
X0800694Y0372850D01*
X0803693D02*
X0805692D01*
X0806692Y0373850D01*
Y0375849D01*
X0805692Y0376849D01*
X0803693D01*
X0802693Y0375849D01*
Y0373850D01*
X0803693Y0372850D01*
X0808691Y0376849D02*
Y0373850D01*
X0809691Y0372850D01*
X0812690D01*
Y0376849D01*
X0814689Y0372850D02*
Y0376849D01*
X0817688D01*
X0818688Y0375849D01*
Y0372850D01*
X0824686Y0378848D02*
Y0372850D01*
X0821687D01*
X0820687Y0373850D01*
Y0375849D01*
X0821687Y0376849D01*
X0824686D01*
X0796695Y0357850D02*
Y0363848D01*
X0799694D01*
X0800694Y0362848D01*
Y0360849D01*
X0799694Y0359849D01*
X0796695D01*
X0798694D02*
X0800694Y0357850D01*
X0803693D02*
X0805692D01*
X0806692Y0358850D01*
Y0360849D01*
X0805692Y0361849D01*
X0803693D01*
X0802693Y0360849D01*
Y0358850D01*
X0803693Y0357850D01*
X0808691Y0361849D02*
Y0358850D01*
X0809691Y0357850D01*
X0812690D01*
Y0361849D01*
X0814689Y0357850D02*
Y0361849D01*
X0817688D01*
X0818688Y0360849D01*
Y0357850D01*
X0824686Y0363848D02*
Y0357850D01*
X0821687D01*
X0820687Y0358850D01*
Y0360849D01*
X0821687Y0361849D01*
X0824686D01*
X0796695Y0342850D02*
Y0348848D01*
X0799694D01*
X0800694Y0347848D01*
Y0345849D01*
X0799694Y0344849D01*
X0796695D01*
X0798694D02*
X0800694Y0342850D01*
X0803693D02*
X0805692D01*
X0806692Y0343850D01*
Y0345849D01*
X0805692Y0346849D01*
X0803693D01*
X0802693Y0345849D01*
Y0343850D01*
X0803693Y0342850D01*
X0808691Y0346849D02*
Y0343850D01*
X0809691Y0342850D01*
X0812690D01*
Y0346849D01*
X0814689Y0342850D02*
Y0346849D01*
X0817688D01*
X0818688Y0345849D01*
Y0342850D01*
X0824686Y0348848D02*
Y0342850D01*
X0821687D01*
X0820687Y0343850D01*
Y0345849D01*
X0821687Y0346849D01*
X0824686D01*
X0796695Y0327850D02*
Y0333848D01*
X0799694D01*
X0800694Y0332848D01*
Y0330849D01*
X0799694Y0329849D01*
X0796695D01*
X0798694D02*
X0800694Y0327850D01*
X0803693D02*
X0805692D01*
X0806692Y0328850D01*
Y0330849D01*
X0805692Y0331849D01*
X0803693D01*
X0802693Y0330849D01*
Y0328850D01*
X0803693Y0327850D01*
X0808691Y0331849D02*
Y0328850D01*
X0809691Y0327850D01*
X0812690D01*
Y0331849D01*
X0814689Y0327850D02*
Y0331849D01*
X0817688D01*
X0818688Y0330849D01*
Y0327850D01*
X0824686Y0333848D02*
Y0327850D01*
X0821687D01*
X0820687Y0328850D01*
Y0330849D01*
X0821687Y0331849D01*
X0824686D01*
X0796695Y0312850D02*
Y0318848D01*
X0799694D01*
X0800694Y0317848D01*
Y0315849D01*
X0799694Y0314849D01*
X0796695D01*
X0798694D02*
X0800694Y0312850D01*
X0803693D02*
X0805692D01*
X0806692Y0313850D01*
Y0315849D01*
X0805692Y0316849D01*
X0803693D01*
X0802693Y0315849D01*
Y0313850D01*
X0803693Y0312850D01*
X0808691Y0316849D02*
Y0313850D01*
X0809691Y0312850D01*
X0812690D01*
Y0316849D01*
X0814689Y0312850D02*
Y0316849D01*
X0817688D01*
X0818688Y0315849D01*
Y0312850D01*
X0824686Y0318848D02*
Y0312850D01*
X0821687D01*
X0820687Y0313850D01*
Y0315849D01*
X0821687Y0316849D01*
X0824686D01*
X0796695Y0297850D02*
Y0303848D01*
X0799694D01*
X0800694Y0302848D01*
Y0300849D01*
X0799694Y0299849D01*
X0796695D01*
X0798694D02*
X0800694Y0297850D01*
X0803693D02*
X0805692D01*
X0806692Y0298850D01*
Y0300849D01*
X0805692Y0301849D01*
X0803693D01*
X0802693Y0300849D01*
Y0298850D01*
X0803693Y0297850D01*
X0808691Y0301849D02*
Y0298850D01*
X0809691Y0297850D01*
X0812690D01*
Y0301849D01*
X0814689Y0297850D02*
Y0301849D01*
X0817688D01*
X0818688Y0300849D01*
Y0297850D01*
X0824686Y0303848D02*
Y0297850D01*
X0821687D01*
X0820687Y0298850D01*
Y0300849D01*
X0821687Y0301849D01*
X0824686D01*
X0746107Y0387850D02*
Y0393848D01*
X0749106D01*
X0750106Y0392848D01*
Y0390849D01*
X0749106Y0389849D01*
X0746107D01*
X0752105Y0393848D02*
X0756104D01*
X0754105D01*
Y0387850D01*
X0758103Y0393848D02*
Y0387850D01*
Y0390849D01*
X0762102D01*
Y0393848D01*
Y0387850D01*
X0746107Y0372850D02*
Y0378848D01*
X0749106D01*
X0750106Y0377848D01*
Y0375849D01*
X0749106Y0374849D01*
X0746107D01*
X0752105Y0378848D02*
X0756104D01*
X0754105D01*
Y0372850D01*
X0758103Y0378848D02*
Y0372850D01*
Y0375849D01*
X0762102D01*
Y0378848D01*
Y0372850D01*
X0746107Y0357850D02*
Y0363848D01*
X0749106D01*
X0750106Y0362848D01*
Y0360849D01*
X0749106Y0359849D01*
X0746107D01*
X0752105Y0363848D02*
X0756104D01*
X0754105D01*
Y0357850D01*
X0758103Y0363848D02*
Y0357850D01*
Y0360849D01*
X0762102D01*
Y0363848D01*
Y0357850D01*
X0746107Y0342850D02*
Y0348848D01*
X0749106D01*
X0750106Y0347848D01*
Y0345849D01*
X0749106Y0344849D01*
X0746107D01*
X0752105Y0348848D02*
X0756104D01*
X0754105D01*
Y0342850D01*
X0758103Y0348848D02*
Y0342850D01*
Y0345849D01*
X0762102D01*
Y0348848D01*
Y0342850D01*
X0746107Y0327850D02*
Y0333848D01*
X0749106D01*
X0750106Y0332848D01*
Y0330849D01*
X0749106Y0329849D01*
X0746107D01*
X0752105Y0333848D02*
X0756104D01*
X0754105D01*
Y0327850D01*
X0758103Y0333848D02*
Y0327850D01*
Y0330849D01*
X0762102D01*
Y0333848D01*
Y0327850D01*
X0746107Y0312850D02*
Y0318848D01*
X0749106D01*
X0750106Y0317848D01*
Y0315849D01*
X0749106Y0314849D01*
X0746107D01*
X0752105Y0318848D02*
X0756104D01*
X0754105D01*
Y0312850D01*
X0758103Y0318848D02*
Y0312850D01*
Y0315849D01*
X0762102D01*
Y0318848D01*
Y0312850D01*
X0746107Y0297850D02*
Y0303848D01*
X0749106D01*
X0750106Y0302848D01*
Y0300849D01*
X0749106Y0299849D01*
X0746107D01*
X0752105Y0303848D02*
X0756104D01*
X0754105D01*
Y0297850D01*
X0758103Y0303848D02*
Y0297850D01*
Y0300849D01*
X0762102D01*
Y0303848D01*
Y0297850D01*
X0631141Y0393848D02*
X0635140D01*
Y0392848D01*
X0631141Y0388850D01*
Y0387850D01*
X0637139D02*
Y0388850D01*
X0638139D01*
Y0387850D01*
X0637139D01*
X0642137Y0392848D02*
X0643137Y0393848D01*
X0645136D01*
X0646136Y0392848D01*
Y0391849D01*
X0645136Y0390849D01*
X0646136Y0389849D01*
Y0388850D01*
X0645136Y0387850D01*
X0643137D01*
X0642137Y0388850D01*
Y0389849D01*
X0643137Y0390849D01*
X0642137Y0391849D01*
Y0392848D01*
X0643137Y0390849D02*
X0645136D01*
X0648135Y0393848D02*
X0652134D01*
Y0392848D01*
X0648135Y0388850D01*
Y0387850D01*
X0654134D02*
Y0391849D01*
X0655133D01*
X0656133Y0390849D01*
Y0387850D01*
Y0390849D01*
X0657132Y0391849D01*
X0658132Y0390849D01*
Y0387850D01*
X0660132D02*
X0662131D01*
X0661131D01*
Y0391849D01*
X0660132D01*
X0665130Y0387850D02*
X0667129D01*
X0666130D01*
Y0393848D01*
X0665130D01*
X0678126Y0387850D02*
X0676126Y0389849D01*
Y0391849D01*
X0678126Y0393848D01*
X0681125Y0392848D02*
X0682124Y0393848D01*
X0684124D01*
X0685123Y0392848D01*
Y0388850D01*
X0684124Y0387850D01*
X0682124D01*
X0681125Y0388850D01*
Y0392848D01*
X0687123Y0387850D02*
Y0388850D01*
X0688123D01*
Y0387850D01*
X0687123D01*
X0696120D02*
X0692121D01*
X0696120Y0391849D01*
Y0392848D01*
X0695120Y0393848D01*
X0693121D01*
X0692121Y0392848D01*
X0698119D02*
X0699119Y0393848D01*
X0701118D01*
X0702118Y0392848D01*
Y0388850D01*
X0701118Y0387850D01*
X0699119D01*
X0698119Y0388850D01*
Y0392848D01*
X0704117D02*
X0705117Y0393848D01*
X0707116D01*
X0708116Y0392848D01*
Y0388850D01*
X0707116Y0387850D01*
X0705117D01*
X0704117Y0388850D01*
Y0392848D01*
X0710115Y0387850D02*
Y0391849D01*
X0711115D01*
X0712115Y0390849D01*
Y0387850D01*
Y0390849D01*
X0713114Y0391849D01*
X0714114Y0390849D01*
Y0387850D01*
X0716113D02*
Y0391849D01*
X0717113D01*
X0718113Y0390849D01*
Y0387850D01*
Y0390849D01*
X0719112Y0391849D01*
X0720112Y0390849D01*
Y0387850D01*
X0722112D02*
X0724111Y0389849D01*
Y0391849D01*
X0722112Y0393848D01*
X0631141Y0372850D02*
X0633140D01*
X0632141D01*
Y0378848D01*
X0631141Y0377848D01*
X0640138Y0372850D02*
X0636139D01*
X0640138Y0376849D01*
Y0377848D01*
X0639138Y0378848D01*
X0637139D01*
X0636139Y0377848D01*
X0642137Y0372850D02*
Y0373850D01*
X0643137D01*
Y0372850D01*
X0642137D01*
X0647136Y0377848D02*
X0648135Y0378848D01*
X0650135D01*
X0651134Y0377848D01*
Y0373850D01*
X0650135Y0372850D01*
X0648135D01*
X0647136Y0373850D01*
Y0377848D01*
X0653134D02*
X0654134Y0378848D01*
X0656133D01*
X0657132Y0377848D01*
Y0373850D01*
X0656133Y0372850D01*
X0654134D01*
X0653134Y0373850D01*
Y0377848D01*
X0659132Y0372850D02*
Y0376849D01*
X0660132D01*
X0661131Y0375849D01*
Y0372850D01*
Y0375849D01*
X0662131Y0376849D01*
X0663131Y0375849D01*
Y0372850D01*
X0665130D02*
X0667129D01*
X0666130D01*
Y0376849D01*
X0665130D01*
X0670128Y0372850D02*
X0672128D01*
X0671128D01*
Y0378848D01*
X0670128D01*
X0683124Y0372850D02*
X0681125Y0374849D01*
Y0376849D01*
X0683124Y0378848D01*
X0686123Y0377848D02*
X0687123Y0378848D01*
X0689122D01*
X0690122Y0377848D01*
Y0373850D01*
X0689122Y0372850D01*
X0687123D01*
X0686123Y0373850D01*
Y0377848D01*
X0692121Y0372850D02*
Y0373850D01*
X0693121D01*
Y0372850D01*
X0692121D01*
X0697120Y0377848D02*
X0698119Y0378848D01*
X0700119D01*
X0701118Y0377848D01*
Y0376849D01*
X0700119Y0375849D01*
X0699119D01*
X0700119D01*
X0701118Y0374849D01*
Y0373850D01*
X0700119Y0372850D01*
X0698119D01*
X0697120Y0373850D01*
X0703118Y0377848D02*
X0704117Y0378848D01*
X0706117D01*
X0707116Y0377848D01*
Y0373850D01*
X0706117Y0372850D01*
X0704117D01*
X0703118Y0373850D01*
Y0377848D01*
X0713114Y0378848D02*
X0709116D01*
Y0375849D01*
X0711115Y0376849D01*
X0712115D01*
X0713114Y0375849D01*
Y0373850D01*
X0712115Y0372850D01*
X0710115D01*
X0709116Y0373850D01*
X0715114Y0372850D02*
Y0376849D01*
X0716113D01*
X0717113Y0375849D01*
Y0372850D01*
Y0375849D01*
X0718113Y0376849D01*
X0719112Y0375849D01*
Y0372850D01*
X0721112D02*
Y0376849D01*
X0722112D01*
X0723111Y0375849D01*
Y0372850D01*
Y0375849D01*
X0724111Y0376849D01*
X0725110Y0375849D01*
Y0372850D01*
X0727110D02*
X0729109Y0374849D01*
Y0376849D01*
X0727110Y0378848D01*
X0631141Y0362848D02*
X0632141Y0363848D01*
X0634140D01*
X0635140Y0362848D01*
Y0361849D01*
X0634140Y0360849D01*
X0633140D01*
X0634140D01*
X0635140Y0359849D01*
Y0358850D01*
X0634140Y0357850D01*
X0632141D01*
X0631141Y0358850D01*
X0637139D02*
X0638139Y0357850D01*
X0640138D01*
X0641138Y0358850D01*
Y0362848D01*
X0640138Y0363848D01*
X0638139D01*
X0637139Y0362848D01*
Y0361849D01*
X0638139Y0360849D01*
X0641138D01*
X0643137Y0357850D02*
Y0358850D01*
X0644137D01*
Y0357850D01*
X0643137D01*
X0648135Y0362848D02*
X0649135Y0363848D01*
X0651134D01*
X0652134Y0362848D01*
Y0361849D01*
X0651134Y0360849D01*
X0650135D01*
X0651134D01*
X0652134Y0359849D01*
Y0358850D01*
X0651134Y0357850D01*
X0649135D01*
X0648135Y0358850D01*
X0654134Y0363848D02*
X0658132D01*
Y0362848D01*
X0654134Y0358850D01*
Y0357850D01*
X0660132D02*
Y0361849D01*
X0661131D01*
X0662131Y0360849D01*
Y0357850D01*
Y0360849D01*
X0663131Y0361849D01*
X0664130Y0360849D01*
Y0357850D01*
X0666130D02*
X0668129D01*
X0667129D01*
Y0361849D01*
X0666130D01*
X0671128Y0357850D02*
X0673127D01*
X0672128D01*
Y0363848D01*
X0671128D01*
X0684124Y0357850D02*
X0682124Y0359849D01*
Y0361849D01*
X0684124Y0363848D01*
X0687123Y0357850D02*
X0689122D01*
X0688123D01*
Y0363848D01*
X0687123Y0362848D01*
X0692121Y0357850D02*
Y0358850D01*
X0693121D01*
Y0357850D01*
X0692121D01*
X0697120Y0362848D02*
X0698119Y0363848D01*
X0700119D01*
X0701118Y0362848D01*
Y0358850D01*
X0700119Y0357850D01*
X0698119D01*
X0697120Y0358850D01*
Y0362848D01*
X0703118D02*
X0704117Y0363848D01*
X0706117D01*
X0707116Y0362848D01*
Y0358850D01*
X0706117Y0357850D01*
X0704117D01*
X0703118Y0358850D01*
Y0362848D01*
X0709116D02*
X0710115Y0363848D01*
X0712115D01*
X0713114Y0362848D01*
Y0358850D01*
X0712115Y0357850D01*
X0710115D01*
X0709116Y0358850D01*
Y0362848D01*
X0715114Y0357850D02*
Y0361849D01*
X0716113D01*
X0717113Y0360849D01*
Y0357850D01*
Y0360849D01*
X0718113Y0361849D01*
X0719112Y0360849D01*
Y0357850D01*
X0721112D02*
Y0361849D01*
X0722112D01*
X0723111Y0360849D01*
Y0357850D01*
Y0360849D01*
X0724111Y0361849D01*
X0725110Y0360849D01*
Y0357850D01*
X0727110D02*
X0729109Y0359849D01*
Y0361849D01*
X0727110Y0363848D01*
X0634140Y0342850D02*
Y0348848D01*
X0631141Y0345849D01*
X0635140D01*
X0637139Y0347848D02*
X0638139Y0348848D01*
X0640138D01*
X0641138Y0347848D01*
Y0343850D01*
X0640138Y0342850D01*
X0638139D01*
X0637139Y0343850D01*
Y0347848D01*
X0643137Y0342850D02*
Y0343850D01*
X0644137D01*
Y0342850D01*
X0643137D01*
X0648135Y0347848D02*
X0649135Y0348848D01*
X0651134D01*
X0652134Y0347848D01*
Y0343850D01*
X0651134Y0342850D01*
X0649135D01*
X0648135Y0343850D01*
Y0347848D01*
X0654134D02*
X0655133Y0348848D01*
X0657132D01*
X0658132Y0347848D01*
Y0343850D01*
X0657132Y0342850D01*
X0655133D01*
X0654134Y0343850D01*
Y0347848D01*
X0660132Y0342850D02*
Y0346849D01*
X0661131D01*
X0662131Y0345849D01*
Y0342850D01*
Y0345849D01*
X0663131Y0346849D01*
X0664130Y0345849D01*
Y0342850D01*
X0666130D02*
X0668129D01*
X0667129D01*
Y0346849D01*
X0666130D01*
X0671128Y0342850D02*
X0673127D01*
X0672128D01*
Y0348848D01*
X0671128D01*
X0684124Y0342850D02*
X0682124Y0344849D01*
Y0346849D01*
X0684124Y0348848D01*
X0687123Y0342850D02*
X0689122D01*
X0688123D01*
Y0348848D01*
X0687123Y0347848D01*
X0692121Y0342850D02*
Y0343850D01*
X0693121D01*
Y0342850D01*
X0692121D01*
X0697120Y0347848D02*
X0698119Y0348848D01*
X0700119D01*
X0701118Y0347848D01*
Y0343850D01*
X0700119Y0342850D01*
X0698119D01*
X0697120Y0343850D01*
Y0347848D01*
X0703118Y0342850D02*
X0705117D01*
X0704117D01*
Y0348848D01*
X0703118Y0347848D01*
X0712115Y0348848D02*
X0710115Y0347848D01*
X0708116Y0345849D01*
Y0343850D01*
X0709116Y0342850D01*
X0711115D01*
X0712115Y0343850D01*
Y0344849D01*
X0711115Y0345849D01*
X0708116D01*
X0714114Y0342850D02*
Y0346849D01*
X0715114D01*
X0716113Y0345849D01*
Y0342850D01*
Y0345849D01*
X0717113Y0346849D01*
X0718113Y0345849D01*
Y0342850D01*
X0720112D02*
Y0346849D01*
X0721112D01*
X0722112Y0345849D01*
Y0342850D01*
Y0345849D01*
X0723111Y0346849D01*
X0724111Y0345849D01*
Y0342850D01*
X0726110D02*
X0728110Y0344849D01*
Y0346849D01*
X0726110Y0348848D01*
X0634140Y0327850D02*
Y0333848D01*
X0631141Y0330849D01*
X0635140D01*
X0637139Y0327850D02*
X0639138D01*
X0638139D01*
Y0333848D01*
X0637139Y0332848D01*
X0642137Y0327850D02*
Y0328850D01*
X0643137D01*
Y0327850D01*
X0642137D01*
X0647136Y0332848D02*
X0648135Y0333848D01*
X0650135D01*
X0651134Y0332848D01*
Y0331849D01*
X0650135Y0330849D01*
X0649135D01*
X0650135D01*
X0651134Y0329849D01*
Y0328850D01*
X0650135Y0327850D01*
X0648135D01*
X0647136Y0328850D01*
X0656133Y0327850D02*
Y0333848D01*
X0653134Y0330849D01*
X0657132D01*
X0659132Y0327850D02*
Y0331849D01*
X0660132D01*
X0661131Y0330849D01*
Y0327850D01*
Y0330849D01*
X0662131Y0331849D01*
X0663131Y0330849D01*
Y0327850D01*
X0665130D02*
X0667129D01*
X0666130D01*
Y0331849D01*
X0665130D01*
X0670128Y0327850D02*
X0672128D01*
X0671128D01*
Y0333848D01*
X0670128D01*
X0683124Y0327850D02*
X0681125Y0329849D01*
Y0331849D01*
X0683124Y0333848D01*
X0686123Y0327850D02*
X0688123D01*
X0687123D01*
Y0333848D01*
X0686123Y0332848D01*
X0691121Y0327850D02*
Y0328850D01*
X0692121D01*
Y0327850D01*
X0691121D01*
X0696120Y0332848D02*
X0697120Y0333848D01*
X0699119D01*
X0700119Y0332848D01*
Y0328850D01*
X0699119Y0327850D01*
X0697120D01*
X0696120Y0328850D01*
Y0332848D01*
X0706117Y0333848D02*
X0702118D01*
Y0330849D01*
X0704117Y0331849D01*
X0705117D01*
X0706117Y0330849D01*
Y0328850D01*
X0705117Y0327850D01*
X0703118D01*
X0702118Y0328850D01*
X0708116Y0332848D02*
X0709116Y0333848D01*
X0711115D01*
X0712115Y0332848D01*
Y0328850D01*
X0711115Y0327850D01*
X0709116D01*
X0708116Y0328850D01*
Y0332848D01*
X0714114Y0327850D02*
Y0331849D01*
X0715114D01*
X0716113Y0330849D01*
Y0327850D01*
Y0330849D01*
X0717113Y0331849D01*
X0718113Y0330849D01*
Y0327850D01*
X0720112D02*
Y0331849D01*
X0721112D01*
X0722112Y0330849D01*
Y0327850D01*
Y0330849D01*
X0723111Y0331849D01*
X0724111Y0330849D01*
Y0327850D01*
X0726110D02*
X0728110Y0329849D01*
Y0331849D01*
X0726110Y0333848D01*
X0635140Y0318848D02*
X0633140Y0317848D01*
X0631141Y0315849D01*
Y0313850D01*
X0632141Y0312850D01*
X0634140D01*
X0635140Y0313850D01*
Y0314849D01*
X0634140Y0315849D01*
X0631141D01*
X0641138Y0312850D02*
X0637139D01*
X0641138Y0316849D01*
Y0317848D01*
X0640138Y0318848D01*
X0638139D01*
X0637139Y0317848D01*
X0643137Y0312850D02*
Y0313850D01*
X0644137D01*
Y0312850D01*
X0643137D01*
X0648135Y0313850D02*
X0649135Y0312850D01*
X0651134D01*
X0652134Y0313850D01*
Y0317848D01*
X0651134Y0318848D01*
X0649135D01*
X0648135Y0317848D01*
Y0316849D01*
X0649135Y0315849D01*
X0652134D01*
X0654134Y0313850D02*
X0655133Y0312850D01*
X0657132D01*
X0658132Y0313850D01*
Y0317848D01*
X0657132Y0318848D01*
X0655133D01*
X0654134Y0317848D01*
Y0316849D01*
X0655133Y0315849D01*
X0658132D01*
X0660132Y0312850D02*
Y0316849D01*
X0661131D01*
X0662131Y0315849D01*
Y0312850D01*
Y0315849D01*
X0663131Y0316849D01*
X0664130Y0315849D01*
Y0312850D01*
X0666130D02*
X0668129D01*
X0667129D01*
Y0316849D01*
X0666130D01*
X0671128Y0312850D02*
X0673127D01*
X0672128D01*
Y0318848D01*
X0671128D01*
X0684124Y0312850D02*
X0682124Y0314849D01*
Y0316849D01*
X0684124Y0318848D01*
X0687123Y0312850D02*
X0689122D01*
X0688123D01*
Y0318848D01*
X0687123Y0317848D01*
X0692121Y0312850D02*
Y0313850D01*
X0693121D01*
Y0312850D01*
X0692121D01*
X0701118Y0318848D02*
X0699119Y0317848D01*
X0697120Y0315849D01*
Y0313850D01*
X0698119Y0312850D01*
X0700119D01*
X0701118Y0313850D01*
Y0314849D01*
X0700119Y0315849D01*
X0697120D01*
X0703118Y0317848D02*
X0704117Y0318848D01*
X0706117D01*
X0707116Y0317848D01*
Y0313850D01*
X0706117Y0312850D01*
X0704117D01*
X0703118Y0313850D01*
Y0317848D01*
X0709116D02*
X0710115Y0318848D01*
X0712115D01*
X0713114Y0317848D01*
Y0313850D01*
X0712115Y0312850D01*
X0710115D01*
X0709116Y0313850D01*
Y0317848D01*
X0715114Y0312850D02*
Y0316849D01*
X0716113D01*
X0717113Y0315849D01*
Y0312850D01*
Y0315849D01*
X0718113Y0316849D01*
X0719112Y0315849D01*
Y0312850D01*
X0721112D02*
Y0316849D01*
X0722112D01*
X0723111Y0315849D01*
Y0312850D01*
Y0315849D01*
X0724111Y0316849D01*
X0725110Y0315849D01*
Y0312850D01*
X0727110D02*
X0729109Y0314849D01*
Y0316849D01*
X0727110Y0318848D01*
X0631141Y0297850D02*
X0633140D01*
X0632141D01*
Y0303848D01*
X0631141Y0302848D01*
X0640138Y0297850D02*
X0636139D01*
X0640138Y0301849D01*
Y0302848D01*
X0639138Y0303848D01*
X0637139D01*
X0636139Y0302848D01*
X0646136Y0303848D02*
X0642137D01*
Y0300849D01*
X0644137Y0301849D01*
X0645136D01*
X0646136Y0300849D01*
Y0298850D01*
X0645136Y0297850D01*
X0643137D01*
X0642137Y0298850D01*
X0648135Y0297850D02*
Y0298850D01*
X0649135D01*
Y0297850D01*
X0648135D01*
X0653134Y0298850D02*
X0654134Y0297850D01*
X0656133D01*
X0657132Y0298850D01*
Y0302848D01*
X0656133Y0303848D01*
X0654134D01*
X0653134Y0302848D01*
Y0301849D01*
X0654134Y0300849D01*
X0657132D01*
X0659132Y0302848D02*
X0660132Y0303848D01*
X0662131D01*
X0663131Y0302848D01*
Y0301849D01*
X0662131Y0300849D01*
X0663131Y0299849D01*
Y0298850D01*
X0662131Y0297850D01*
X0660132D01*
X0659132Y0298850D01*
Y0299849D01*
X0660132Y0300849D01*
X0659132Y0301849D01*
Y0302848D01*
X0660132Y0300849D02*
X0662131D01*
X0665130Y0297850D02*
Y0301849D01*
X0666130D01*
X0667129Y0300849D01*
Y0297850D01*
Y0300849D01*
X0668129Y0301849D01*
X0669129Y0300849D01*
Y0297850D01*
X0671128D02*
X0673127D01*
X0672128D01*
Y0301849D01*
X0671128D01*
X0676126Y0297850D02*
X0678126D01*
X0677126D01*
Y0303848D01*
X0676126D01*
X0689122Y0297850D02*
X0687123Y0299849D01*
Y0301849D01*
X0689122Y0303848D01*
X0692121Y0302848D02*
X0693121Y0303848D01*
X0695120D01*
X0696120Y0302848D01*
Y0301849D01*
X0695120Y0300849D01*
X0694121D01*
X0695120D01*
X0696120Y0299849D01*
Y0298850D01*
X0695120Y0297850D01*
X0693121D01*
X0692121Y0298850D01*
X0698119Y0297850D02*
Y0298850D01*
X0699119D01*
Y0297850D01*
X0698119D01*
X0707116D02*
X0703118D01*
X0707116Y0301849D01*
Y0302848D01*
X0706117Y0303848D01*
X0704117D01*
X0703118Y0302848D01*
X0709116D02*
X0710115Y0303848D01*
X0712115D01*
X0713114Y0302848D01*
Y0298850D01*
X0712115Y0297850D01*
X0710115D01*
X0709116Y0298850D01*
Y0302848D01*
X0715114D02*
X0716113Y0303848D01*
X0718113D01*
X0719112Y0302848D01*
Y0298850D01*
X0718113Y0297850D01*
X0716113D01*
X0715114Y0298850D01*
Y0302848D01*
X0721112Y0297850D02*
Y0301849D01*
X0722112D01*
X0723111Y0300849D01*
Y0297850D01*
Y0300849D01*
X0724111Y0301849D01*
X0725110Y0300849D01*
Y0297850D01*
X0727110D02*
Y0301849D01*
X0728110D01*
X0729109Y0300849D01*
Y0297850D01*
Y0300849D01*
X0730109Y0301849D01*
X0731109Y0300849D01*
Y0297850D01*
X0733108D02*
X0735107Y0299849D01*
Y0301849D01*
X0733108Y0303848D01*
X0575155Y0282850D02*
Y0288848D01*
X0572156Y0285849D01*
X0576155D01*
X0578155Y0282850D02*
X0580154D01*
X0579154D01*
Y0288848D01*
X0578155Y0287848D01*
X0583153D02*
X0584153Y0288848D01*
X0586152D01*
X0587152Y0287848D01*
Y0286849D01*
X0586152Y0285849D01*
X0585152D01*
X0586152D01*
X0587152Y0284849D01*
Y0283850D01*
X0586152Y0282850D01*
X0584153D01*
X0583153Y0283850D01*
X0595149Y0288848D02*
X0599148D01*
X0597148D01*
Y0282850D01*
X0602147D02*
X0604146D01*
X0605146Y0283850D01*
Y0285849D01*
X0604146Y0286849D01*
X0602147D01*
X0601147Y0285849D01*
Y0283850D01*
X0602147Y0282850D01*
X0608145Y0287848D02*
Y0286849D01*
X0607145D01*
X0609144D01*
X0608145D01*
Y0283850D01*
X0609144Y0282850D01*
X0613143Y0286849D02*
X0615143D01*
X0616142Y0285849D01*
Y0282850D01*
X0613143D01*
X0612144Y0283850D01*
X0613143Y0284849D01*
X0616142D01*
X0618142Y0282850D02*
X0620141D01*
X0619141D01*
Y0288848D01*
X0618142D01*
X0572156Y0388850D02*
X0573156Y0387850D01*
X0575155D01*
X0576155Y0388850D01*
Y0392848D01*
X0575155Y0393848D01*
X0573156D01*
X0572156Y0392848D01*
Y0391849D01*
X0573156Y0390849D01*
X0576155D01*
X0578155Y0387850D02*
X0580154D01*
X0579154D01*
Y0393848D01*
X0578155Y0392848D01*
X0576155Y0372850D02*
X0572156D01*
X0576155Y0376849D01*
Y0377848D01*
X0575155Y0378848D01*
X0573156D01*
X0572156Y0377848D01*
X0578155D02*
X0579154Y0378848D01*
X0581153D01*
X0582153Y0377848D01*
Y0376849D01*
X0581153Y0375849D01*
X0582153Y0374849D01*
Y0373850D01*
X0581153Y0372850D01*
X0579154D01*
X0578155Y0373850D01*
Y0374849D01*
X0579154Y0375849D01*
X0578155Y0376849D01*
Y0377848D01*
X0579154Y0375849D02*
X0581153D01*
X0587152Y0372850D02*
Y0378848D01*
X0584153Y0375849D01*
X0588151D01*
X0572156Y0357850D02*
X0574156D01*
X0573156D01*
Y0363848D01*
X0572156Y0362848D01*
X0577155Y0358850D02*
X0578155Y0357850D01*
X0580154D01*
X0581153Y0358850D01*
Y0362848D01*
X0580154Y0363848D01*
X0578155D01*
X0577155Y0362848D01*
Y0361849D01*
X0578155Y0360849D01*
X0581153D01*
X0572156Y0347848D02*
X0573156Y0348848D01*
X0575155D01*
X0576155Y0347848D01*
Y0346849D01*
X0575155Y0345849D01*
X0574156D01*
X0575155D01*
X0576155Y0344849D01*
Y0343850D01*
X0575155Y0342850D01*
X0573156D01*
X0572156Y0343850D01*
X0576155Y0333848D02*
X0574156Y0332848D01*
X0572156Y0330849D01*
Y0328850D01*
X0573156Y0327850D01*
X0575155D01*
X0576155Y0328850D01*
Y0329849D01*
X0575155Y0330849D01*
X0572156D01*
X0576155Y0318848D02*
X0574156Y0317848D01*
X0572156Y0315849D01*
Y0313850D01*
X0573156Y0312850D01*
X0575155D01*
X0576155Y0313850D01*
Y0314849D01*
X0575155Y0315849D01*
X0572156D01*
X0575155Y0297850D02*
Y0303848D01*
X0572156Y0300849D01*
X0576155D01*
X0515619Y0257698D02*
Y0251700D01*
X0518618D01*
X0519618Y0252700D01*
Y0256698D01*
X0518618Y0257698D01*
X0515619D01*
X0521617Y0255699D02*
Y0251700D01*
Y0253699D01*
X0522617Y0254699D01*
X0523616Y0255699D01*
X0524616D01*
X0527615Y0251700D02*
X0529614D01*
X0528615D01*
Y0255699D01*
X0527615D01*
X0532613Y0251700D02*
X0534613D01*
X0533613D01*
Y0257698D01*
X0532613D01*
X0537612Y0251700D02*
X0539611D01*
X0538611D01*
Y0257698D01*
X0537612D01*
X0548608D02*
X0552607D01*
X0550608D01*
Y0251700D01*
X0555606Y0255699D02*
X0557605D01*
X0558605Y0254699D01*
Y0251700D01*
X0555606D01*
X0554606Y0252700D01*
X0555606Y0253699D01*
X0558605D01*
X0560604Y0257698D02*
Y0251700D01*
X0563603D01*
X0564603Y0252700D01*
Y0253699D01*
Y0254699D01*
X0563603Y0255699D01*
X0560604D01*
X0566602Y0251700D02*
X0568602D01*
X0567602D01*
Y0257698D01*
X0566602D01*
X0574600Y0251700D02*
X0572601D01*
X0571601Y0252700D01*
Y0254699D01*
X0572601Y0255699D01*
X0574600D01*
X0575599Y0254699D01*
Y0253699D01*
X0571601D01*
G54D169*
X0796695Y0410048D02*
Y0402850D01*
Y0406449D01*
X0801493D01*
Y0410048D01*
Y0402850D01*
X0805092D02*
X0807491D01*
X0808691Y0404050D01*
Y0406449D01*
X0807491Y0407649D01*
X0805092D01*
X0803893Y0406449D01*
Y0404050D01*
X0805092Y0402850D01*
X0811090D02*
X0813489D01*
X0812290D01*
Y0410048D01*
X0811090D01*
X0820687Y0402850D02*
X0818288D01*
X0817088Y0404050D01*
Y0406449D01*
X0818288Y0407649D01*
X0820687D01*
X0821887Y0406449D01*
Y0405249D01*
X0817088D01*
X0831484Y0410048D02*
X0836282D01*
X0833883D01*
Y0402850D01*
X0838681Y0407649D02*
Y0404050D01*
X0839881Y0402850D01*
X0843480D01*
Y0401650D01*
X0842280Y0400451D01*
X0841080D01*
X0843480Y0402850D02*
Y0407649D01*
X0845879Y0400451D02*
Y0407649D01*
X0849478D01*
X0850677Y0406449D01*
Y0404050D01*
X0849478Y0402850D01*
X0845879D01*
X0856675D02*
X0854276D01*
X0853077Y0404050D01*
Y0406449D01*
X0854276Y0407649D01*
X0856675D01*
X0857875Y0406449D01*
Y0405249D01*
X0853077D01*
X0746107Y0402850D02*
Y0410048D01*
X0749706D01*
X0750906Y0408848D01*
Y0406449D01*
X0749706Y0405249D01*
X0746107D01*
X0753305Y0402850D02*
X0755704D01*
X0754505D01*
Y0410048D01*
X0753305D01*
X0760503Y0407649D02*
X0762902D01*
X0764102Y0406449D01*
Y0402850D01*
X0760503D01*
X0759303Y0404050D01*
X0760503Y0405249D01*
X0764102D01*
X0767700Y0408848D02*
Y0407649D01*
X0766501D01*
X0768900D01*
X0767700D01*
Y0404050D01*
X0768900Y0402850D01*
X0776098D02*
X0773698D01*
X0772499Y0404050D01*
Y0406449D01*
X0773698Y0407649D01*
X0776098D01*
X0777297Y0406449D01*
Y0405249D01*
X0772499D01*
X0784495Y0410048D02*
Y0402850D01*
X0780896D01*
X0779696Y0404050D01*
Y0406449D01*
X0780896Y0407649D01*
X0784495D01*
X0631141Y0410048D02*
Y0402850D01*
Y0406449D01*
X0635939D01*
Y0410048D01*
Y0402850D01*
X0639538D02*
X0641937D01*
X0643137Y0404050D01*
Y0406449D01*
X0641937Y0407649D01*
X0639538D01*
X0638339Y0406449D01*
Y0404050D01*
X0639538Y0402850D01*
X0645536D02*
X0647935D01*
X0646736D01*
Y0410048D01*
X0645536D01*
X0655133Y0402850D02*
X0652734D01*
X0651534Y0404050D01*
Y0406449D01*
X0652734Y0407649D01*
X0655133D01*
X0656333Y0406449D01*
Y0405249D01*
X0651534D01*
X0670728Y0408848D02*
X0669528Y0410048D01*
X0667129D01*
X0665930Y0408848D01*
Y0407649D01*
X0667129Y0406449D01*
X0669528D01*
X0670728Y0405249D01*
Y0404050D01*
X0669528Y0402850D01*
X0667129D01*
X0665930Y0404050D01*
X0673127Y0402850D02*
X0675527D01*
X0674327D01*
Y0407649D01*
X0673127D01*
X0679125D02*
X0683924D01*
X0679125Y0402850D01*
X0683924D01*
X0689922D02*
X0687523D01*
X0686323Y0404050D01*
Y0406449D01*
X0687523Y0407649D01*
X0689922D01*
X0691121Y0406449D01*
Y0405249D01*
X0686323D01*
X0576955Y0408848D02*
X0575755Y0410048D01*
X0573356D01*
X0572156Y0408848D01*
Y0404050D01*
X0573356Y0402850D01*
X0575755D01*
X0576955Y0404050D01*
X0580554Y0402850D02*
X0582953D01*
X0584153Y0404050D01*
Y0406449D01*
X0582953Y0407649D01*
X0580554D01*
X0579354Y0406449D01*
Y0404050D01*
X0580554Y0402850D01*
X0586552Y0407649D02*
Y0404050D01*
X0587751Y0402850D01*
X0591350D01*
Y0407649D01*
X0593750Y0402850D02*
Y0407649D01*
X0597348D01*
X0598548Y0406449D01*
Y0402850D01*
X0602147Y0408848D02*
Y0407649D01*
X0600947D01*
X0603346D01*
X0602147D01*
Y0404050D01*
X0603346Y0402850D01*
X0526367Y0408848D02*
X0525168Y0410048D01*
X0522768D01*
X0521569Y0408848D01*
Y0407649D01*
X0522768Y0406449D01*
X0525168D01*
X0526367Y0405249D01*
Y0404050D01*
X0525168Y0402850D01*
X0522768D01*
X0521569Y0404050D01*
X0528767Y0407649D02*
Y0404050D01*
X0529966Y0402850D01*
X0533565D01*
Y0401650D01*
X0532365Y0400451D01*
X0531166D01*
X0533565Y0402850D02*
Y0407649D01*
X0535964Y0402850D02*
Y0407649D01*
X0537164D01*
X0538364Y0406449D01*
Y0402850D01*
Y0406449D01*
X0539563Y0407649D01*
X0540763Y0406449D01*
Y0402850D01*
X0543162Y0410048D02*
Y0402850D01*
X0546761D01*
X0547960Y0404050D01*
Y0405249D01*
Y0406449D01*
X0546761Y0407649D01*
X0543162D01*
X0551559Y0402850D02*
X0553958D01*
X0555158Y0404050D01*
Y0406449D01*
X0553958Y0407649D01*
X0551559D01*
X0550360Y0406449D01*
Y0404050D01*
X0551559Y0402850D01*
X0557557D02*
X0559957D01*
X0558757D01*
Y0410048D01*
X0557557D01*
M02*
