M48
;Layer_Color=9474304
;FILE_FORMAT=2:5
INCH
;TYPE=PLATED
T1F00S00C0.00787
T2F00S00C0.01200
T3F00S00C0.03937
T4F00S00C0.04000
T5F00S00C0.04134
T6F00S00C0.06299
T7F00S00C0.12598
%
T01
X0401869Y0259925
Y0263075
X0173219Y0430500
X0168691
X0164164
Y0435736
X0168691
X0173219
Y0440972
X0168691
X0164164
X0312912Y0492664
Y0497900
Y0503136
X0332553Y0503145
X0337080
X0341608
Y0497909
X0337080
X0332553
Y0492672
X0337080
X0341608
X0308384Y0492664
X0303857
Y0497900
X0308384
Y0503136
X0303857
X0259639Y0503129
X0255112
X0250584
Y0497893
X0255112
X0259639
Y0492657
X0255112
X0250584
X0230235Y0492665
X0225708
X0221180
Y0497902
X0225708
X0230235
Y0503138
X0225708
X0221180
X0210928Y0666400
Y0670928
Y0675455
Y0679983
Y0684510
X0205691
Y0679983
Y0675455
Y0670928
Y0666400
X0200455
Y0670928
Y0675455
Y0679983
Y0684510
X0195219
Y0679983
Y0675455
Y0670928
Y0666400
X0189983
Y0670928
Y0675455
Y0679983
Y0684510
X0307319Y0653365
Y0649035
X0319819
Y0653365
X0383915Y0653300
X0388442
X0392970
X0397498
X0402025
Y0648064
X0397498
X0392970
X0388442
X0383915
Y0658536
X0388442
X0392970
X0397498
X0402025
T02
X0336219Y0228400
X0341519Y0229700
X0346619Y0235500
X0344419Y0249800
X0344319Y0262400
X0344319Y0268800
X0348649Y0265130
X0346519Y0278600
X0356119Y0298500
X0359819Y0294800
X0360119Y0302100
X0353819Y0306600
X0318619
X0323219Y0302000
X0326019Y0298500
X0322619Y0294800
X0315992Y0294950
X0316019Y0278600
X0320632Y0246900
X0355019Y0217300
X0384419
X0393119Y0208600
X0379769Y0254500
Y0261500
X0379768Y0269400
X0407569Y0266900
X0411869Y0253300
X0310119Y0264300
X0302819Y0279600
X0296319Y0279500
X0284019
X0273319Y0283700
X0277519Y0294900
X0277119Y0299500
X0284019Y0294950
X0290292Y0295227
X0296492Y0294950
X0302892
X0262419Y0291200
X0258119Y0267600
X0277519Y0265900
Y0262200
X0274219Y0256800
X0287983Y0259600
X0287365Y0265546
X0296219Y0247900
X0300219Y0246900
X0292219Y0229900
X0296065Y0216246
X0264414Y0207004
X0258115
X0258119Y0199800
X0255019Y0224500
X0268005Y0231986
X0235519Y0225600
X0230719Y0237500
X0216719Y0256500
X0221219Y0268900
X0230319Y0275900
X0234019
X0221219Y0287900
X0230219Y0296900
X0200919Y0297600
X0191819Y0288500
X0174914Y0298200
X0171814Y0273300
Y0269500
Y0265700
X0167730Y0242116
X0188012Y0222334
X0196514Y0218121
X0202214Y0222800
X0148407Y0259407
X0145013Y0262849
X0143514Y0278800
X0144714Y0294100
X0132414Y0293400
X0134214Y0290600
X0130414
X0142819Y0326900
X0148933Y0320786
X0148419Y0381100
Y0386000
X0153319
Y0381100
X0158219
Y0386000
X0163119
Y0381100
X0164619Y0369300
X0175019Y0350500
X0187919Y0337500
X0181919Y0316600
X0199819
X0168014Y0322400
Y0326100
Y0329800
X0169019Y0411200
X0196419Y0412200
Y0408300
Y0404400
Y0400500
X0200319
Y0404400
Y0408300
Y0412200
X0204219
Y0408300
Y0404400
Y0400500
X0208119
Y0404400
Y0408300
Y0412200
X0233119Y0398800
X0240419
X0251419Y0423600
Y0427500
Y0431400
Y0435300
Y0439200
Y0443100
Y0447000
Y0450900
Y0454800
Y0458700
X0303619Y0458700
Y0454800
Y0450900
Y0447000
Y0443100
Y0439200
Y0435300
Y0431400
Y0427500
Y0423600
X0296619Y0350200
Y0345200
X0287319
Y0350200
X0276217Y0324908
X0268620Y0324938
X0249421
X0190419Y0433700
Y0437600
Y0441500
Y0445400
Y0449300
Y0453200
X0186519
Y0449300
Y0445400
Y0441500
Y0437600
Y0433700
X0340719Y0432700
X0344619
X0348519
X0352419
Y0436600
X0348519
X0344619
X0340719
Y0428800
X0344619
X0348519
X0352419
Y0424900
X0348519
X0344619
X0340719
X0324291Y0399028
X0314991
X0331096Y0324898
X0350195Y0324905
X0357946Y0324874
X0365250Y0338431
X0370250
X0368119Y0343800
X0373119
X0418019Y0476600
X0411519Y0594800
X0411619Y0621000
X0395419Y0612400
X0392618Y0606950
X0395419Y0583023
X0365019Y0595723
X0322219Y0616800
X0318319
X0314419
Y0620700
X0318319
X0322219
X0316170Y0520680
Y0516780
X0312270
Y0520680
X0308370
Y0516780
X0304470
Y0520680
X0256619Y0520900
Y0517000
X0252719
X0248819
X0244919
Y0520900
X0248819
X0252719
X0251619Y0614100
Y0618000
X0247719
Y0621900
X0243819
Y0618000
Y0614100
X0247719
X0255519
Y0618000
Y0621900
X0251619
X0306619Y0620700
X0310519
Y0616800
X0306619
X0306719Y0675100
X0302819
Y0679000
X0306719
Y0682900
Y0686600
X0302819
Y0682900
X0291219Y0667700
X0287319
X0283419
Y0663800
X0287319
Y0659900
X0283419
X0291219
Y0663800
X0255519Y0652400
Y0648500
Y0644600
X0251619
X0247719
X0243819
Y0648500
X0247719
X0251619
Y0652400
X0247719
X0243819
X0183569Y0628250
X0178069
X0172569
X0327119Y0642900
Y0646800
Y0650700
X0331019
Y0646800
Y0642900
X0366619Y0646800
X0370519
Y0650700
Y0654600
X0366619
Y0650700
X0365019Y0625100
X0350119Y0674600
Y0678500
Y0682400
Y0686400
X0346119
X0342219
Y0682400
Y0678500
Y0674600
X0346119
Y0678500
Y0682400
X0436019Y0636700
X0431401Y0625382
T03
X0316119Y0208100
X0326119
X0336119
X0346119
X0356119
X0366119
X0306119
X0296119
X0246319Y0208700
X0236319
X0226319
X0216319
X0216414Y0247800
X0206414
X0196414
X0245619Y0245500
Y0235500
Y0255500
Y0265500
T04
X0184200Y0208300
X0206519Y0267400
X0154000Y0242300
T05
X0214191Y0413900
X0243719
X0308955
X0338483
X0298683Y0618000
X0269155
T06
X0146119Y0401500
Y0426500
X0261419Y0681200
X0286419
X0363319
X0388319
T07
X0426054Y0213400
X0139219
Y0689211
X0426054
M30
