G04*
G04 #@! TF.GenerationSoftware,Altium Limited,Altium Designer,18.1.9 (240)*
G04*
G04 Layer_Color=9218505*
%FSAX25Y25*%
%MOIN*%
G70*
G01*
G75*
%ADD12C,0.00787*%
%ADD16C,0.00700*%
%ADD17C,0.00800*%
%ADD21C,0.00600*%
%ADD22C,0.01000*%
%ADD157C,0.00984*%
%ADD158C,0.00669*%
%ADD159R,0.00787X0.03248*%
%ADD160R,0.12400X0.02000*%
%ADD161R,0.02000X0.12400*%
%ADD162R,0.12600X0.02000*%
%ADD163R,0.02000X0.09200*%
%ADD164R,0.02000X0.16400*%
%ADD165R,0.09200X0.02000*%
G54D12*
X0236609Y0221435D02*
Y0224191D01*
X0234640D02*
X0236609D01*
X0227947Y0221435D02*
Y0224191D01*
X0229916D01*
X0330203Y0344887D02*
Y0351974D01*
X0349888Y0335439D02*
Y0351974D01*
X0249328Y0344921D02*
Y0352008D01*
X0269013Y0335472D02*
Y0352008D01*
X0417416Y0625492D02*
Y0637697D01*
X0419385Y0625492D02*
Y0637697D01*
X0417416Y0625492D02*
X0419385D01*
X0417416Y0637697D02*
X0419385D01*
X0162548Y0354698D02*
Y0366902D01*
X0164516Y0354698D02*
Y0366902D01*
X0162548Y0354698D02*
X0164516D01*
X0162548Y0366902D02*
X0164516D01*
X0310469Y0646476D02*
X0311453D01*
X0303185D02*
X0304169D01*
X0303185Y0655924D02*
X0304169D01*
X0308106D02*
X0311453D01*
X0315685D02*
X0316669D01*
X0322969D02*
X0323953D01*
X0322969Y0646476D02*
X0323953D01*
X0315685D02*
X0319032D01*
X0171409Y0228631D02*
X0183614D01*
X0171409Y0230600D02*
X0183614D01*
Y0228631D02*
Y0230600D01*
X0171409Y0228631D02*
Y0230600D01*
X0150501Y0297811D02*
Y0305291D01*
X0162705Y0290724D02*
X0162705Y0305291D01*
X0414310Y0490678D02*
Y0494615D01*
X0421791Y0489103D02*
Y0494615D01*
X0363641Y0612036D02*
X0383523D01*
X0368956Y0624241D02*
X0383523D01*
X0327522Y0246754D02*
Y0266046D01*
X0277227Y0246754D02*
Y0273920D01*
X0323144Y0688287D02*
X0326294D01*
X0323144Y0674113D02*
X0326294D01*
X0276344Y0641513D02*
X0279494D01*
X0276344Y0655687D02*
X0279494D01*
X0170244Y0404687D02*
X0173394D01*
X0170244Y0390513D02*
X0173394D01*
X0294408Y0487664D02*
X0298345D01*
X0317243D02*
X0318030D01*
X0317243Y0508136D02*
X0318030D01*
X0294408D02*
X0295195D01*
X0265151Y0508129D02*
X0269088D01*
X0245466D02*
X0246253D01*
X0245466Y0487657D02*
X0246253D01*
X0268301D02*
X0269088D01*
X0323104Y0487672D02*
X0327041D01*
X0345939D02*
X0346726D01*
X0345939Y0508145D02*
X0346726D01*
X0323104D02*
X0323891D01*
X0235747Y0508138D02*
X0239684D01*
X0216062D02*
X0216850D01*
X0216062Y0487665D02*
X0216850D01*
X0238897D02*
X0239684D01*
X0267021Y0220144D02*
X0270170D01*
Y0222113D01*
X0258359Y0220144D02*
X0261509D01*
X0258359D02*
Y0222113D01*
X0145875Y0343344D02*
X0149024D01*
Y0345313D01*
X0137213Y0343344D02*
X0140363D01*
X0137213D02*
Y0345313D01*
X0187555Y0349396D02*
Y0369278D01*
X0199760Y0349396D02*
Y0363963D01*
X0363641Y0582659D02*
X0383523D01*
X0368956Y0594864D02*
X0383523D01*
X0242524Y0547320D02*
Y0562280D01*
X0229925Y0547320D02*
Y0562280D01*
X0340524Y0547305D02*
Y0562266D01*
X0327925Y0547305D02*
Y0562266D01*
G54D16*
X0405721Y0467673D02*
X0408319D01*
X0405721D02*
Y0473120D01*
X0408319D01*
X0415119D02*
X0417717D01*
Y0467673D02*
Y0473120D01*
X0415119Y0467673D02*
X0417717D01*
X0405492Y0483300D02*
Y0485898D01*
X0410939D01*
Y0483300D02*
Y0485898D01*
Y0473902D02*
Y0476500D01*
X0405492Y0473902D02*
X0410939D01*
X0405492D02*
Y0476500D01*
X0125773Y0270000D02*
Y0272598D01*
X0131220D01*
Y0270000D02*
Y0272598D01*
Y0260602D02*
Y0263200D01*
X0125773Y0260602D02*
X0131220D01*
X0125773D02*
Y0263200D01*
X0291619Y0477400D02*
X0295019D01*
X0291619D02*
Y0481400D01*
Y0485400D01*
X0295019D01*
X0303019D02*
X0306419D01*
Y0481400D02*
Y0485400D01*
Y0477400D02*
Y0481400D01*
X0303019Y0477400D02*
X0306419D01*
X0261873Y0477402D02*
X0265273D01*
X0261873D02*
Y0481402D01*
Y0485402D01*
X0265273D01*
X0273273D02*
X0276673D01*
Y0481402D02*
Y0485402D01*
Y0477402D02*
Y0481402D01*
X0273273Y0477402D02*
X0276673D01*
X0325373Y0376331D02*
Y0379731D01*
X0329373D01*
X0333373D01*
Y0376331D02*
Y0379731D01*
Y0364931D02*
Y0368331D01*
X0329373Y0364931D02*
X0333373D01*
X0325373D02*
X0329373D01*
X0325373D02*
Y0368331D01*
X0253171Y0364864D02*
Y0368264D01*
X0249171Y0364864D02*
X0253171D01*
X0245171D02*
X0249171D01*
X0245171D02*
Y0368264D01*
Y0376264D02*
Y0379664D01*
X0249171D01*
X0253171D01*
Y0376264D02*
Y0379664D01*
X0346346Y0381831D02*
X0349746D01*
Y0377831D02*
Y0381831D01*
Y0373831D02*
Y0377831D01*
X0346346Y0373831D02*
X0349746D01*
X0334946D02*
X0338346D01*
X0334946D02*
Y0377831D01*
Y0381831D01*
X0338346D01*
X0319546Y0358931D02*
Y0362331D01*
X0323546D01*
X0327546D01*
Y0358931D02*
Y0362331D01*
Y0347531D02*
Y0350931D01*
X0323546Y0347531D02*
X0327546D01*
X0319546D02*
X0323546D01*
X0319546D02*
Y0350931D01*
X0238371Y0358964D02*
Y0362364D01*
X0242371D01*
X0246371D01*
Y0358964D02*
Y0362364D01*
Y0347564D02*
Y0350964D01*
X0242371Y0347564D02*
X0246371D01*
X0238371D02*
X0242371D01*
X0238371D02*
Y0350964D01*
X0265671Y0381864D02*
X0269071D01*
Y0377864D02*
Y0381864D01*
Y0373864D02*
Y0377864D01*
X0265671Y0373864D02*
X0269071D01*
X0254271D02*
X0257671D01*
X0254271D02*
Y0377864D01*
Y0381864D01*
X0257671D01*
X0326119Y0485400D02*
X0329519D01*
Y0481400D02*
Y0485400D01*
Y0477400D02*
Y0481400D01*
X0326119Y0477400D02*
X0329519D01*
X0314719D02*
X0318119D01*
X0314719D02*
Y0481400D01*
Y0485400D01*
X0318119D01*
X0246873Y0485402D02*
X0250273D01*
Y0481402D02*
Y0485402D01*
Y0477402D02*
Y0481402D01*
X0246873Y0477402D02*
X0250273D01*
X0235473D02*
X0238873D01*
X0235473D02*
Y0481402D01*
Y0485402D01*
X0238873D01*
X0375870Y0630636D02*
X0379413D01*
X0375870D02*
Y0640164D01*
X0379413D01*
X0391224D02*
X0394768D01*
Y0630636D02*
Y0640164D01*
X0391224Y0630636D02*
X0394768D01*
X0180524Y0422064D02*
X0184068D01*
Y0412536D02*
Y0422064D01*
X0180524Y0412536D02*
X0184068D01*
X0165170D02*
X0168713D01*
X0165170D02*
Y0422064D01*
X0168713D01*
X0132588Y0305500D02*
Y0308098D01*
X0138034D01*
Y0305500D02*
Y0308098D01*
Y0296102D02*
Y0298700D01*
X0132588Y0296102D02*
X0138034D01*
X0132588D02*
Y0298700D01*
X0132488Y0270000D02*
Y0272598D01*
X0137934D01*
Y0270000D02*
Y0272598D01*
Y0260602D02*
Y0263200D01*
X0132488Y0260602D02*
X0137934D01*
X0132488D02*
Y0263200D01*
X0140166Y0280773D02*
X0142765D01*
X0140166D02*
Y0286220D01*
X0142765D01*
X0149565D02*
X0152163D01*
Y0280773D02*
Y0286220D01*
X0149565Y0280773D02*
X0152163D01*
X0162119Y0320527D02*
X0164717D01*
Y0315080D02*
Y0320527D01*
X0162119Y0315080D02*
X0164717D01*
X0152721D02*
X0155319D01*
X0152721D02*
Y0320527D01*
X0155319D01*
X0278591Y0218702D02*
Y0221300D01*
X0273145Y0218702D02*
X0278591D01*
X0273145D02*
Y0221300D01*
Y0228100D02*
Y0230698D01*
X0278591D01*
Y0228100D02*
Y0230698D01*
X0284791Y0218702D02*
Y0221300D01*
X0279345Y0218702D02*
X0284791D01*
X0279345D02*
Y0221300D01*
Y0228100D02*
Y0230698D01*
X0284791D01*
Y0228100D02*
Y0230698D01*
X0290991Y0218702D02*
Y0221300D01*
X0285545Y0218702D02*
X0290991D01*
X0285545D02*
Y0221300D01*
Y0228100D02*
Y0230698D01*
X0290991D01*
Y0228100D02*
Y0230698D01*
X0255266Y0209173D02*
X0257865D01*
X0255266D02*
Y0214620D01*
X0257865D01*
X0264665D02*
X0267263D01*
Y0209173D02*
Y0214620D01*
X0264665Y0209173D02*
X0267263D01*
X0385642Y0607200D02*
Y0609798D01*
X0391089D01*
Y0607200D02*
Y0609798D01*
Y0597802D02*
Y0600400D01*
X0385642Y0597802D02*
X0391089D01*
X0385642D02*
Y0600400D01*
X0326292Y0290250D02*
Y0292848D01*
X0331739D01*
Y0290250D02*
Y0292848D01*
Y0280851D02*
Y0283450D01*
X0326292Y0280851D02*
X0331739D01*
X0326292D02*
Y0283450D01*
X0330221Y0240273D02*
X0332819D01*
X0330221D02*
Y0245720D01*
X0332819D01*
X0339619D02*
X0342217D01*
Y0240273D02*
Y0245720D01*
X0339619Y0240273D02*
X0342217D01*
X0330221Y0272473D02*
X0332819D01*
X0330221D02*
Y0277920D01*
X0332819D01*
X0339619D02*
X0342217D01*
Y0272473D02*
Y0277920D01*
X0339619Y0272473D02*
X0342217D01*
X0379519Y0220027D02*
X0382117D01*
Y0214580D02*
Y0220027D01*
X0379519Y0214580D02*
X0382117D01*
X0370121D02*
X0372719D01*
X0370121D02*
Y0220027D01*
X0372719D01*
X0380269Y0607700D02*
X0383668D01*
Y0603700D02*
Y0607700D01*
Y0599700D02*
Y0603700D01*
X0380269Y0599700D02*
X0383668D01*
X0368868D02*
X0372269D01*
X0368868D02*
Y0603700D01*
Y0607700D01*
X0372269D01*
X0337946Y0280851D02*
Y0283450D01*
X0332499Y0280851D02*
X0337946D01*
X0332499D02*
Y0283450D01*
Y0290250D02*
Y0292848D01*
X0337946D01*
Y0290250D02*
Y0292848D01*
X0271619Y0279800D02*
Y0283200D01*
X0267619Y0279800D02*
X0271619D01*
X0263619D02*
X0267619D01*
X0263619D02*
Y0283200D01*
Y0291200D02*
Y0294600D01*
X0267619D01*
X0271619D01*
Y0291200D02*
Y0294600D01*
X0132419Y0355300D02*
Y0358700D01*
X0128419Y0355300D02*
X0132419D01*
X0124419D02*
X0128419D01*
X0124419D02*
Y0358700D01*
Y0366700D02*
Y0370100D01*
X0128419D01*
X0132419D01*
Y0366700D02*
Y0370100D01*
X0144219Y0366700D02*
Y0370100D01*
X0148219D01*
X0152219D01*
Y0366700D02*
Y0370100D01*
Y0355300D02*
Y0358700D01*
X0148219Y0355300D02*
X0152219D01*
X0144219D02*
X0148219D01*
X0144219D02*
Y0358700D01*
X0135419Y0366700D02*
Y0370100D01*
X0139419D01*
X0143419D01*
Y0366700D02*
Y0370100D01*
Y0355300D02*
Y0358700D01*
X0139419Y0355300D02*
X0143419D01*
X0135419D02*
X0139419D01*
X0135419D02*
Y0358700D01*
X0407519Y0611639D02*
Y0615039D01*
X0403519Y0611639D02*
X0407519D01*
X0399519D02*
X0403519D01*
X0399519D02*
Y0615039D01*
Y0623039D02*
Y0626439D01*
X0403519D01*
X0407519D01*
Y0623039D02*
Y0626439D01*
X0272119Y0277200D02*
X0275519D01*
Y0273200D02*
Y0277200D01*
Y0269200D02*
Y0273200D01*
X0272119Y0269200D02*
X0275519D01*
X0260719D02*
X0264119D01*
X0260719D02*
Y0273200D01*
Y0277200D01*
X0264119D01*
X0363496Y0349731D02*
Y0373831D01*
X0351796Y0349731D02*
Y0373831D01*
X0282821Y0349764D02*
Y0373864D01*
X0271121Y0349764D02*
Y0373864D01*
X0336073Y0394481D02*
X0360173D01*
X0336073Y0382781D02*
X0360173D01*
X0255416Y0394514D02*
X0279517D01*
X0255416Y0382814D02*
X0279517D01*
X0314373Y0379831D02*
Y0384131D01*
X0312023Y0367061D02*
Y0376131D01*
Y0379831D01*
X0314373D01*
X0321573D02*
X0323923D01*
Y0376131D02*
Y0379831D01*
Y0367061D02*
Y0376131D01*
X0321573Y0379831D02*
Y0384131D01*
X0308119Y0358100D02*
Y0362400D01*
X0305769Y0345330D02*
Y0354400D01*
Y0358100D01*
X0308119D01*
X0315319D02*
X0317669D01*
Y0354400D02*
Y0358100D01*
Y0345330D02*
Y0354400D01*
X0315319Y0358100D02*
Y0362400D01*
X0226416Y0358134D02*
Y0362434D01*
X0224066Y0345364D02*
Y0354434D01*
Y0358134D01*
X0226416D01*
X0233616D02*
X0235966D01*
Y0354434D02*
Y0358134D01*
Y0345364D02*
Y0354434D01*
X0233616Y0358134D02*
Y0362434D01*
X0234371Y0380364D02*
Y0384664D01*
X0232021Y0367594D02*
Y0376664D01*
Y0380364D01*
X0234371D01*
X0241571D02*
X0243921D01*
Y0376664D02*
Y0380364D01*
Y0367594D02*
Y0376664D01*
X0241571Y0380364D02*
Y0384664D01*
X0189719Y0640650D02*
X0207219D01*
X0189719Y0649150D02*
X0207219D01*
X0141214Y0262750D02*
Y0263650D01*
Y0262750D02*
X0167914D01*
X0141214Y0278450D02*
X0167914D01*
X0141214Y0277550D02*
Y0278450D01*
X0337646Y0332451D02*
X0340244D01*
Y0327004D02*
Y0332451D01*
X0337646Y0327004D02*
X0340244D01*
X0328247D02*
X0330846D01*
X0328247D02*
Y0332451D01*
X0330846D01*
X0255971Y0332491D02*
X0258569D01*
Y0327044D02*
Y0332491D01*
X0255971Y0327044D02*
X0258569D01*
X0246573D02*
X0249171D01*
X0246573D02*
Y0332491D01*
X0249171D01*
X0341047Y0327004D02*
X0343646D01*
X0341047D02*
Y0332451D01*
X0343646D01*
X0350446D02*
X0353044D01*
Y0327004D02*
Y0332451D01*
X0350446Y0327004D02*
X0353044D01*
X0259473Y0327038D02*
X0262071D01*
X0259473D02*
Y0332484D01*
X0262071D01*
X0268871D02*
X0271469D01*
Y0327038D02*
Y0332484D01*
X0268871Y0327038D02*
X0271469D01*
X0353946Y0338431D02*
Y0341831D01*
X0357946D01*
X0361946D01*
Y0338431D02*
Y0341831D01*
Y0327031D02*
Y0330431D01*
X0357946Y0327031D02*
X0361946D01*
X0353946D02*
X0357946D01*
X0353946D02*
Y0330431D01*
X0280471Y0327064D02*
Y0330464D01*
X0276471Y0327064D02*
X0280471D01*
X0272471D02*
X0276471D01*
X0272471D02*
Y0330464D01*
Y0338464D02*
Y0341864D01*
X0276471D01*
X0280471D01*
Y0338464D02*
Y0341864D01*
X0428674Y0636995D02*
Y0639593D01*
X0434121D01*
Y0636995D02*
Y0639593D01*
Y0627596D02*
Y0630195D01*
X0428674Y0627596D02*
X0434121D01*
X0428674D02*
Y0630195D01*
X0172406Y0364800D02*
Y0367398D01*
X0177852D01*
Y0364800D02*
Y0367398D01*
Y0355402D02*
Y0358000D01*
X0172406Y0355402D02*
X0177852D01*
X0172406D02*
Y0358000D01*
X0346346Y0372631D02*
X0349746D01*
Y0368631D02*
Y0372631D01*
Y0364631D02*
Y0368631D01*
X0346346Y0364631D02*
X0349746D01*
X0334946D02*
X0338346D01*
X0334946D02*
Y0368631D01*
Y0372631D01*
X0338346D01*
X0254271Y0364664D02*
X0257671D01*
X0254271D02*
Y0368664D01*
Y0372664D01*
X0257671D01*
X0265671D02*
X0269071D01*
Y0368664D02*
Y0372664D01*
Y0364664D02*
Y0368664D01*
X0265671Y0364664D02*
X0269071D01*
X0322124Y0569127D02*
X0324723D01*
Y0563680D02*
Y0569127D01*
X0322124Y0563680D02*
X0324723D01*
X0312726D02*
X0315324D01*
X0312726D02*
Y0569127D01*
X0315324D01*
X0245626Y0563673D02*
X0248224D01*
X0245626D02*
Y0569120D01*
X0248224D01*
X0255024D02*
X0257623D01*
Y0563673D02*
Y0569120D01*
X0255024Y0563673D02*
X0257623D01*
X0185285Y0233516D02*
Y0236114D01*
X0190732D01*
Y0233516D02*
Y0236114D01*
Y0224117D02*
Y0226716D01*
X0185285Y0224117D02*
X0190732D01*
X0185285D02*
Y0226716D01*
X0178912Y0244842D02*
X0181510D01*
Y0239396D02*
Y0244842D01*
X0178912Y0239396D02*
X0181510D01*
X0169514D02*
X0172112D01*
X0169514D02*
Y0244842D01*
X0172112D01*
X0162614Y0286327D02*
X0165212D01*
Y0280880D02*
Y0286327D01*
X0162614Y0280880D02*
X0165212D01*
X0153216D02*
X0155814D01*
X0153216D02*
Y0286327D01*
X0155814D01*
X0165214Y0306200D02*
Y0309600D01*
X0169214D01*
X0173214D01*
Y0306200D02*
Y0309600D01*
Y0294800D02*
Y0298200D01*
X0169214Y0294800D02*
X0173214D01*
X0165214D02*
X0169214D01*
X0165214D02*
Y0298200D01*
X0421450Y0485873D02*
X0424049D01*
Y0480427D02*
Y0485873D01*
X0421450Y0480427D02*
X0424049D01*
X0412052D02*
X0414650D01*
X0412052D02*
Y0485873D01*
X0414650D01*
X0392793Y0622939D02*
Y0625537D01*
X0398239D01*
Y0622939D02*
Y0625537D01*
Y0613540D02*
Y0616139D01*
X0392793Y0613540D02*
X0398239D01*
X0392793D02*
Y0616139D01*
X0300065Y0218700D02*
Y0222100D01*
X0296065Y0218700D02*
X0300065D01*
X0292065D02*
X0296065D01*
X0292065D02*
Y0222100D01*
Y0230100D02*
Y0233500D01*
X0296065D01*
X0300065D01*
Y0230100D02*
Y0233500D01*
X0318719Y0280851D02*
Y0283450D01*
X0313272Y0280851D02*
X0318719D01*
X0313272D02*
Y0283450D01*
Y0290250D02*
Y0292848D01*
X0318719D01*
Y0290250D02*
Y0292848D01*
X0299219Y0280851D02*
Y0283450D01*
X0293772Y0280851D02*
X0299219D01*
X0293772D02*
Y0283450D01*
Y0290250D02*
Y0292848D01*
X0299219D01*
Y0290250D02*
Y0292848D01*
X0305619Y0280851D02*
Y0283450D01*
X0300172Y0280851D02*
X0305619D01*
X0300172D02*
Y0283450D01*
Y0290250D02*
Y0292848D01*
X0305619D01*
Y0290250D02*
Y0292848D01*
X0286746Y0280852D02*
Y0283450D01*
X0281299Y0280852D02*
X0286746D01*
X0281299D02*
Y0283450D01*
Y0290250D02*
Y0292849D01*
X0286746D01*
Y0290250D02*
Y0292849D01*
X0357021Y0214573D02*
X0359619D01*
X0357021D02*
Y0220020D01*
X0359619D01*
X0366419D02*
X0369017D01*
Y0214573D02*
Y0220020D01*
X0366419Y0214573D02*
X0369017D01*
X0280245Y0280802D02*
Y0283400D01*
X0274799Y0280802D02*
X0280245D01*
X0274799D02*
Y0283400D01*
Y0290200D02*
Y0292798D01*
X0280245D01*
Y0290200D02*
Y0292798D01*
X0198458Y0340126D02*
X0201056D01*
Y0334680D02*
Y0340126D01*
X0198458Y0334680D02*
X0201056D01*
X0189059D02*
X0191657D01*
X0189059D02*
Y0340126D01*
X0191657D01*
X0187157Y0325399D02*
X0190558D01*
X0187157D02*
Y0329399D01*
Y0333400D01*
X0190558D01*
X0198557D02*
X0201958D01*
Y0329399D02*
Y0333400D01*
Y0325399D02*
Y0329399D01*
X0198557Y0325399D02*
X0201958D01*
X0392793Y0593561D02*
Y0596160D01*
X0398239D01*
Y0593561D02*
Y0596160D01*
Y0584163D02*
Y0586761D01*
X0392793Y0584163D02*
X0398239D01*
X0392793D02*
Y0586761D01*
X0407519Y0582261D02*
Y0585661D01*
X0403519Y0582261D02*
X0407519D01*
X0399519D02*
X0403519D01*
X0399519D02*
Y0585661D01*
Y0593661D02*
Y0597061D01*
X0403519D01*
X0407519D01*
Y0593661D02*
Y0597061D01*
X0282289Y0580360D02*
Y0591707D01*
X0259148Y0580360D02*
Y0591707D01*
Y0580360D02*
X0282289D01*
X0259148Y0609440D02*
X0282289D01*
Y0598093D02*
Y0609440D01*
X0259148Y0598093D02*
Y0609440D01*
X0258189Y0580460D02*
Y0591807D01*
X0235048Y0580460D02*
Y0591807D01*
Y0580460D02*
X0258189D01*
X0235048Y0609540D02*
X0258189D01*
Y0598193D02*
Y0609540D01*
X0235048Y0598193D02*
Y0609540D01*
X0308191Y0228100D02*
Y0230698D01*
X0302745D02*
X0308191D01*
X0302745Y0228100D02*
Y0230698D01*
Y0218702D02*
Y0221300D01*
Y0218702D02*
X0308191D01*
Y0221300D01*
X0250219Y0215473D02*
X0252817D01*
Y0220920D01*
X0250219D02*
X0252817D01*
X0240821D02*
X0243419D01*
X0240821Y0215473D02*
Y0220920D01*
Y0215473D02*
X0243419D01*
X0339619Y0266073D02*
X0342217D01*
Y0271520D01*
X0339619D02*
X0342217D01*
X0330221D02*
X0332819D01*
X0330221Y0266073D02*
Y0271520D01*
Y0266073D02*
X0332819D01*
X0287566Y0280851D02*
Y0283450D01*
Y0280851D02*
X0293012D01*
Y0283450D01*
Y0290250D02*
Y0292848D01*
X0287566D02*
X0293012D01*
X0287566Y0290250D02*
Y0292848D01*
X0306872Y0280851D02*
Y0283450D01*
Y0280851D02*
X0312319D01*
Y0283450D01*
Y0290250D02*
Y0292848D01*
X0306872D02*
X0312319D01*
X0306872Y0290250D02*
Y0292848D01*
X0330321Y0252527D02*
X0332919D01*
X0330321Y0247080D02*
Y0252527D01*
Y0247080D02*
X0332919D01*
X0339719D02*
X0342317D01*
Y0252527D01*
X0339719D02*
X0342317D01*
X0327538Y0218702D02*
Y0221300D01*
Y0218702D02*
X0332985D01*
Y0221300D01*
Y0228100D02*
Y0230698D01*
X0327538D02*
X0332985D01*
X0327538Y0228100D02*
Y0230698D01*
X0330221Y0258827D02*
X0332819D01*
X0330221Y0253380D02*
Y0258827D01*
Y0253380D02*
X0332819D01*
X0339619D02*
X0342217D01*
Y0258827D01*
X0339619D02*
X0342217D01*
X0321338Y0218702D02*
Y0221300D01*
Y0218702D02*
X0326785D01*
Y0221300D01*
Y0228100D02*
Y0230698D01*
X0321338D02*
X0326785D01*
X0321338Y0228100D02*
Y0230698D01*
X0330221Y0265127D02*
X0332819D01*
X0330221Y0259680D02*
Y0265127D01*
Y0259680D02*
X0332819D01*
X0339619D02*
X0342217D01*
Y0265127D01*
X0339619D02*
X0342217D01*
X0315138Y0218702D02*
Y0221300D01*
Y0218702D02*
X0320585D01*
Y0221300D01*
Y0228100D02*
Y0230698D01*
X0315138D02*
X0320585D01*
X0315138Y0228100D02*
Y0230698D01*
X0308938Y0218702D02*
Y0221300D01*
Y0218702D02*
X0314385D01*
Y0221300D01*
Y0228100D02*
Y0230698D01*
X0308938D02*
X0314385D01*
X0308938Y0228100D02*
Y0230698D01*
X0325319Y0290250D02*
Y0292848D01*
X0319872D02*
X0325319D01*
X0319872Y0290250D02*
Y0292848D01*
Y0280851D02*
Y0283450D01*
Y0280851D02*
X0325319D01*
Y0283450D01*
X0253621Y0259527D02*
X0256219D01*
X0253621Y0254080D02*
Y0259527D01*
Y0254080D02*
X0256219D01*
X0263019D02*
X0265617D01*
Y0259527D01*
X0263019D02*
X0265617D01*
X0253621Y0253227D02*
X0256219D01*
X0253621Y0247780D02*
Y0253227D01*
Y0247780D02*
X0256219D01*
X0263019D02*
X0265617D01*
Y0253227D01*
X0263019D02*
X0265617D01*
X0253621Y0247127D02*
X0256219D01*
X0253621Y0241680D02*
Y0247127D01*
Y0241680D02*
X0256219D01*
X0263019D02*
X0265617D01*
Y0247127D01*
X0263019D02*
X0265617D01*
X0240821Y0227227D02*
X0243419D01*
X0240821Y0221780D02*
Y0227227D01*
Y0221780D02*
X0243419D01*
X0250219D02*
X0252817D01*
Y0227227D01*
X0250219D02*
X0252817D01*
X0147441Y0305500D02*
Y0308098D01*
X0141994D02*
X0147441D01*
X0141994Y0305500D02*
Y0308098D01*
Y0296102D02*
Y0298700D01*
Y0296102D02*
X0147441D01*
Y0298700D01*
X0175221Y0647627D02*
X0177819D01*
X0175221Y0642180D02*
Y0647627D01*
Y0642180D02*
X0177819D01*
X0184619D02*
X0187217D01*
Y0647627D01*
X0184619D02*
X0187217D01*
X0330119Y0239500D02*
X0333519D01*
X0330119Y0235500D02*
Y0239500D01*
Y0231500D02*
Y0235500D01*
Y0231500D02*
X0333519D01*
X0341519D02*
X0344919D01*
Y0235500D01*
Y0239500D01*
X0341519D02*
X0344919D01*
X0272119Y0260400D02*
X0275519D01*
Y0264400D01*
Y0268400D01*
X0272119D02*
X0275519D01*
X0260719D02*
X0264119D01*
X0260719Y0264400D02*
Y0268400D01*
Y0260400D02*
Y0264400D01*
Y0260400D02*
X0264119D01*
X0236612Y0466171D02*
X0247959D01*
X0236612Y0443029D02*
X0247959D01*
Y0466171D01*
X0218879Y0443029D02*
Y0466171D01*
X0230226D01*
X0218879Y0443029D02*
X0230226D01*
X0236548Y0442271D02*
X0247895D01*
X0236548Y0419130D02*
X0247895D01*
Y0442271D01*
X0218815Y0419130D02*
Y0442271D01*
X0230162D01*
X0218815Y0419130D02*
X0230162D01*
X0307143D02*
X0318489D01*
X0307143Y0442271D02*
X0318489D01*
X0307143Y0419130D02*
Y0442271D01*
X0336223Y0419130D02*
Y0442271D01*
X0324876Y0419130D02*
X0336223D01*
X0324876Y0442271D02*
X0336223D01*
X0307143Y0443029D02*
X0318489D01*
X0307143Y0466171D02*
X0318489D01*
X0307143Y0443029D02*
Y0466171D01*
X0336223Y0443029D02*
Y0466171D01*
X0324876Y0443029D02*
X0336223D01*
X0324876Y0466171D02*
X0336223D01*
X0200764Y0221200D02*
Y0238700D01*
X0192264Y0221200D02*
Y0238700D01*
G54D17*
X0126900Y0073549D02*
Y0067551D01*
X0129899D01*
X0130899Y0068550D01*
Y0069550D01*
X0129899Y0070550D01*
X0126900D01*
X0129899D01*
X0130899Y0071549D01*
Y0072549D01*
X0129899Y0073549D01*
X0126900D01*
X0133898Y0067551D02*
X0135897D01*
X0136897Y0068550D01*
Y0070550D01*
X0135897Y0071549D01*
X0133898D01*
X0132898Y0070550D01*
Y0068550D01*
X0133898Y0067551D01*
X0139896Y0072549D02*
Y0071549D01*
X0138896D01*
X0140895D01*
X0139896D01*
Y0068550D01*
X0140895Y0067551D01*
X0144894Y0072549D02*
Y0071549D01*
X0143895D01*
X0145894D01*
X0144894D01*
Y0068550D01*
X0145894Y0067551D01*
X0149893D02*
X0151892D01*
X0152892Y0068550D01*
Y0070550D01*
X0151892Y0071549D01*
X0149893D01*
X0148893Y0070550D01*
Y0068550D01*
X0149893Y0067551D01*
X0154891D02*
Y0071549D01*
X0155891D01*
X0156890Y0070550D01*
Y0067551D01*
Y0070550D01*
X0157890Y0071549D01*
X0158890Y0070550D01*
Y0067551D01*
X0169886Y0073549D02*
X0167887D01*
X0166887Y0072549D01*
Y0068550D01*
X0167887Y0067551D01*
X0169886D01*
X0170886Y0068550D01*
Y0072549D01*
X0169886Y0073549D01*
X0172885Y0071549D02*
X0174884Y0067551D01*
X0176884Y0071549D01*
X0181882Y0067551D02*
X0179883D01*
X0178883Y0068550D01*
Y0070550D01*
X0179883Y0071549D01*
X0181882D01*
X0182882Y0070550D01*
Y0069550D01*
X0178883D01*
X0184881Y0071549D02*
Y0067551D01*
Y0069550D01*
X0185881Y0070550D01*
X0186881Y0071549D01*
X0187880D01*
X0190879Y0067551D02*
X0192879D01*
X0191879D01*
Y0073549D01*
X0190879D01*
X0196877Y0071549D02*
X0198877D01*
X0199876Y0070550D01*
Y0067551D01*
X0196877D01*
X0195878Y0068550D01*
X0196877Y0069550D01*
X0199876D01*
X0201876Y0071549D02*
Y0068550D01*
X0202875Y0067551D01*
X0205874D01*
Y0066551D01*
X0204875Y0065551D01*
X0203875D01*
X0205874Y0067551D02*
Y0071549D01*
X0348550Y0073498D02*
X0352549D01*
X0350549D01*
Y0067500D01*
X0354548Y0073498D02*
X0356547D01*
X0355548D01*
Y0067500D01*
X0354548D01*
X0356547D01*
X0359546Y0073498D02*
Y0067500D01*
X0362545D01*
X0363545Y0068500D01*
Y0072498D01*
X0362545Y0073498D01*
X0359546D01*
X0365545Y0067500D02*
Y0071499D01*
X0367544Y0073498D01*
X0369543Y0071499D01*
Y0067500D01*
Y0070499D01*
X0365545D01*
X0371543D02*
X0375541D01*
X0377541Y0072498D02*
X0378540Y0073498D01*
X0380540D01*
X0381539Y0072498D01*
Y0068500D01*
X0380540Y0067500D01*
X0378540D01*
X0377541Y0068500D01*
Y0072498D01*
X0383539Y0067500D02*
X0385538D01*
X0384538D01*
Y0073498D01*
X0383539Y0072498D01*
X0388537D02*
X0389537Y0073498D01*
X0391536D01*
X0392536Y0072498D01*
Y0068500D01*
X0391536Y0067500D01*
X0389537D01*
X0388537Y0068500D01*
Y0072498D01*
X0394535D02*
X0395535Y0073498D01*
X0397534D01*
X0398534Y0072498D01*
Y0068500D01*
X0397534Y0067500D01*
X0395535D01*
X0394535Y0068500D01*
Y0072498D01*
X0403532Y0067500D02*
Y0073498D01*
X0400533Y0070499D01*
X0404532D01*
X0410530Y0067500D02*
X0406531D01*
X0410530Y0071499D01*
Y0072498D01*
X0409530Y0073498D01*
X0407531D01*
X0406531Y0072498D01*
X0294000Y0073498D02*
X0297999D01*
X0295999D01*
Y0067500D01*
X0299998Y0073498D02*
X0301997D01*
X0300998D01*
Y0067500D01*
X0299998D01*
X0301997D01*
X0304996Y0073498D02*
Y0067500D01*
X0307996D01*
X0308995Y0068500D01*
Y0072498D01*
X0307996Y0073498D01*
X0304996D01*
X0317992Y0067500D02*
Y0073498D01*
X0319992D02*
Y0067500D01*
X0316993Y0071499D02*
X0319992D01*
X0320991D01*
X0316993Y0069499D02*
X0320991D01*
X0322991Y0071499D02*
X0323990D01*
Y0070499D01*
X0322991D01*
Y0071499D01*
Y0068500D02*
X0323990D01*
Y0067500D01*
X0322991D01*
Y0068500D01*
X0580500Y0052965D02*
X0584499D01*
X0582499D01*
Y0046966D01*
X0590497Y0052965D02*
X0586498D01*
Y0046966D01*
X0590497D01*
X0586498Y0049966D02*
X0588497D01*
X0592496Y0052965D02*
X0596495Y0046966D01*
Y0052965D02*
X0592496Y0046966D01*
X0598494D02*
Y0050965D01*
X0600493Y0052965D01*
X0602493Y0050965D01*
Y0046966D01*
Y0049966D01*
X0598494D01*
X0608491Y0051965D02*
X0607491Y0052965D01*
X0605492D01*
X0604492Y0051965D01*
Y0050965D01*
X0605492Y0049966D01*
X0607491D01*
X0608491Y0048966D01*
Y0047966D01*
X0607491Y0046966D01*
X0605492D01*
X0604492Y0047966D01*
X0616488Y0052965D02*
X0618488D01*
X0617488D01*
Y0046966D01*
X0616488D01*
X0618488D01*
X0621487D02*
Y0052965D01*
X0625486Y0046966D01*
Y0052965D01*
X0631484Y0051965D02*
X0630484Y0052965D01*
X0628484D01*
X0627485Y0051965D01*
Y0050965D01*
X0628484Y0049966D01*
X0630484D01*
X0631484Y0048966D01*
Y0047966D01*
X0630484Y0046966D01*
X0628484D01*
X0627485Y0047966D01*
X0633483Y0052965D02*
X0637482D01*
X0635482D01*
Y0046966D01*
X0639481D02*
Y0052965D01*
X0642480D01*
X0643480Y0051965D01*
Y0049966D01*
X0642480Y0048966D01*
X0639481D01*
X0641480D02*
X0643480Y0046966D01*
X0645479Y0052965D02*
Y0047966D01*
X0646479Y0046966D01*
X0648478D01*
X0649478Y0047966D01*
Y0052965D01*
X0651477Y0046966D02*
Y0052965D01*
X0653476Y0050965D01*
X0655476Y0052965D01*
Y0046966D01*
X0661474Y0052965D02*
X0657475D01*
Y0046966D01*
X0661474D01*
X0657475Y0049966D02*
X0659474D01*
X0663473Y0046966D02*
Y0052965D01*
X0667472Y0046966D01*
Y0052965D01*
X0669471D02*
X0673470D01*
X0671471D01*
Y0046966D01*
X0679468Y0051965D02*
X0678468Y0052965D01*
X0676469D01*
X0675469Y0051965D01*
Y0050965D01*
X0676469Y0049966D01*
X0678468D01*
X0679468Y0048966D01*
Y0047966D01*
X0678468Y0046966D01*
X0676469D01*
X0675469Y0047966D01*
X0454050Y0051965D02*
X0455050Y0052965D01*
X0457049D01*
X0458049Y0051965D01*
Y0050965D01*
X0457049Y0049966D01*
X0458049Y0048966D01*
Y0047966D01*
X0457049Y0046966D01*
X0455050D01*
X0454050Y0047966D01*
Y0048966D01*
X0455050Y0049966D01*
X0454050Y0050965D01*
Y0051965D01*
X0455050Y0049966D02*
X0457049D01*
X0460048Y0050965D02*
X0461048D01*
Y0049966D01*
X0460048D01*
Y0050965D01*
Y0047966D02*
X0461048D01*
Y0046966D01*
X0460048D01*
Y0047966D01*
X0468046Y0046966D02*
Y0052965D01*
X0465046Y0049966D01*
X0469045D01*
X0471044Y0051965D02*
X0472044Y0052965D01*
X0474044D01*
X0475043Y0051965D01*
Y0050965D01*
X0474044Y0049966D01*
X0475043Y0048966D01*
Y0047966D01*
X0474044Y0046966D01*
X0472044D01*
X0471044Y0047966D01*
Y0048966D01*
X0472044Y0049966D01*
X0471044Y0050965D01*
Y0051965D01*
X0472044Y0049966D02*
X0474044D01*
X0477043Y0050965D02*
X0478042D01*
Y0049966D01*
X0477043D01*
Y0050965D01*
Y0047966D02*
X0478042D01*
Y0046966D01*
X0477043D01*
Y0047966D01*
X0485040Y0046966D02*
Y0052965D01*
X0482041Y0049966D01*
X0486040D01*
X0492038Y0052965D02*
X0488039D01*
Y0049966D01*
X0490038Y0050965D01*
X0491038D01*
X0492038Y0049966D01*
Y0047966D01*
X0491038Y0046966D01*
X0489039D01*
X0488039Y0047966D01*
X0500035Y0046966D02*
Y0050965D01*
X0502035Y0052965D01*
X0504034Y0050965D01*
Y0046966D01*
Y0049966D01*
X0500035D01*
X0506033Y0046966D02*
Y0052965D01*
X0508033Y0050965D01*
X0510032Y0052965D01*
Y0046966D01*
X0046350D02*
Y0052965D01*
X0049349D01*
X0050349Y0051965D01*
Y0049966D01*
X0049349Y0048966D01*
X0046350D01*
X0052348Y0052965D02*
Y0046966D01*
X0056347D01*
X0061345Y0052965D02*
X0059346D01*
X0058346Y0051965D01*
Y0047966D01*
X0059346Y0046966D01*
X0061345D01*
X0062345Y0047966D01*
Y0051965D01*
X0061345Y0052965D01*
X0064344D02*
X0068343D01*
X0066343D01*
Y0046966D01*
X0076340D02*
Y0052965D01*
X0080339Y0046966D01*
Y0052965D01*
X0082338Y0046966D02*
Y0050965D01*
X0084338Y0052965D01*
X0086337Y0050965D01*
Y0046966D01*
Y0049966D01*
X0082338D01*
X0088336Y0046966D02*
Y0052965D01*
X0090336Y0050965D01*
X0092335Y0052965D01*
Y0046966D01*
X0098333Y0052965D02*
X0094335D01*
Y0046966D01*
X0098333D01*
X0094335Y0049966D02*
X0096334D01*
X0106331Y0048966D02*
X0110329D01*
X0106331Y0050965D02*
X0110329D01*
X0046350Y0073549D02*
Y0067551D01*
X0050349D01*
X0052348D02*
Y0071549D01*
X0054347Y0073549D01*
X0056347Y0071549D01*
Y0067551D01*
Y0070550D01*
X0052348D01*
X0058346Y0073549D02*
Y0072549D01*
X0060346Y0070550D01*
X0062345Y0072549D01*
Y0073549D01*
X0060346Y0070550D02*
Y0067551D01*
X0068343Y0073549D02*
X0064344D01*
Y0067551D01*
X0068343D01*
X0064344Y0070550D02*
X0066343D01*
X0070342Y0067551D02*
Y0073549D01*
X0073341D01*
X0074341Y0072549D01*
Y0070550D01*
X0073341Y0069550D01*
X0070342D01*
X0072342D02*
X0074341Y0067551D01*
X0082338D02*
Y0073549D01*
X0086337Y0067551D01*
Y0073549D01*
X0088336Y0067551D02*
Y0071549D01*
X0090336Y0073549D01*
X0092335Y0071549D01*
Y0067551D01*
Y0070550D01*
X0088336D01*
X0094335Y0067551D02*
Y0073549D01*
X0096334Y0071549D01*
X0098333Y0073549D01*
Y0067551D01*
X0104331Y0073549D02*
X0100332D01*
Y0067551D01*
X0104331D01*
X0100332Y0070550D02*
X0102332D01*
X0112329Y0069550D02*
X0116327D01*
X0112329Y0071549D02*
X0116327D01*
X0294000Y0093831D02*
Y0087833D01*
X0296999D01*
X0297999Y0088833D01*
Y0089833D01*
X0296999Y0090832D01*
X0294000D01*
X0296999D01*
X0297999Y0091832D01*
Y0092832D01*
X0296999Y0093831D01*
X0294000D01*
X0302997D02*
X0300998D01*
X0299998Y0092832D01*
Y0088833D01*
X0300998Y0087833D01*
X0302997D01*
X0303997Y0088833D01*
Y0092832D01*
X0302997Y0093831D01*
X0305996Y0087833D02*
Y0091832D01*
X0307996Y0093831D01*
X0309995Y0091832D01*
Y0087833D01*
Y0090832D01*
X0305996D01*
X0311994Y0087833D02*
Y0093831D01*
X0314993D01*
X0315993Y0092832D01*
Y0090832D01*
X0314993Y0089833D01*
X0311994D01*
X0313994D02*
X0315993Y0087833D01*
X0317992Y0093831D02*
Y0087833D01*
X0320991D01*
X0321991Y0088833D01*
Y0092832D01*
X0320991Y0093831D01*
X0317992D01*
X0330988Y0087833D02*
Y0093831D01*
X0332987D02*
Y0087833D01*
X0329988Y0091832D02*
X0332987D01*
X0333987D01*
X0329988Y0089833D02*
X0333987D01*
X0335986Y0091832D02*
X0336986D01*
Y0090832D01*
X0335986D01*
Y0091832D01*
Y0088833D02*
X0336986D01*
Y0087833D01*
X0335986D01*
Y0088833D01*
X0348550Y0093831D02*
X0352549D01*
X0350549D01*
Y0087833D01*
X0354548Y0093831D02*
X0356547D01*
X0355548D01*
Y0087833D01*
X0354548D01*
X0356547D01*
X0359546Y0093831D02*
Y0087833D01*
X0362545D01*
X0363545Y0088833D01*
Y0092832D01*
X0362545Y0093831D01*
X0359546D01*
X0365545Y0087833D02*
Y0091832D01*
X0367544Y0093831D01*
X0369543Y0091832D01*
Y0087833D01*
Y0090832D01*
X0365545D01*
X0371543D02*
X0375541D01*
X0377541Y0092832D02*
X0378540Y0093831D01*
X0380540D01*
X0381539Y0092832D01*
Y0088833D01*
X0380540Y0087833D01*
X0378540D01*
X0377541Y0088833D01*
Y0092832D01*
X0383539Y0087833D02*
X0385538D01*
X0384538D01*
Y0093831D01*
X0383539Y0092832D01*
X0388537D02*
X0389537Y0093831D01*
X0391536D01*
X0392536Y0092832D01*
Y0088833D01*
X0391536Y0087833D01*
X0389537D01*
X0388537Y0088833D01*
Y0092832D01*
X0394535D02*
X0395535Y0093831D01*
X0397534D01*
X0398534Y0092832D01*
Y0088833D01*
X0397534Y0087833D01*
X0395535D01*
X0394535Y0088833D01*
Y0092832D01*
X0403532Y0087833D02*
Y0093831D01*
X0400533Y0090832D01*
X0404532D01*
X0410530Y0087833D02*
X0406531D01*
X0410530Y0091832D01*
Y0092832D01*
X0409530Y0093831D01*
X0407531D01*
X0406531Y0092832D01*
X0466149Y0093831D02*
X0462150D01*
Y0087833D01*
X0466149D01*
X0462150Y0090832D02*
X0464149D01*
X0472147Y0087833D02*
X0468148D01*
X0472147Y0091832D01*
Y0092832D01*
X0471147Y0093831D01*
X0469148D01*
X0468148Y0092832D01*
X0046350Y0087833D02*
Y0091832D01*
X0048349Y0093831D01*
X0050349Y0091832D01*
Y0087833D01*
Y0090832D01*
X0046350D01*
X0052348Y0093831D02*
Y0087833D01*
X0056347D01*
X0058346Y0093831D02*
Y0087833D01*
X0062345D01*
X0070342D02*
Y0091832D01*
X0072342Y0093831D01*
X0074341Y0091832D01*
Y0087833D01*
Y0090832D01*
X0070342D01*
X0076340Y0087833D02*
Y0093831D01*
X0079339D01*
X0080339Y0092832D01*
Y0090832D01*
X0079339Y0089833D01*
X0076340D01*
X0078340D02*
X0080339Y0087833D01*
X0082338Y0093831D02*
X0086337D01*
X0084338D01*
Y0087833D01*
X0088336Y0093831D02*
Y0087833D01*
X0090336Y0089833D01*
X0092335Y0087833D01*
Y0093831D01*
X0097334D02*
X0095334D01*
X0094335Y0092832D01*
Y0088833D01*
X0095334Y0087833D01*
X0097334D01*
X0098333Y0088833D01*
Y0092832D01*
X0097334Y0093831D01*
X0100332Y0087833D02*
Y0093831D01*
X0103332D01*
X0104331Y0092832D01*
Y0090832D01*
X0103332Y0089833D01*
X0100332D01*
X0102332D02*
X0104331Y0087833D01*
X0106331Y0093831D02*
Y0087833D01*
Y0089833D01*
X0110329Y0093831D01*
X0107330Y0090832D01*
X0110329Y0087833D01*
X0118327Y0093831D02*
Y0089833D01*
X0120326Y0087833D01*
X0122325Y0089833D01*
Y0093831D01*
X0124325D02*
X0126324D01*
X0125324D01*
Y0087833D01*
X0124325D01*
X0126324D01*
X0133322Y0093831D02*
X0129323D01*
Y0087833D01*
X0133322D01*
X0129323Y0090832D02*
X0131323D01*
X0135321Y0093831D02*
Y0087833D01*
X0137321Y0089833D01*
X0139320Y0087833D01*
Y0093831D01*
X0145318D02*
X0141319D01*
Y0087833D01*
X0145318D01*
X0141319Y0090832D02*
X0143319D01*
X0147317Y0093831D02*
Y0087833D01*
X0150316D01*
X0151316Y0088833D01*
Y0092832D01*
X0150316Y0093831D01*
X0147317D01*
X0163312D02*
X0159313D01*
Y0090832D01*
X0161313D01*
X0159313D01*
Y0087833D01*
X0165312D02*
Y0093831D01*
X0168310D01*
X0169310Y0092832D01*
Y0090832D01*
X0168310Y0089833D01*
X0165312D01*
X0167311D02*
X0169310Y0087833D01*
X0174309Y0093831D02*
X0172309D01*
X0171310Y0092832D01*
Y0088833D01*
X0172309Y0087833D01*
X0174309D01*
X0175308Y0088833D01*
Y0092832D01*
X0174309Y0093831D01*
X0177308Y0087833D02*
Y0093831D01*
X0179307Y0091832D01*
X0181306Y0093831D01*
Y0087833D01*
X0189304Y0093831D02*
X0193303D01*
X0191303D01*
Y0087833D01*
X0198301Y0093831D02*
X0196301D01*
X0195302Y0092832D01*
Y0088833D01*
X0196301Y0087833D01*
X0198301D01*
X0199301Y0088833D01*
Y0092832D01*
X0198301Y0093831D01*
X0201300Y0087833D02*
Y0093831D01*
X0204299D01*
X0205299Y0092832D01*
Y0090832D01*
X0204299Y0089833D01*
X0201300D01*
X0217295Y0092832D02*
X0216295Y0093831D01*
X0214296D01*
X0213296Y0092832D01*
Y0091832D01*
X0214296Y0090832D01*
X0216295D01*
X0217295Y0089833D01*
Y0088833D01*
X0216295Y0087833D01*
X0214296D01*
X0213296Y0088833D01*
X0219294Y0093831D02*
X0221293D01*
X0220294D01*
Y0087833D01*
X0219294D01*
X0221293D01*
X0224292Y0093831D02*
Y0087833D01*
X0227291D01*
X0228291Y0088833D01*
Y0092832D01*
X0227291Y0093831D01*
X0224292D01*
X0234289D02*
X0230291D01*
Y0087833D01*
X0234289D01*
X0230291Y0090832D02*
X0232290D01*
X0298199Y0051965D02*
X0297199Y0052965D01*
X0295200D01*
X0294200Y0051965D01*
Y0047966D01*
X0295200Y0046966D01*
X0297199D01*
X0298199Y0047966D01*
Y0049966D01*
X0296199D01*
X0304197Y0052965D02*
X0300198D01*
Y0046966D01*
X0304197D01*
X0300198Y0049966D02*
X0302197D01*
X0306196Y0046966D02*
Y0052965D01*
X0310195Y0046966D01*
Y0052965D01*
X0316193D02*
X0312194D01*
Y0046966D01*
X0316193D01*
X0312194Y0049966D02*
X0314194D01*
X0318192Y0046966D02*
Y0052965D01*
X0321191D01*
X0322191Y0051965D01*
Y0049966D01*
X0321191Y0048966D01*
X0318192D01*
X0320192D02*
X0322191Y0046966D01*
X0324190D02*
Y0050965D01*
X0326190Y0052965D01*
X0328189Y0050965D01*
Y0046966D01*
Y0049966D01*
X0324190D01*
X0330188Y0052965D02*
X0334187D01*
X0332188D01*
Y0046966D01*
X0340185Y0052965D02*
X0336186D01*
Y0046966D01*
X0340185D01*
X0336186Y0049966D02*
X0338186D01*
X0342184Y0052965D02*
Y0046966D01*
X0345183D01*
X0346183Y0047966D01*
Y0051965D01*
X0345183Y0052965D01*
X0342184D01*
X0372175Y0050965D02*
X0373175D01*
Y0049966D01*
X0372175D01*
Y0050965D01*
Y0047966D02*
X0373175D01*
Y0046966D01*
X0372175D01*
Y0047966D01*
X0381150Y0046966D02*
X0383149D01*
X0382150D01*
Y0052965D01*
X0381150Y0051965D01*
X0386148Y0046966D02*
X0388148D01*
X0387148D01*
Y0052965D01*
X0386148Y0051965D01*
X0391147Y0046966D02*
X0395146Y0050965D01*
X0397145Y0046966D02*
X0399144D01*
X0398145D01*
Y0052965D01*
X0397145Y0051965D01*
X0402143D02*
X0403143Y0052965D01*
X0405142D01*
X0406142Y0051965D01*
Y0050965D01*
X0405142Y0049966D01*
X0404143D01*
X0405142D01*
X0406142Y0048966D01*
Y0047966D01*
X0405142Y0046966D01*
X0403143D01*
X0402143Y0047966D01*
X0408141Y0046966D02*
X0412140Y0050965D01*
X0418138Y0046966D02*
X0414139D01*
X0418138Y0050965D01*
Y0051965D01*
X0417138Y0052965D01*
X0415139D01*
X0414139Y0051965D01*
X0420137D02*
X0421137Y0052965D01*
X0423136D01*
X0424136Y0051965D01*
Y0047966D01*
X0423136Y0046966D01*
X0421137D01*
X0420137Y0047966D01*
Y0051965D01*
X0426135Y0046966D02*
X0428135D01*
X0427135D01*
Y0052965D01*
X0426135Y0051965D01*
X0431134D02*
X0432133Y0052965D01*
X0434133D01*
X0435133Y0051965D01*
Y0050965D01*
X0434133Y0049966D01*
X0435133Y0048966D01*
Y0047966D01*
X0434133Y0046966D01*
X0432133D01*
X0431134Y0047966D01*
Y0048966D01*
X0432133Y0049966D01*
X0431134Y0050965D01*
Y0051965D01*
X0432133Y0049966D02*
X0434133D01*
X0433000Y0087833D02*
Y0093831D01*
X0435999D01*
X0436999Y0092832D01*
Y0090832D01*
X0435999Y0089833D01*
X0433000D01*
X0434999D02*
X0436999Y0087833D01*
X0442997Y0093831D02*
X0438998D01*
Y0087833D01*
X0442997D01*
X0438998Y0090832D02*
X0440997D01*
X0444996Y0093831D02*
Y0089833D01*
X0446995Y0087833D01*
X0448995Y0089833D01*
Y0093831D01*
X0450994Y0091832D02*
X0451994D01*
Y0090832D01*
X0450994D01*
Y0091832D01*
Y0088833D02*
X0451994D01*
Y0087833D01*
X0450994D01*
Y0088833D01*
X0520799Y0092832D02*
X0519799Y0093831D01*
X0517800D01*
X0516800Y0092832D01*
Y0091832D01*
X0517800Y0090832D01*
X0519799D01*
X0520799Y0089833D01*
Y0088833D01*
X0519799Y0087833D01*
X0517800D01*
X0516800Y0088833D01*
X0522798Y0093831D02*
Y0089833D01*
X0524797Y0087833D01*
X0526797Y0089833D01*
Y0093831D01*
X0528796Y0087833D02*
Y0093831D01*
X0532795Y0087833D01*
Y0093831D01*
X0540792Y0087833D02*
Y0093831D01*
X0543791D01*
X0544791Y0092832D01*
Y0090832D01*
X0543791Y0089833D01*
X0540792D01*
X0542792D02*
X0544791Y0087833D01*
X0550789Y0093831D02*
X0546790D01*
Y0087833D01*
X0550789D01*
X0546790Y0090832D02*
X0548790D01*
X0552788Y0093831D02*
Y0089833D01*
X0554788Y0087833D01*
X0556787Y0089833D01*
Y0093831D01*
X0558786Y0091832D02*
X0559786D01*
Y0090832D01*
X0558786D01*
Y0091832D01*
Y0088833D02*
X0559786D01*
Y0087833D01*
X0558786D01*
Y0088833D01*
X0567400Y0087833D02*
Y0093831D01*
X0571399Y0087833D01*
Y0093831D01*
X0574398Y0087833D02*
X0576397D01*
X0577397Y0088833D01*
Y0090832D01*
X0576397Y0091832D01*
X0574398D01*
X0573398Y0090832D01*
Y0088833D01*
X0574398Y0087833D01*
X0580396Y0092832D02*
Y0091832D01*
X0579396D01*
X0581395D01*
X0580396D01*
Y0088833D01*
X0581395Y0087833D01*
X0590393Y0093831D02*
X0592392D01*
X0591392D01*
Y0087833D01*
X0590393D01*
X0592392D01*
X0595391D02*
Y0091832D01*
X0598390D01*
X0599390Y0090832D01*
Y0087833D01*
X0607387Y0093831D02*
Y0089833D01*
X0609386Y0087833D01*
X0611386Y0089833D01*
Y0093831D01*
X0616384Y0087833D02*
X0614385D01*
X0613385Y0088833D01*
Y0090832D01*
X0614385Y0091832D01*
X0616384D01*
X0617384Y0090832D01*
Y0089833D01*
X0613385D01*
X0619383Y0091832D02*
Y0087833D01*
Y0089833D01*
X0620383Y0090832D01*
X0621383Y0091832D01*
X0622382D01*
X0625381Y0087833D02*
X0628380D01*
X0629380Y0088833D01*
X0628380Y0089833D01*
X0626381D01*
X0625381Y0090832D01*
X0626381Y0091832D01*
X0629380D01*
X0631379Y0087833D02*
X0633379D01*
X0632379D01*
Y0091832D01*
X0631379D01*
X0637377Y0087833D02*
X0639377D01*
X0640376Y0088833D01*
Y0090832D01*
X0639377Y0091832D01*
X0637377D01*
X0636378Y0090832D01*
Y0088833D01*
X0637377Y0087833D01*
X0642376D02*
Y0091832D01*
X0645375D01*
X0646374Y0090832D01*
Y0087833D01*
X0652373Y0092832D02*
X0651373Y0093831D01*
X0649373D01*
X0648374Y0092832D01*
Y0088833D01*
X0649373Y0087833D01*
X0651373D01*
X0652373Y0088833D01*
X0655372Y0087833D02*
X0657371D01*
X0658371Y0088833D01*
Y0090832D01*
X0657371Y0091832D01*
X0655372D01*
X0654372Y0090832D01*
Y0088833D01*
X0655372Y0087833D01*
X0660370D02*
Y0091832D01*
X0663369D01*
X0664369Y0090832D01*
Y0087833D01*
X0667368Y0092832D02*
Y0091832D01*
X0666368D01*
X0668367D01*
X0667368D01*
Y0088833D01*
X0668367Y0087833D01*
X0671366Y0091832D02*
Y0087833D01*
Y0089833D01*
X0672366Y0090832D01*
X0673366Y0091832D01*
X0674365D01*
X0678364Y0087833D02*
X0680364D01*
X0681363Y0088833D01*
Y0090832D01*
X0680364Y0091832D01*
X0678364D01*
X0677364Y0090832D01*
Y0088833D01*
X0678364Y0087833D01*
X0683362D02*
X0685362D01*
X0684362D01*
Y0093831D01*
X0683362D01*
G54D21*
X0273119Y0294478D02*
Y0295100D01*
Y0294478D02*
X0274799Y0292798D01*
X0326719Y0295300D02*
X0327419D01*
X0325319Y0293900D02*
X0326719Y0295300D01*
X0325319Y0292848D02*
Y0293900D01*
X0331739Y0293820D02*
X0332619Y0294700D01*
X0331739Y0292848D02*
Y0293820D01*
X0269071Y0372100D02*
Y0372664D01*
X0270219Y0373812D01*
Y0375600D01*
X0271419Y0376800D01*
X0279719D01*
X0349746Y0372631D02*
X0350819Y0373704D01*
Y0375800D01*
X0352019Y0377000D01*
X0359719D01*
X0226619Y0223099D02*
Y0220600D01*
X0226119Y0220100D01*
X0225119D01*
X0224620Y0220600D01*
Y0223099D01*
X0223620Y0220100D02*
X0222620D01*
X0223120D01*
Y0223099D01*
X0223620Y0222599D01*
X0219121Y0223099D02*
X0220121Y0222599D01*
X0221121Y0221600D01*
Y0220600D01*
X0220621Y0220100D01*
X0219621D01*
X0219121Y0220600D01*
Y0221100D01*
X0219621Y0221600D01*
X0221121D01*
X0213119Y0261799D02*
Y0259300D01*
X0212619Y0258800D01*
X0211619D01*
X0211120Y0259300D01*
Y0261799D01*
X0208120Y0258800D02*
X0210120D01*
X0208120Y0260799D01*
Y0261299D01*
X0208620Y0261799D01*
X0209620D01*
X0210120Y0261299D01*
X0401719Y0475900D02*
X0404718D01*
Y0477399D01*
X0404218Y0477899D01*
X0403218D01*
X0402719Y0477399D01*
Y0475900D01*
Y0476900D02*
X0401719Y0477899D01*
X0404718Y0480898D02*
Y0478899D01*
X0403218D01*
X0403718Y0479899D01*
Y0480399D01*
X0403218Y0480898D01*
X0402219D01*
X0401719Y0480399D01*
Y0479399D01*
X0402219Y0478899D01*
X0404218Y0481898D02*
X0404718Y0482398D01*
Y0483398D01*
X0404218Y0483897D01*
X0403718D01*
X0403218Y0483398D01*
X0402719Y0483897D01*
X0402219D01*
X0401719Y0483398D01*
Y0482398D01*
X0402219Y0481898D01*
X0402719D01*
X0403218Y0482398D01*
X0403718Y0481898D01*
X0404218D01*
X0403218Y0482398D02*
Y0483398D01*
X0127219Y0273900D02*
X0130218D01*
Y0275399D01*
X0129718Y0275899D01*
X0128718D01*
X0128219Y0275399D01*
Y0273900D01*
Y0274900D02*
X0127219Y0275899D01*
X0130218Y0278898D02*
Y0276899D01*
X0128718D01*
X0129218Y0277899D01*
Y0278398D01*
X0128718Y0278898D01*
X0127719D01*
X0127219Y0278398D01*
Y0277399D01*
X0127719Y0276899D01*
X0130218Y0279898D02*
Y0281897D01*
X0129718D01*
X0127719Y0279898D01*
X0127219D01*
X0414220Y0466399D02*
X0414719Y0466899D01*
X0415719D01*
X0416219Y0466399D01*
Y0464400D01*
X0415719Y0463900D01*
X0414719D01*
X0414220Y0464400D01*
X0411720Y0463900D02*
Y0466899D01*
X0413220Y0465400D01*
X0411221D01*
X0408221Y0466899D02*
X0410221D01*
Y0465400D01*
X0409221Y0465899D01*
X0408721D01*
X0408221Y0465400D01*
Y0464400D01*
X0408721Y0463900D01*
X0409721D01*
X0410221Y0464400D01*
X0205018Y0227900D02*
X0202019D01*
Y0229399D01*
X0202519Y0229899D01*
X0204518D01*
X0205018Y0229399D01*
Y0227900D01*
X0202019Y0230899D02*
Y0231899D01*
Y0231399D01*
X0205018D01*
X0204518Y0230899D01*
X0205018Y0233398D02*
Y0235398D01*
X0204518D01*
X0202519Y0233398D01*
X0202019D01*
X0328819Y0338999D02*
Y0336500D01*
X0328319Y0336000D01*
X0327319D01*
X0326819Y0336500D01*
Y0338999D01*
X0325820Y0336000D02*
X0324820D01*
X0325320D01*
Y0338999D01*
X0325820Y0338499D01*
X0321821Y0336000D02*
Y0338999D01*
X0323321Y0337499D01*
X0321321D01*
X0248219Y0338999D02*
Y0336500D01*
X0247719Y0336000D01*
X0246719D01*
X0246219Y0336500D01*
Y0338999D01*
X0245220Y0336000D02*
X0244220D01*
X0244720D01*
Y0338999D01*
X0245220Y0338499D01*
X0242721D02*
X0242221Y0338999D01*
X0241221D01*
X0240721Y0338499D01*
Y0337999D01*
X0241221Y0337499D01*
X0241721D01*
X0241221D01*
X0240721Y0337000D01*
Y0336500D01*
X0241221Y0336000D01*
X0242221D01*
X0242721Y0336500D01*
X0422319Y0643099D02*
Y0640600D01*
X0421819Y0640100D01*
X0420819D01*
X0420320Y0640600D01*
Y0643099D01*
X0419320Y0640100D02*
X0418320D01*
X0418820D01*
Y0643099D01*
X0419320Y0642599D01*
X0414821Y0640100D02*
X0416821D01*
X0414821Y0642099D01*
Y0642599D01*
X0415321Y0643099D01*
X0416321D01*
X0416821Y0642599D01*
X0166819Y0352799D02*
Y0350300D01*
X0166319Y0349800D01*
X0165319D01*
X0164820Y0350300D01*
Y0352799D01*
X0163820Y0349800D02*
X0162820D01*
X0163320D01*
Y0352799D01*
X0163820Y0352299D01*
X0161321Y0349800D02*
X0160321D01*
X0160821D01*
Y0352799D01*
X0161321Y0352299D01*
X0311019Y0660499D02*
Y0658000D01*
X0310519Y0657500D01*
X0309519D01*
X0309019Y0658000D01*
Y0660499D01*
X0308020Y0657500D02*
X0307020D01*
X0307520D01*
Y0660499D01*
X0308020Y0659999D01*
X0305521D02*
X0305021Y0660499D01*
X0304021D01*
X0303521Y0659999D01*
Y0658000D01*
X0304021Y0657500D01*
X0305021D01*
X0305521Y0658000D01*
Y0659999D01*
X0322119Y0659799D02*
Y0657300D01*
X0321619Y0656800D01*
X0320619D01*
X0320120Y0657300D01*
Y0659799D01*
X0319120Y0657300D02*
X0318620Y0656800D01*
X0317620D01*
X0317121Y0657300D01*
Y0659299D01*
X0317620Y0659799D01*
X0318620D01*
X0319120Y0659299D01*
Y0658799D01*
X0318620Y0658299D01*
X0317121D01*
X0180319Y0220499D02*
Y0218000D01*
X0179819Y0217500D01*
X0178819D01*
X0178320Y0218000D01*
Y0220499D01*
X0177320Y0219999D02*
X0176820Y0220499D01*
X0175820D01*
X0175320Y0219999D01*
Y0219499D01*
X0175820Y0219000D01*
X0175320Y0218500D01*
Y0218000D01*
X0175820Y0217500D01*
X0176820D01*
X0177320Y0218000D01*
Y0218500D01*
X0176820Y0219000D01*
X0177320Y0219499D01*
Y0219999D01*
X0176820Y0219000D02*
X0175820D01*
X0169119Y0293099D02*
Y0290600D01*
X0168619Y0290100D01*
X0167619D01*
X0167120Y0290600D01*
Y0293099D01*
X0164120D02*
X0165120Y0292599D01*
X0166120Y0291599D01*
Y0290600D01*
X0165620Y0290100D01*
X0164620D01*
X0164120Y0290600D01*
Y0291100D01*
X0164620Y0291599D01*
X0166120D01*
X0412919Y0494299D02*
Y0491800D01*
X0412419Y0491300D01*
X0411419D01*
X0410920Y0491800D01*
Y0494299D01*
X0408420Y0491300D02*
Y0494299D01*
X0409920Y0492800D01*
X0407921D01*
X0377919Y0628099D02*
Y0625600D01*
X0377419Y0625100D01*
X0376419D01*
X0375920Y0625600D01*
Y0628099D01*
X0374920Y0627599D02*
X0374420Y0628099D01*
X0373420D01*
X0372920Y0627599D01*
Y0627099D01*
X0373420Y0626600D01*
X0373920D01*
X0373420D01*
X0372920Y0626100D01*
Y0625600D01*
X0373420Y0625100D01*
X0374420D01*
X0374920Y0625600D01*
X0311419Y0278899D02*
Y0276400D01*
X0310919Y0275900D01*
X0309919D01*
X0309419Y0276400D01*
Y0278899D01*
X0308420Y0275900D02*
X0307420D01*
X0307920D01*
Y0278899D01*
X0308420Y0278399D01*
X0302819Y0473100D02*
Y0476099D01*
X0301319D01*
X0300819Y0475599D01*
Y0474600D01*
X0301319Y0474100D01*
X0302819D01*
X0301819D02*
X0300819Y0473100D01*
X0297820Y0476099D02*
X0299820D01*
Y0474600D01*
X0298820Y0475099D01*
X0298320D01*
X0297820Y0474600D01*
Y0473600D01*
X0298320Y0473100D01*
X0299320D01*
X0299820Y0473600D01*
X0294822Y0476099D02*
X0295821Y0475599D01*
X0296821Y0474600D01*
Y0473600D01*
X0296321Y0473100D01*
X0295321D01*
X0294822Y0473600D01*
Y0474100D01*
X0295321Y0474600D01*
X0296821D01*
X0272919Y0473200D02*
Y0476199D01*
X0271419D01*
X0270919Y0475699D01*
Y0474699D01*
X0271419Y0474200D01*
X0272919D01*
X0271919D02*
X0270919Y0473200D01*
X0267920Y0476199D02*
X0269920D01*
Y0474699D01*
X0268920Y0475199D01*
X0268420D01*
X0267920Y0474699D01*
Y0473700D01*
X0268420Y0473200D01*
X0269420D01*
X0269920Y0473700D01*
X0264921Y0476199D02*
X0266921D01*
Y0474699D01*
X0265921Y0475199D01*
X0265421D01*
X0264921Y0474699D01*
Y0473700D01*
X0265421Y0473200D01*
X0266421D01*
X0266921Y0473700D01*
X0333119Y0380800D02*
Y0383799D01*
X0331619D01*
X0331119Y0383299D01*
Y0382299D01*
X0331619Y0381800D01*
X0333119D01*
X0332119D02*
X0331119Y0380800D01*
X0328120Y0383799D02*
X0330120D01*
Y0382299D01*
X0329120Y0382799D01*
X0328620D01*
X0328120Y0382299D01*
Y0381300D01*
X0328620Y0380800D01*
X0329620D01*
X0330120Y0381300D01*
X0325621Y0380800D02*
Y0383799D01*
X0327121Y0382299D01*
X0325121D01*
X0253219Y0381000D02*
Y0383999D01*
X0251719D01*
X0251220Y0383499D01*
Y0382500D01*
X0251719Y0382000D01*
X0253219D01*
X0252219D02*
X0251220Y0381000D01*
X0248220Y0383999D02*
X0250220D01*
Y0382500D01*
X0249220Y0382999D01*
X0248720D01*
X0248220Y0382500D01*
Y0381500D01*
X0248720Y0381000D01*
X0249720D01*
X0250220Y0381500D01*
X0247221Y0383499D02*
X0246721Y0383999D01*
X0245721D01*
X0245221Y0383499D01*
Y0382999D01*
X0245721Y0382500D01*
X0246221D01*
X0245721D01*
X0245221Y0382000D01*
Y0381500D01*
X0245721Y0381000D01*
X0246721D01*
X0247221Y0381500D01*
X0358619Y0378500D02*
Y0381499D01*
X0357119D01*
X0356620Y0380999D01*
Y0379999D01*
X0357119Y0379500D01*
X0358619D01*
X0357619D02*
X0356620Y0378500D01*
X0353621Y0381499D02*
X0355620D01*
Y0379999D01*
X0354620Y0380499D01*
X0354120D01*
X0353621Y0379999D01*
Y0379000D01*
X0354120Y0378500D01*
X0355120D01*
X0355620Y0379000D01*
X0350622Y0378500D02*
X0352621D01*
X0350622Y0380499D01*
Y0380999D01*
X0351121Y0381499D01*
X0352121D01*
X0352621Y0380999D01*
X0326919Y0342900D02*
Y0345899D01*
X0325419D01*
X0324920Y0345399D01*
Y0344399D01*
X0325419Y0343900D01*
X0326919D01*
X0325919D02*
X0324920Y0342900D01*
X0321920Y0345899D02*
X0323920D01*
Y0344399D01*
X0322920Y0344899D01*
X0322420D01*
X0321920Y0344399D01*
Y0343400D01*
X0322420Y0342900D01*
X0323420D01*
X0323920Y0343400D01*
X0320921Y0342900D02*
X0319921D01*
X0320421D01*
Y0345899D01*
X0320921Y0345399D01*
X0246519Y0343400D02*
Y0346399D01*
X0245019D01*
X0244519Y0345899D01*
Y0344900D01*
X0245019Y0344400D01*
X0246519D01*
X0245519D02*
X0244519Y0343400D01*
X0241521Y0346399D02*
X0243520D01*
Y0344900D01*
X0242520Y0345399D01*
X0242020D01*
X0241521Y0344900D01*
Y0343900D01*
X0242020Y0343400D01*
X0243020D01*
X0243520Y0343900D01*
X0240521Y0345899D02*
X0240021Y0346399D01*
X0239021D01*
X0238522Y0345899D01*
Y0343900D01*
X0239021Y0343400D01*
X0240021D01*
X0240521Y0343900D01*
Y0345899D01*
X0277919Y0378200D02*
Y0381199D01*
X0276419D01*
X0275920Y0380699D01*
Y0379699D01*
X0276419Y0379200D01*
X0277919D01*
X0276919D02*
X0275920Y0378200D01*
X0273420D02*
Y0381199D01*
X0274920Y0379699D01*
X0272920D01*
X0271921Y0378700D02*
X0271421Y0378200D01*
X0270421D01*
X0269921Y0378700D01*
Y0380699D01*
X0270421Y0381199D01*
X0271421D01*
X0271921Y0380699D01*
Y0380199D01*
X0271421Y0379699D01*
X0269921D01*
X0337619Y0570000D02*
Y0572999D01*
X0336119D01*
X0335619Y0572499D01*
Y0571499D01*
X0336119Y0571000D01*
X0337619D01*
X0336619D02*
X0335619Y0570000D01*
X0333120D02*
Y0572999D01*
X0334620Y0571499D01*
X0332621D01*
X0331621Y0572499D02*
X0331121Y0572999D01*
X0330121D01*
X0329622Y0572499D01*
Y0571999D01*
X0330121Y0571499D01*
X0329622Y0571000D01*
Y0570500D01*
X0330121Y0570000D01*
X0331121D01*
X0331621Y0570500D01*
Y0571000D01*
X0331121Y0571499D01*
X0331621Y0571999D01*
Y0572499D01*
X0331121Y0571499D02*
X0330121D01*
X0239619Y0570000D02*
Y0572999D01*
X0238119D01*
X0237619Y0572499D01*
Y0571499D01*
X0238119Y0571000D01*
X0239619D01*
X0238619D02*
X0237619Y0570000D01*
X0235120D02*
Y0572999D01*
X0236620Y0571499D01*
X0234620D01*
X0233621Y0572999D02*
X0231622D01*
Y0572499D01*
X0233621Y0570500D01*
Y0570000D01*
X0326819Y0472900D02*
Y0475899D01*
X0325319D01*
X0324819Y0475399D01*
Y0474400D01*
X0325319Y0473900D01*
X0326819D01*
X0325819D02*
X0324819Y0472900D01*
X0322320D02*
Y0475899D01*
X0323820Y0474400D01*
X0321820D01*
X0318822Y0475899D02*
X0319821Y0475399D01*
X0320821Y0474400D01*
Y0473400D01*
X0320321Y0472900D01*
X0319321D01*
X0318822Y0473400D01*
Y0473900D01*
X0319321Y0474400D01*
X0320821D01*
X0246219Y0473300D02*
Y0476299D01*
X0244719D01*
X0244219Y0475799D01*
Y0474799D01*
X0244719Y0474300D01*
X0246219D01*
X0245219D02*
X0244219Y0473300D01*
X0241720D02*
Y0476299D01*
X0243220Y0474799D01*
X0241220D01*
X0238222Y0476299D02*
X0240221D01*
Y0474799D01*
X0239221Y0475299D01*
X0238721D01*
X0238222Y0474799D01*
Y0473800D01*
X0238721Y0473300D01*
X0239721D01*
X0240221Y0473800D01*
X0403919Y0633700D02*
Y0636699D01*
X0402419D01*
X0401920Y0636199D01*
Y0635199D01*
X0402419Y0634700D01*
X0403919D01*
X0402919D02*
X0401920Y0633700D01*
X0399420D02*
Y0636699D01*
X0400920Y0635199D01*
X0398920D01*
X0396421Y0633700D02*
Y0636699D01*
X0397921Y0635199D01*
X0395921D01*
X0193619Y0416400D02*
Y0419399D01*
X0192119D01*
X0191620Y0418899D01*
Y0417900D01*
X0192119Y0417400D01*
X0193619D01*
X0192619D02*
X0191620Y0416400D01*
X0189120D02*
Y0419399D01*
X0190620Y0417900D01*
X0188620D01*
X0187621Y0418899D02*
X0187121Y0419399D01*
X0186121D01*
X0185622Y0418899D01*
Y0418399D01*
X0186121Y0417900D01*
X0186621D01*
X0186121D01*
X0185622Y0417400D01*
Y0416900D01*
X0186121Y0416400D01*
X0187121D01*
X0187621Y0416900D01*
X0328819Y0690400D02*
Y0693399D01*
X0327319D01*
X0326819Y0692899D01*
Y0691899D01*
X0327319Y0691400D01*
X0328819D01*
X0327819D02*
X0326819Y0690400D01*
X0324320D02*
Y0693399D01*
X0325820Y0691899D01*
X0323820D01*
X0320821Y0690400D02*
X0322821D01*
X0320821Y0692399D01*
Y0692899D01*
X0321321Y0693399D01*
X0322321D01*
X0322821Y0692899D01*
X0280819Y0635700D02*
Y0638699D01*
X0279319D01*
X0278819Y0638199D01*
Y0637199D01*
X0279319Y0636700D01*
X0280819D01*
X0279819D02*
X0278819Y0635700D01*
X0276320D02*
Y0638699D01*
X0277820Y0637199D01*
X0275820D01*
X0274821Y0635700D02*
X0273821D01*
X0274321D01*
Y0638699D01*
X0274821Y0638199D01*
X0185219Y0637900D02*
Y0640899D01*
X0183719D01*
X0183220Y0640399D01*
Y0639399D01*
X0183719Y0638900D01*
X0185219D01*
X0184219D02*
X0183220Y0637900D01*
X0180720D02*
Y0640899D01*
X0182220Y0639399D01*
X0180220D01*
X0179221Y0640399D02*
X0178721Y0640899D01*
X0177721D01*
X0177222Y0640399D01*
Y0638400D01*
X0177721Y0637900D01*
X0178721D01*
X0179221Y0638400D01*
Y0640399D01*
X0195819Y0390600D02*
Y0393599D01*
X0194319D01*
X0193819Y0393099D01*
Y0392099D01*
X0194319Y0391600D01*
X0195819D01*
X0194819D02*
X0193819Y0390600D01*
X0192820Y0393099D02*
X0192320Y0393599D01*
X0191320D01*
X0190821Y0393099D01*
Y0392599D01*
X0191320Y0392099D01*
X0191820D01*
X0191320D01*
X0190821Y0391600D01*
Y0391100D01*
X0191320Y0390600D01*
X0192320D01*
X0192820Y0391100D01*
X0189821D02*
X0189321Y0390600D01*
X0188321D01*
X0187821Y0391100D01*
Y0393099D01*
X0188321Y0393599D01*
X0189321D01*
X0189821Y0393099D01*
Y0392599D01*
X0189321Y0392099D01*
X0187821D01*
X0148719Y0309100D02*
Y0312099D01*
X0147219D01*
X0146720Y0311599D01*
Y0310599D01*
X0147219Y0310100D01*
X0148719D01*
X0147719D02*
X0146720Y0309100D01*
X0145720Y0311599D02*
X0145220Y0312099D01*
X0144220D01*
X0143720Y0311599D01*
Y0311099D01*
X0144220Y0310599D01*
X0144720D01*
X0144220D01*
X0143720Y0310100D01*
Y0309600D01*
X0144220Y0309100D01*
X0145220D01*
X0145720Y0309600D01*
X0142721Y0311599D02*
X0142221Y0312099D01*
X0141221D01*
X0140721Y0311599D01*
Y0311099D01*
X0141221Y0310599D01*
X0140721Y0310100D01*
Y0309600D01*
X0141221Y0309100D01*
X0142221D01*
X0142721Y0309600D01*
Y0310100D01*
X0142221Y0310599D01*
X0142721Y0311099D01*
Y0311599D01*
X0142221Y0310599D02*
X0141221D01*
X0249919Y0228100D02*
X0252918D01*
Y0229599D01*
X0252418Y0230099D01*
X0251418D01*
X0250919Y0229599D01*
Y0228100D01*
Y0229100D02*
X0249919Y0230099D01*
X0252418Y0231099D02*
X0252918Y0231599D01*
Y0232598D01*
X0252418Y0233098D01*
X0251918D01*
X0251418Y0232598D01*
Y0232099D01*
Y0232598D01*
X0250919Y0233098D01*
X0250419D01*
X0249919Y0232598D01*
Y0231599D01*
X0250419Y0231099D01*
X0252918Y0234098D02*
Y0236097D01*
X0252418D01*
X0250419Y0234098D01*
X0249919D01*
X0138419Y0309100D02*
Y0312099D01*
X0136919D01*
X0136419Y0311599D01*
Y0310599D01*
X0136919Y0310100D01*
X0138419D01*
X0137419D02*
X0136419Y0309100D01*
X0135420Y0311599D02*
X0134920Y0312099D01*
X0133920D01*
X0133421Y0311599D01*
Y0311099D01*
X0133920Y0310599D01*
X0134420D01*
X0133920D01*
X0133421Y0310100D01*
Y0309600D01*
X0133920Y0309100D01*
X0134920D01*
X0135420Y0309600D01*
X0130421Y0312099D02*
X0131421Y0311599D01*
X0132421Y0310599D01*
Y0309600D01*
X0131921Y0309100D01*
X0130921D01*
X0130421Y0309600D01*
Y0310100D01*
X0130921Y0310599D01*
X0132421D01*
X0133719Y0273400D02*
X0136718D01*
Y0274900D01*
X0136218Y0275399D01*
X0135218D01*
X0134719Y0274900D01*
Y0273400D01*
Y0274400D02*
X0133719Y0275399D01*
X0136218Y0276399D02*
X0136718Y0276899D01*
Y0277899D01*
X0136218Y0278398D01*
X0135718D01*
X0135218Y0277899D01*
Y0277399D01*
Y0277899D01*
X0134719Y0278398D01*
X0134219D01*
X0133719Y0277899D01*
Y0276899D01*
X0134219Y0276399D01*
X0136718Y0281397D02*
Y0279398D01*
X0135218D01*
X0135718Y0280398D01*
Y0280898D01*
X0135218Y0281397D01*
X0134219D01*
X0133719Y0280898D01*
Y0279898D01*
X0134219Y0279398D01*
X0139219Y0282900D02*
Y0285899D01*
X0137719D01*
X0137220Y0285399D01*
Y0284400D01*
X0137719Y0283900D01*
X0139219D01*
X0138219D02*
X0137220Y0282900D01*
X0136220Y0285399D02*
X0135720Y0285899D01*
X0134720D01*
X0134221Y0285399D01*
Y0284899D01*
X0134720Y0284400D01*
X0135220D01*
X0134720D01*
X0134221Y0283900D01*
Y0283400D01*
X0134720Y0282900D01*
X0135720D01*
X0136220Y0283400D01*
X0131721Y0282900D02*
Y0285899D01*
X0133221Y0284400D01*
X0131221D01*
X0173819Y0316300D02*
Y0319299D01*
X0172319D01*
X0171819Y0318799D01*
Y0317799D01*
X0172319Y0317300D01*
X0173819D01*
X0172819D02*
X0171819Y0316300D01*
X0170820Y0318799D02*
X0170320Y0319299D01*
X0169320D01*
X0168821Y0318799D01*
Y0318299D01*
X0169320Y0317799D01*
X0169820D01*
X0169320D01*
X0168821Y0317300D01*
Y0316800D01*
X0169320Y0316300D01*
X0170320D01*
X0170820Y0316800D01*
X0167821Y0318799D02*
X0167321Y0319299D01*
X0166321D01*
X0165822Y0318799D01*
Y0318299D01*
X0166321Y0317799D01*
X0166821D01*
X0166321D01*
X0165822Y0317300D01*
Y0316800D01*
X0166321Y0316300D01*
X0167321D01*
X0167821Y0316800D01*
X0274719Y0209500D02*
X0277718D01*
Y0210999D01*
X0277218Y0211499D01*
X0276218D01*
X0275719Y0210999D01*
Y0209500D01*
Y0210500D02*
X0274719Y0211499D01*
Y0214498D02*
Y0212499D01*
X0276718Y0214498D01*
X0277218D01*
X0277718Y0213999D01*
Y0212999D01*
X0277218Y0212499D01*
X0275219Y0215498D02*
X0274719Y0215998D01*
Y0216998D01*
X0275219Y0217497D01*
X0277218D01*
X0277718Y0216998D01*
Y0215998D01*
X0277218Y0215498D01*
X0276718D01*
X0276218Y0215998D01*
Y0217497D01*
X0274619Y0242800D02*
Y0245799D01*
X0273119D01*
X0272620Y0245299D01*
Y0244300D01*
X0273119Y0243800D01*
X0274619D01*
X0273619D02*
X0272620Y0242800D01*
X0269620D02*
X0271620D01*
X0269620Y0244799D01*
Y0245299D01*
X0270120Y0245799D01*
X0271120D01*
X0271620Y0245299D01*
X0268621D02*
X0268121Y0245799D01*
X0267121D01*
X0266621Y0245299D01*
Y0244799D01*
X0267121Y0244300D01*
X0266621Y0243800D01*
Y0243300D01*
X0267121Y0242800D01*
X0268121D01*
X0268621Y0243300D01*
Y0243800D01*
X0268121Y0244300D01*
X0268621Y0244799D01*
Y0245299D01*
X0268121Y0244300D02*
X0267121D01*
X0274619Y0247700D02*
Y0250699D01*
X0273119D01*
X0272620Y0250199D01*
Y0249200D01*
X0273119Y0248700D01*
X0274619D01*
X0273619D02*
X0272620Y0247700D01*
X0269620D02*
X0271620D01*
X0269620Y0249699D01*
Y0250199D01*
X0270120Y0250699D01*
X0271120D01*
X0271620Y0250199D01*
X0268621Y0250699D02*
X0266621D01*
Y0250199D01*
X0268621Y0248200D01*
Y0247700D01*
X0266719Y0251600D02*
X0269718D01*
Y0253099D01*
X0269218Y0253599D01*
X0268218D01*
X0267719Y0253099D01*
Y0251600D01*
Y0252600D02*
X0266719Y0253599D01*
Y0256598D02*
Y0254599D01*
X0268718Y0256598D01*
X0269218D01*
X0269718Y0256099D01*
Y0255099D01*
X0269218Y0254599D01*
X0269718Y0259597D02*
X0269218Y0258598D01*
X0268218Y0257598D01*
X0267219D01*
X0266719Y0258098D01*
Y0259098D01*
X0267219Y0259597D01*
X0267719D01*
X0268218Y0259098D01*
Y0257598D01*
X0280419Y0209600D02*
X0283418D01*
Y0211100D01*
X0282918Y0211599D01*
X0281918D01*
X0281419Y0211100D01*
Y0209600D01*
Y0210600D02*
X0280419Y0211599D01*
Y0214598D02*
Y0212599D01*
X0282418Y0214598D01*
X0282918D01*
X0283418Y0214099D01*
Y0213099D01*
X0282918Y0212599D01*
X0283418Y0217597D02*
Y0215598D01*
X0281918D01*
X0282418Y0216598D01*
Y0217098D01*
X0281918Y0217597D01*
X0280919D01*
X0280419Y0217098D01*
Y0216098D01*
X0280919Y0215598D01*
X0286719Y0209600D02*
X0289718D01*
Y0211100D01*
X0289218Y0211599D01*
X0288218D01*
X0287719Y0211100D01*
Y0209600D01*
Y0210600D02*
X0286719Y0211599D01*
Y0214598D02*
Y0212599D01*
X0288718Y0214598D01*
X0289218D01*
X0289718Y0214099D01*
Y0213099D01*
X0289218Y0212599D01*
X0286719Y0217098D02*
X0289718D01*
X0288218Y0215598D01*
Y0217597D01*
X0268219Y0207200D02*
X0271218D01*
Y0208699D01*
X0270718Y0209199D01*
X0269718D01*
X0269219Y0208699D01*
Y0207200D01*
Y0208200D02*
X0268219Y0209199D01*
Y0212198D02*
Y0210199D01*
X0270218Y0212198D01*
X0270718D01*
X0271218Y0211699D01*
Y0210699D01*
X0270718Y0210199D01*
Y0213198D02*
X0271218Y0213698D01*
Y0214698D01*
X0270718Y0215197D01*
X0270218D01*
X0269718Y0214698D01*
Y0214198D01*
Y0214698D01*
X0269219Y0215197D01*
X0268719D01*
X0268219Y0214698D01*
Y0213698D01*
X0268719Y0213198D01*
X0328219Y0295300D02*
X0331218D01*
Y0296799D01*
X0330718Y0297299D01*
X0329718D01*
X0329219Y0296799D01*
Y0295300D01*
Y0296300D02*
X0328219Y0297299D01*
Y0300298D02*
Y0298299D01*
X0330218Y0300298D01*
X0330718D01*
X0331218Y0299798D01*
Y0298799D01*
X0330718Y0298299D01*
X0328219Y0303297D02*
Y0301298D01*
X0330218Y0303297D01*
X0330718D01*
X0331218Y0302798D01*
Y0301798D01*
X0330718Y0301298D01*
X0398819Y0601400D02*
Y0604399D01*
X0397319D01*
X0396819Y0603899D01*
Y0602900D01*
X0397319Y0602400D01*
X0398819D01*
X0397819D02*
X0396819Y0601400D01*
X0393821D02*
X0395820D01*
X0393821Y0603399D01*
Y0603899D01*
X0394320Y0604399D01*
X0395320D01*
X0395820Y0603899D01*
X0392821Y0601400D02*
X0391821D01*
X0392321D01*
Y0604399D01*
X0392821Y0603899D01*
X0315319Y0214700D02*
Y0217699D01*
X0313819D01*
X0313319Y0217199D01*
Y0216199D01*
X0313819Y0215700D01*
X0315319D01*
X0314319D02*
X0313319Y0214700D01*
X0310320D02*
X0312320D01*
X0310320Y0216699D01*
Y0217199D01*
X0310820Y0217699D01*
X0311820D01*
X0312320Y0217199D01*
X0309321D02*
X0308821Y0217699D01*
X0307821D01*
X0307322Y0217199D01*
Y0215200D01*
X0307821Y0214700D01*
X0308821D01*
X0309321Y0215200D01*
Y0217199D01*
X0332219Y0295400D02*
X0335218D01*
Y0296900D01*
X0334718Y0297399D01*
X0333718D01*
X0333219Y0296900D01*
Y0295400D01*
Y0296400D02*
X0332219Y0297399D01*
Y0298399D02*
Y0299399D01*
Y0298899D01*
X0335218D01*
X0334718Y0298399D01*
X0332719Y0300898D02*
X0332219Y0301398D01*
Y0302398D01*
X0332719Y0302898D01*
X0334718D01*
X0335218Y0302398D01*
Y0301398D01*
X0334718Y0300898D01*
X0334218D01*
X0333718Y0301398D01*
Y0302898D01*
X0322619Y0231600D02*
Y0234599D01*
X0321119D01*
X0320620Y0234099D01*
Y0233100D01*
X0321119Y0232600D01*
X0322619D01*
X0321619D02*
X0320620Y0231600D01*
X0319620D02*
X0318620D01*
X0319120D01*
Y0234599D01*
X0319620Y0234099D01*
X0317121D02*
X0316621Y0234599D01*
X0315621D01*
X0315121Y0234099D01*
Y0233599D01*
X0315621Y0233100D01*
X0315121Y0232600D01*
Y0232100D01*
X0315621Y0231600D01*
X0316621D01*
X0317121Y0232100D01*
Y0232600D01*
X0316621Y0233100D01*
X0317121Y0233599D01*
Y0234099D01*
X0316621Y0233100D02*
X0315621D01*
X0354319Y0260300D02*
Y0263299D01*
X0352819D01*
X0352320Y0262799D01*
Y0261800D01*
X0352819Y0261300D01*
X0354319D01*
X0353319D02*
X0352320Y0260300D01*
X0351320D02*
X0350320D01*
X0350820D01*
Y0263299D01*
X0351320Y0262799D01*
X0348821Y0263299D02*
X0346821D01*
Y0262799D01*
X0348821Y0260800D01*
Y0260300D01*
X0329119Y0214800D02*
Y0217799D01*
X0327619D01*
X0327119Y0217299D01*
Y0216300D01*
X0327619Y0215800D01*
X0329119D01*
X0328119D02*
X0327119Y0214800D01*
X0326120D02*
X0325120D01*
X0325620D01*
Y0217799D01*
X0326120Y0217299D01*
X0321621Y0217799D02*
X0322621Y0217299D01*
X0323621Y0216300D01*
Y0215300D01*
X0323121Y0214800D01*
X0322121D01*
X0321621Y0215300D01*
Y0215800D01*
X0322121Y0216300D01*
X0323621D01*
X0350919Y0254700D02*
Y0257699D01*
X0349419D01*
X0348920Y0257199D01*
Y0256200D01*
X0349419Y0255700D01*
X0350919D01*
X0349919D02*
X0348920Y0254700D01*
X0347920D02*
X0346920D01*
X0347420D01*
Y0257699D01*
X0347920Y0257199D01*
X0343421Y0257699D02*
X0345421D01*
Y0256200D01*
X0344421Y0256699D01*
X0343921D01*
X0343421Y0256200D01*
Y0255200D01*
X0343921Y0254700D01*
X0344921D01*
X0345421Y0255200D01*
X0334219Y0218900D02*
X0337218D01*
Y0220399D01*
X0336718Y0220899D01*
X0335718D01*
X0335219Y0220399D01*
Y0218900D01*
Y0219900D02*
X0334219Y0220899D01*
Y0221899D02*
Y0222899D01*
Y0222399D01*
X0337218D01*
X0336718Y0221899D01*
X0334219Y0225898D02*
X0337218D01*
X0335718Y0224398D01*
Y0226398D01*
X0354319Y0248300D02*
Y0251299D01*
X0352819D01*
X0352320Y0250799D01*
Y0249799D01*
X0352819Y0249300D01*
X0354319D01*
X0353319D02*
X0352320Y0248300D01*
X0351320D02*
X0350320D01*
X0350820D01*
Y0251299D01*
X0351320Y0250799D01*
X0348821D02*
X0348321Y0251299D01*
X0347321D01*
X0346821Y0250799D01*
Y0250299D01*
X0347321Y0249799D01*
X0347821D01*
X0347321D01*
X0346821Y0249300D01*
Y0248800D01*
X0347321Y0248300D01*
X0348321D01*
X0348821Y0248800D01*
X0351019Y0243100D02*
Y0246099D01*
X0349519D01*
X0349020Y0245599D01*
Y0244600D01*
X0349519Y0244100D01*
X0351019D01*
X0350019D02*
X0349020Y0243100D01*
X0348020D02*
X0347020D01*
X0347520D01*
Y0246099D01*
X0348020Y0245599D01*
X0343521Y0243100D02*
X0345521D01*
X0343521Y0245099D01*
Y0245599D01*
X0344021Y0246099D01*
X0345021D01*
X0345521Y0245599D01*
X0308119Y0294000D02*
X0311118D01*
Y0295499D01*
X0310618Y0295999D01*
X0309618D01*
X0309119Y0295499D01*
Y0294000D01*
Y0295000D02*
X0308119Y0295999D01*
Y0296999D02*
Y0297999D01*
Y0297499D01*
X0311118D01*
X0310618Y0296999D01*
X0308119Y0299498D02*
Y0300498D01*
Y0299998D01*
X0311118D01*
X0310618Y0299498D01*
X0350919Y0273600D02*
Y0276599D01*
X0349419D01*
X0348920Y0276099D01*
Y0275099D01*
X0349419Y0274600D01*
X0350919D01*
X0349919D02*
X0348920Y0273600D01*
X0347920D02*
X0346920D01*
X0347420D01*
Y0276599D01*
X0347920Y0276099D01*
X0345421D02*
X0344921Y0276599D01*
X0343921D01*
X0343421Y0276099D01*
Y0274100D01*
X0343921Y0273600D01*
X0344921D01*
X0345421Y0274100D01*
Y0276099D01*
X0288819Y0297500D02*
X0291818D01*
Y0299000D01*
X0291318Y0299499D01*
X0290318D01*
X0289819Y0299000D01*
Y0297500D01*
Y0298500D02*
X0288819Y0299499D01*
X0289319Y0300499D02*
X0288819Y0300999D01*
Y0301998D01*
X0289319Y0302498D01*
X0291318D01*
X0291818Y0301998D01*
Y0300999D01*
X0291318Y0300499D01*
X0290818D01*
X0290318Y0300999D01*
Y0302498D01*
X0378819Y0221100D02*
Y0224099D01*
X0377319D01*
X0376819Y0223599D01*
Y0222600D01*
X0377319Y0222100D01*
X0378819D01*
X0377819D02*
X0376819Y0221100D01*
X0375820Y0223599D02*
X0375320Y0224099D01*
X0374320D01*
X0373820Y0223599D01*
Y0223099D01*
X0374320Y0222600D01*
X0373820Y0222100D01*
Y0221600D01*
X0374320Y0221100D01*
X0375320D01*
X0375820Y0221600D01*
Y0222100D01*
X0375320Y0222600D01*
X0375820Y0223099D01*
Y0223599D01*
X0375320Y0222600D02*
X0374320D01*
X0351119Y0267700D02*
Y0270699D01*
X0349619D01*
X0349119Y0270199D01*
Y0269199D01*
X0349619Y0268700D01*
X0351119D01*
X0350119D02*
X0349119Y0267700D01*
X0348120Y0270699D02*
X0346121D01*
Y0270199D01*
X0348120Y0268200D01*
Y0267700D01*
X0368019Y0602300D02*
Y0605299D01*
X0366519D01*
X0366020Y0604799D01*
Y0603799D01*
X0366519Y0603300D01*
X0368019D01*
X0367019D02*
X0366020Y0602300D01*
X0363020Y0605299D02*
X0364020Y0604799D01*
X0365020Y0603799D01*
Y0602800D01*
X0364520Y0602300D01*
X0363520D01*
X0363020Y0602800D01*
Y0603300D01*
X0363520Y0603799D01*
X0365020D01*
X0338919Y0284500D02*
X0341918D01*
Y0285999D01*
X0341418Y0286499D01*
X0340418D01*
X0339919Y0285999D01*
Y0284500D01*
Y0285500D02*
X0338919Y0286499D01*
X0341918Y0289498D02*
Y0287499D01*
X0340418D01*
X0340918Y0288499D01*
Y0288999D01*
X0340418Y0289498D01*
X0339419D01*
X0338919Y0288999D01*
Y0287999D01*
X0339419Y0287499D01*
X0269719Y0295300D02*
Y0298299D01*
X0268219D01*
X0267720Y0297799D01*
Y0296799D01*
X0268219Y0296300D01*
X0269719D01*
X0268719D02*
X0267720Y0295300D01*
X0265220D02*
Y0298299D01*
X0266720Y0296799D01*
X0264721D01*
X0130719Y0371200D02*
Y0374199D01*
X0129219D01*
X0128719Y0373699D01*
Y0372699D01*
X0129219Y0372200D01*
X0130719D01*
X0129719D02*
X0128719Y0371200D01*
X0127720Y0373699D02*
X0127220Y0374199D01*
X0126220D01*
X0125721Y0373699D01*
Y0373199D01*
X0126220Y0372699D01*
X0126720D01*
X0126220D01*
X0125721Y0372200D01*
Y0371700D01*
X0126220Y0371200D01*
X0127220D01*
X0127720Y0371700D01*
X0151119Y0371500D02*
Y0374499D01*
X0149619D01*
X0149119Y0373999D01*
Y0373000D01*
X0149619Y0372500D01*
X0151119D01*
X0150119D02*
X0149119Y0371500D01*
X0146121D02*
X0148120D01*
X0146121Y0373499D01*
Y0373999D01*
X0146620Y0374499D01*
X0147620D01*
X0148120Y0373999D01*
X0142119Y0371500D02*
Y0374499D01*
X0140619D01*
X0140120Y0373999D01*
Y0373000D01*
X0140619Y0372500D01*
X0142119D01*
X0141119D02*
X0140120Y0371500D01*
X0139120D02*
X0138120D01*
X0138620D01*
Y0374499D01*
X0139120Y0373999D01*
X0308520Y0509600D02*
Y0511599D01*
X0309019Y0512099D01*
X0310019D01*
X0310519Y0511599D01*
Y0509600D01*
X0310019Y0509100D01*
X0309019D01*
X0309519Y0510100D02*
X0308520Y0509100D01*
X0309019D02*
X0308520Y0509600D01*
X0307520D02*
X0307020Y0509100D01*
X0306020D01*
X0305521Y0509600D01*
Y0511599D01*
X0306020Y0512099D01*
X0307020D01*
X0307520Y0511599D01*
Y0511099D01*
X0307020Y0510600D01*
X0305521D01*
X0255119Y0509400D02*
Y0511399D01*
X0255619Y0511899D01*
X0256619D01*
X0257119Y0511399D01*
Y0509400D01*
X0256619Y0508900D01*
X0255619D01*
X0256119Y0509900D02*
X0255119Y0508900D01*
X0255619D02*
X0255119Y0509400D01*
X0254120Y0511399D02*
X0253620Y0511899D01*
X0252620D01*
X0252120Y0511399D01*
Y0510899D01*
X0252620Y0510399D01*
X0252120Y0509900D01*
Y0509400D01*
X0252620Y0508900D01*
X0253620D01*
X0254120Y0509400D01*
Y0509900D01*
X0253620Y0510399D01*
X0254120Y0510899D01*
Y0511399D01*
X0253620Y0510399D02*
X0252620D01*
X0336520Y0510000D02*
Y0511999D01*
X0337019Y0512499D01*
X0338019D01*
X0338519Y0511999D01*
Y0510000D01*
X0338019Y0509500D01*
X0337019D01*
X0337519Y0510500D02*
X0336520Y0509500D01*
X0337019D02*
X0336520Y0510000D01*
X0335520Y0512499D02*
X0333521D01*
Y0511999D01*
X0335520Y0510000D01*
Y0509500D01*
X0228620Y0509800D02*
Y0511799D01*
X0229119Y0512299D01*
X0230119D01*
X0230619Y0511799D01*
Y0509800D01*
X0230119Y0509300D01*
X0229119D01*
X0229619Y0510300D02*
X0228620Y0509300D01*
X0229119D02*
X0228620Y0509800D01*
X0225621Y0512299D02*
X0226620Y0511799D01*
X0227620Y0510800D01*
Y0509800D01*
X0227120Y0509300D01*
X0226120D01*
X0225621Y0509800D01*
Y0510300D01*
X0226120Y0510800D01*
X0227620D01*
X0387919Y0665400D02*
Y0667399D01*
X0388419Y0667899D01*
X0389419D01*
X0389919Y0667399D01*
Y0665400D01*
X0389419Y0664900D01*
X0388419D01*
X0388919Y0665900D02*
X0387919Y0664900D01*
X0388419D02*
X0387919Y0665400D01*
X0384921Y0667899D02*
X0386920D01*
Y0666399D01*
X0385920Y0666899D01*
X0385420D01*
X0384921Y0666399D01*
Y0665400D01*
X0385420Y0664900D01*
X0386420D01*
X0386920Y0665400D01*
X0171019Y0448500D02*
Y0450499D01*
X0171519Y0450999D01*
X0172519D01*
X0173019Y0450499D01*
Y0448500D01*
X0172519Y0448000D01*
X0171519D01*
X0172019Y0449000D02*
X0171019Y0448000D01*
X0171519D02*
X0171019Y0448500D01*
X0168520Y0448000D02*
Y0450999D01*
X0170020Y0449500D01*
X0168020D01*
X0199720Y0687400D02*
Y0689399D01*
X0200219Y0689899D01*
X0201219D01*
X0201719Y0689399D01*
Y0687400D01*
X0201219Y0686900D01*
X0200219D01*
X0200719Y0687900D02*
X0199720Y0686900D01*
X0200219D02*
X0199720Y0687400D01*
X0198720Y0689399D02*
X0198220Y0689899D01*
X0197220D01*
X0196721Y0689399D01*
Y0688899D01*
X0197220Y0688400D01*
X0197720D01*
X0197220D01*
X0196721Y0687900D01*
Y0687400D01*
X0197220Y0686900D01*
X0198220D01*
X0198720Y0687400D01*
X0262619Y0231600D02*
Y0233599D01*
X0263119Y0234099D01*
X0264119D01*
X0264619Y0233599D01*
Y0231600D01*
X0264119Y0231100D01*
X0263119D01*
X0263619Y0232100D02*
X0262619Y0231100D01*
X0263119D02*
X0262619Y0231600D01*
X0259620Y0231100D02*
X0261620D01*
X0259620Y0233099D01*
Y0233599D01*
X0260120Y0234099D01*
X0261120D01*
X0261620Y0233599D01*
X0148319Y0339500D02*
Y0341499D01*
X0148819Y0341999D01*
X0149819D01*
X0150319Y0341499D01*
Y0339500D01*
X0149819Y0339000D01*
X0148819D01*
X0149319Y0340000D02*
X0148319Y0339000D01*
X0148819D02*
X0148319Y0339500D01*
X0147320Y0339000D02*
X0146320D01*
X0146820D01*
Y0341999D01*
X0147320Y0341499D01*
X0405919Y0630499D02*
Y0627500D01*
X0403920D01*
X0400920D02*
X0402920D01*
X0400920Y0629499D01*
Y0629999D01*
X0401420Y0630499D01*
X0402420D01*
X0402920Y0629999D01*
X0261719Y0281399D02*
Y0278400D01*
X0259719D01*
X0258720D02*
X0257720D01*
X0258220D01*
Y0281399D01*
X0258720Y0280899D01*
X0367218Y0358000D02*
X0364219D01*
Y0359500D01*
X0364719Y0359999D01*
X0366718D01*
X0367218Y0359500D01*
Y0358000D01*
X0364219Y0360999D02*
Y0361999D01*
Y0361499D01*
X0367218D01*
X0366718Y0360999D01*
X0367218Y0365498D02*
Y0363498D01*
X0365718D01*
X0366218Y0364498D01*
Y0364998D01*
X0365718Y0365498D01*
X0364719D01*
X0364219Y0364998D01*
Y0363998D01*
X0364719Y0363498D01*
X0286918Y0359000D02*
X0283919D01*
Y0360500D01*
X0284419Y0360999D01*
X0286418D01*
X0286918Y0360500D01*
Y0359000D01*
X0283919Y0361999D02*
Y0362999D01*
Y0362499D01*
X0286918D01*
X0286418Y0361999D01*
X0283919Y0365998D02*
X0286918D01*
X0285418Y0364498D01*
Y0366498D01*
X0351819Y0398599D02*
Y0395600D01*
X0350319D01*
X0349819Y0396100D01*
Y0398099D01*
X0350319Y0398599D01*
X0351819D01*
X0348820Y0395600D02*
X0347820D01*
X0348320D01*
Y0398599D01*
X0348820Y0398099D01*
X0346321D02*
X0345821Y0398599D01*
X0344821D01*
X0344321Y0398099D01*
Y0397599D01*
X0344821Y0397099D01*
X0345321D01*
X0344821D01*
X0344321Y0396600D01*
Y0396100D01*
X0344821Y0395600D01*
X0345821D01*
X0346321Y0396100D01*
X0271019Y0398699D02*
Y0395700D01*
X0269519D01*
X0269020Y0396200D01*
Y0398199D01*
X0269519Y0398699D01*
X0271019D01*
X0268020Y0395700D02*
X0267020D01*
X0267520D01*
Y0398699D01*
X0268020Y0398199D01*
X0263521Y0395700D02*
X0265521D01*
X0263521Y0397699D01*
Y0398199D01*
X0264021Y0398699D01*
X0265021D01*
X0265521Y0398199D01*
X0320419Y0388399D02*
Y0385400D01*
X0318919D01*
X0318420Y0385900D01*
Y0387899D01*
X0318919Y0388399D01*
X0320419D01*
X0317420Y0385400D02*
X0316420D01*
X0316920D01*
Y0388399D01*
X0317420Y0387899D01*
X0314921Y0385400D02*
X0313921D01*
X0314421D01*
Y0388399D01*
X0314921Y0387899D01*
X0315319Y0342899D02*
Y0339900D01*
X0313819D01*
X0313319Y0340400D01*
Y0342399D01*
X0313819Y0342899D01*
X0315319D01*
X0312320Y0339900D02*
X0311320D01*
X0311820D01*
Y0342899D01*
X0312320Y0342399D01*
X0309821D02*
X0309321Y0342899D01*
X0308321D01*
X0307821Y0342399D01*
Y0340400D01*
X0308321Y0339900D01*
X0309321D01*
X0309821Y0340400D01*
Y0342399D01*
X0231919Y0343099D02*
Y0340100D01*
X0230419D01*
X0229920Y0340600D01*
Y0342599D01*
X0230419Y0343099D01*
X0231919D01*
X0228920Y0340600D02*
X0228420Y0340100D01*
X0227420D01*
X0226921Y0340600D01*
Y0342599D01*
X0227420Y0343099D01*
X0228420D01*
X0228920Y0342599D01*
Y0342099D01*
X0228420Y0341599D01*
X0226921D01*
X0240319Y0389299D02*
Y0386300D01*
X0238819D01*
X0238319Y0386800D01*
Y0388799D01*
X0238819Y0389299D01*
X0240319D01*
X0237320Y0388799D02*
X0236820Y0389299D01*
X0235820D01*
X0235320Y0388799D01*
Y0388299D01*
X0235820Y0387800D01*
X0235320Y0387300D01*
Y0386800D01*
X0235820Y0386300D01*
X0236820D01*
X0237320Y0386800D01*
Y0387300D01*
X0236820Y0387800D01*
X0237320Y0388299D01*
Y0388799D01*
X0236820Y0387800D02*
X0235820D01*
X0201719Y0639399D02*
Y0636400D01*
X0200219D01*
X0199720Y0636900D01*
Y0638899D01*
X0200219Y0639399D01*
X0201719D01*
X0198720D02*
X0196721D01*
Y0638899D01*
X0198720Y0636900D01*
Y0636400D01*
X0164519Y0261699D02*
Y0258700D01*
X0163019D01*
X0162520Y0259200D01*
Y0261199D01*
X0163019Y0261699D01*
X0164519D01*
X0159520D02*
X0160520Y0261199D01*
X0161520Y0260199D01*
Y0259200D01*
X0161020Y0258700D01*
X0160020D01*
X0159520Y0259200D01*
Y0259700D01*
X0160020Y0260199D01*
X0161520D01*
X0336318Y0319599D02*
X0336818Y0319099D01*
Y0318100D01*
X0336318Y0317600D01*
X0334319D01*
X0333819Y0318100D01*
Y0319099D01*
X0334319Y0319599D01*
X0333819Y0322098D02*
X0336818D01*
X0335318Y0320599D01*
Y0322598D01*
X0333819Y0325098D02*
X0336818D01*
X0335318Y0323598D01*
Y0325597D01*
X0257018Y0319499D02*
X0257518Y0319000D01*
Y0318000D01*
X0257018Y0317500D01*
X0255019D01*
X0254519Y0318000D01*
Y0319000D01*
X0255019Y0319499D01*
X0254519Y0321999D02*
X0257518D01*
X0256018Y0320499D01*
Y0322498D01*
X0257018Y0323498D02*
X0257518Y0323998D01*
Y0324998D01*
X0257018Y0325497D01*
X0256518D01*
X0256018Y0324998D01*
Y0324498D01*
Y0324998D01*
X0255519Y0325497D01*
X0255019D01*
X0254519Y0324998D01*
Y0323998D01*
X0255019Y0323498D01*
X0344818Y0319499D02*
X0345318Y0319000D01*
Y0318000D01*
X0344818Y0317500D01*
X0342819D01*
X0342319Y0318000D01*
Y0319000D01*
X0342819Y0319499D01*
X0342319Y0321999D02*
X0345318D01*
X0343818Y0320499D01*
Y0322498D01*
X0342319Y0325497D02*
Y0323498D01*
X0344318Y0325497D01*
X0344818D01*
X0345318Y0324998D01*
Y0323998D01*
X0344818Y0323498D01*
X0262718Y0320599D02*
X0263218Y0320099D01*
Y0319100D01*
X0262718Y0318600D01*
X0260719D01*
X0260219Y0319100D01*
Y0320099D01*
X0260719Y0320599D01*
X0260219Y0323098D02*
X0263218D01*
X0261718Y0321599D01*
Y0323598D01*
X0260219Y0324598D02*
Y0325598D01*
Y0325098D01*
X0263218D01*
X0262718Y0324598D01*
X0366018Y0328699D02*
X0366518Y0328200D01*
Y0327200D01*
X0366018Y0326700D01*
X0364019D01*
X0363519Y0327200D01*
Y0328200D01*
X0364019Y0328699D01*
X0363519Y0331199D02*
X0366518D01*
X0365018Y0329699D01*
Y0331698D01*
X0366018Y0332698D02*
X0366518Y0333198D01*
Y0334198D01*
X0366018Y0334697D01*
X0364019D01*
X0363519Y0334198D01*
Y0333198D01*
X0364019Y0332698D01*
X0366018D01*
X0284018Y0331999D02*
X0284518Y0331500D01*
Y0330500D01*
X0284018Y0330000D01*
X0282019D01*
X0281519Y0330500D01*
Y0331500D01*
X0282019Y0331999D01*
X0284018Y0332999D02*
X0284518Y0333499D01*
Y0334499D01*
X0284018Y0334998D01*
X0283518D01*
X0283018Y0334499D01*
Y0333999D01*
Y0334499D01*
X0282519Y0334998D01*
X0282019D01*
X0281519Y0334499D01*
Y0333499D01*
X0282019Y0332999D01*
Y0335998D02*
X0281519Y0336498D01*
Y0337498D01*
X0282019Y0337997D01*
X0284018D01*
X0284518Y0337498D01*
Y0336498D01*
X0284018Y0335998D01*
X0283518D01*
X0283018Y0336498D01*
Y0337997D01*
X0432619Y0642899D02*
X0433119Y0643399D01*
X0434119D01*
X0434619Y0642899D01*
Y0640900D01*
X0434119Y0640400D01*
X0433119D01*
X0432619Y0640900D01*
X0431620Y0642899D02*
X0431120Y0643399D01*
X0430120D01*
X0429621Y0642899D01*
Y0642399D01*
X0430120Y0641899D01*
X0430620D01*
X0430120D01*
X0429621Y0641400D01*
Y0640900D01*
X0430120Y0640400D01*
X0431120D01*
X0431620Y0640900D01*
X0428621Y0642899D02*
X0428121Y0643399D01*
X0427121D01*
X0426621Y0642899D01*
Y0642399D01*
X0427121Y0641899D01*
X0426621Y0641400D01*
Y0640900D01*
X0427121Y0640400D01*
X0428121D01*
X0428621Y0640900D01*
Y0641400D01*
X0428121Y0641899D01*
X0428621Y0642399D01*
Y0642899D01*
X0428121Y0641899D02*
X0427121D01*
X0176520Y0370899D02*
X0177019Y0371399D01*
X0178019D01*
X0178519Y0370899D01*
Y0368900D01*
X0178019Y0368400D01*
X0177019D01*
X0176520Y0368900D01*
X0175520Y0370899D02*
X0175020Y0371399D01*
X0174020D01*
X0173521Y0370899D01*
Y0370399D01*
X0174020Y0369900D01*
X0174520D01*
X0174020D01*
X0173521Y0369400D01*
Y0368900D01*
X0174020Y0368400D01*
X0175020D01*
X0175520Y0368900D01*
X0172521Y0371399D02*
X0170521D01*
Y0370899D01*
X0172521Y0368900D01*
Y0368400D01*
X0366619Y0378699D02*
X0367119Y0379199D01*
X0368119D01*
X0368619Y0378699D01*
Y0376700D01*
X0368119Y0376200D01*
X0367119D01*
X0366619Y0376700D01*
X0365620Y0378699D02*
X0365120Y0379199D01*
X0364120D01*
X0363620Y0378699D01*
Y0378199D01*
X0364120Y0377699D01*
X0364620D01*
X0364120D01*
X0363620Y0377200D01*
Y0376700D01*
X0364120Y0376200D01*
X0365120D01*
X0365620Y0376700D01*
X0360622Y0379199D02*
X0361621Y0378699D01*
X0362621Y0377699D01*
Y0376700D01*
X0362121Y0376200D01*
X0361121D01*
X0360622Y0376700D01*
Y0377200D01*
X0361121Y0377699D01*
X0362621D01*
X0286019Y0379399D02*
X0286519Y0379899D01*
X0287519D01*
X0288019Y0379399D01*
Y0377400D01*
X0287519Y0376900D01*
X0286519D01*
X0286019Y0377400D01*
X0285020Y0379399D02*
X0284520Y0379899D01*
X0283520D01*
X0283020Y0379399D01*
Y0378899D01*
X0283520Y0378399D01*
X0284020D01*
X0283520D01*
X0283020Y0377900D01*
Y0377400D01*
X0283520Y0376900D01*
X0284520D01*
X0285020Y0377400D01*
X0280022Y0379899D02*
X0282021D01*
Y0378399D01*
X0281021Y0378899D01*
X0280521D01*
X0280022Y0378399D01*
Y0377400D01*
X0280521Y0376900D01*
X0281521D01*
X0282021Y0377400D01*
X0320420Y0572899D02*
X0320919Y0573399D01*
X0321919D01*
X0322419Y0572899D01*
Y0570900D01*
X0321919Y0570400D01*
X0320919D01*
X0320420Y0570900D01*
X0319420Y0572899D02*
X0318920Y0573399D01*
X0317920D01*
X0317421Y0572899D01*
Y0572399D01*
X0317920Y0571900D01*
X0318420D01*
X0317920D01*
X0317421Y0571400D01*
Y0570900D01*
X0317920Y0570400D01*
X0318920D01*
X0319420Y0570900D01*
X0314921Y0570400D02*
Y0573399D01*
X0316421Y0571900D01*
X0314422D01*
X0253520Y0572799D02*
X0254019Y0573299D01*
X0255019D01*
X0255519Y0572799D01*
Y0570800D01*
X0255019Y0570300D01*
X0254019D01*
X0253520Y0570800D01*
X0252520Y0572799D02*
X0252020Y0573299D01*
X0251020D01*
X0250520Y0572799D01*
Y0572299D01*
X0251020Y0571800D01*
X0251520D01*
X0251020D01*
X0250520Y0571300D01*
Y0570800D01*
X0251020Y0570300D01*
X0252020D01*
X0252520Y0570800D01*
X0249521Y0572799D02*
X0249021Y0573299D01*
X0248021D01*
X0247521Y0572799D01*
Y0572299D01*
X0248021Y0571800D01*
X0248521D01*
X0248021D01*
X0247521Y0571300D01*
Y0570800D01*
X0248021Y0570300D01*
X0249021D01*
X0249521Y0570800D01*
X0233218Y0602899D02*
X0233718Y0602399D01*
Y0601400D01*
X0233218Y0600900D01*
X0231219D01*
X0230719Y0601400D01*
Y0602399D01*
X0231219Y0602899D01*
X0233218Y0603899D02*
X0233718Y0604399D01*
Y0605399D01*
X0233218Y0605898D01*
X0232718D01*
X0232218Y0605399D01*
Y0604899D01*
Y0605399D01*
X0231719Y0605898D01*
X0231219D01*
X0230719Y0605399D01*
Y0604399D01*
X0231219Y0603899D01*
X0230719Y0608897D02*
Y0606898D01*
X0232718Y0608897D01*
X0233218D01*
X0233718Y0608398D01*
Y0607398D01*
X0233218Y0606898D01*
X0286318Y0604399D02*
X0286818Y0603899D01*
Y0602900D01*
X0286318Y0602400D01*
X0284319D01*
X0283819Y0602900D01*
Y0603899D01*
X0284319Y0604399D01*
X0286318Y0605399D02*
X0286818Y0605899D01*
Y0606898D01*
X0286318Y0607398D01*
X0285818D01*
X0285318Y0606898D01*
Y0606399D01*
Y0606898D01*
X0284819Y0607398D01*
X0284319D01*
X0283819Y0606898D01*
Y0605899D01*
X0284319Y0605399D01*
X0283819Y0608398D02*
Y0609398D01*
Y0608898D01*
X0286818D01*
X0286318Y0608398D01*
X0343819Y0456499D02*
X0344319Y0456999D01*
X0345319D01*
X0345819Y0456499D01*
Y0454500D01*
X0345319Y0454000D01*
X0344319D01*
X0343819Y0454500D01*
X0340821Y0454000D02*
X0342820D01*
X0340821Y0455999D01*
Y0456499D01*
X0341320Y0456999D01*
X0342320D01*
X0342820Y0456499D01*
X0339821D02*
X0339321Y0456999D01*
X0338321D01*
X0337822Y0456499D01*
Y0455999D01*
X0338321Y0455500D01*
X0337822Y0455000D01*
Y0454500D01*
X0338321Y0454000D01*
X0339321D01*
X0339821Y0454500D01*
Y0455000D01*
X0339321Y0455500D01*
X0339821Y0455999D01*
Y0456499D01*
X0339321Y0455500D02*
X0338321D01*
X0323720Y0417099D02*
X0324219Y0417599D01*
X0325219D01*
X0325719Y0417099D01*
Y0415100D01*
X0325219Y0414600D01*
X0324219D01*
X0323720Y0415100D01*
X0320721Y0414600D02*
X0322720D01*
X0320721Y0416599D01*
Y0417099D01*
X0321220Y0417599D01*
X0322220D01*
X0322720Y0417099D01*
X0319721Y0417599D02*
X0317722D01*
Y0417099D01*
X0319721Y0415100D01*
Y0414600D01*
X0235520Y0417099D02*
X0236019Y0417599D01*
X0237019D01*
X0237519Y0417099D01*
Y0415100D01*
X0237019Y0414600D01*
X0236019D01*
X0235520Y0415100D01*
X0232521Y0414600D02*
X0234520D01*
X0232521Y0416599D01*
Y0417099D01*
X0233020Y0417599D01*
X0234020D01*
X0234520Y0417099D01*
X0229521Y0417599D02*
X0230521Y0417099D01*
X0231521Y0416100D01*
Y0415100D01*
X0231021Y0414600D01*
X0230021D01*
X0229521Y0415100D01*
Y0415600D01*
X0230021Y0416100D01*
X0231521D01*
X0215820Y0457499D02*
X0216319Y0457999D01*
X0217319D01*
X0217819Y0457499D01*
Y0455500D01*
X0217319Y0455000D01*
X0216319D01*
X0215820Y0455500D01*
X0212821Y0455000D02*
X0214820D01*
X0212821Y0456999D01*
Y0457499D01*
X0213320Y0457999D01*
X0214320D01*
X0214820Y0457499D01*
X0209822Y0457999D02*
X0211821D01*
Y0456499D01*
X0210821Y0456999D01*
X0210321D01*
X0209822Y0456499D01*
Y0455500D01*
X0210321Y0455000D01*
X0211321D01*
X0211821Y0455500D01*
X0259719Y0218599D02*
X0260219Y0219099D01*
X0261219D01*
X0261719Y0218599D01*
Y0216600D01*
X0261219Y0216100D01*
X0260219D01*
X0259719Y0216600D01*
X0256720Y0216100D02*
X0258720D01*
X0256720Y0218099D01*
Y0218599D01*
X0257220Y0219099D01*
X0258220D01*
X0258720Y0218599D01*
X0253721Y0216100D02*
X0255721D01*
X0253721Y0218099D01*
Y0218599D01*
X0254221Y0219099D01*
X0255221D01*
X0255721Y0218599D01*
X0143219Y0248399D02*
X0143719Y0248899D01*
X0144719D01*
X0145219Y0248399D01*
Y0246400D01*
X0144719Y0245900D01*
X0143719D01*
X0143219Y0246400D01*
X0140220Y0245900D02*
X0142220D01*
X0140220Y0247899D01*
Y0248399D01*
X0140720Y0248899D01*
X0141720D01*
X0142220Y0248399D01*
X0139221Y0245900D02*
X0138221D01*
X0138721D01*
Y0248899D01*
X0139221Y0248399D01*
X0188918Y0239299D02*
X0189418Y0238800D01*
Y0237800D01*
X0188918Y0237300D01*
X0186919D01*
X0186419Y0237800D01*
Y0238800D01*
X0186919Y0239299D01*
X0186419Y0242298D02*
Y0240299D01*
X0188418Y0242298D01*
X0188918D01*
X0189418Y0241798D01*
Y0240799D01*
X0188918Y0240299D01*
Y0243298D02*
X0189418Y0243798D01*
Y0244798D01*
X0188918Y0245297D01*
X0186919D01*
X0186419Y0244798D01*
Y0243798D01*
X0186919Y0243298D01*
X0188918D01*
X0177419Y0248399D02*
X0177919Y0248899D01*
X0178919D01*
X0179419Y0248399D01*
Y0246400D01*
X0178919Y0245900D01*
X0177919D01*
X0177419Y0246400D01*
X0176420Y0245900D02*
X0175420D01*
X0175920D01*
Y0248899D01*
X0176420Y0248399D01*
X0173921Y0246400D02*
X0173421Y0245900D01*
X0172421D01*
X0171921Y0246400D01*
Y0248399D01*
X0172421Y0248899D01*
X0173421D01*
X0173921Y0248399D01*
Y0247899D01*
X0173421Y0247399D01*
X0171921D01*
X0171720Y0284999D02*
X0172219Y0285499D01*
X0173219D01*
X0173719Y0284999D01*
Y0283000D01*
X0173219Y0282500D01*
X0172219D01*
X0171720Y0283000D01*
X0170720Y0282500D02*
X0169720D01*
X0170220D01*
Y0285499D01*
X0170720Y0284999D01*
X0168221Y0285499D02*
X0166221D01*
Y0284999D01*
X0168221Y0283000D01*
Y0282500D01*
X0177018Y0303799D02*
X0177518Y0303299D01*
Y0302300D01*
X0177018Y0301800D01*
X0175019D01*
X0174519Y0302300D01*
Y0303299D01*
X0175019Y0303799D01*
X0174519Y0304799D02*
Y0305799D01*
Y0305299D01*
X0177518D01*
X0177018Y0304799D01*
X0177518Y0309298D02*
X0177018Y0308298D01*
X0176018Y0307298D01*
X0175019D01*
X0174519Y0307798D01*
Y0308798D01*
X0175019Y0309298D01*
X0175519D01*
X0176018Y0308798D01*
Y0307298D01*
X0157833Y0333999D02*
X0158332Y0334499D01*
X0159332D01*
X0159832Y0333999D01*
Y0332000D01*
X0159332Y0331500D01*
X0158332D01*
X0157833Y0332000D01*
X0156833Y0331500D02*
X0155833D01*
X0156333D01*
Y0334499D01*
X0156833Y0333999D01*
X0152334Y0334499D02*
X0154334D01*
Y0332999D01*
X0153334Y0333499D01*
X0152834D01*
X0152334Y0332999D01*
Y0332000D01*
X0152834Y0331500D01*
X0153834D01*
X0154334Y0332000D01*
X0430720Y0484199D02*
X0431219Y0484699D01*
X0432219D01*
X0432719Y0484199D01*
Y0482200D01*
X0432219Y0481700D01*
X0431219D01*
X0430720Y0482200D01*
X0429720Y0481700D02*
X0428720D01*
X0429220D01*
Y0484699D01*
X0429720Y0484199D01*
X0425721Y0481700D02*
Y0484699D01*
X0427221Y0483200D01*
X0425221D01*
X0396119Y0629099D02*
X0396619Y0629599D01*
X0397619D01*
X0398119Y0629099D01*
Y0627100D01*
X0397619Y0626600D01*
X0396619D01*
X0396119Y0627100D01*
X0395120Y0626600D02*
X0394120D01*
X0394620D01*
Y0629599D01*
X0395120Y0629099D01*
X0392621Y0626600D02*
X0391621D01*
X0392121D01*
Y0629599D01*
X0392621Y0629099D01*
X0257719Y0263699D02*
X0258219Y0264199D01*
X0259219D01*
X0259719Y0263699D01*
Y0261700D01*
X0259219Y0261200D01*
X0258219D01*
X0257719Y0261700D01*
X0256720Y0261200D02*
X0255720D01*
X0256220D01*
Y0264199D01*
X0256720Y0263699D01*
X0254221D02*
X0253721Y0264199D01*
X0252721D01*
X0252221Y0263699D01*
Y0261700D01*
X0252721Y0261200D01*
X0253721D01*
X0254221Y0261700D01*
Y0263699D01*
X0348819Y0240499D02*
X0349319Y0240999D01*
X0350319D01*
X0350819Y0240499D01*
Y0238500D01*
X0350319Y0238000D01*
X0349319D01*
X0348819Y0238500D01*
X0347820D02*
X0347320Y0238000D01*
X0346320D01*
X0345820Y0238500D01*
Y0240499D01*
X0346320Y0240999D01*
X0347320D01*
X0347820Y0240499D01*
Y0239999D01*
X0347320Y0239499D01*
X0345820D01*
X0302119Y0217199D02*
X0302619Y0217699D01*
X0303619D01*
X0304119Y0217199D01*
Y0215200D01*
X0303619Y0214700D01*
X0302619D01*
X0302119Y0215200D01*
X0301120Y0217199D02*
X0300620Y0217699D01*
X0299620D01*
X0299120Y0217199D01*
Y0216699D01*
X0299620Y0216199D01*
X0299120Y0215700D01*
Y0215200D01*
X0299620Y0214700D01*
X0300620D01*
X0301120Y0215200D01*
Y0215700D01*
X0300620Y0216199D01*
X0301120Y0216699D01*
Y0217199D01*
X0300620Y0216199D02*
X0299620D01*
X0306019Y0234199D02*
X0306519Y0234699D01*
X0307519D01*
X0308019Y0234199D01*
Y0232200D01*
X0307519Y0231700D01*
X0306519D01*
X0306019Y0232200D01*
X0305020Y0234699D02*
X0303021D01*
Y0234199D01*
X0305020Y0232200D01*
Y0231700D01*
X0317418Y0298999D02*
X0317918Y0298499D01*
Y0297500D01*
X0317418Y0297000D01*
X0315419D01*
X0314919Y0297500D01*
Y0298499D01*
X0315419Y0298999D01*
X0317918Y0301998D02*
X0317418Y0300999D01*
X0316418Y0299999D01*
X0315419D01*
X0314919Y0300499D01*
Y0301499D01*
X0315419Y0301998D01*
X0315919D01*
X0316418Y0301499D01*
Y0299999D01*
X0297518Y0299099D02*
X0298018Y0298600D01*
Y0297600D01*
X0297518Y0297100D01*
X0295519D01*
X0295019Y0297600D01*
Y0298600D01*
X0295519Y0299099D01*
X0298018Y0302098D02*
Y0300099D01*
X0296518D01*
X0297018Y0301099D01*
Y0301599D01*
X0296518Y0302098D01*
X0295519D01*
X0295019Y0301599D01*
Y0300599D01*
X0295519Y0300099D01*
X0304018Y0299099D02*
X0304518Y0298600D01*
Y0297600D01*
X0304018Y0297100D01*
X0302019D01*
X0301519Y0297600D01*
Y0298600D01*
X0302019Y0299099D01*
X0301519Y0301599D02*
X0304518D01*
X0303018Y0300099D01*
Y0302098D01*
X0285118Y0298999D02*
X0285618Y0298499D01*
Y0297500D01*
X0285118Y0297000D01*
X0283119D01*
X0282619Y0297500D01*
Y0298499D01*
X0283119Y0298999D01*
X0285118Y0299999D02*
X0285618Y0300499D01*
Y0301499D01*
X0285118Y0301998D01*
X0284618D01*
X0284118Y0301499D01*
Y0300999D01*
Y0301499D01*
X0283619Y0301998D01*
X0283119D01*
X0282619Y0301499D01*
Y0300499D01*
X0283119Y0299999D01*
X0363820Y0223499D02*
X0364319Y0223999D01*
X0365319D01*
X0365819Y0223499D01*
Y0221500D01*
X0365319Y0221000D01*
X0364319D01*
X0363820Y0221500D01*
X0360821Y0221000D02*
X0362820D01*
X0360821Y0222999D01*
Y0223499D01*
X0361320Y0223999D01*
X0362320D01*
X0362820Y0223499D01*
X0273918Y0297699D02*
X0274418Y0297200D01*
Y0296200D01*
X0273918Y0295700D01*
X0271919D01*
X0271419Y0296200D01*
Y0297200D01*
X0271919Y0297699D01*
X0271419Y0298699D02*
Y0299699D01*
Y0299199D01*
X0274418D01*
X0273918Y0298699D01*
X0207620Y0338599D02*
X0208119Y0339099D01*
X0209119D01*
X0209619Y0338599D01*
Y0336600D01*
X0209119Y0336100D01*
X0208119D01*
X0207620Y0336600D01*
X0206620Y0336100D02*
X0205620D01*
X0206120D01*
Y0339099D01*
X0206620Y0338599D01*
X0202121Y0336100D02*
X0204121D01*
X0202121Y0338099D01*
Y0338599D01*
X0202621Y0339099D01*
X0203621D01*
X0204121Y0338599D01*
X0208319Y0330599D02*
Y0327600D01*
X0206319D01*
X0205320Y0330099D02*
X0204820Y0330599D01*
X0203820D01*
X0203321Y0330099D01*
Y0329599D01*
X0203820Y0329099D01*
X0204320D01*
X0203820D01*
X0203321Y0328600D01*
Y0328100D01*
X0203820Y0327600D01*
X0204820D01*
X0205320Y0328100D01*
X0196119Y0374299D02*
Y0371800D01*
X0195619Y0371300D01*
X0194619D01*
X0194120Y0371800D01*
Y0374299D01*
X0191121D02*
X0193120D01*
Y0372799D01*
X0192120Y0373299D01*
X0191620D01*
X0191121Y0372799D01*
Y0371800D01*
X0191620Y0371300D01*
X0192620D01*
X0193120Y0371800D01*
X0396819Y0580499D02*
X0397319Y0580999D01*
X0398319D01*
X0398819Y0580499D01*
Y0578500D01*
X0398319Y0578000D01*
X0397319D01*
X0396819Y0578500D01*
X0395820Y0578000D02*
X0394820D01*
X0395320D01*
Y0580999D01*
X0395820Y0580499D01*
X0393321D02*
X0392821Y0580999D01*
X0391821D01*
X0391321Y0580499D01*
Y0579999D01*
X0391821Y0579499D01*
X0392321D01*
X0391821D01*
X0391321Y0579000D01*
Y0578500D01*
X0391821Y0578000D01*
X0392821D01*
X0393321Y0578500D01*
X0406519Y0580799D02*
Y0577800D01*
X0404520D01*
X0402020D02*
Y0580799D01*
X0403520Y0579299D01*
X0401520D01*
X0378419Y0581399D02*
Y0578900D01*
X0377919Y0578400D01*
X0376919D01*
X0376419Y0578900D01*
Y0581399D01*
X0375420Y0578400D02*
X0374420D01*
X0374920D01*
Y0581399D01*
X0375420Y0580899D01*
X0370921Y0581399D02*
X0372921D01*
Y0579900D01*
X0371921Y0580399D01*
X0371421D01*
X0370921Y0579900D01*
Y0578900D01*
X0371421Y0578400D01*
X0372421D01*
X0372921Y0578900D01*
X0131819Y0223599D02*
Y0220600D01*
Y0222099D01*
X0129820D01*
Y0223599D01*
Y0220600D01*
X0126821Y0223599D02*
X0128820D01*
Y0222099D01*
X0127820Y0222599D01*
X0127320D01*
X0126821Y0222099D01*
Y0221100D01*
X0127320Y0220600D01*
X0128320D01*
X0128820Y0221100D01*
X0132519Y0702899D02*
Y0699900D01*
Y0701400D01*
X0130519D01*
Y0702899D01*
Y0699900D01*
X0127521Y0702899D02*
X0128520Y0702399D01*
X0129520Y0701400D01*
Y0700400D01*
X0129020Y0699900D01*
X0128020D01*
X0127521Y0700400D01*
Y0700900D01*
X0128020Y0701400D01*
X0129520D01*
X0439719Y0700899D02*
Y0697900D01*
Y0699400D01*
X0437719D01*
Y0700899D01*
Y0697900D01*
X0436720Y0700899D02*
X0434721D01*
Y0700399D01*
X0436720Y0698400D01*
Y0697900D01*
X0439869Y0231949D02*
Y0228950D01*
Y0230450D01*
X0437870D01*
Y0231949D01*
Y0228950D01*
X0436870Y0231449D02*
X0436370Y0231949D01*
X0435370D01*
X0434870Y0231449D01*
Y0230949D01*
X0435370Y0230450D01*
X0434870Y0229950D01*
Y0229450D01*
X0435370Y0228950D01*
X0436370D01*
X0436870Y0229450D01*
Y0229950D01*
X0436370Y0230450D01*
X0436870Y0230949D01*
Y0231449D01*
X0436370Y0230450D02*
X0435370D01*
X0126900Y0049966D02*
X0128899D01*
X0127900D01*
Y0046966D01*
X0129899Y0049966D02*
X0130899D01*
X0130399D01*
Y0046966D01*
X0129899D01*
X0130899D01*
X0132398Y0049966D02*
Y0046966D01*
X0133898D01*
X0134398Y0047466D01*
Y0049466D01*
X0133898Y0049966D01*
X0132398D01*
X0135397Y0046966D02*
Y0048966D01*
X0136397Y0049966D01*
X0137397Y0048966D01*
Y0046966D01*
Y0048466D01*
X0135397D01*
X0138396D02*
X0140396D01*
X0141395Y0049466D02*
X0141895Y0049966D01*
X0142895D01*
X0143395Y0049466D01*
Y0047466D01*
X0142895Y0046966D01*
X0141895D01*
X0141395Y0047466D01*
Y0049466D01*
X0144394Y0046966D02*
X0145394D01*
X0144894D01*
Y0049966D01*
X0144394Y0049466D01*
X0146894D02*
X0147393Y0049966D01*
X0148393D01*
X0148893Y0049466D01*
Y0047466D01*
X0148393Y0046966D01*
X0147393D01*
X0146894Y0047466D01*
Y0049466D01*
X0149893D02*
X0150392Y0049966D01*
X0151392D01*
X0151892Y0049466D01*
Y0047466D01*
X0151392Y0046966D01*
X0150392D01*
X0149893Y0047466D01*
Y0049466D01*
X0154391Y0046966D02*
Y0049966D01*
X0152892Y0048466D01*
X0154891D01*
X0157890Y0046966D02*
X0155891D01*
X0157890Y0048966D01*
Y0049466D01*
X0157390Y0049966D01*
X0156391D01*
X0155891Y0049466D01*
X0160889Y0049966D02*
X0158890D01*
Y0046966D01*
X0160889D01*
X0158890Y0048466D02*
X0159889D01*
X0163888Y0046966D02*
X0161889D01*
X0163888Y0048966D01*
Y0049466D01*
X0163388Y0049966D01*
X0162389D01*
X0161889Y0049466D01*
X0164888Y0046966D02*
Y0047466D01*
X0165388D01*
Y0046966D01*
X0164888D01*
X0169386Y0049466D02*
X0168886Y0049966D01*
X0167887D01*
X0167387Y0049466D01*
Y0047466D01*
X0167887Y0046966D01*
X0168886D01*
X0169386Y0047466D01*
Y0048466D01*
X0168387D01*
X0170386Y0049966D02*
Y0046966D01*
X0171885D01*
X0172385Y0047466D01*
Y0047966D01*
X0171885Y0048466D01*
X0170386D01*
X0171885D01*
X0172385Y0048966D01*
Y0049466D01*
X0171885Y0049966D01*
X0170386D01*
X0174884D02*
X0173885D01*
X0173385Y0049466D01*
Y0047466D01*
X0173885Y0046966D01*
X0174884D01*
X0175384Y0047466D01*
Y0049466D01*
X0174884Y0049966D01*
G54D22*
X0559400Y0039400D02*
Y0059683D01*
X0440500Y0040050D02*
X0700200D01*
Y0101050D01*
X0286500Y0040050D02*
Y0101050D01*
X0040000Y0040050D02*
Y0101050D01*
X0040050Y0040050D02*
X0197600D01*
X0040050D02*
Y0101050D01*
Y0101050D02*
X0700200D01*
X0040000Y0040050D02*
X0440500D01*
X0040000Y0060383D02*
X0700000D01*
X0040000Y0080717D02*
X0700200D01*
X0413200D02*
Y0101050D01*
X0497200Y0080717D02*
Y0101050D01*
G54D157*
X0238282Y0218089D02*
G03*
X0238282Y0218089I-0000492J0000000D01*
G01*
G54D158*
X0138171Y0250163D02*
X0145257D01*
X0138171Y0258037D02*
X0145257D01*
X0152083Y0330837D02*
X0159169D01*
X0152083Y0322963D02*
X0159169D01*
G54D159*
X0262690Y0227674D02*
D03*
X0141544Y0350874D02*
D03*
G54D160*
X0357646Y0374131D02*
D03*
X0276971Y0374164D02*
D03*
G54D161*
X0335773Y0388631D02*
D03*
X0255117Y0388664D02*
D03*
G54D162*
X0317973Y0366629D02*
D03*
X0311719Y0344897D02*
D03*
X0230016Y0344930D02*
D03*
X0237971Y0367163D02*
D03*
G54D163*
X0189419Y0644900D02*
D03*
G54D164*
X0168214Y0270600D02*
D03*
G54D165*
X0196514Y0239000D02*
D03*
M02*
