G04*
G04 #@! TF.GenerationSoftware,Altium Limited,Altium Designer,18.1.9 (240)*
G04*
G04 Layer_Color=16711935*
%FSAX25Y25*%
%MOIN*%
G70*
G01*
G75*
%ADD17C,0.00800*%
%ADD21C,0.00600*%
%ADD22C,0.01000*%
%ADD38C,0.07874*%
%ADD41R,0.04331X0.04134*%
%ADD46R,0.04134X0.04331*%
%ADD47R,0.06693X0.21260*%
%ADD48R,0.06496X0.06496*%
%ADD49C,0.06496*%
%ADD50C,0.08661*%
G04:AMPARAMS|DCode=51|XSize=86.61mil|YSize=86.61mil|CornerRadius=22.64mil|HoleSize=0mil|Usage=FLASHONLY|Rotation=180.000|XOffset=0mil|YOffset=0mil|HoleType=Round|Shape=RoundedRectangle|*
%AMROUNDEDRECTD51*
21,1,0.08661,0.04134,0,0,180.0*
21,1,0.04134,0.08661,0,0,180.0*
1,1,0.04528,-0.02067,0.02067*
1,1,0.04528,0.02067,0.02067*
1,1,0.04528,0.02067,-0.02067*
1,1,0.04528,-0.02067,-0.02067*
%
%ADD51ROUNDEDRECTD51*%
G04:AMPARAMS|DCode=52|XSize=86.61mil|YSize=86.61mil|CornerRadius=22.64mil|HoleSize=0mil|Usage=FLASHONLY|Rotation=270.000|XOffset=0mil|YOffset=0mil|HoleType=Round|Shape=RoundedRectangle|*
%AMROUNDEDRECTD52*
21,1,0.08661,0.04134,0,0,270.0*
21,1,0.04134,0.08661,0,0,270.0*
1,1,0.04528,-0.02067,-0.02067*
1,1,0.04528,-0.02067,0.02067*
1,1,0.04528,0.02067,0.02067*
1,1,0.04528,0.02067,-0.02067*
%
%ADD52ROUNDEDRECTD52*%
%ADD53R,0.06890X0.06890*%
%ADD54C,0.06890*%
%ADD55R,0.06299X0.06299*%
%ADD56C,0.06299*%
%ADD57R,0.06890X0.06890*%
G04:AMPARAMS|DCode=58|XSize=64.96mil|YSize=64.96mil|CornerRadius=3.8mil|HoleSize=0mil|Usage=FLASHONLY|Rotation=0.000|XOffset=0mil|YOffset=0mil|HoleType=Round|Shape=RoundedRectangle|*
%AMROUNDEDRECTD58*
21,1,0.06496,0.05736,0,0,0.0*
21,1,0.05736,0.06496,0,0,0.0*
1,1,0.00760,0.02868,-0.02868*
1,1,0.00760,-0.02868,-0.02868*
1,1,0.00760,-0.02868,0.02868*
1,1,0.00760,0.02868,0.02868*
%
%ADD58ROUNDEDRECTD58*%
%ADD59C,0.31890*%
%ADD60C,0.08394*%
%ADD61C,0.02794*%
%ADD62C,0.02362*%
G04:AMPARAMS|DCode=115|XSize=9.84mil|YSize=21.85mil|CornerRadius=1.97mil|HoleSize=0mil|Usage=FLASHONLY|Rotation=90.000|XOffset=0mil|YOffset=0mil|HoleType=Round|Shape=RoundedRectangle|*
%AMROUNDEDRECTD115*
21,1,0.00984,0.01791,0,0,90.0*
21,1,0.00591,0.02185,0,0,90.0*
1,1,0.00394,0.00896,0.00295*
1,1,0.00394,0.00896,-0.00295*
1,1,0.00394,-0.00896,-0.00295*
1,1,0.00394,-0.00896,0.00295*
%
%ADD115ROUNDEDRECTD115*%
G04:AMPARAMS|DCode=116|XSize=140.94mil|YSize=157.48mil|CornerRadius=2.11mil|HoleSize=0mil|Usage=FLASHONLY|Rotation=90.000|XOffset=0mil|YOffset=0mil|HoleType=Round|Shape=RoundedRectangle|*
%AMROUNDEDRECTD116*
21,1,0.14094,0.15325,0,0,90.0*
21,1,0.13672,0.15748,0,0,90.0*
1,1,0.00423,0.07663,0.06836*
1,1,0.00423,0.07663,-0.06836*
1,1,0.00423,-0.07663,-0.06836*
1,1,0.00423,-0.07663,0.06836*
%
%ADD116ROUNDEDRECTD116*%
G04:AMPARAMS|DCode=117|XSize=137.01mil|YSize=175.98mil|CornerRadius=2.06mil|HoleSize=0mil|Usage=FLASHONLY|Rotation=0.000|XOffset=0mil|YOffset=0mil|HoleType=Round|Shape=RoundedRectangle|*
%AMROUNDEDRECTD117*
21,1,0.13701,0.17187,0,0,0.0*
21,1,0.13290,0.17598,0,0,0.0*
1,1,0.00411,0.06645,-0.08594*
1,1,0.00411,-0.06645,-0.08594*
1,1,0.00411,-0.06645,0.08594*
1,1,0.00411,0.06645,0.08594*
%
%ADD117ROUNDEDRECTD117*%
G04:AMPARAMS|DCode=118|XSize=9.84mil|YSize=21.85mil|CornerRadius=1.97mil|HoleSize=0mil|Usage=FLASHONLY|Rotation=0.000|XOffset=0mil|YOffset=0mil|HoleType=Round|Shape=RoundedRectangle|*
%AMROUNDEDRECTD118*
21,1,0.00984,0.01791,0,0,0.0*
21,1,0.00591,0.02185,0,0,0.0*
1,1,0.00394,0.00295,-0.00896*
1,1,0.00394,-0.00295,-0.00896*
1,1,0.00394,-0.00295,0.00896*
1,1,0.00394,0.00295,0.00896*
%
%ADD118ROUNDEDRECTD118*%
G04:AMPARAMS|DCode=119|XSize=140.94mil|YSize=157.48mil|CornerRadius=2.11mil|HoleSize=0mil|Usage=FLASHONLY|Rotation=0.000|XOffset=0mil|YOffset=0mil|HoleType=Round|Shape=RoundedRectangle|*
%AMROUNDEDRECTD119*
21,1,0.14094,0.15325,0,0,0.0*
21,1,0.13672,0.15748,0,0,0.0*
1,1,0.00423,0.06836,-0.07663*
1,1,0.00423,-0.06836,-0.07663*
1,1,0.00423,-0.06836,0.07663*
1,1,0.00423,0.06836,0.07663*
%
%ADD119ROUNDEDRECTD119*%
%ADD120R,0.00709X0.00984*%
%ADD121R,0.00886X0.01614*%
%ADD122R,0.00984X0.00709*%
G04:AMPARAMS|DCode=123|XSize=19.68mil|YSize=29.53mil|CornerRadius=3.94mil|HoleSize=0mil|Usage=FLASHONLY|Rotation=0.000|XOffset=0mil|YOffset=0mil|HoleType=Round|Shape=RoundedRectangle|*
%AMROUNDEDRECTD123*
21,1,0.01968,0.02165,0,0,0.0*
21,1,0.01181,0.02953,0,0,0.0*
1,1,0.00787,0.00591,-0.01083*
1,1,0.00787,-0.00591,-0.01083*
1,1,0.00787,-0.00591,0.01083*
1,1,0.00787,0.00591,0.01083*
%
%ADD123ROUNDEDRECTD123*%
%ADD124R,0.02756X0.02362*%
G04:AMPARAMS|DCode=125|XSize=29.92mil|YSize=16.14mil|CornerRadius=1.95mil|HoleSize=0mil|Usage=FLASHONLY|Rotation=90.000|XOffset=0mil|YOffset=0mil|HoleType=Round|Shape=RoundedRectangle|*
%AMROUNDEDRECTD125*
21,1,0.02992,0.01225,0,0,90.0*
21,1,0.02603,0.01614,0,0,90.0*
1,1,0.00389,0.00612,0.01301*
1,1,0.00389,0.00612,-0.01301*
1,1,0.00389,-0.00612,-0.01301*
1,1,0.00389,-0.00612,0.01301*
%
%ADD125ROUNDEDRECTD125*%
%ADD126O,0.02756X0.06102*%
G04:AMPARAMS|DCode=127|XSize=27.56mil|YSize=43.31mil|CornerRadius=3.98mil|HoleSize=0mil|Usage=FLASHONLY|Rotation=90.000|XOffset=0mil|YOffset=0mil|HoleType=Round|Shape=RoundedRectangle|*
%AMROUNDEDRECTD127*
21,1,0.02756,0.03535,0,0,90.0*
21,1,0.01961,0.04331,0,0,90.0*
1,1,0.00795,0.01768,0.00980*
1,1,0.00795,0.01768,-0.00980*
1,1,0.00795,-0.01768,-0.00980*
1,1,0.00795,-0.01768,0.00980*
%
%ADD127ROUNDEDRECTD127*%
G04:AMPARAMS|DCode=128|XSize=43.31mil|YSize=66.93mil|CornerRadius=3.94mil|HoleSize=0mil|Usage=FLASHONLY|Rotation=180.000|XOffset=0mil|YOffset=0mil|HoleType=Round|Shape=RoundedRectangle|*
%AMROUNDEDRECTD128*
21,1,0.04331,0.05906,0,0,180.0*
21,1,0.03543,0.06693,0,0,180.0*
1,1,0.00787,-0.01772,0.02953*
1,1,0.00787,0.01772,0.02953*
1,1,0.00787,0.01772,-0.02953*
1,1,0.00787,-0.01772,-0.02953*
%
%ADD128ROUNDEDRECTD128*%
G04:AMPARAMS|DCode=129|XSize=15.75mil|YSize=21.65mil|CornerRadius=3.92mil|HoleSize=0mil|Usage=FLASHONLY|Rotation=90.000|XOffset=0mil|YOffset=0mil|HoleType=Round|Shape=RoundedRectangle|*
%AMROUNDEDRECTD129*
21,1,0.01575,0.01382,0,0,90.0*
21,1,0.00791,0.02165,0,0,90.0*
1,1,0.00784,0.00691,0.00396*
1,1,0.00784,0.00691,-0.00396*
1,1,0.00784,-0.00691,-0.00396*
1,1,0.00784,-0.00691,0.00396*
%
%ADD129ROUNDEDRECTD129*%
G04:AMPARAMS|DCode=130|XSize=27.56mil|YSize=43.31mil|CornerRadius=3.98mil|HoleSize=0mil|Usage=FLASHONLY|Rotation=180.000|XOffset=0mil|YOffset=0mil|HoleType=Round|Shape=RoundedRectangle|*
%AMROUNDEDRECTD130*
21,1,0.02756,0.03535,0,0,180.0*
21,1,0.01961,0.04331,0,0,180.0*
1,1,0.00795,-0.00980,0.01768*
1,1,0.00795,0.00980,0.01768*
1,1,0.00795,0.00980,-0.01768*
1,1,0.00795,-0.00980,-0.01768*
%
%ADD130ROUNDEDRECTD130*%
%ADD131O,0.02165X0.05709*%
G04:AMPARAMS|DCode=132|XSize=15.75mil|YSize=30.32mil|CornerRadius=3.92mil|HoleSize=0mil|Usage=FLASHONLY|Rotation=0.000|XOffset=0mil|YOffset=0mil|HoleType=Round|Shape=RoundedRectangle|*
%AMROUNDEDRECTD132*
21,1,0.01575,0.02248,0,0,0.0*
21,1,0.00791,0.03032,0,0,0.0*
1,1,0.00784,0.00396,-0.01124*
1,1,0.00784,-0.00396,-0.01124*
1,1,0.00784,-0.00396,0.01124*
1,1,0.00784,0.00396,0.01124*
%
%ADD132ROUNDEDRECTD132*%
%ADD133O,0.05118X0.01968*%
%ADD134O,0.02165X0.05906*%
%ADD135R,0.05394X0.06694*%
%ADD136R,0.06694X0.05394*%
%ADD137R,0.05512X0.07677*%
%ADD138R,0.12598X0.16142*%
G04:AMPARAMS|DCode=139|XSize=31.89mil|YSize=16.14mil|CornerRadius=1.95mil|HoleSize=0mil|Usage=FLASHONLY|Rotation=0.000|XOffset=0mil|YOffset=0mil|HoleType=Round|Shape=RoundedRectangle|*
%AMROUNDEDRECTD139*
21,1,0.03189,0.01225,0,0,0.0*
21,1,0.02800,0.01614,0,0,0.0*
1,1,0.00389,0.01400,-0.00612*
1,1,0.00389,-0.01400,-0.00612*
1,1,0.00389,-0.01400,0.00612*
1,1,0.00389,0.01400,0.00612*
%
%ADD139ROUNDEDRECTD139*%
G04:AMPARAMS|DCode=140|XSize=29.92mil|YSize=16.14mil|CornerRadius=1.95mil|HoleSize=0mil|Usage=FLASHONLY|Rotation=0.000|XOffset=0mil|YOffset=0mil|HoleType=Round|Shape=RoundedRectangle|*
%AMROUNDEDRECTD140*
21,1,0.02992,0.01225,0,0,0.0*
21,1,0.02603,0.01614,0,0,0.0*
1,1,0.00389,0.01301,-0.00612*
1,1,0.00389,-0.01301,-0.00612*
1,1,0.00389,-0.01301,0.00612*
1,1,0.00389,0.01301,0.00612*
%
%ADD140ROUNDEDRECTD140*%
G04:AMPARAMS|DCode=141|XSize=27.56mil|YSize=43.31mil|CornerRadius=7.87mil|HoleSize=0mil|Usage=FLASHONLY|Rotation=180.000|XOffset=0mil|YOffset=0mil|HoleType=Round|Shape=RoundedRectangle|*
%AMROUNDEDRECTD141*
21,1,0.02756,0.02756,0,0,180.0*
21,1,0.01181,0.04331,0,0,180.0*
1,1,0.01575,-0.00591,0.01378*
1,1,0.01575,0.00591,0.01378*
1,1,0.01575,0.00591,-0.01378*
1,1,0.01575,-0.00591,-0.01378*
%
%ADD141ROUNDEDRECTD141*%
%ADD142R,0.08268X0.08268*%
%ADD143R,0.08268X0.08268*%
%ADD144R,0.05394X0.03394*%
%ADD145R,0.10394X0.10894*%
%ADD146R,0.03996X0.05197*%
%ADD147R,0.08894X0.11193*%
%ADD148R,0.04724X0.06693*%
%ADD149O,0.01968X0.05118*%
%ADD150R,0.21260X0.06693*%
%ADD151R,0.13780X0.05512*%
%ADD152R,0.05197X0.03996*%
G54D17*
X0126900Y0073549D02*
Y0067551D01*
X0129899D01*
X0130899Y0068550D01*
Y0069550D01*
X0129899Y0070550D01*
X0126900D01*
X0129899D01*
X0130899Y0071549D01*
Y0072549D01*
X0129899Y0073549D01*
X0126900D01*
X0133898Y0067551D02*
X0135897D01*
X0136897Y0068550D01*
Y0070550D01*
X0135897Y0071549D01*
X0133898D01*
X0132898Y0070550D01*
Y0068550D01*
X0133898Y0067551D01*
X0139896Y0072549D02*
Y0071549D01*
X0138896D01*
X0140895D01*
X0139896D01*
Y0068550D01*
X0140895Y0067551D01*
X0144894Y0072549D02*
Y0071549D01*
X0143895D01*
X0145894D01*
X0144894D01*
Y0068550D01*
X0145894Y0067551D01*
X0149893D02*
X0151892D01*
X0152892Y0068550D01*
Y0070550D01*
X0151892Y0071549D01*
X0149893D01*
X0148893Y0070550D01*
Y0068550D01*
X0149893Y0067551D01*
X0154891D02*
Y0071549D01*
X0155891D01*
X0156890Y0070550D01*
Y0067551D01*
Y0070550D01*
X0157890Y0071549D01*
X0158890Y0070550D01*
Y0067551D01*
X0170886Y0072549D02*
X0169886Y0073549D01*
X0167887D01*
X0166887Y0072549D01*
Y0071549D01*
X0167887Y0070550D01*
X0169886D01*
X0170886Y0069550D01*
Y0068550D01*
X0169886Y0067551D01*
X0167887D01*
X0166887Y0068550D01*
X0173885Y0067551D02*
X0175884D01*
X0176884Y0068550D01*
Y0070550D01*
X0175884Y0071549D01*
X0173885D01*
X0172885Y0070550D01*
Y0068550D01*
X0173885Y0067551D01*
X0178883D02*
X0180883D01*
X0179883D01*
Y0073549D01*
X0178883D01*
X0187880D02*
Y0067551D01*
X0184881D01*
X0183882Y0068550D01*
Y0070550D01*
X0184881Y0071549D01*
X0187880D01*
X0192879Y0067551D02*
X0190879D01*
X0189880Y0068550D01*
Y0070550D01*
X0190879Y0071549D01*
X0192879D01*
X0193878Y0070550D01*
Y0069550D01*
X0189880D01*
X0195878Y0071549D02*
Y0067551D01*
Y0069550D01*
X0196877Y0070550D01*
X0197877Y0071549D01*
X0198877D01*
X0348550Y0073498D02*
X0352549D01*
X0350549D01*
Y0067500D01*
X0354548Y0073498D02*
X0356547D01*
X0355548D01*
Y0067500D01*
X0354548D01*
X0356547D01*
X0359546Y0073498D02*
Y0067500D01*
X0362545D01*
X0363545Y0068500D01*
Y0072498D01*
X0362545Y0073498D01*
X0359546D01*
X0365545Y0067500D02*
Y0071499D01*
X0367544Y0073498D01*
X0369543Y0071499D01*
Y0067500D01*
Y0070499D01*
X0365545D01*
X0371543D02*
X0375541D01*
X0377541Y0072498D02*
X0378540Y0073498D01*
X0380540D01*
X0381539Y0072498D01*
Y0068500D01*
X0380540Y0067500D01*
X0378540D01*
X0377541Y0068500D01*
Y0072498D01*
X0383539Y0067500D02*
X0385538D01*
X0384538D01*
Y0073498D01*
X0383539Y0072498D01*
X0388537D02*
X0389537Y0073498D01*
X0391536D01*
X0392536Y0072498D01*
Y0068500D01*
X0391536Y0067500D01*
X0389537D01*
X0388537Y0068500D01*
Y0072498D01*
X0394535D02*
X0395535Y0073498D01*
X0397534D01*
X0398534Y0072498D01*
Y0068500D01*
X0397534Y0067500D01*
X0395535D01*
X0394535Y0068500D01*
Y0072498D01*
X0403532Y0067500D02*
Y0073498D01*
X0400533Y0070499D01*
X0404532D01*
X0410530Y0067500D02*
X0406531D01*
X0410530Y0071499D01*
Y0072498D01*
X0409530Y0073498D01*
X0407531D01*
X0406531Y0072498D01*
X0294000Y0073498D02*
X0297999D01*
X0295999D01*
Y0067500D01*
X0299998Y0073498D02*
X0301997D01*
X0300998D01*
Y0067500D01*
X0299998D01*
X0301997D01*
X0304996Y0073498D02*
Y0067500D01*
X0307996D01*
X0308995Y0068500D01*
Y0072498D01*
X0307996Y0073498D01*
X0304996D01*
X0317992Y0067500D02*
Y0073498D01*
X0319992D02*
Y0067500D01*
X0316993Y0071499D02*
X0319992D01*
X0320991D01*
X0316993Y0069499D02*
X0320991D01*
X0322991Y0071499D02*
X0323990D01*
Y0070499D01*
X0322991D01*
Y0071499D01*
Y0068500D02*
X0323990D01*
Y0067500D01*
X0322991D01*
Y0068500D01*
X0580500Y0052965D02*
X0584499D01*
X0582499D01*
Y0046966D01*
X0590497Y0052965D02*
X0586498D01*
Y0046966D01*
X0590497D01*
X0586498Y0049966D02*
X0588497D01*
X0592496Y0052965D02*
X0596495Y0046966D01*
Y0052965D02*
X0592496Y0046966D01*
X0598494D02*
Y0050965D01*
X0600493Y0052965D01*
X0602493Y0050965D01*
Y0046966D01*
Y0049966D01*
X0598494D01*
X0608491Y0051965D02*
X0607491Y0052965D01*
X0605492D01*
X0604492Y0051965D01*
Y0050965D01*
X0605492Y0049966D01*
X0607491D01*
X0608491Y0048966D01*
Y0047966D01*
X0607491Y0046966D01*
X0605492D01*
X0604492Y0047966D01*
X0616488Y0052965D02*
X0618488D01*
X0617488D01*
Y0046966D01*
X0616488D01*
X0618488D01*
X0621487D02*
Y0052965D01*
X0625486Y0046966D01*
Y0052965D01*
X0631484Y0051965D02*
X0630484Y0052965D01*
X0628484D01*
X0627485Y0051965D01*
Y0050965D01*
X0628484Y0049966D01*
X0630484D01*
X0631484Y0048966D01*
Y0047966D01*
X0630484Y0046966D01*
X0628484D01*
X0627485Y0047966D01*
X0633483Y0052965D02*
X0637482D01*
X0635482D01*
Y0046966D01*
X0639481D02*
Y0052965D01*
X0642480D01*
X0643480Y0051965D01*
Y0049966D01*
X0642480Y0048966D01*
X0639481D01*
X0641480D02*
X0643480Y0046966D01*
X0645479Y0052965D02*
Y0047966D01*
X0646479Y0046966D01*
X0648478D01*
X0649478Y0047966D01*
Y0052965D01*
X0651477Y0046966D02*
Y0052965D01*
X0653476Y0050965D01*
X0655476Y0052965D01*
Y0046966D01*
X0661474Y0052965D02*
X0657475D01*
Y0046966D01*
X0661474D01*
X0657475Y0049966D02*
X0659474D01*
X0663473Y0046966D02*
Y0052965D01*
X0667472Y0046966D01*
Y0052965D01*
X0669471D02*
X0673470D01*
X0671471D01*
Y0046966D01*
X0679468Y0051965D02*
X0678468Y0052965D01*
X0676469D01*
X0675469Y0051965D01*
Y0050965D01*
X0676469Y0049966D01*
X0678468D01*
X0679468Y0048966D01*
Y0047966D01*
X0678468Y0046966D01*
X0676469D01*
X0675469Y0047966D01*
X0454050Y0051965D02*
X0455050Y0052965D01*
X0457049D01*
X0458049Y0051965D01*
Y0050965D01*
X0457049Y0049966D01*
X0458049Y0048966D01*
Y0047966D01*
X0457049Y0046966D01*
X0455050D01*
X0454050Y0047966D01*
Y0048966D01*
X0455050Y0049966D01*
X0454050Y0050965D01*
Y0051965D01*
X0455050Y0049966D02*
X0457049D01*
X0460048Y0050965D02*
X0461048D01*
Y0049966D01*
X0460048D01*
Y0050965D01*
Y0047966D02*
X0461048D01*
Y0046966D01*
X0460048D01*
Y0047966D01*
X0468046Y0046966D02*
Y0052965D01*
X0465046Y0049966D01*
X0469045D01*
X0471044Y0051965D02*
X0472044Y0052965D01*
X0474044D01*
X0475043Y0051965D01*
Y0050965D01*
X0474044Y0049966D01*
X0475043Y0048966D01*
Y0047966D01*
X0474044Y0046966D01*
X0472044D01*
X0471044Y0047966D01*
Y0048966D01*
X0472044Y0049966D01*
X0471044Y0050965D01*
Y0051965D01*
X0472044Y0049966D02*
X0474044D01*
X0477043Y0050965D02*
X0478042D01*
Y0049966D01*
X0477043D01*
Y0050965D01*
Y0047966D02*
X0478042D01*
Y0046966D01*
X0477043D01*
Y0047966D01*
X0485040Y0046966D02*
Y0052965D01*
X0482041Y0049966D01*
X0486040D01*
X0492038Y0052965D02*
X0488039D01*
Y0049966D01*
X0490038Y0050965D01*
X0491038D01*
X0492038Y0049966D01*
Y0047966D01*
X0491038Y0046966D01*
X0489039D01*
X0488039Y0047966D01*
X0500035Y0046966D02*
Y0050965D01*
X0502035Y0052965D01*
X0504034Y0050965D01*
Y0046966D01*
Y0049966D01*
X0500035D01*
X0506033Y0046966D02*
Y0052965D01*
X0508033Y0050965D01*
X0510032Y0052965D01*
Y0046966D01*
X0046350D02*
Y0052965D01*
X0049349D01*
X0050349Y0051965D01*
Y0049966D01*
X0049349Y0048966D01*
X0046350D01*
X0052348Y0052965D02*
Y0046966D01*
X0056347D01*
X0061345Y0052965D02*
X0059346D01*
X0058346Y0051965D01*
Y0047966D01*
X0059346Y0046966D01*
X0061345D01*
X0062345Y0047966D01*
Y0051965D01*
X0061345Y0052965D01*
X0064344D02*
X0068343D01*
X0066343D01*
Y0046966D01*
X0076340D02*
Y0052965D01*
X0080339Y0046966D01*
Y0052965D01*
X0082338Y0046966D02*
Y0050965D01*
X0084338Y0052965D01*
X0086337Y0050965D01*
Y0046966D01*
Y0049966D01*
X0082338D01*
X0088336Y0046966D02*
Y0052965D01*
X0090336Y0050965D01*
X0092335Y0052965D01*
Y0046966D01*
X0098333Y0052965D02*
X0094335D01*
Y0046966D01*
X0098333D01*
X0094335Y0049966D02*
X0096334D01*
X0106331Y0048966D02*
X0110329D01*
X0106331Y0050965D02*
X0110329D01*
X0046350Y0073549D02*
Y0067551D01*
X0050349D01*
X0052348D02*
Y0071549D01*
X0054347Y0073549D01*
X0056347Y0071549D01*
Y0067551D01*
Y0070550D01*
X0052348D01*
X0058346Y0073549D02*
Y0072549D01*
X0060346Y0070550D01*
X0062345Y0072549D01*
Y0073549D01*
X0060346Y0070550D02*
Y0067551D01*
X0068343Y0073549D02*
X0064344D01*
Y0067551D01*
X0068343D01*
X0064344Y0070550D02*
X0066343D01*
X0070342Y0067551D02*
Y0073549D01*
X0073341D01*
X0074341Y0072549D01*
Y0070550D01*
X0073341Y0069550D01*
X0070342D01*
X0072342D02*
X0074341Y0067551D01*
X0082338D02*
Y0073549D01*
X0086337Y0067551D01*
Y0073549D01*
X0088336Y0067551D02*
Y0071549D01*
X0090336Y0073549D01*
X0092335Y0071549D01*
Y0067551D01*
Y0070550D01*
X0088336D01*
X0094335Y0067551D02*
Y0073549D01*
X0096334Y0071549D01*
X0098333Y0073549D01*
Y0067551D01*
X0104331Y0073549D02*
X0100332D01*
Y0067551D01*
X0104331D01*
X0100332Y0070550D02*
X0102332D01*
X0112329Y0069550D02*
X0116327D01*
X0112329Y0071549D02*
X0116327D01*
X0294000Y0093831D02*
Y0087833D01*
X0296999D01*
X0297999Y0088833D01*
Y0089833D01*
X0296999Y0090832D01*
X0294000D01*
X0296999D01*
X0297999Y0091832D01*
Y0092832D01*
X0296999Y0093831D01*
X0294000D01*
X0302997D02*
X0300998D01*
X0299998Y0092832D01*
Y0088833D01*
X0300998Y0087833D01*
X0302997D01*
X0303997Y0088833D01*
Y0092832D01*
X0302997Y0093831D01*
X0305996Y0087833D02*
Y0091832D01*
X0307996Y0093831D01*
X0309995Y0091832D01*
Y0087833D01*
Y0090832D01*
X0305996D01*
X0311994Y0087833D02*
Y0093831D01*
X0314993D01*
X0315993Y0092832D01*
Y0090832D01*
X0314993Y0089833D01*
X0311994D01*
X0313994D02*
X0315993Y0087833D01*
X0317992Y0093831D02*
Y0087833D01*
X0320991D01*
X0321991Y0088833D01*
Y0092832D01*
X0320991Y0093831D01*
X0317992D01*
X0330988Y0087833D02*
Y0093831D01*
X0332987D02*
Y0087833D01*
X0329988Y0091832D02*
X0332987D01*
X0333987D01*
X0329988Y0089833D02*
X0333987D01*
X0335986Y0091832D02*
X0336986D01*
Y0090832D01*
X0335986D01*
Y0091832D01*
Y0088833D02*
X0336986D01*
Y0087833D01*
X0335986D01*
Y0088833D01*
X0348550Y0093831D02*
X0352549D01*
X0350549D01*
Y0087833D01*
X0354548Y0093831D02*
X0356547D01*
X0355548D01*
Y0087833D01*
X0354548D01*
X0356547D01*
X0359546Y0093831D02*
Y0087833D01*
X0362545D01*
X0363545Y0088833D01*
Y0092832D01*
X0362545Y0093831D01*
X0359546D01*
X0365545Y0087833D02*
Y0091832D01*
X0367544Y0093831D01*
X0369543Y0091832D01*
Y0087833D01*
Y0090832D01*
X0365545D01*
X0371543D02*
X0375541D01*
X0377541Y0092832D02*
X0378540Y0093831D01*
X0380540D01*
X0381539Y0092832D01*
Y0088833D01*
X0380540Y0087833D01*
X0378540D01*
X0377541Y0088833D01*
Y0092832D01*
X0383539Y0087833D02*
X0385538D01*
X0384538D01*
Y0093831D01*
X0383539Y0092832D01*
X0388537D02*
X0389537Y0093831D01*
X0391536D01*
X0392536Y0092832D01*
Y0088833D01*
X0391536Y0087833D01*
X0389537D01*
X0388537Y0088833D01*
Y0092832D01*
X0394535D02*
X0395535Y0093831D01*
X0397534D01*
X0398534Y0092832D01*
Y0088833D01*
X0397534Y0087833D01*
X0395535D01*
X0394535Y0088833D01*
Y0092832D01*
X0403532Y0087833D02*
Y0093831D01*
X0400533Y0090832D01*
X0404532D01*
X0410530Y0087833D02*
X0406531D01*
X0410530Y0091832D01*
Y0092832D01*
X0409530Y0093831D01*
X0407531D01*
X0406531Y0092832D01*
X0466149Y0093831D02*
X0462150D01*
Y0087833D01*
X0466149D01*
X0462150Y0090832D02*
X0464149D01*
X0472147Y0087833D02*
X0468148D01*
X0472147Y0091832D01*
Y0092832D01*
X0471147Y0093831D01*
X0469148D01*
X0468148Y0092832D01*
X0046350Y0087833D02*
Y0091832D01*
X0048349Y0093831D01*
X0050349Y0091832D01*
Y0087833D01*
Y0090832D01*
X0046350D01*
X0052348Y0093831D02*
Y0087833D01*
X0056347D01*
X0058346Y0093831D02*
Y0087833D01*
X0062345D01*
X0070342D02*
Y0091832D01*
X0072342Y0093831D01*
X0074341Y0091832D01*
Y0087833D01*
Y0090832D01*
X0070342D01*
X0076340Y0087833D02*
Y0093831D01*
X0079339D01*
X0080339Y0092832D01*
Y0090832D01*
X0079339Y0089833D01*
X0076340D01*
X0078340D02*
X0080339Y0087833D01*
X0082338Y0093831D02*
X0086337D01*
X0084338D01*
Y0087833D01*
X0088336Y0093831D02*
Y0087833D01*
X0090336Y0089833D01*
X0092335Y0087833D01*
Y0093831D01*
X0097334D02*
X0095334D01*
X0094335Y0092832D01*
Y0088833D01*
X0095334Y0087833D01*
X0097334D01*
X0098333Y0088833D01*
Y0092832D01*
X0097334Y0093831D01*
X0100332Y0087833D02*
Y0093831D01*
X0103332D01*
X0104331Y0092832D01*
Y0090832D01*
X0103332Y0089833D01*
X0100332D01*
X0102332D02*
X0104331Y0087833D01*
X0106331Y0093831D02*
Y0087833D01*
Y0089833D01*
X0110329Y0093831D01*
X0107330Y0090832D01*
X0110329Y0087833D01*
X0118327Y0093831D02*
Y0089833D01*
X0120326Y0087833D01*
X0122325Y0089833D01*
Y0093831D01*
X0124325D02*
X0126324D01*
X0125324D01*
Y0087833D01*
X0124325D01*
X0126324D01*
X0133322Y0093831D02*
X0129323D01*
Y0087833D01*
X0133322D01*
X0129323Y0090832D02*
X0131323D01*
X0135321Y0093831D02*
Y0087833D01*
X0137321Y0089833D01*
X0139320Y0087833D01*
Y0093831D01*
X0145318D02*
X0141319D01*
Y0087833D01*
X0145318D01*
X0141319Y0090832D02*
X0143319D01*
X0147317Y0093831D02*
Y0087833D01*
X0150316D01*
X0151316Y0088833D01*
Y0092832D01*
X0150316Y0093831D01*
X0147317D01*
X0163312D02*
X0159313D01*
Y0090832D01*
X0161313D01*
X0159313D01*
Y0087833D01*
X0165312D02*
Y0093831D01*
X0168310D01*
X0169310Y0092832D01*
Y0090832D01*
X0168310Y0089833D01*
X0165312D01*
X0167311D02*
X0169310Y0087833D01*
X0174309Y0093831D02*
X0172309D01*
X0171310Y0092832D01*
Y0088833D01*
X0172309Y0087833D01*
X0174309D01*
X0175308Y0088833D01*
Y0092832D01*
X0174309Y0093831D01*
X0177308Y0087833D02*
Y0093831D01*
X0179307Y0091832D01*
X0181306Y0093831D01*
Y0087833D01*
X0189304Y0093831D02*
X0193303D01*
X0191303D01*
Y0087833D01*
X0198301Y0093831D02*
X0196301D01*
X0195302Y0092832D01*
Y0088833D01*
X0196301Y0087833D01*
X0198301D01*
X0199301Y0088833D01*
Y0092832D01*
X0198301Y0093831D01*
X0201300Y0087833D02*
Y0093831D01*
X0204299D01*
X0205299Y0092832D01*
Y0090832D01*
X0204299Y0089833D01*
X0201300D01*
X0217295Y0092832D02*
X0216295Y0093831D01*
X0214296D01*
X0213296Y0092832D01*
Y0091832D01*
X0214296Y0090832D01*
X0216295D01*
X0217295Y0089833D01*
Y0088833D01*
X0216295Y0087833D01*
X0214296D01*
X0213296Y0088833D01*
X0219294Y0093831D02*
X0221293D01*
X0220294D01*
Y0087833D01*
X0219294D01*
X0221293D01*
X0224292Y0093831D02*
Y0087833D01*
X0227291D01*
X0228291Y0088833D01*
Y0092832D01*
X0227291Y0093831D01*
X0224292D01*
X0234289D02*
X0230291D01*
Y0087833D01*
X0234289D01*
X0230291Y0090832D02*
X0232290D01*
X0298199Y0051965D02*
X0297199Y0052965D01*
X0295200D01*
X0294200Y0051965D01*
Y0047966D01*
X0295200Y0046966D01*
X0297199D01*
X0298199Y0047966D01*
Y0049966D01*
X0296199D01*
X0304197Y0052965D02*
X0300198D01*
Y0046966D01*
X0304197D01*
X0300198Y0049966D02*
X0302197D01*
X0306196Y0046966D02*
Y0052965D01*
X0310195Y0046966D01*
Y0052965D01*
X0316193D02*
X0312194D01*
Y0046966D01*
X0316193D01*
X0312194Y0049966D02*
X0314194D01*
X0318192Y0046966D02*
Y0052965D01*
X0321191D01*
X0322191Y0051965D01*
Y0049966D01*
X0321191Y0048966D01*
X0318192D01*
X0320192D02*
X0322191Y0046966D01*
X0324190D02*
Y0050965D01*
X0326190Y0052965D01*
X0328189Y0050965D01*
Y0046966D01*
Y0049966D01*
X0324190D01*
X0330188Y0052965D02*
X0334187D01*
X0332188D01*
Y0046966D01*
X0340185Y0052965D02*
X0336186D01*
Y0046966D01*
X0340185D01*
X0336186Y0049966D02*
X0338186D01*
X0342184Y0052965D02*
Y0046966D01*
X0345183D01*
X0346183Y0047966D01*
Y0051965D01*
X0345183Y0052965D01*
X0342184D01*
X0372175Y0050965D02*
X0373175D01*
Y0049966D01*
X0372175D01*
Y0050965D01*
Y0047966D02*
X0373175D01*
Y0046966D01*
X0372175D01*
Y0047966D01*
X0381150Y0046966D02*
X0383149D01*
X0382150D01*
Y0052965D01*
X0381150Y0051965D01*
X0386148Y0046966D02*
X0388148D01*
X0387148D01*
Y0052965D01*
X0386148Y0051965D01*
X0391147Y0046966D02*
X0395146Y0050965D01*
X0397145Y0046966D02*
X0399144D01*
X0398145D01*
Y0052965D01*
X0397145Y0051965D01*
X0402143D02*
X0403143Y0052965D01*
X0405142D01*
X0406142Y0051965D01*
Y0050965D01*
X0405142Y0049966D01*
X0404143D01*
X0405142D01*
X0406142Y0048966D01*
Y0047966D01*
X0405142Y0046966D01*
X0403143D01*
X0402143Y0047966D01*
X0408141Y0046966D02*
X0412140Y0050965D01*
X0418138Y0046966D02*
X0414139D01*
X0418138Y0050965D01*
Y0051965D01*
X0417138Y0052965D01*
X0415139D01*
X0414139Y0051965D01*
X0420137D02*
X0421137Y0052965D01*
X0423136D01*
X0424136Y0051965D01*
Y0047966D01*
X0423136Y0046966D01*
X0421137D01*
X0420137Y0047966D01*
Y0051965D01*
X0426135Y0046966D02*
X0428135D01*
X0427135D01*
Y0052965D01*
X0426135Y0051965D01*
X0431134D02*
X0432133Y0052965D01*
X0434133D01*
X0435133Y0051965D01*
Y0050965D01*
X0434133Y0049966D01*
X0435133Y0048966D01*
Y0047966D01*
X0434133Y0046966D01*
X0432133D01*
X0431134Y0047966D01*
Y0048966D01*
X0432133Y0049966D01*
X0431134Y0050965D01*
Y0051965D01*
X0432133Y0049966D02*
X0434133D01*
X0433000Y0087833D02*
Y0093831D01*
X0435999D01*
X0436999Y0092832D01*
Y0090832D01*
X0435999Y0089833D01*
X0433000D01*
X0434999D02*
X0436999Y0087833D01*
X0442997Y0093831D02*
X0438998D01*
Y0087833D01*
X0442997D01*
X0438998Y0090832D02*
X0440997D01*
X0444996Y0093831D02*
Y0089833D01*
X0446995Y0087833D01*
X0448995Y0089833D01*
Y0093831D01*
X0450994Y0091832D02*
X0451994D01*
Y0090832D01*
X0450994D01*
Y0091832D01*
Y0088833D02*
X0451994D01*
Y0087833D01*
X0450994D01*
Y0088833D01*
X0520799Y0092832D02*
X0519799Y0093831D01*
X0517800D01*
X0516800Y0092832D01*
Y0091832D01*
X0517800Y0090832D01*
X0519799D01*
X0520799Y0089833D01*
Y0088833D01*
X0519799Y0087833D01*
X0517800D01*
X0516800Y0088833D01*
X0522798Y0093831D02*
Y0089833D01*
X0524797Y0087833D01*
X0526797Y0089833D01*
Y0093831D01*
X0528796Y0087833D02*
Y0093831D01*
X0532795Y0087833D01*
Y0093831D01*
X0540792Y0087833D02*
Y0093831D01*
X0543791D01*
X0544791Y0092832D01*
Y0090832D01*
X0543791Y0089833D01*
X0540792D01*
X0542792D02*
X0544791Y0087833D01*
X0550789Y0093831D02*
X0546790D01*
Y0087833D01*
X0550789D01*
X0546790Y0090832D02*
X0548790D01*
X0552788Y0093831D02*
Y0089833D01*
X0554788Y0087833D01*
X0556787Y0089833D01*
Y0093831D01*
X0558786Y0091832D02*
X0559786D01*
Y0090832D01*
X0558786D01*
Y0091832D01*
Y0088833D02*
X0559786D01*
Y0087833D01*
X0558786D01*
Y0088833D01*
X0567400Y0087833D02*
Y0093831D01*
X0571399Y0087833D01*
Y0093831D01*
X0574398Y0087833D02*
X0576397D01*
X0577397Y0088833D01*
Y0090832D01*
X0576397Y0091832D01*
X0574398D01*
X0573398Y0090832D01*
Y0088833D01*
X0574398Y0087833D01*
X0580396Y0092832D02*
Y0091832D01*
X0579396D01*
X0581395D01*
X0580396D01*
Y0088833D01*
X0581395Y0087833D01*
X0590393Y0093831D02*
X0592392D01*
X0591392D01*
Y0087833D01*
X0590393D01*
X0592392D01*
X0595391D02*
Y0091832D01*
X0598390D01*
X0599390Y0090832D01*
Y0087833D01*
X0607387Y0093831D02*
Y0089833D01*
X0609386Y0087833D01*
X0611386Y0089833D01*
Y0093831D01*
X0616384Y0087833D02*
X0614385D01*
X0613385Y0088833D01*
Y0090832D01*
X0614385Y0091832D01*
X0616384D01*
X0617384Y0090832D01*
Y0089833D01*
X0613385D01*
X0619383Y0091832D02*
Y0087833D01*
Y0089833D01*
X0620383Y0090832D01*
X0621383Y0091832D01*
X0622382D01*
X0625381Y0087833D02*
X0628380D01*
X0629380Y0088833D01*
X0628380Y0089833D01*
X0626381D01*
X0625381Y0090832D01*
X0626381Y0091832D01*
X0629380D01*
X0631379Y0087833D02*
X0633379D01*
X0632379D01*
Y0091832D01*
X0631379D01*
X0637377Y0087833D02*
X0639377D01*
X0640376Y0088833D01*
Y0090832D01*
X0639377Y0091832D01*
X0637377D01*
X0636378Y0090832D01*
Y0088833D01*
X0637377Y0087833D01*
X0642376D02*
Y0091832D01*
X0645375D01*
X0646374Y0090832D01*
Y0087833D01*
X0652373Y0092832D02*
X0651373Y0093831D01*
X0649373D01*
X0648374Y0092832D01*
Y0088833D01*
X0649373Y0087833D01*
X0651373D01*
X0652373Y0088833D01*
X0655372Y0087833D02*
X0657371D01*
X0658371Y0088833D01*
Y0090832D01*
X0657371Y0091832D01*
X0655372D01*
X0654372Y0090832D01*
Y0088833D01*
X0655372Y0087833D01*
X0660370D02*
Y0091832D01*
X0663369D01*
X0664369Y0090832D01*
Y0087833D01*
X0667368Y0092832D02*
Y0091832D01*
X0666368D01*
X0668367D01*
X0667368D01*
Y0088833D01*
X0668367Y0087833D01*
X0671366Y0091832D02*
Y0087833D01*
Y0089833D01*
X0672366Y0090832D01*
X0673366Y0091832D01*
X0674365D01*
X0678364Y0087833D02*
X0680364D01*
X0681363Y0088833D01*
Y0090832D01*
X0680364Y0091832D01*
X0678364D01*
X0677364Y0090832D01*
Y0088833D01*
X0678364Y0087833D01*
X0683362D02*
X0685362D01*
X0684362D01*
Y0093831D01*
X0683362D01*
G54D21*
X0126900Y0049966D02*
X0128899D01*
X0127900D01*
Y0046966D01*
X0129899Y0049966D02*
X0130899D01*
X0130399D01*
Y0046966D01*
X0129899D01*
X0130899D01*
X0132398Y0049966D02*
Y0046966D01*
X0133898D01*
X0134398Y0047466D01*
Y0049466D01*
X0133898Y0049966D01*
X0132398D01*
X0135397Y0046966D02*
Y0048966D01*
X0136397Y0049966D01*
X0137397Y0048966D01*
Y0046966D01*
Y0048466D01*
X0135397D01*
X0138396D02*
X0140396D01*
X0141395Y0049466D02*
X0141895Y0049966D01*
X0142895D01*
X0143395Y0049466D01*
Y0047466D01*
X0142895Y0046966D01*
X0141895D01*
X0141395Y0047466D01*
Y0049466D01*
X0144394Y0046966D02*
X0145394D01*
X0144894D01*
Y0049966D01*
X0144394Y0049466D01*
X0146894D02*
X0147393Y0049966D01*
X0148393D01*
X0148893Y0049466D01*
Y0047466D01*
X0148393Y0046966D01*
X0147393D01*
X0146894Y0047466D01*
Y0049466D01*
X0149893D02*
X0150392Y0049966D01*
X0151392D01*
X0151892Y0049466D01*
Y0047466D01*
X0151392Y0046966D01*
X0150392D01*
X0149893Y0047466D01*
Y0049466D01*
X0154391Y0046966D02*
Y0049966D01*
X0152892Y0048466D01*
X0154891D01*
X0157890Y0046966D02*
X0155891D01*
X0157890Y0048966D01*
Y0049466D01*
X0157390Y0049966D01*
X0156391D01*
X0155891Y0049466D01*
X0160889Y0049966D02*
X0158890D01*
Y0046966D01*
X0160889D01*
X0158890Y0048466D02*
X0159889D01*
X0163888Y0046966D02*
X0161889D01*
X0163888Y0048966D01*
Y0049466D01*
X0163388Y0049966D01*
X0162389D01*
X0161889Y0049466D01*
X0164888Y0046966D02*
Y0047466D01*
X0165388D01*
Y0046966D01*
X0164888D01*
X0169386Y0049466D02*
X0168886Y0049966D01*
X0167887D01*
X0167387Y0049466D01*
Y0047466D01*
X0167887Y0046966D01*
X0168886D01*
X0169386Y0047466D01*
Y0048466D01*
X0168387D01*
X0170386Y0049966D02*
Y0046966D01*
X0171885D01*
X0172385Y0047466D01*
Y0047966D01*
X0171885Y0048466D01*
X0170386D01*
X0171885D01*
X0172385Y0048966D01*
Y0049466D01*
X0171885Y0049966D01*
X0170386D01*
X0175384Y0049466D02*
X0174884Y0049966D01*
X0173885D01*
X0173385Y0049466D01*
Y0048966D01*
X0173885Y0048466D01*
X0174884D01*
X0175384Y0047966D01*
Y0047466D01*
X0174884Y0046966D01*
X0173885D01*
X0173385Y0047466D01*
G54D22*
X0559400Y0039400D02*
Y0059683D01*
X0440500Y0040050D02*
X0700200D01*
Y0101050D01*
X0286500Y0040050D02*
Y0101050D01*
X0040000Y0040050D02*
Y0101050D01*
X0040050Y0040050D02*
X0197600D01*
X0040050D02*
Y0101050D01*
Y0101050D02*
X0700200D01*
X0040000Y0040050D02*
X0440500D01*
X0040000Y0060383D02*
X0700000D01*
X0040000Y0080717D02*
X0700200D01*
X0413200D02*
Y0101050D01*
X0497200Y0080717D02*
Y0101050D01*
G54D38*
X0153619Y0667000D02*
D03*
X0423219Y0666400D02*
D03*
X0429719Y0235900D02*
D03*
G54D41*
X0408569Y0470400D02*
D03*
X0414868D02*
D03*
X0143015Y0283500D02*
D03*
X0149314D02*
D03*
X0161869Y0317800D02*
D03*
X0155569D02*
D03*
X0258115Y0211900D02*
D03*
X0264414D02*
D03*
X0333069Y0243000D02*
D03*
X0339369D02*
D03*
X0333069Y0275200D02*
D03*
X0339369D02*
D03*
X0379269Y0217300D02*
D03*
X0372969D02*
D03*
X0337395Y0329724D02*
D03*
X0331096D02*
D03*
X0255720Y0329764D02*
D03*
X0249421D02*
D03*
X0343896Y0329731D02*
D03*
X0350195D02*
D03*
X0262321Y0329764D02*
D03*
X0268620D02*
D03*
X0321874Y0566400D02*
D03*
X0315575D02*
D03*
X0248475D02*
D03*
X0254774D02*
D03*
X0178661Y0242116D02*
D03*
X0172362D02*
D03*
X0162364Y0283600D02*
D03*
X0156065D02*
D03*
X0421200Y0483146D02*
D03*
X0414901D02*
D03*
X0359869Y0217300D02*
D03*
X0366168D02*
D03*
X0198207Y0337400D02*
D03*
X0191908D02*
D03*
X0249969Y0218200D02*
D03*
X0243669D02*
D03*
X0339369Y0268800D02*
D03*
X0333069D02*
D03*
X0333169Y0249800D02*
D03*
X0339469D02*
D03*
X0333069Y0256100D02*
D03*
X0339369D02*
D03*
X0333069Y0262400D02*
D03*
X0339369D02*
D03*
X0256469Y0256800D02*
D03*
X0262769D02*
D03*
X0256469Y0250500D02*
D03*
X0262769D02*
D03*
X0256469Y0244400D02*
D03*
X0262769D02*
D03*
X0243669Y0224500D02*
D03*
X0249969D02*
D03*
X0178069Y0644900D02*
D03*
X0184369D02*
D03*
G54D46*
X0408219Y0483050D02*
D03*
Y0476750D02*
D03*
X0128500Y0269750D02*
D03*
Y0263450D02*
D03*
X0135314Y0305250D02*
D03*
Y0298950D02*
D03*
X0135214Y0269750D02*
D03*
Y0263450D02*
D03*
X0275865Y0221550D02*
D03*
Y0227850D02*
D03*
X0282065Y0221550D02*
D03*
Y0227850D02*
D03*
X0288265Y0221550D02*
D03*
Y0227850D02*
D03*
X0388369Y0606950D02*
D03*
Y0600650D02*
D03*
X0329019Y0289999D02*
D03*
Y0283700D02*
D03*
X0335219Y0283700D02*
D03*
Y0289999D02*
D03*
X0431401Y0636744D02*
D03*
Y0630445D02*
D03*
X0175132Y0364550D02*
D03*
Y0358250D02*
D03*
X0188012Y0233265D02*
D03*
Y0226966D02*
D03*
X0395519Y0622688D02*
D03*
Y0616389D02*
D03*
X0315992Y0283700D02*
D03*
Y0289999D02*
D03*
X0296492Y0283700D02*
D03*
Y0289999D02*
D03*
X0302892Y0283700D02*
D03*
Y0289999D02*
D03*
X0284019Y0283701D02*
D03*
Y0290000D02*
D03*
X0277519Y0283650D02*
D03*
Y0289950D02*
D03*
X0395519Y0593311D02*
D03*
Y0587012D02*
D03*
X0305465Y0227850D02*
D03*
Y0221550D02*
D03*
X0290292Y0283700D02*
D03*
Y0289999D02*
D03*
X0309599Y0283700D02*
D03*
Y0289999D02*
D03*
X0330265Y0221550D02*
D03*
Y0227850D02*
D03*
X0324065Y0221550D02*
D03*
Y0227850D02*
D03*
X0317865Y0221550D02*
D03*
Y0227850D02*
D03*
X0311665Y0221550D02*
D03*
Y0227850D02*
D03*
X0322592Y0289999D02*
D03*
Y0283700D02*
D03*
X0144714Y0305250D02*
D03*
Y0298950D02*
D03*
G54D47*
X0243655Y0454600D02*
D03*
X0223183D02*
D03*
X0243591Y0430700D02*
D03*
X0223119D02*
D03*
X0311446Y0430700D02*
D03*
X0331919D02*
D03*
X0311446Y0454600D02*
D03*
X0331919D02*
D03*
G54D48*
X0338483Y0413900D02*
D03*
X0214191D02*
D03*
G54D49*
X0308955D02*
D03*
X0243719D02*
D03*
X0298683Y0618000D02*
D03*
G54D50*
X0363319Y0681200D02*
D03*
X0146119Y0401500D02*
D03*
X0261419Y0681200D02*
D03*
G54D51*
X0388319D02*
D03*
X0286419D02*
D03*
G54D52*
X0146119Y0426500D02*
D03*
G54D53*
X0246319Y0208700D02*
D03*
X0296119Y0208100D02*
D03*
G54D54*
X0236319Y0208700D02*
D03*
X0226319D02*
D03*
X0216319D02*
D03*
X0245619Y0245500D02*
D03*
Y0255500D02*
D03*
Y0265500D02*
D03*
X0326119Y0208100D02*
D03*
X0316119D02*
D03*
X0306119D02*
D03*
X0336119D02*
D03*
X0346119D02*
D03*
X0356119D02*
D03*
X0366119D02*
D03*
G54D55*
X0196414Y0247800D02*
D03*
G54D56*
X0206414D02*
D03*
X0216414D02*
D03*
G54D57*
X0245619Y0235500D02*
D03*
G54D58*
X0269155Y0618000D02*
D03*
G54D59*
X0139219Y0213400D02*
D03*
Y0689211D02*
D03*
X0426054D02*
D03*
Y0213400D02*
D03*
G54D60*
X0154000Y0242300D02*
D03*
X0206519Y0267400D02*
D03*
X0184200Y0208300D02*
D03*
G54D61*
X0235519Y0225600D02*
D03*
X0255019Y0224500D02*
D03*
X0230719Y0237500D02*
D03*
X0216719Y0256500D02*
D03*
X0221219Y0268900D02*
D03*
Y0287900D02*
D03*
X0230219Y0296900D02*
D03*
X0350119Y0682400D02*
D03*
Y0674600D02*
D03*
Y0678500D02*
D03*
Y0686400D02*
D03*
X0342219D02*
D03*
X0346119D02*
D03*
X0306719Y0686600D02*
D03*
X0302819D02*
D03*
X0291219Y0667700D02*
D03*
X0287319D02*
D03*
X0283419D02*
D03*
X0172569Y0628250D02*
D03*
X0183569D02*
D03*
X0178069D02*
D03*
X0370250Y0338431D02*
D03*
X0142819Y0326900D02*
D03*
X0148933Y0320786D02*
D03*
X0379769Y0261500D02*
D03*
X0348649Y0265130D02*
D03*
X0318619Y0306600D02*
D03*
X0296619Y0345200D02*
D03*
Y0350200D02*
D03*
X0353819Y0306600D02*
D03*
X0234019Y0275900D02*
D03*
X0230319D02*
D03*
X0199819Y0316600D02*
D03*
X0379768Y0269400D02*
D03*
X0356119Y0298500D02*
D03*
X0360119Y0302100D02*
D03*
X0359819Y0294800D02*
D03*
X0287319Y0345200D02*
D03*
X0258119Y0199800D02*
D03*
X0393119Y0208600D02*
D03*
X0384419Y0217300D02*
D03*
X0296065Y0216246D02*
D03*
X0191819Y0288500D02*
D03*
X0200919Y0297600D02*
D03*
X0181919Y0316600D02*
D03*
X0287319Y0350200D02*
D03*
X0175019Y0350500D02*
D03*
X0264414Y0207004D02*
D03*
X0268005Y0231986D02*
D03*
X0436019Y0636700D02*
D03*
X0411619Y0621000D02*
D03*
X0411519Y0594800D02*
D03*
X0365250Y0338431D02*
D03*
X0368119Y0343800D02*
D03*
X0323219Y0302000D02*
D03*
X0277119Y0299500D02*
D03*
X0290292Y0295227D02*
D03*
X0322619Y0294800D02*
D03*
X0326019Y0298500D02*
D03*
X0287983Y0259600D02*
D03*
X0418019Y0476600D02*
D03*
X0344319Y0268800D02*
D03*
X0344419Y0249800D02*
D03*
X0344319Y0262400D02*
D03*
X0379769Y0254500D02*
D03*
X0168014Y0322400D02*
D03*
Y0326100D02*
D03*
Y0329800D02*
D03*
X0314419Y0620700D02*
D03*
Y0616800D02*
D03*
X0310519D02*
D03*
Y0620700D02*
D03*
X0306619D02*
D03*
Y0616800D02*
D03*
X0303619Y0431400D02*
D03*
Y0435300D02*
D03*
Y0427500D02*
D03*
Y0423600D02*
D03*
Y0439200D02*
D03*
Y0447000D02*
D03*
Y0443100D02*
D03*
Y0450900D02*
D03*
Y0458700D02*
D03*
Y0454800D02*
D03*
X0251419Y0454800D02*
D03*
Y0458700D02*
D03*
Y0450900D02*
D03*
Y0443100D02*
D03*
Y0447000D02*
D03*
Y0439200D02*
D03*
Y0423600D02*
D03*
Y0427500D02*
D03*
Y0435300D02*
D03*
Y0431400D02*
D03*
X0327119Y0646800D02*
D03*
Y0650700D02*
D03*
X0342219Y0674600D02*
D03*
Y0678500D02*
D03*
X0346119D02*
D03*
Y0674600D02*
D03*
Y0682400D02*
D03*
X0342219D02*
D03*
X0302819Y0675100D02*
D03*
Y0679000D02*
D03*
X0306719D02*
D03*
Y0675100D02*
D03*
Y0682900D02*
D03*
X0302819D02*
D03*
X0283419Y0663800D02*
D03*
X0287319D02*
D03*
Y0659900D02*
D03*
X0283419D02*
D03*
X0291219D02*
D03*
Y0663800D02*
D03*
X0315992Y0294950D02*
D03*
X0302892D02*
D03*
X0296492D02*
D03*
X0284019Y0294950D02*
D03*
X0277519Y0294900D02*
D03*
X0262419Y0291200D02*
D03*
X0273319Y0283700D02*
D03*
X0284019Y0279500D02*
D03*
X0296319D02*
D03*
X0316019Y0278600D02*
D03*
X0302819Y0279600D02*
D03*
X0287365Y0265546D02*
D03*
X0310119Y0264300D02*
D03*
X0274219Y0256800D02*
D03*
X0341519Y0229700D02*
D03*
X0346619Y0235500D02*
D03*
X0355019Y0217300D02*
D03*
X0258115Y0207004D02*
D03*
X0392618Y0606950D02*
D03*
X0395419Y0583023D02*
D03*
X0365019Y0595723D02*
D03*
X0395419Y0612400D02*
D03*
X0365019Y0625100D02*
D03*
X0187919Y0337500D02*
D03*
X0407569Y0266900D02*
D03*
X0411869Y0253300D02*
D03*
X0169019Y0411200D02*
D03*
X0144714Y0294100D02*
D03*
X0143514Y0278800D02*
D03*
X0148407Y0259407D02*
D03*
X0145013Y0262849D02*
D03*
X0132414Y0293400D02*
D03*
X0130414Y0290600D02*
D03*
X0134214D02*
D03*
X0174914Y0298200D02*
D03*
X0171814Y0265700D02*
D03*
Y0269500D02*
D03*
Y0273300D02*
D03*
X0202214Y0222800D02*
D03*
X0196514Y0218121D02*
D03*
X0188012Y0222334D02*
D03*
X0167730Y0242116D02*
D03*
X0258119Y0267600D02*
D03*
X0352419Y0436600D02*
D03*
Y0432700D02*
D03*
X0348519D02*
D03*
Y0436600D02*
D03*
Y0428800D02*
D03*
X0352419D02*
D03*
X0348519Y0424900D02*
D03*
X0352419D02*
D03*
X0344619D02*
D03*
Y0428800D02*
D03*
Y0436600D02*
D03*
Y0432700D02*
D03*
X0340719Y0424900D02*
D03*
Y0428800D02*
D03*
Y0436600D02*
D03*
Y0432700D02*
D03*
X0312270Y0520680D02*
D03*
X0316170D02*
D03*
X0312270Y0516780D02*
D03*
X0316170D02*
D03*
X0308370D02*
D03*
Y0520680D02*
D03*
X0304470Y0516780D02*
D03*
Y0520680D02*
D03*
X0244919Y0520900D02*
D03*
Y0517000D02*
D03*
X0248819Y0520900D02*
D03*
Y0517000D02*
D03*
X0256619D02*
D03*
X0252719D02*
D03*
X0256619Y0520900D02*
D03*
X0252719D02*
D03*
X0186519Y0453200D02*
D03*
X0190419D02*
D03*
X0186519Y0449300D02*
D03*
X0190419D02*
D03*
X0196419Y0408300D02*
D03*
Y0412200D02*
D03*
Y0404400D02*
D03*
Y0400500D02*
D03*
X0200319Y0408300D02*
D03*
Y0412200D02*
D03*
Y0404400D02*
D03*
Y0400500D02*
D03*
X0208119D02*
D03*
X0204219D02*
D03*
X0208119Y0404400D02*
D03*
X0204219D02*
D03*
Y0412200D02*
D03*
Y0408300D02*
D03*
X0208119D02*
D03*
Y0412200D02*
D03*
X0148419Y0386000D02*
D03*
Y0381100D02*
D03*
X0153319D02*
D03*
Y0386000D02*
D03*
X0158219Y0381100D02*
D03*
Y0386000D02*
D03*
X0163119Y0381100D02*
D03*
Y0386000D02*
D03*
X0190419Y0441500D02*
D03*
Y0437600D02*
D03*
Y0433700D02*
D03*
Y0445400D02*
D03*
X0186519Y0433700D02*
D03*
Y0437600D02*
D03*
Y0441500D02*
D03*
Y0445400D02*
D03*
X0243819Y0621900D02*
D03*
X0247719D02*
D03*
Y0618000D02*
D03*
X0243819D02*
D03*
X0251619D02*
D03*
Y0621900D02*
D03*
X0255519Y0618000D02*
D03*
Y0621900D02*
D03*
Y0614100D02*
D03*
X0251619D02*
D03*
X0243819D02*
D03*
X0247719D02*
D03*
Y0644600D02*
D03*
X0243819D02*
D03*
X0251619D02*
D03*
X0255519D02*
D03*
Y0652400D02*
D03*
Y0648500D02*
D03*
X0251619Y0652400D02*
D03*
Y0648500D02*
D03*
X0243819D02*
D03*
X0247719D02*
D03*
Y0652400D02*
D03*
X0243819D02*
D03*
X0431401Y0625382D02*
D03*
X0370519Y0650700D02*
D03*
Y0646800D02*
D03*
Y0654600D02*
D03*
X0318319Y0616800D02*
D03*
Y0620700D02*
D03*
X0366619Y0654600D02*
D03*
Y0646800D02*
D03*
Y0650700D02*
D03*
X0327119Y0642900D02*
D03*
X0331019Y0650700D02*
D03*
Y0642900D02*
D03*
Y0646800D02*
D03*
X0322219Y0620700D02*
D03*
Y0616800D02*
D03*
X0249421Y0324938D02*
D03*
X0268620D02*
D03*
X0276217Y0324908D02*
D03*
X0233119Y0398800D02*
D03*
X0240419D02*
D03*
X0324291Y0399028D02*
D03*
X0314991D02*
D03*
X0331096Y0324898D02*
D03*
X0350195Y0324905D02*
D03*
X0357946Y0324874D02*
D03*
X0164619Y0369300D02*
D03*
X0373119Y0343800D02*
D03*
X0346519Y0278600D02*
D03*
X0336219Y0228400D02*
D03*
X0296219Y0247900D02*
D03*
X0292219Y0229900D02*
D03*
X0277519Y0262200D02*
D03*
Y0265900D02*
D03*
X0320632Y0246900D02*
D03*
X0300219D02*
D03*
G54D62*
X0402025Y0648064D02*
D03*
X0397498D02*
D03*
X0402025Y0653300D02*
D03*
X0397498D02*
D03*
Y0658536D02*
D03*
X0402025D02*
D03*
X0205691Y0684510D02*
D03*
X0200455D02*
D03*
X0195219D02*
D03*
X0210928D02*
D03*
X0189983D02*
D03*
Y0675455D02*
D03*
Y0670928D02*
D03*
Y0666400D02*
D03*
Y0679983D02*
D03*
X0210928Y0675455D02*
D03*
Y0670928D02*
D03*
Y0666400D02*
D03*
Y0679983D02*
D03*
X0195219D02*
D03*
X0200455D02*
D03*
X0205691D02*
D03*
Y0666400D02*
D03*
Y0670928D02*
D03*
Y0675455D02*
D03*
X0200455D02*
D03*
Y0670928D02*
D03*
Y0666400D02*
D03*
X0195219Y0675455D02*
D03*
Y0670928D02*
D03*
Y0666400D02*
D03*
X0307319Y0649035D02*
D03*
Y0653365D02*
D03*
X0319819D02*
D03*
Y0649035D02*
D03*
X0401869Y0263075D02*
D03*
Y0259925D02*
D03*
X0392970Y0658536D02*
D03*
X0388442D02*
D03*
X0383915D02*
D03*
Y0653300D02*
D03*
X0388442D02*
D03*
X0392970D02*
D03*
X0383915Y0648064D02*
D03*
X0388442D02*
D03*
X0392970D02*
D03*
X0332553Y0503145D02*
D03*
X0337080D02*
D03*
X0341608D02*
D03*
X0332553Y0497909D02*
D03*
X0337080D02*
D03*
X0341608D02*
D03*
Y0492672D02*
D03*
X0337080D02*
D03*
X0332553D02*
D03*
X0303857Y0503136D02*
D03*
X0308384D02*
D03*
X0312912D02*
D03*
X0303857Y0497900D02*
D03*
X0308384D02*
D03*
X0312912D02*
D03*
Y0492664D02*
D03*
X0308384D02*
D03*
X0303857D02*
D03*
X0230235Y0492665D02*
D03*
X0225708D02*
D03*
X0221180D02*
D03*
X0230235Y0497902D02*
D03*
X0225708D02*
D03*
X0221180D02*
D03*
Y0503138D02*
D03*
X0225708D02*
D03*
X0230235D02*
D03*
X0259639Y0503129D02*
D03*
X0255112D02*
D03*
X0250584D02*
D03*
Y0497893D02*
D03*
X0255112D02*
D03*
X0259639D02*
D03*
X0250584Y0492657D02*
D03*
X0255112D02*
D03*
X0259639D02*
D03*
X0173219Y0430500D02*
D03*
X0168691D02*
D03*
X0164164D02*
D03*
X0173219Y0435736D02*
D03*
X0168691D02*
D03*
X0164164D02*
D03*
Y0440972D02*
D03*
X0168691D02*
D03*
X0173219D02*
D03*
G54D115*
X0209796Y0665239D02*
D03*
X0191115D02*
D03*
G54D116*
X0200455Y0671459D02*
D03*
G54D117*
X0308384Y0497900D02*
D03*
X0255112Y0497893D02*
D03*
X0337080Y0497909D02*
D03*
X0225708Y0497902D02*
D03*
G54D118*
X0382753Y0643960D02*
D03*
Y0662640D02*
D03*
X0174380Y0445077D02*
D03*
Y0426396D02*
D03*
G54D119*
X0388974Y0653300D02*
D03*
X0168160Y0435736D02*
D03*
G54D120*
X0192306Y0665239D02*
D03*
X0208605D02*
D03*
G54D121*
X0315520Y0500400D02*
D03*
Y0505400D02*
D03*
Y0490400D02*
D03*
Y0495400D02*
D03*
X0247976Y0495393D02*
D03*
Y0490393D02*
D03*
Y0505393D02*
D03*
Y0500393D02*
D03*
X0344216Y0500409D02*
D03*
Y0505409D02*
D03*
Y0490409D02*
D03*
Y0495409D02*
D03*
X0218572Y0495402D02*
D03*
Y0490402D02*
D03*
Y0505402D02*
D03*
Y0500402D02*
D03*
G54D122*
X0382753Y0661450D02*
D03*
Y0645150D02*
D03*
X0174380Y0427587D02*
D03*
Y0443886D02*
D03*
G54D123*
X0232278Y0225471D02*
D03*
X0229719Y0217400D02*
D03*
X0234837D02*
D03*
G54D124*
X0212587Y0256500D02*
D03*
X0208650D02*
D03*
G54D125*
X0207955Y0679609D02*
D03*
X0202955D02*
D03*
X0197955D02*
D03*
X0192955D02*
D03*
Y0657404D02*
D03*
X0197955D02*
D03*
X0202955D02*
D03*
X0207955D02*
D03*
G54D126*
X0347546Y0337702D02*
D03*
X0342546D02*
D03*
X0337546D02*
D03*
X0332546D02*
D03*
X0347546Y0359159D02*
D03*
X0342546D02*
D03*
X0337546D02*
D03*
X0332546D02*
D03*
X0266671Y0337736D02*
D03*
X0261671D02*
D03*
X0256671D02*
D03*
X0251671D02*
D03*
X0266671Y0359193D02*
D03*
X0261671D02*
D03*
X0256671D02*
D03*
X0251671D02*
D03*
G54D127*
X0423814Y0635335D02*
D03*
Y0631595D02*
D03*
Y0627854D02*
D03*
X0412987D02*
D03*
Y0635335D02*
D03*
X0168946Y0364540D02*
D03*
Y0360800D02*
D03*
Y0357060D02*
D03*
X0158119D02*
D03*
Y0364540D02*
D03*
G54D128*
X0307319Y0651200D02*
D03*
X0319819D02*
D03*
G54D129*
X0303480Y0653759D02*
D03*
Y0651200D02*
D03*
Y0648641D02*
D03*
X0311157D02*
D03*
Y0651200D02*
D03*
Y0653759D02*
D03*
X0323657Y0648641D02*
D03*
Y0651200D02*
D03*
Y0653759D02*
D03*
X0315980D02*
D03*
Y0651200D02*
D03*
Y0648641D02*
D03*
G54D130*
X0173772Y0235029D02*
D03*
X0177512D02*
D03*
X0181252D02*
D03*
Y0224202D02*
D03*
X0173772D02*
D03*
G54D131*
X0152764Y0310311D02*
D03*
X0155323D02*
D03*
X0157882D02*
D03*
X0152764Y0292791D02*
D03*
X0155323D02*
D03*
X0157882D02*
D03*
X0160441D02*
D03*
Y0310311D02*
D03*
G54D132*
X0420019Y0495560D02*
D03*
X0416082D02*
D03*
Y0489733D02*
D03*
X0418050D02*
D03*
X0420019D02*
D03*
X0418050Y0495560D02*
D03*
G54D133*
X0387460Y0621977D02*
D03*
Y0619418D02*
D03*
Y0616859D02*
D03*
Y0614300D02*
D03*
X0365019Y0621977D02*
D03*
Y0619418D02*
D03*
Y0616859D02*
D03*
Y0614300D02*
D03*
X0387460Y0592600D02*
D03*
Y0590041D02*
D03*
Y0587482D02*
D03*
Y0584923D02*
D03*
X0365019Y0592600D02*
D03*
Y0590041D02*
D03*
Y0587482D02*
D03*
Y0584923D02*
D03*
G54D134*
X0325750Y0241439D02*
D03*
X0323191D02*
D03*
X0320632D02*
D03*
X0318073D02*
D03*
X0315514D02*
D03*
X0312955D02*
D03*
X0310396D02*
D03*
X0307837D02*
D03*
X0305278D02*
D03*
X0302719D02*
D03*
X0300160D02*
D03*
X0297601D02*
D03*
X0295042D02*
D03*
X0292483D02*
D03*
X0289924D02*
D03*
X0287365D02*
D03*
X0284805D02*
D03*
X0282246D02*
D03*
X0279687D02*
D03*
X0325750Y0271361D02*
D03*
X0323191D02*
D03*
X0320632D02*
D03*
X0318073D02*
D03*
X0315514D02*
D03*
X0312955D02*
D03*
X0310396D02*
D03*
X0307837D02*
D03*
X0305278D02*
D03*
X0302719D02*
D03*
X0300160D02*
D03*
X0297601D02*
D03*
X0295042D02*
D03*
X0292483D02*
D03*
X0289924D02*
D03*
X0287365D02*
D03*
X0284805D02*
D03*
X0282246D02*
D03*
X0279687D02*
D03*
G54D135*
X0295019Y0481400D02*
D03*
X0303019D02*
D03*
X0265273Y0481402D02*
D03*
X0273273D02*
D03*
X0346346Y0377831D02*
D03*
X0338346D02*
D03*
X0265671Y0377864D02*
D03*
X0257671D02*
D03*
X0326119Y0481400D02*
D03*
X0318119D02*
D03*
X0246873Y0481402D02*
D03*
X0238873D02*
D03*
X0380269Y0603700D02*
D03*
X0372269D02*
D03*
X0272119Y0273200D02*
D03*
X0264119D02*
D03*
X0346346Y0368631D02*
D03*
X0338346D02*
D03*
X0257671Y0368664D02*
D03*
X0265671D02*
D03*
X0190558Y0329399D02*
D03*
X0198557D02*
D03*
X0333519Y0235500D02*
D03*
X0341519D02*
D03*
X0272119Y0264400D02*
D03*
X0264119D02*
D03*
G54D136*
X0329373Y0376331D02*
D03*
Y0368331D02*
D03*
X0249171Y0368264D02*
D03*
Y0376264D02*
D03*
X0323546Y0358931D02*
D03*
Y0350931D02*
D03*
X0242371Y0358964D02*
D03*
Y0350964D02*
D03*
X0267619Y0283200D02*
D03*
Y0291200D02*
D03*
X0128419Y0358700D02*
D03*
Y0366700D02*
D03*
X0148219Y0366700D02*
D03*
Y0358700D02*
D03*
X0139419Y0366700D02*
D03*
Y0358700D02*
D03*
X0403519Y0615039D02*
D03*
Y0623039D02*
D03*
X0357946Y0338431D02*
D03*
Y0330431D02*
D03*
X0276471Y0330464D02*
D03*
Y0338464D02*
D03*
X0169214Y0306200D02*
D03*
Y0298200D02*
D03*
X0296065Y0222100D02*
D03*
Y0230100D02*
D03*
X0403519Y0585661D02*
D03*
Y0593661D02*
D03*
G54D137*
X0379610Y0635400D02*
D03*
X0391028D02*
D03*
X0180327Y0417300D02*
D03*
X0168910D02*
D03*
G54D138*
X0333380Y0681200D02*
D03*
X0316057D02*
D03*
X0269257Y0648600D02*
D03*
X0286580D02*
D03*
X0180480Y0397600D02*
D03*
X0163157D02*
D03*
G54D139*
X0317223Y0490400D02*
D03*
Y0495400D02*
D03*
Y0500400D02*
D03*
Y0505400D02*
D03*
X0295215D02*
D03*
Y0500400D02*
D03*
Y0495400D02*
D03*
Y0490400D02*
D03*
X0246273Y0505393D02*
D03*
Y0500393D02*
D03*
Y0495393D02*
D03*
Y0490393D02*
D03*
X0268281D02*
D03*
Y0495393D02*
D03*
Y0500393D02*
D03*
Y0505393D02*
D03*
X0345919Y0490409D02*
D03*
Y0495409D02*
D03*
Y0500409D02*
D03*
Y0505409D02*
D03*
X0323911D02*
D03*
Y0500409D02*
D03*
Y0495409D02*
D03*
Y0490409D02*
D03*
X0216869Y0505402D02*
D03*
Y0500402D02*
D03*
Y0495402D02*
D03*
Y0490402D02*
D03*
X0238877D02*
D03*
Y0495402D02*
D03*
Y0500402D02*
D03*
Y0505402D02*
D03*
G54D140*
X0397124Y0645800D02*
D03*
Y0650800D02*
D03*
Y0655800D02*
D03*
Y0660800D02*
D03*
X0374919D02*
D03*
Y0655800D02*
D03*
Y0650800D02*
D03*
Y0645800D02*
D03*
X0160010Y0443236D02*
D03*
Y0438236D02*
D03*
Y0433236D02*
D03*
Y0428236D02*
D03*
X0182215D02*
D03*
Y0433236D02*
D03*
Y0438236D02*
D03*
Y0443236D02*
D03*
G54D141*
X0264265Y0218176D02*
D03*
X0268005Y0227624D02*
D03*
X0260524D02*
D03*
X0143119Y0341376D02*
D03*
X0146859Y0350824D02*
D03*
X0139379D02*
D03*
G54D142*
X0357646Y0368605D02*
D03*
Y0352857D02*
D03*
X0276971Y0368638D02*
D03*
Y0352890D02*
D03*
G54D143*
X0341299Y0388631D02*
D03*
X0357047D02*
D03*
X0260643Y0388664D02*
D03*
X0276391D02*
D03*
G54D144*
X0317973Y0382631D02*
D03*
X0311719Y0360900D02*
D03*
X0230016Y0360934D02*
D03*
X0237971Y0383164D02*
D03*
G54D145*
X0317973Y0373431D02*
D03*
X0311719Y0351700D02*
D03*
X0230016Y0351734D02*
D03*
X0237971Y0373964D02*
D03*
G54D146*
X0192772Y0644900D02*
D03*
X0205666D02*
D03*
G54D147*
X0162415Y0270600D02*
D03*
X0145013D02*
D03*
G54D148*
X0135021Y0254100D02*
D03*
X0148407D02*
D03*
X0162319Y0326900D02*
D03*
X0148933D02*
D03*
G54D149*
X0197496Y0345459D02*
D03*
X0194937D02*
D03*
X0192378D02*
D03*
X0189819D02*
D03*
X0197496Y0367900D02*
D03*
X0194937D02*
D03*
X0192378D02*
D03*
X0189819D02*
D03*
G54D150*
X0270719Y0584664D02*
D03*
Y0605136D02*
D03*
X0246619Y0584764D02*
D03*
Y0605236D02*
D03*
G54D151*
X0236224Y0543186D02*
D03*
Y0566414D02*
D03*
X0334224Y0543172D02*
D03*
Y0566400D02*
D03*
G54D152*
X0196514Y0222753D02*
D03*
Y0235647D02*
D03*
M02*
